M48
; DRILL file {KiCad 5.1.5-1.fc31} date Thu 09 Apr 2020 06:30:59 AM PDT
; FORMAT={-:-/ absolute / metric / decimal}
; #@! TF.CreationDate,2020-04-09T06:30:59-07:00
; #@! TF.GenerationSoftware,Kicad,Pcbnew,5.1.5-1.fc31
; #@! TF.FileFunction,Plated,1,2,PTH
FMAT,2
METRIC
T1C0.889
T2C6.604
%
G90
G05
T1
X22.911Y37.363
X34.036Y11.227
X37.846Y11.227
X41.808Y11.278
X45.72Y11.125
X57.734Y12.141
X60.223Y12.141
X61.646Y14.986
X62.916Y12.09
X65.659Y11.176
X69.621Y11.176
X77.597Y11.125
X81.28Y14.986
X81.483Y11.227
X85.446Y11.227
X85.801Y13.513
X89.51Y11.862
X98.489Y11.874
X19.685Y27.762
X19.685Y25.222
X19.685Y22.682
X19.685Y20.142
X27.305Y27.762
X27.305Y25.222
X27.305Y22.682
X27.305Y20.142
X47.625Y37.922
X47.625Y35.382
X47.625Y32.842
X47.625Y30.302
X47.625Y27.762
X47.625Y25.222
X47.625Y22.682
X47.625Y20.142
X55.245Y37.922
X55.245Y35.382
X55.245Y32.842
X55.245Y30.302
X55.245Y27.762
X55.245Y25.222
X55.245Y22.682
X55.245Y20.142
X89.535Y35.382
X89.535Y32.842
X89.535Y30.302
X89.535Y27.762
X89.535Y25.222
X89.535Y22.682
X89.535Y20.142
X97.155Y35.382
X97.155Y32.842
X97.155Y30.302
X97.155Y27.762
X97.155Y25.222
X97.155Y22.682
X97.155Y20.142
X18.364Y34.087
X28.524Y34.087
X12.014Y14.503
X14.554Y14.503
X5.791Y14.351
X7.061Y16.51
X8.331Y14.351
X14.503Y31.623
X14.503Y21.463
X18.313Y41.707
X28.473Y41.707
X1.803Y25.273
X11.963Y25.273
X12.065Y29.032
X18.364Y31.547
X28.524Y31.547
X33.655Y35.382
X33.655Y32.842
X33.655Y30.302
X33.655Y27.762
X33.655Y25.222
X33.655Y22.682
X33.655Y20.142
X41.275Y35.382
X41.275Y32.842
X41.275Y30.302
X41.275Y27.762
X41.275Y25.222
X41.275Y22.682
X41.275Y20.142
X18.288Y39.243
X28.448Y39.243
X61.595Y37.922
X61.595Y35.382
X61.595Y32.842
X61.595Y30.302
X61.595Y27.762
X61.595Y25.222
X61.595Y22.682
X61.595Y20.142
X69.215Y37.922
X69.215Y35.382
X69.215Y32.842
X69.215Y30.302
X69.215Y27.762
X69.215Y25.222
X69.215Y22.682
X69.215Y20.142
X12.065Y41.681
X5.715Y20.726
X6.985Y22.885
X8.255Y20.726
X60.35Y44.323
X70.51Y44.323
X75.565Y35.382
X75.565Y32.842
X75.565Y30.302
X75.565Y27.762
X75.565Y25.222
X75.565Y22.682
X75.565Y20.142
X83.185Y35.382
X83.185Y32.842
X83.185Y30.302
X83.185Y27.762
X83.185Y25.222
X83.185Y22.682
X83.185Y20.142
X18.288Y36.703
X28.448Y36.703
X18.339Y14.427
X28.499Y14.427
X46.228Y44.298
X56.388Y44.298
X18.974Y44.272
X27.864Y44.272
T2
X5.791Y32.842
X5.791Y44.018
T0
M30
