G04 #@! TF.GenerationSoftware,KiCad,Pcbnew,5.1.5-1.fc31*
G04 #@! TF.CreationDate,2020-03-04T22:56:45-08:00*
G04 #@! TF.ProjectId,cassette_interface,63617373-6574-4746-955f-696e74657266,rev?*
G04 #@! TF.SameCoordinates,PX60e4b00PY791ddc0*
G04 #@! TF.FileFunction,Legend,Top*
G04 #@! TF.FilePolarity,Positive*
%FSLAX46Y46*%
G04 Gerber Fmt 4.6, Leading zero omitted, Abs format (unit mm)*
G04 Created by KiCad (PCBNEW 5.1.5-1.fc31) date 2020-03-04 22:56:45*
%MOMM*%
%LPD*%
G04 APERTURE LIST*
%ADD10C,0.150000*%
G04 APERTURE END LIST*
D10*
X5457866Y32889820D02*
X5457866Y32175534D01*
X5410247Y32032677D01*
X5315009Y31937439D01*
X5172152Y31889820D01*
X5076914Y31889820D01*
X5886438Y32794581D02*
X5934057Y32842200D01*
X6029295Y32889820D01*
X6267390Y32889820D01*
X6362628Y32842200D01*
X6410247Y32794581D01*
X6457866Y32699343D01*
X6457866Y32604105D01*
X6410247Y32461248D01*
X5838819Y31889820D01*
X6457866Y31889820D01*
X5457866Y44065820D02*
X5457866Y43351534D01*
X5410247Y43208677D01*
X5315009Y43113439D01*
X5172152Y43065820D01*
X5076914Y43065820D01*
X5838819Y44065820D02*
X6457866Y44065820D01*
X6124533Y43684867D01*
X6267390Y43684867D01*
X6362628Y43637248D01*
X6410247Y43589629D01*
X6457866Y43494391D01*
X6457866Y43256296D01*
X6410247Y43161058D01*
X6362628Y43113439D01*
X6267390Y43065820D01*
X5981676Y43065820D01*
X5886438Y43113439D01*
X5838819Y43161058D01*
X15719466Y98420D02*
X15719466Y-615866D01*
X15671847Y-758723D01*
X15576609Y-853961D01*
X15433752Y-901580D01*
X15338514Y-901580D01*
X16719466Y-901580D02*
X16148038Y-901580D01*
X16433752Y-901580D02*
X16433752Y98420D01*
X16338514Y-44438D01*
X16243276Y-139676D01*
X16148038Y-187295D01*
X82423095Y21189820D02*
X82423095Y20380296D01*
X82470714Y20285058D01*
X82518333Y20237439D01*
X82613571Y20189820D01*
X82804047Y20189820D01*
X82899285Y20237439D01*
X82946904Y20285058D01*
X82994523Y20380296D01*
X82994523Y21189820D01*
X83994523Y20189820D02*
X83423095Y20189820D01*
X83708809Y20189820D02*
X83708809Y21189820D01*
X83613571Y21046962D01*
X83518333Y20951724D01*
X83423095Y20904105D01*
X96393095Y21189820D02*
X96393095Y20380296D01*
X96440714Y20285058D01*
X96488333Y20237439D01*
X96583571Y20189820D01*
X96774047Y20189820D01*
X96869285Y20237439D01*
X96916904Y20285058D01*
X96964523Y20380296D01*
X96964523Y21189820D01*
X97393095Y21094581D02*
X97440714Y21142200D01*
X97535952Y21189820D01*
X97774047Y21189820D01*
X97869285Y21142200D01*
X97916904Y21094581D01*
X97964523Y20999343D01*
X97964523Y20904105D01*
X97916904Y20761248D01*
X97345476Y20189820D01*
X97964523Y20189820D01*
X26543095Y21189820D02*
X26543095Y20380296D01*
X26590714Y20285058D01*
X26638333Y20237439D01*
X26733571Y20189820D01*
X26924047Y20189820D01*
X27019285Y20237439D01*
X27066904Y20285058D01*
X27114523Y20380296D01*
X27114523Y21189820D01*
X27495476Y21189820D02*
X28114523Y21189820D01*
X27781190Y20808867D01*
X27924047Y20808867D01*
X28019285Y20761248D01*
X28066904Y20713629D01*
X28114523Y20618391D01*
X28114523Y20380296D01*
X28066904Y20285058D01*
X28019285Y20237439D01*
X27924047Y20189820D01*
X27638333Y20189820D01*
X27543095Y20237439D01*
X27495476Y20285058D01*
X40513095Y21189820D02*
X40513095Y20380296D01*
X40560714Y20285058D01*
X40608333Y20237439D01*
X40703571Y20189820D01*
X40894047Y20189820D01*
X40989285Y20237439D01*
X41036904Y20285058D01*
X41084523Y20380296D01*
X41084523Y21189820D01*
X41989285Y20856486D02*
X41989285Y20189820D01*
X41751190Y21237439D02*
X41513095Y20523153D01*
X42132142Y20523153D01*
X68453095Y21189820D02*
X68453095Y20380296D01*
X68500714Y20285058D01*
X68548333Y20237439D01*
X68643571Y20189820D01*
X68834047Y20189820D01*
X68929285Y20237439D01*
X68976904Y20285058D01*
X69024523Y20380296D01*
X69024523Y21189820D01*
X69976904Y21189820D02*
X69500714Y21189820D01*
X69453095Y20713629D01*
X69500714Y20761248D01*
X69595952Y20808867D01*
X69834047Y20808867D01*
X69929285Y20761248D01*
X69976904Y20713629D01*
X70024523Y20618391D01*
X70024523Y20380296D01*
X69976904Y20285058D01*
X69929285Y20237439D01*
X69834047Y20189820D01*
X69595952Y20189820D01*
X69500714Y20237439D01*
X69453095Y20285058D01*
X54483095Y21189820D02*
X54483095Y20380296D01*
X54530714Y20285058D01*
X54578333Y20237439D01*
X54673571Y20189820D01*
X54864047Y20189820D01*
X54959285Y20237439D01*
X55006904Y20285058D01*
X55054523Y20380296D01*
X55054523Y21189820D01*
X55959285Y21189820D02*
X55768809Y21189820D01*
X55673571Y21142200D01*
X55625952Y21094581D01*
X55530714Y20951724D01*
X55483095Y20761248D01*
X55483095Y20380296D01*
X55530714Y20285058D01*
X55578333Y20237439D01*
X55673571Y20189820D01*
X55864047Y20189820D01*
X55959285Y20237439D01*
X56006904Y20285058D01*
X56054523Y20380296D01*
X56054523Y20618391D01*
X56006904Y20713629D01*
X55959285Y20761248D01*
X55864047Y20808867D01*
X55673571Y20808867D01*
X55578333Y20761248D01*
X55530714Y20713629D01*
X55483095Y20618391D01*
X22617133Y45185058D02*
X22569514Y45137439D01*
X22426657Y45089820D01*
X22331419Y45089820D01*
X22188561Y45137439D01*
X22093323Y45232677D01*
X22045704Y45327915D01*
X21998085Y45518391D01*
X21998085Y45661248D01*
X22045704Y45851724D01*
X22093323Y45946962D01*
X22188561Y46042200D01*
X22331419Y46089820D01*
X22426657Y46089820D01*
X22569514Y46042200D01*
X22617133Y45994581D01*
X23569514Y45089820D02*
X22998085Y45089820D01*
X23283800Y45089820D02*
X23283800Y46089820D01*
X23188561Y45946962D01*
X23093323Y45851724D01*
X22998085Y45804105D01*
X12546104Y11511020D02*
X12546104Y12511020D01*
X12784200Y12511020D01*
X12927057Y12463400D01*
X13022295Y12368162D01*
X13069914Y12272924D01*
X13117533Y12082448D01*
X13117533Y11939591D01*
X13069914Y11749115D01*
X13022295Y11653877D01*
X12927057Y11558639D01*
X12784200Y11511020D01*
X12546104Y11511020D01*
X14069914Y11511020D02*
X13498485Y11511020D01*
X13784200Y11511020D02*
X13784200Y12511020D01*
X13688961Y12368162D01*
X13593723Y12272924D01*
X13498485Y12225305D01*
X6889761Y17638781D02*
X6794523Y17686400D01*
X6699285Y17781639D01*
X6556428Y17924496D01*
X6461190Y17972115D01*
X6365952Y17972115D01*
X6413571Y17734020D02*
X6318333Y17781639D01*
X6223095Y17876877D01*
X6175476Y18067353D01*
X6175476Y18400686D01*
X6223095Y18591162D01*
X6318333Y18686400D01*
X6413571Y18734020D01*
X6604047Y18734020D01*
X6699285Y18686400D01*
X6794523Y18591162D01*
X6842142Y18400686D01*
X6842142Y18067353D01*
X6794523Y17876877D01*
X6699285Y17781639D01*
X6604047Y17734020D01*
X6413571Y17734020D01*
X7794523Y17734020D02*
X7223095Y17734020D01*
X7508809Y17734020D02*
X7508809Y18734020D01*
X7413571Y18591162D01*
X7318333Y18495924D01*
X7223095Y18448305D01*
X6965961Y11263381D02*
X6870723Y11311000D01*
X6775485Y11406239D01*
X6632628Y11549096D01*
X6537390Y11596715D01*
X6442152Y11596715D01*
X6489771Y11358620D02*
X6394533Y11406239D01*
X6299295Y11501477D01*
X6251676Y11691953D01*
X6251676Y12025286D01*
X6299295Y12215762D01*
X6394533Y12311000D01*
X6489771Y12358620D01*
X6680247Y12358620D01*
X6775485Y12311000D01*
X6870723Y12215762D01*
X6918342Y12025286D01*
X6918342Y11691953D01*
X6870723Y11501477D01*
X6775485Y11406239D01*
X6680247Y11358620D01*
X6489771Y11358620D01*
X7299295Y12263381D02*
X7346914Y12311000D01*
X7442152Y12358620D01*
X7680247Y12358620D01*
X7775485Y12311000D01*
X7823104Y12263381D01*
X7870723Y12168143D01*
X7870723Y12072905D01*
X7823104Y11930048D01*
X7251676Y11358620D01*
X7870723Y11358620D01*
X6716733Y23550620D02*
X6383400Y24026810D01*
X6145304Y23550620D02*
X6145304Y24550620D01*
X6526257Y24550620D01*
X6621495Y24503000D01*
X6669114Y24455381D01*
X6716733Y24360143D01*
X6716733Y24217286D01*
X6669114Y24122048D01*
X6621495Y24074429D01*
X6526257Y24026810D01*
X6145304Y24026810D01*
X7669114Y23550620D02*
X7097685Y23550620D01*
X7383400Y23550620D02*
X7383400Y24550620D01*
X7288161Y24407762D01*
X7192923Y24312524D01*
X7097685Y24264905D01*
X23252133Y15244820D02*
X22918800Y15721010D01*
X22680704Y15244820D02*
X22680704Y16244820D01*
X23061657Y16244820D01*
X23156895Y16197200D01*
X23204514Y16149581D01*
X23252133Y16054343D01*
X23252133Y15911486D01*
X23204514Y15816248D01*
X23156895Y15768629D01*
X23061657Y15721010D01*
X22680704Y15721010D01*
X23633085Y16149581D02*
X23680704Y16197200D01*
X23775942Y16244820D01*
X24014038Y16244820D01*
X24109276Y16197200D01*
X24156895Y16149581D01*
X24204514Y16054343D01*
X24204514Y15959105D01*
X24156895Y15816248D01*
X23585466Y15244820D01*
X24204514Y15244820D01*
X23226733Y39984420D02*
X22893400Y40460610D01*
X22655304Y39984420D02*
X22655304Y40984420D01*
X23036257Y40984420D01*
X23131495Y40936800D01*
X23179114Y40889181D01*
X23226733Y40793943D01*
X23226733Y40651086D01*
X23179114Y40555848D01*
X23131495Y40508229D01*
X23036257Y40460610D01*
X22655304Y40460610D01*
X23560066Y40984420D02*
X24179114Y40984420D01*
X23845780Y40603467D01*
X23988638Y40603467D01*
X24083876Y40555848D01*
X24131495Y40508229D01*
X24179114Y40412991D01*
X24179114Y40174896D01*
X24131495Y40079658D01*
X24083876Y40032039D01*
X23988638Y39984420D01*
X23702923Y39984420D01*
X23607685Y40032039D01*
X23560066Y40079658D01*
X23201333Y40060620D02*
X22868000Y40536810D01*
X22629904Y40060620D02*
X22629904Y41060620D01*
X23010857Y41060620D01*
X23106095Y41013000D01*
X23153714Y40965381D01*
X23201333Y40870143D01*
X23201333Y40727286D01*
X23153714Y40632048D01*
X23106095Y40584429D01*
X23010857Y40536810D01*
X22629904Y40536810D01*
X24058476Y40727286D02*
X24058476Y40060620D01*
X23820380Y41108239D02*
X23582285Y40393953D01*
X24201333Y40393953D01*
X23277533Y32364420D02*
X22944200Y32840610D01*
X22706104Y32364420D02*
X22706104Y33364420D01*
X23087057Y33364420D01*
X23182295Y33316800D01*
X23229914Y33269181D01*
X23277533Y33173943D01*
X23277533Y33031086D01*
X23229914Y32935848D01*
X23182295Y32888229D01*
X23087057Y32840610D01*
X22706104Y32840610D01*
X24182295Y33364420D02*
X23706104Y33364420D01*
X23658485Y32888229D01*
X23706104Y32935848D01*
X23801342Y32983467D01*
X24039438Y32983467D01*
X24134676Y32935848D01*
X24182295Y32888229D01*
X24229914Y32792991D01*
X24229914Y32554896D01*
X24182295Y32459658D01*
X24134676Y32412039D01*
X24039438Y32364420D01*
X23801342Y32364420D01*
X23706104Y32412039D01*
X23658485Y32459658D01*
X23201333Y37520620D02*
X22868000Y37996810D01*
X22629904Y37520620D02*
X22629904Y38520620D01*
X23010857Y38520620D01*
X23106095Y38473000D01*
X23153714Y38425381D01*
X23201333Y38330143D01*
X23201333Y38187286D01*
X23153714Y38092048D01*
X23106095Y38044429D01*
X23010857Y37996810D01*
X22629904Y37996810D01*
X24058476Y38520620D02*
X23868000Y38520620D01*
X23772761Y38473000D01*
X23725142Y38425381D01*
X23629904Y38282524D01*
X23582285Y38092048D01*
X23582285Y37711096D01*
X23629904Y37615858D01*
X23677523Y37568239D01*
X23772761Y37520620D01*
X23963238Y37520620D01*
X24058476Y37568239D01*
X24106095Y37615858D01*
X24153714Y37711096D01*
X24153714Y37949191D01*
X24106095Y38044429D01*
X24058476Y38092048D01*
X23963238Y38139667D01*
X23772761Y38139667D01*
X23677523Y38092048D01*
X23629904Y38044429D01*
X23582285Y37949191D01*
X16225780Y26376334D02*
X15749590Y26043000D01*
X16225780Y25804905D02*
X15225780Y25804905D01*
X15225780Y26185858D01*
X15273400Y26281096D01*
X15321019Y26328715D01*
X15416257Y26376334D01*
X15559114Y26376334D01*
X15654352Y26328715D01*
X15701971Y26281096D01*
X15749590Y26185858D01*
X15749590Y25804905D01*
X15225780Y26709667D02*
X15225780Y27376334D01*
X16225780Y26947762D01*
X23277533Y29824420D02*
X22944200Y30300610D01*
X22706104Y29824420D02*
X22706104Y30824420D01*
X23087057Y30824420D01*
X23182295Y30776800D01*
X23229914Y30729181D01*
X23277533Y30633943D01*
X23277533Y30491086D01*
X23229914Y30395848D01*
X23182295Y30348229D01*
X23087057Y30300610D01*
X22706104Y30300610D01*
X23848961Y30395848D02*
X23753723Y30443467D01*
X23706104Y30491086D01*
X23658485Y30586324D01*
X23658485Y30633943D01*
X23706104Y30729181D01*
X23753723Y30776800D01*
X23848961Y30824420D01*
X24039438Y30824420D01*
X24134676Y30776800D01*
X24182295Y30729181D01*
X24229914Y30633943D01*
X24229914Y30586324D01*
X24182295Y30491086D01*
X24134676Y30443467D01*
X24039438Y30395848D01*
X23848961Y30395848D01*
X23753723Y30348229D01*
X23706104Y30300610D01*
X23658485Y30205372D01*
X23658485Y30014896D01*
X23706104Y29919658D01*
X23753723Y29872039D01*
X23848961Y29824420D01*
X24039438Y29824420D01*
X24134676Y29872039D01*
X24182295Y29919658D01*
X24229914Y30014896D01*
X24229914Y30205372D01*
X24182295Y30300610D01*
X24134676Y30348229D01*
X24039438Y30395848D01*
X51141333Y42575220D02*
X50808000Y43051410D01*
X50569904Y42575220D02*
X50569904Y43575220D01*
X50950857Y43575220D01*
X51046095Y43527600D01*
X51093714Y43479981D01*
X51141333Y43384743D01*
X51141333Y43241886D01*
X51093714Y43146648D01*
X51046095Y43099029D01*
X50950857Y43051410D01*
X50569904Y43051410D01*
X51617523Y42575220D02*
X51808000Y42575220D01*
X51903238Y42622839D01*
X51950857Y42670458D01*
X52046095Y42813315D01*
X52093714Y43003791D01*
X52093714Y43384743D01*
X52046095Y43479981D01*
X51998476Y43527600D01*
X51903238Y43575220D01*
X51712761Y43575220D01*
X51617523Y43527600D01*
X51569904Y43479981D01*
X51522285Y43384743D01*
X51522285Y43146648D01*
X51569904Y43051410D01*
X51617523Y43003791D01*
X51712761Y42956172D01*
X51903238Y42956172D01*
X51998476Y43003791D01*
X52046095Y43051410D01*
X52093714Y43146648D01*
X64787542Y42600620D02*
X64454209Y43076810D01*
X64216114Y42600620D02*
X64216114Y43600620D01*
X64597066Y43600620D01*
X64692304Y43553000D01*
X64739923Y43505381D01*
X64787542Y43410143D01*
X64787542Y43267286D01*
X64739923Y43172048D01*
X64692304Y43124429D01*
X64597066Y43076810D01*
X64216114Y43076810D01*
X65739923Y42600620D02*
X65168495Y42600620D01*
X65454209Y42600620D02*
X65454209Y43600620D01*
X65358971Y43457762D01*
X65263733Y43362524D01*
X65168495Y43314905D01*
X66358971Y43600620D02*
X66454209Y43600620D01*
X66549447Y43553000D01*
X66597066Y43505381D01*
X66644685Y43410143D01*
X66692304Y43219667D01*
X66692304Y42981572D01*
X66644685Y42791096D01*
X66597066Y42695858D01*
X66549447Y42648239D01*
X66454209Y42600620D01*
X66358971Y42600620D01*
X66263733Y42648239D01*
X66216114Y42695858D01*
X66168495Y42791096D01*
X66120876Y42981572D01*
X66120876Y43219667D01*
X66168495Y43410143D01*
X66216114Y43505381D01*
X66263733Y43553000D01*
X66358971Y43600620D01*
M02*
