M48
; DRILL file {KiCad 5.1.5-1.fc31} date Tue 07 Apr 2020 12:15:35 AM PDT
; FORMAT={-:-/ absolute / metric / decimal}
; #@! TF.CreationDate,2020-04-07T00:15:35-07:00
; #@! TF.GenerationSoftware,Kicad,Pcbnew,5.1.5-1.fc31
; #@! TF.FileFunction,Plated,1,4,PTH
FMAT,2
METRIC
T1C0.254
T2C0.635
%
G90
G05
T1
X0.589Y4.639
X0.599Y5.329
X0.969Y2.919
X1.989Y7.629
X2.299Y5.229
X2.439Y4.529
X3.964Y4.554
X4.129Y6.089
X4.129Y5.195
X4.339Y3.679
X4.589Y6.954
X4.639Y1.329
X4.999Y3.089
X5.449Y6.954
X5.889Y6.063
X6.039Y2.579
X6.849Y4.239
X7.289Y7.829
X7.299Y6.289
X8.139Y4.325
X8.239Y3.079
X8.889Y3.054
X9.564Y3.004
X9.739Y1.329
X9.949Y6.529
X10.759Y7.509
X10.959Y6.874
X11.009Y1.989
X11.289Y3.354
X11.534Y5.867
X11.914Y3.204
X11.99Y5.146
X12.139Y4.279
X12.366Y3.659
X12.439Y6.249
X13.039Y4.399
X13.084Y6.273
X13.089Y3.704
X13.437Y1.801
X13.629Y2.459
X14.097Y6.279
X14.129Y3.209
X14.799Y3.059
X14.839Y1.379
X14.919Y6.299
X15.199Y6.949
X15.449Y3.069
X15.623Y4.844
X15.739Y3.619
X15.929Y7.289
X16.079Y5.855
X16.409Y4.639
X16.819Y3.119
X16.879Y6.059
X17.569Y5.88
X18.219Y6.149
X18.789Y3.979
X18.939Y5.554
X12.309Y1.259
X6.439Y4.879
X17.439Y5.029
X18.259Y2.549
X17.129Y2.089
X18.559Y4.889
X1.949Y2.899
T2
X0.889Y8.509
X0.889Y0.889
X3.429Y8.509
X3.429Y0.889
X5.969Y8.509
X5.969Y0.889
X8.509Y8.509
X8.509Y0.889
X11.049Y8.509
X11.049Y0.889
X13.589Y8.509
X13.589Y0.889
X16.129Y8.509
X16.129Y0.889
X18.669Y8.509
X18.669Y0.889
T0
M30
