%TF.GenerationSoftware,KiCad,Pcbnew,5.1.5-1.fc31*%
%TF.CreationDate,2020-04-06T00:23:24-07:00*%
%TF.ProjectId,prom,70726f6d-2e6b-4696-9361-645f70636258,rev?*%
%TF.SameCoordinates,PX8461678PY580d428*%
%TF.FileFunction,Copper,L2,Inr*%
%TF.FilePolarity,Positive*%
%FSLAX46Y46*%
G04 Gerber Fmt 4.6, Leading zero omitted, Abs format (unit mm)*
G04 Created by KiCad (PCBNEW 5.1.5-1.fc31) date 2020-04-06 00:23:24*
%MOMM*%
%LPD*%
G04 APERTURE LIST*
%TA.AperFunction,ViaPad*%
%ADD10C,1.016000*%
%TD*%
%TA.AperFunction,ViaPad*%
%ADD11C,0.508000*%
%TD*%
%TA.AperFunction,Conductor*%
%ADD12C,0.203200*%
%TD*%
%TA.AperFunction,Conductor*%
%ADD13C,0.127000*%
%TD*%
G04 APERTURE END LIST*
D10*
%TO.N,+5V*%
%TO.C,J1*%
X889000Y8509000D03*
%TO.N,/Sheet5E85C2D6/DIP_A7*%
X3429000Y8509000D03*
%TO.N,/Sheet5E85C2D6/DIP_CE2_N*%
X5969000Y8509000D03*
%TO.N,/Sheet5E85C2D6/DIP_CE1_N*%
X8509000Y8509000D03*
%TO.N,/Sheet5E85C2D6/DIP_D0*%
X11049000Y8509000D03*
%TO.N,/Sheet5E85C2D6/DIP_D1*%
X13589000Y8509000D03*
%TO.N,/Sheet5E85C2D6/DIP_D2*%
X16129000Y8509000D03*
%TO.N,/Sheet5E85C2D6/DIP_D3*%
X18669000Y8509000D03*
%TO.N,GND*%
X18669000Y889000D03*
%TO.N,/Sheet5E85C2D6/DIP_A2*%
X16129000Y889000D03*
%TO.N,/Sheet5E85C2D6/DIP_A1*%
X13589000Y889000D03*
%TO.N,/Sheet5E85C2D6/DIP_A0*%
X11049000Y889000D03*
%TO.N,/Sheet5E85C2D6/DIP_A3*%
X8509000Y889000D03*
%TO.N,/Sheet5E85C2D6/DIP_A4*%
X5969000Y889000D03*
%TO.N,/Sheet5E85C2D6/DIP_A5*%
X3429000Y889000D03*
%TO.N,/Sheet5E85C2D6/DIP_A6*%
X889000Y889000D03*
%TD*%
D11*
%TO.N,+3V3*%
%TO.C,TP1*%
X1949000Y2899000D03*
%TD*%
%TO.N,+1V2*%
%TO.C,TP2*%
X6439000Y4879000D03*
%TD*%
%TO.N,Net-(TP3-Pad1)*%
%TO.C,TP3*%
X18259000Y2549000D03*
%TD*%
%TO.N,Net-(TP4-Pad1)*%
%TO.C,TP4*%
X17439000Y5029000D03*
%TD*%
%TO.N,Net-(R1-Pad2)*%
%TO.C,TP5*%
X12309000Y1259000D03*
%TD*%
%TO.N,Net-(TP6-Pad1)*%
%TO.C,TP6*%
X17129000Y2089000D03*
%TD*%
%TO.N,Net-(R2-Pad2)*%
%TO.C,TP7*%
X18559000Y4889000D03*
%TD*%
%TO.N,GND*%
X7289000Y7829000D03*
X14839000Y1379000D03*
X9739000Y1329000D03*
X4639000Y1329000D03*
X2439000Y4529000D03*
X1989000Y7629000D03*
X969000Y2919000D03*
X4129000Y6089000D03*
X599000Y5329000D03*
X589000Y4639000D03*
X2299000Y5229000D03*
X5889000Y6062832D03*
X4250241Y3804581D03*
X8139000Y4325257D03*
X13083511Y6272505D03*
X18218998Y6149000D03*
X4129000Y5195168D03*
X13039000Y4399000D03*
%TO.N,+3V3*%
X18789000Y3979000D03*
X4589000Y6849000D03*
X5449000Y6839000D03*
X4999000Y3089000D03*
X7298999Y6289000D03*
X8291924Y3079353D03*
X9558998Y3009000D03*
X9949000Y6529000D03*
X13436713Y1800552D03*
X14799000Y3059000D03*
X11534073Y5866867D03*
X3935623Y4618916D03*
X11240649Y3404515D03*
X13049000Y3759000D03*
X10759000Y7509000D03*
X15929000Y7289000D03*
%TO.N,/Sheet5E85C2D6/DIP_D3*%
X19144489Y5900080D03*
X17569225Y5879527D03*
%TO.N,/Sheet5E85C2D6/DIP_D1*%
X14097000Y6279000D03*
X12439000Y6249000D03*
%TO.N,Net-(R1-Pad2)*%
X11009000Y1989000D03*
%TO.N,Net-(R2-Pad2)*%
X16409004Y4639000D03*
X12139000Y4279000D03*
%TO.N,Net-(TP3-Pad1)*%
X16819000Y3119000D03*
X14129000Y3209000D03*
%TO.N,Net-(TP4-Pad1)*%
X15623488Y4843532D03*
X15739000Y3619000D03*
%TO.N,A2*%
X15449000Y3069000D03*
X12365906Y3659000D03*
%TO.N,A1*%
X8918998Y3049000D03*
X13629000Y2459000D03*
%TO.N,A4*%
X6039000Y2579000D03*
X6849000Y4239000D03*
%TO.N,OE_N*%
X10959000Y6874009D03*
X15199000Y6949000D03*
%TO.N,D2*%
X16879000Y6059000D03*
X14919000Y6299000D03*
%TO.N,D3*%
X11990413Y5146478D03*
X16079000Y5855257D03*
%TO.N,Net-(TP6-Pad1)*%
X11859000Y3229000D03*
%TD*%
D12*
%TO.N,GND*%
G36*
X2753724Y8869942D02*
G01*
X2696283Y8731267D01*
X2667000Y8584050D01*
X2667000Y8433950D01*
X2696283Y8286733D01*
X2753724Y8148058D01*
X2837116Y8023253D01*
X2943253Y7917116D01*
X3068058Y7833724D01*
X3206733Y7776283D01*
X3353950Y7747000D01*
X3504050Y7747000D01*
X3651267Y7776283D01*
X3789942Y7833724D01*
X3914747Y7917116D01*
X4020884Y8023253D01*
X4104276Y8148058D01*
X4161717Y8286733D01*
X4191000Y8433950D01*
X4191000Y8584050D01*
X4161717Y8731267D01*
X4104276Y8869942D01*
X4022987Y8991600D01*
X5375013Y8991600D01*
X5293724Y8869942D01*
X5236283Y8731267D01*
X5207000Y8584050D01*
X5207000Y8433950D01*
X5236283Y8286733D01*
X5293724Y8148058D01*
X5377116Y8023253D01*
X5483253Y7917116D01*
X5608058Y7833724D01*
X5746733Y7776283D01*
X5893950Y7747000D01*
X6044050Y7747000D01*
X6191267Y7776283D01*
X6329942Y7833724D01*
X6454747Y7917116D01*
X6560884Y8023253D01*
X6644276Y8148058D01*
X6701717Y8286733D01*
X6731000Y8433950D01*
X6731000Y8584050D01*
X6701717Y8731267D01*
X6644276Y8869942D01*
X6562987Y8991600D01*
X7915013Y8991600D01*
X7833724Y8869942D01*
X7776283Y8731267D01*
X7747000Y8584050D01*
X7747000Y8433950D01*
X7776283Y8286733D01*
X7833724Y8148058D01*
X7917116Y8023253D01*
X8023253Y7917116D01*
X8148058Y7833724D01*
X8286733Y7776283D01*
X8433950Y7747000D01*
X8584050Y7747000D01*
X8731267Y7776283D01*
X8869942Y7833724D01*
X8994747Y7917116D01*
X9100884Y8023253D01*
X9184276Y8148058D01*
X9241717Y8286733D01*
X9271000Y8433950D01*
X9271000Y8584050D01*
X9241717Y8731267D01*
X9184276Y8869942D01*
X9102987Y8991600D01*
X10455013Y8991600D01*
X10373724Y8869942D01*
X10316283Y8731267D01*
X10287000Y8584050D01*
X10287000Y8433950D01*
X10316283Y8286733D01*
X10373724Y8148058D01*
X10457116Y8023253D01*
X10520361Y7960008D01*
X10518372Y7959184D01*
X10435169Y7903589D01*
X10364411Y7832831D01*
X10308816Y7749628D01*
X10270522Y7657178D01*
X10251000Y7559034D01*
X10251000Y7458966D01*
X10270522Y7360822D01*
X10308816Y7268372D01*
X10364411Y7185169D01*
X10435169Y7114411D01*
X10492778Y7075918D01*
X10470522Y7022187D01*
X10451000Y6924043D01*
X10451000Y6823975D01*
X10470522Y6725831D01*
X10508816Y6633381D01*
X10564411Y6550178D01*
X10635169Y6479420D01*
X10718372Y6423825D01*
X10810822Y6385531D01*
X10908966Y6366009D01*
X11009034Y6366009D01*
X11107178Y6385531D01*
X11199628Y6423825D01*
X11282831Y6479420D01*
X11353589Y6550178D01*
X11409184Y6633381D01*
X11447478Y6725831D01*
X11467000Y6823975D01*
X11467000Y6924043D01*
X11447478Y7022187D01*
X11409184Y7114637D01*
X11353589Y7197840D01*
X11282831Y7268598D01*
X11225222Y7307091D01*
X11247478Y7360822D01*
X11267000Y7458966D01*
X11267000Y7559034D01*
X11247478Y7657178D01*
X11209184Y7749628D01*
X11200746Y7762256D01*
X11271267Y7776283D01*
X11409942Y7833724D01*
X11534747Y7917116D01*
X11640884Y8023253D01*
X11724276Y8148058D01*
X11781717Y8286733D01*
X11811000Y8433950D01*
X11811000Y8584050D01*
X11781717Y8731267D01*
X11724276Y8869942D01*
X11642987Y8991600D01*
X12995013Y8991600D01*
X12913724Y8869942D01*
X12856283Y8731267D01*
X12827000Y8584050D01*
X12827000Y8433950D01*
X12856283Y8286733D01*
X12913724Y8148058D01*
X12997116Y8023253D01*
X13103253Y7917116D01*
X13228058Y7833724D01*
X13366733Y7776283D01*
X13513950Y7747000D01*
X13664050Y7747000D01*
X13811267Y7776283D01*
X13949942Y7833724D01*
X14074747Y7917116D01*
X14180884Y8023253D01*
X14264276Y8148058D01*
X14321717Y8286733D01*
X14351000Y8433950D01*
X14351000Y8584050D01*
X14321717Y8731267D01*
X14264276Y8869942D01*
X14182987Y8991600D01*
X15535013Y8991600D01*
X15453724Y8869942D01*
X15396283Y8731267D01*
X15367000Y8584050D01*
X15367000Y8433950D01*
X15396283Y8286733D01*
X15453724Y8148058D01*
X15537116Y8023253D01*
X15643253Y7917116D01*
X15768058Y7833724D01*
X15863936Y7794010D01*
X15780822Y7777478D01*
X15688372Y7739184D01*
X15605169Y7683589D01*
X15534411Y7612831D01*
X15478816Y7529628D01*
X15440522Y7437178D01*
X15433472Y7401734D01*
X15347178Y7437478D01*
X15249034Y7457000D01*
X15148966Y7457000D01*
X15050822Y7437478D01*
X14958372Y7399184D01*
X14875169Y7343589D01*
X14804411Y7272831D01*
X14748816Y7189628D01*
X14710522Y7097178D01*
X14691000Y6999034D01*
X14691000Y6898966D01*
X14710522Y6800822D01*
X14724071Y6768113D01*
X14678372Y6749184D01*
X14595169Y6693589D01*
X14524411Y6622831D01*
X14501318Y6588270D01*
X14491589Y6602831D01*
X14420831Y6673589D01*
X14337628Y6729184D01*
X14245178Y6767478D01*
X14147034Y6787000D01*
X14046966Y6787000D01*
X13948822Y6767478D01*
X13856372Y6729184D01*
X13773169Y6673589D01*
X13702411Y6602831D01*
X13646816Y6519628D01*
X13608522Y6427178D01*
X13589000Y6329034D01*
X13589000Y6228966D01*
X13608522Y6130822D01*
X13646816Y6038372D01*
X13702411Y5955169D01*
X13773169Y5884411D01*
X13856372Y5828816D01*
X13948822Y5790522D01*
X14046966Y5771000D01*
X14147034Y5771000D01*
X14245178Y5790522D01*
X14337628Y5828816D01*
X14420831Y5884411D01*
X14491589Y5955169D01*
X14514682Y5989730D01*
X14524411Y5975169D01*
X14595169Y5904411D01*
X14678372Y5848816D01*
X14770822Y5810522D01*
X14868966Y5791000D01*
X14969034Y5791000D01*
X15067178Y5810522D01*
X15159628Y5848816D01*
X15242831Y5904411D01*
X15243711Y5905291D01*
X15571000Y5905291D01*
X15571000Y5805223D01*
X15590522Y5707079D01*
X15628816Y5614629D01*
X15684411Y5531426D01*
X15755169Y5460668D01*
X15838372Y5405073D01*
X15930822Y5366779D01*
X16028966Y5347257D01*
X16129034Y5347257D01*
X16227178Y5366779D01*
X16319628Y5405073D01*
X16402831Y5460668D01*
X16473589Y5531426D01*
X16529184Y5614629D01*
X16551376Y5668204D01*
X16555169Y5664411D01*
X16638372Y5608816D01*
X16730822Y5570522D01*
X16828966Y5551000D01*
X16929034Y5551000D01*
X17027178Y5570522D01*
X17119628Y5608816D01*
X17133119Y5617830D01*
X17174636Y5555696D01*
X17235690Y5494642D01*
X17198372Y5479184D01*
X17115169Y5423589D01*
X17044411Y5352831D01*
X16988816Y5269628D01*
X16950522Y5177178D01*
X16931000Y5079034D01*
X16931000Y4978966D01*
X16950522Y4880822D01*
X16988816Y4788372D01*
X17044411Y4705169D01*
X17115169Y4634411D01*
X17198372Y4578816D01*
X17290822Y4540522D01*
X17388966Y4521000D01*
X17489034Y4521000D01*
X17587178Y4540522D01*
X17679628Y4578816D01*
X17762831Y4634411D01*
X17833589Y4705169D01*
X17889184Y4788372D01*
X17927478Y4880822D01*
X17947000Y4978966D01*
X17947000Y5079034D01*
X17927478Y5177178D01*
X17889184Y5269628D01*
X17833589Y5352831D01*
X17772535Y5413885D01*
X17809853Y5429343D01*
X17893056Y5484938D01*
X17963814Y5555696D01*
X18019409Y5638899D01*
X18057703Y5731349D01*
X18077225Y5829493D01*
X18077225Y5929561D01*
X18057703Y6027705D01*
X18019409Y6120155D01*
X17963814Y6203358D01*
X17893056Y6274116D01*
X17809853Y6329711D01*
X17717403Y6368005D01*
X17619259Y6387527D01*
X17519191Y6387527D01*
X17421047Y6368005D01*
X17328597Y6329711D01*
X17315106Y6320697D01*
X17273589Y6382831D01*
X17202831Y6453589D01*
X17119628Y6509184D01*
X17027178Y6547478D01*
X16929034Y6567000D01*
X16828966Y6567000D01*
X16730822Y6547478D01*
X16638372Y6509184D01*
X16555169Y6453589D01*
X16484411Y6382831D01*
X16428816Y6299628D01*
X16406624Y6246053D01*
X16402831Y6249846D01*
X16319628Y6305441D01*
X16227178Y6343735D01*
X16129034Y6363257D01*
X16028966Y6363257D01*
X15930822Y6343735D01*
X15838372Y6305441D01*
X15755169Y6249846D01*
X15684411Y6179088D01*
X15628816Y6095885D01*
X15590522Y6003435D01*
X15571000Y5905291D01*
X15243711Y5905291D01*
X15313589Y5975169D01*
X15369184Y6058372D01*
X15407478Y6150822D01*
X15427000Y6248966D01*
X15427000Y6349034D01*
X15407478Y6447178D01*
X15393929Y6479887D01*
X15439628Y6498816D01*
X15522831Y6554411D01*
X15593589Y6625169D01*
X15649184Y6708372D01*
X15687478Y6800822D01*
X15694528Y6836266D01*
X15780822Y6800522D01*
X15878966Y6781000D01*
X15979034Y6781000D01*
X16077178Y6800522D01*
X16169628Y6838816D01*
X16252831Y6894411D01*
X16323589Y6965169D01*
X16379184Y7048372D01*
X16417478Y7140822D01*
X16437000Y7238966D01*
X16437000Y7339034D01*
X16417478Y7437178D01*
X16379184Y7529628D01*
X16323589Y7612831D01*
X16252831Y7683589D01*
X16169628Y7739184D01*
X16150758Y7747000D01*
X16204050Y7747000D01*
X16351267Y7776283D01*
X16489942Y7833724D01*
X16614747Y7917116D01*
X16720884Y8023253D01*
X16804276Y8148058D01*
X16861717Y8286733D01*
X16891000Y8433950D01*
X16891000Y8584050D01*
X16861717Y8731267D01*
X16804276Y8869942D01*
X16722987Y8991600D01*
X18075013Y8991600D01*
X17993724Y8869942D01*
X17936283Y8731267D01*
X17907000Y8584050D01*
X17907000Y8433950D01*
X17936283Y8286733D01*
X17993724Y8148058D01*
X18077116Y8023253D01*
X18183253Y7917116D01*
X18308058Y7833724D01*
X18446733Y7776283D01*
X18593950Y7747000D01*
X18744050Y7747000D01*
X18891267Y7776283D01*
X19029942Y7833724D01*
X19151600Y7915013D01*
X19151600Y6408080D01*
X19094455Y6408080D01*
X18996311Y6388558D01*
X18903861Y6350264D01*
X18820658Y6294669D01*
X18749900Y6223911D01*
X18694305Y6140708D01*
X18656011Y6048258D01*
X18636489Y5950114D01*
X18636489Y5850046D01*
X18656011Y5751902D01*
X18694305Y5659452D01*
X18749900Y5576249D01*
X18820658Y5505491D01*
X18903861Y5449896D01*
X18996311Y5411602D01*
X19094455Y5392080D01*
X19151600Y5392080D01*
X19151600Y4334820D01*
X19112831Y4373589D01*
X19029628Y4429184D01*
X18937178Y4467478D01*
X18864237Y4481987D01*
X18882831Y4494411D01*
X18953589Y4565169D01*
X19009184Y4648372D01*
X19047478Y4740822D01*
X19067000Y4838966D01*
X19067000Y4939034D01*
X19047478Y5037178D01*
X19009184Y5129628D01*
X18953589Y5212831D01*
X18882831Y5283589D01*
X18799628Y5339184D01*
X18707178Y5377478D01*
X18609034Y5397000D01*
X18508966Y5397000D01*
X18410822Y5377478D01*
X18318372Y5339184D01*
X18235169Y5283589D01*
X18164411Y5212831D01*
X18108816Y5129628D01*
X18070522Y5037178D01*
X18051000Y4939034D01*
X18051000Y4838966D01*
X18070522Y4740822D01*
X18108816Y4648372D01*
X18164411Y4565169D01*
X18235169Y4494411D01*
X18318372Y4438816D01*
X18410822Y4400522D01*
X18483763Y4386013D01*
X18465169Y4373589D01*
X18394411Y4302831D01*
X18338816Y4219628D01*
X18300522Y4127178D01*
X18281000Y4029034D01*
X18281000Y3928966D01*
X18300522Y3830822D01*
X18338816Y3738372D01*
X18394411Y3655169D01*
X18465169Y3584411D01*
X18548372Y3528816D01*
X18640822Y3490522D01*
X18738966Y3471000D01*
X18839034Y3471000D01*
X18937178Y3490522D01*
X19029628Y3528816D01*
X19112831Y3584411D01*
X19151600Y3623180D01*
X19151600Y1482987D01*
X19029942Y1564276D01*
X18891267Y1621717D01*
X18744050Y1651000D01*
X18593950Y1651000D01*
X18446733Y1621717D01*
X18308058Y1564276D01*
X18183253Y1480884D01*
X18077116Y1374747D01*
X17993724Y1249942D01*
X17936283Y1111267D01*
X17907000Y964050D01*
X17907000Y813950D01*
X17936283Y666733D01*
X17993724Y528058D01*
X18075013Y406400D01*
X16722987Y406400D01*
X16804276Y528058D01*
X16861717Y666733D01*
X16891000Y813950D01*
X16891000Y964050D01*
X16861717Y1111267D01*
X16804276Y1249942D01*
X16720884Y1374747D01*
X16614747Y1480884D01*
X16489942Y1564276D01*
X16351267Y1621717D01*
X16204050Y1651000D01*
X16053950Y1651000D01*
X15906733Y1621717D01*
X15768058Y1564276D01*
X15643253Y1480884D01*
X15537116Y1374747D01*
X15453724Y1249942D01*
X15396283Y1111267D01*
X15367000Y964050D01*
X15367000Y813950D01*
X15396283Y666733D01*
X15453724Y528058D01*
X15535013Y406400D01*
X14182987Y406400D01*
X14264276Y528058D01*
X14321717Y666733D01*
X14351000Y813950D01*
X14351000Y964050D01*
X14321717Y1111267D01*
X14264276Y1249942D01*
X14180884Y1374747D01*
X14074747Y1480884D01*
X13949942Y1564276D01*
X13897668Y1585928D01*
X13925191Y1652374D01*
X13944713Y1750518D01*
X13944713Y1850586D01*
X13925191Y1948730D01*
X13893653Y2024869D01*
X13952831Y2064411D01*
X14023589Y2135169D01*
X14026171Y2139034D01*
X16621000Y2139034D01*
X16621000Y2038966D01*
X16640522Y1940822D01*
X16678816Y1848372D01*
X16734411Y1765169D01*
X16805169Y1694411D01*
X16888372Y1638816D01*
X16980822Y1600522D01*
X17078966Y1581000D01*
X17179034Y1581000D01*
X17277178Y1600522D01*
X17369628Y1638816D01*
X17452831Y1694411D01*
X17523589Y1765169D01*
X17579184Y1848372D01*
X17617478Y1940822D01*
X17637000Y2038966D01*
X17637000Y2139034D01*
X17617478Y2237178D01*
X17579184Y2329628D01*
X17523589Y2412831D01*
X17452831Y2483589D01*
X17369628Y2539184D01*
X17277178Y2577478D01*
X17179034Y2597000D01*
X17078966Y2597000D01*
X16980822Y2577478D01*
X16888372Y2539184D01*
X16805169Y2483589D01*
X16734411Y2412831D01*
X16678816Y2329628D01*
X16640522Y2237178D01*
X16621000Y2139034D01*
X14026171Y2139034D01*
X14079184Y2218372D01*
X14117478Y2310822D01*
X14137000Y2408966D01*
X14137000Y2509034D01*
X14117478Y2607178D01*
X14079184Y2699628D01*
X14078160Y2701160D01*
X14078966Y2701000D01*
X14179034Y2701000D01*
X14277178Y2720522D01*
X14369628Y2758816D01*
X14382751Y2767585D01*
X14404411Y2735169D01*
X14475169Y2664411D01*
X14558372Y2608816D01*
X14650822Y2570522D01*
X14748966Y2551000D01*
X14849034Y2551000D01*
X14947178Y2570522D01*
X15039628Y2608816D01*
X15122831Y2664411D01*
X15129762Y2671342D01*
X15208372Y2618816D01*
X15300822Y2580522D01*
X15398966Y2561000D01*
X15499034Y2561000D01*
X15597178Y2580522D01*
X15641869Y2599034D01*
X17751000Y2599034D01*
X17751000Y2498966D01*
X17770522Y2400822D01*
X17808816Y2308372D01*
X17864411Y2225169D01*
X17935169Y2154411D01*
X18018372Y2098816D01*
X18110822Y2060522D01*
X18208966Y2041000D01*
X18309034Y2041000D01*
X18407178Y2060522D01*
X18499628Y2098816D01*
X18582831Y2154411D01*
X18653589Y2225169D01*
X18709184Y2308372D01*
X18747478Y2400822D01*
X18767000Y2498966D01*
X18767000Y2599034D01*
X18747478Y2697178D01*
X18709184Y2789628D01*
X18653589Y2872831D01*
X18582831Y2943589D01*
X18499628Y2999184D01*
X18407178Y3037478D01*
X18309034Y3057000D01*
X18208966Y3057000D01*
X18110822Y3037478D01*
X18018372Y2999184D01*
X17935169Y2943589D01*
X17864411Y2872831D01*
X17808816Y2789628D01*
X17770522Y2697178D01*
X17751000Y2599034D01*
X15641869Y2599034D01*
X15689628Y2618816D01*
X15772831Y2674411D01*
X15843589Y2745169D01*
X15899184Y2828372D01*
X15937478Y2920822D01*
X15957000Y3018966D01*
X15957000Y3119034D01*
X15949574Y3156367D01*
X15979628Y3168816D01*
X15979954Y3169034D01*
X16311000Y3169034D01*
X16311000Y3068966D01*
X16330522Y2970822D01*
X16368816Y2878372D01*
X16424411Y2795169D01*
X16495169Y2724411D01*
X16578372Y2668816D01*
X16670822Y2630522D01*
X16768966Y2611000D01*
X16869034Y2611000D01*
X16967178Y2630522D01*
X17059628Y2668816D01*
X17142831Y2724411D01*
X17213589Y2795169D01*
X17269184Y2878372D01*
X17307478Y2970822D01*
X17327000Y3068966D01*
X17327000Y3169034D01*
X17307478Y3267178D01*
X17269184Y3359628D01*
X17213589Y3442831D01*
X17142831Y3513589D01*
X17059628Y3569184D01*
X16967178Y3607478D01*
X16869034Y3627000D01*
X16768966Y3627000D01*
X16670822Y3607478D01*
X16578372Y3569184D01*
X16495169Y3513589D01*
X16424411Y3442831D01*
X16368816Y3359628D01*
X16330522Y3267178D01*
X16311000Y3169034D01*
X15979954Y3169034D01*
X16062831Y3224411D01*
X16133589Y3295169D01*
X16189184Y3378372D01*
X16227478Y3470822D01*
X16247000Y3568966D01*
X16247000Y3669034D01*
X16227478Y3767178D01*
X16189184Y3859628D01*
X16133589Y3942831D01*
X16062831Y4013589D01*
X15979628Y4069184D01*
X15887178Y4107478D01*
X15789034Y4127000D01*
X15688966Y4127000D01*
X15590822Y4107478D01*
X15498372Y4069184D01*
X15415169Y4013589D01*
X15344411Y3942831D01*
X15288816Y3859628D01*
X15250522Y3767178D01*
X15231000Y3669034D01*
X15231000Y3568966D01*
X15238426Y3531633D01*
X15208372Y3519184D01*
X15125169Y3463589D01*
X15118238Y3456658D01*
X15039628Y3509184D01*
X14947178Y3547478D01*
X14849034Y3567000D01*
X14748966Y3567000D01*
X14650822Y3547478D01*
X14558372Y3509184D01*
X14545249Y3500415D01*
X14523589Y3532831D01*
X14452831Y3603589D01*
X14369628Y3659184D01*
X14277178Y3697478D01*
X14179034Y3717000D01*
X14078966Y3717000D01*
X13980822Y3697478D01*
X13888372Y3659184D01*
X13805169Y3603589D01*
X13734411Y3532831D01*
X13678816Y3449628D01*
X13640522Y3357178D01*
X13621000Y3259034D01*
X13621000Y3158966D01*
X13640522Y3060822D01*
X13678816Y2968372D01*
X13679840Y2966840D01*
X13679034Y2967000D01*
X13578966Y2967000D01*
X13480822Y2947478D01*
X13388372Y2909184D01*
X13305169Y2853589D01*
X13234411Y2782831D01*
X13178816Y2699628D01*
X13140522Y2607178D01*
X13121000Y2509034D01*
X13121000Y2408966D01*
X13140522Y2310822D01*
X13172060Y2234683D01*
X13112882Y2195141D01*
X13042124Y2124383D01*
X12986529Y2041180D01*
X12948235Y1948730D01*
X12928713Y1850586D01*
X12928713Y1750518D01*
X12948235Y1652374D01*
X12986529Y1559924D01*
X13042124Y1476721D01*
X13070607Y1448238D01*
X12997116Y1374747D01*
X12913724Y1249942D01*
X12856283Y1111267D01*
X12827000Y964050D01*
X12827000Y813950D01*
X12856283Y666733D01*
X12913724Y528058D01*
X12995013Y406400D01*
X11642987Y406400D01*
X11724276Y528058D01*
X11781717Y666733D01*
X11811000Y813950D01*
X11811000Y964050D01*
X11781717Y1111267D01*
X11724276Y1249942D01*
X11684793Y1309034D01*
X11801000Y1309034D01*
X11801000Y1208966D01*
X11820522Y1110822D01*
X11858816Y1018372D01*
X11914411Y935169D01*
X11985169Y864411D01*
X12068372Y808816D01*
X12160822Y770522D01*
X12258966Y751000D01*
X12359034Y751000D01*
X12457178Y770522D01*
X12549628Y808816D01*
X12632831Y864411D01*
X12703589Y935169D01*
X12759184Y1018372D01*
X12797478Y1110822D01*
X12817000Y1208966D01*
X12817000Y1309034D01*
X12797478Y1407178D01*
X12759184Y1499628D01*
X12703589Y1582831D01*
X12632831Y1653589D01*
X12549628Y1709184D01*
X12457178Y1747478D01*
X12359034Y1767000D01*
X12258966Y1767000D01*
X12160822Y1747478D01*
X12068372Y1709184D01*
X11985169Y1653589D01*
X11914411Y1582831D01*
X11858816Y1499628D01*
X11820522Y1407178D01*
X11801000Y1309034D01*
X11684793Y1309034D01*
X11640884Y1374747D01*
X11534747Y1480884D01*
X11409942Y1564276D01*
X11334108Y1595688D01*
X11403589Y1665169D01*
X11459184Y1748372D01*
X11497478Y1840822D01*
X11517000Y1938966D01*
X11517000Y2039034D01*
X11497478Y2137178D01*
X11459184Y2229628D01*
X11403589Y2312831D01*
X11332831Y2383589D01*
X11249628Y2439184D01*
X11157178Y2477478D01*
X11059034Y2497000D01*
X10958966Y2497000D01*
X10860822Y2477478D01*
X10768372Y2439184D01*
X10685169Y2383589D01*
X10614411Y2312831D01*
X10558816Y2229628D01*
X10520522Y2137178D01*
X10501000Y2039034D01*
X10501000Y1938966D01*
X10520522Y1840822D01*
X10558816Y1748372D01*
X10614411Y1665169D01*
X10685169Y1594411D01*
X10714116Y1575069D01*
X10688058Y1564276D01*
X10563253Y1480884D01*
X10457116Y1374747D01*
X10373724Y1249942D01*
X10316283Y1111267D01*
X10287000Y964050D01*
X10287000Y813950D01*
X10316283Y666733D01*
X10373724Y528058D01*
X10455013Y406400D01*
X9102987Y406400D01*
X9184276Y528058D01*
X9241717Y666733D01*
X9271000Y813950D01*
X9271000Y964050D01*
X9241717Y1111267D01*
X9184276Y1249942D01*
X9100884Y1374747D01*
X8994747Y1480884D01*
X8869942Y1564276D01*
X8731267Y1621717D01*
X8584050Y1651000D01*
X8433950Y1651000D01*
X8286733Y1621717D01*
X8148058Y1564276D01*
X8023253Y1480884D01*
X7917116Y1374747D01*
X7833724Y1249942D01*
X7776283Y1111267D01*
X7747000Y964050D01*
X7747000Y813950D01*
X7776283Y666733D01*
X7833724Y528058D01*
X7915013Y406400D01*
X6562987Y406400D01*
X6644276Y528058D01*
X6701717Y666733D01*
X6731000Y813950D01*
X6731000Y964050D01*
X6701717Y1111267D01*
X6644276Y1249942D01*
X6560884Y1374747D01*
X6454747Y1480884D01*
X6329942Y1564276D01*
X6191267Y1621717D01*
X6044050Y1651000D01*
X5893950Y1651000D01*
X5746733Y1621717D01*
X5608058Y1564276D01*
X5483253Y1480884D01*
X5377116Y1374747D01*
X5293724Y1249942D01*
X5236283Y1111267D01*
X5207000Y964050D01*
X5207000Y813950D01*
X5236283Y666733D01*
X5293724Y528058D01*
X5375013Y406400D01*
X4022987Y406400D01*
X4104276Y528058D01*
X4161717Y666733D01*
X4191000Y813950D01*
X4191000Y964050D01*
X4161717Y1111267D01*
X4104276Y1249942D01*
X4020884Y1374747D01*
X3914747Y1480884D01*
X3789942Y1564276D01*
X3651267Y1621717D01*
X3504050Y1651000D01*
X3353950Y1651000D01*
X3206733Y1621717D01*
X3068058Y1564276D01*
X2943253Y1480884D01*
X2837116Y1374747D01*
X2753724Y1249942D01*
X2696283Y1111267D01*
X2667000Y964050D01*
X2667000Y813950D01*
X2696283Y666733D01*
X2753724Y528058D01*
X2835013Y406400D01*
X1482987Y406400D01*
X1564276Y528058D01*
X1621717Y666733D01*
X1651000Y813950D01*
X1651000Y964050D01*
X1621717Y1111267D01*
X1564276Y1249942D01*
X1480884Y1374747D01*
X1374747Y1480884D01*
X1249942Y1564276D01*
X1111267Y1621717D01*
X964050Y1651000D01*
X813950Y1651000D01*
X666733Y1621717D01*
X528058Y1564276D01*
X406400Y1482987D01*
X406400Y2949034D01*
X1441000Y2949034D01*
X1441000Y2848966D01*
X1460522Y2750822D01*
X1498816Y2658372D01*
X1554411Y2575169D01*
X1625169Y2504411D01*
X1708372Y2448816D01*
X1800822Y2410522D01*
X1898966Y2391000D01*
X1999034Y2391000D01*
X2097178Y2410522D01*
X2189628Y2448816D01*
X2272831Y2504411D01*
X2343589Y2575169D01*
X2399184Y2658372D01*
X2437478Y2750822D01*
X2457000Y2848966D01*
X2457000Y2949034D01*
X2437478Y3047178D01*
X2399431Y3139034D01*
X4491000Y3139034D01*
X4491000Y3038966D01*
X4510522Y2940822D01*
X4548816Y2848372D01*
X4604411Y2765169D01*
X4675169Y2694411D01*
X4758372Y2638816D01*
X4850822Y2600522D01*
X4948966Y2581000D01*
X5049034Y2581000D01*
X5147178Y2600522D01*
X5216012Y2629034D01*
X5531000Y2629034D01*
X5531000Y2528966D01*
X5550522Y2430822D01*
X5588816Y2338372D01*
X5644411Y2255169D01*
X5715169Y2184411D01*
X5798372Y2128816D01*
X5890822Y2090522D01*
X5988966Y2071000D01*
X6089034Y2071000D01*
X6187178Y2090522D01*
X6279628Y2128816D01*
X6362831Y2184411D01*
X6433589Y2255169D01*
X6489184Y2338372D01*
X6527478Y2430822D01*
X6547000Y2528966D01*
X6547000Y2629034D01*
X6527478Y2727178D01*
X6489184Y2819628D01*
X6433589Y2902831D01*
X6362831Y2973589D01*
X6279628Y3029184D01*
X6187178Y3067478D01*
X6089034Y3087000D01*
X5988966Y3087000D01*
X5890822Y3067478D01*
X5798372Y3029184D01*
X5715169Y2973589D01*
X5644411Y2902831D01*
X5588816Y2819628D01*
X5550522Y2727178D01*
X5531000Y2629034D01*
X5216012Y2629034D01*
X5239628Y2638816D01*
X5322831Y2694411D01*
X5393589Y2765169D01*
X5449184Y2848372D01*
X5487478Y2940822D01*
X5507000Y3038966D01*
X5507000Y3129387D01*
X7783924Y3129387D01*
X7783924Y3029319D01*
X7803446Y2931175D01*
X7841740Y2838725D01*
X7897335Y2755522D01*
X7968093Y2684764D01*
X8051296Y2629169D01*
X8143746Y2590875D01*
X8241890Y2571353D01*
X8341958Y2571353D01*
X8440102Y2590875D01*
X8532552Y2629169D01*
X8585218Y2664360D01*
X8595167Y2654411D01*
X8678370Y2598816D01*
X8770820Y2560522D01*
X8868964Y2541000D01*
X8969032Y2541000D01*
X9067176Y2560522D01*
X9159626Y2598816D01*
X9214258Y2635320D01*
X9235167Y2614411D01*
X9318370Y2558816D01*
X9410820Y2520522D01*
X9508964Y2501000D01*
X9609032Y2501000D01*
X9707176Y2520522D01*
X9799626Y2558816D01*
X9882829Y2614411D01*
X9953587Y2685169D01*
X10009182Y2768372D01*
X10047476Y2860822D01*
X10066998Y2958966D01*
X10066998Y3059034D01*
X10047476Y3157178D01*
X10009182Y3249628D01*
X9953587Y3332831D01*
X9882829Y3403589D01*
X9806563Y3454549D01*
X10732649Y3454549D01*
X10732649Y3354481D01*
X10752171Y3256337D01*
X10790465Y3163887D01*
X10846060Y3080684D01*
X10916818Y3009926D01*
X11000021Y2954331D01*
X11092471Y2916037D01*
X11190615Y2896515D01*
X11290683Y2896515D01*
X11388827Y2916037D01*
X11442339Y2938202D01*
X11464411Y2905169D01*
X11535169Y2834411D01*
X11618372Y2778816D01*
X11710822Y2740522D01*
X11808966Y2721000D01*
X11909034Y2721000D01*
X12007178Y2740522D01*
X12099628Y2778816D01*
X12182831Y2834411D01*
X12253589Y2905169D01*
X12309184Y2988372D01*
X12347478Y3080822D01*
X12361437Y3151000D01*
X12415940Y3151000D01*
X12514084Y3170522D01*
X12606534Y3208816D01*
X12689737Y3264411D01*
X12760495Y3335169D01*
X12763099Y3339067D01*
X12808372Y3308816D01*
X12900822Y3270522D01*
X12998966Y3251000D01*
X13099034Y3251000D01*
X13197178Y3270522D01*
X13289628Y3308816D01*
X13372831Y3364411D01*
X13443589Y3435169D01*
X13499184Y3518372D01*
X13537478Y3610822D01*
X13557000Y3708966D01*
X13557000Y3809034D01*
X13537478Y3907178D01*
X13499184Y3999628D01*
X13443589Y4082831D01*
X13372831Y4153589D01*
X13289628Y4209184D01*
X13197178Y4247478D01*
X13099034Y4267000D01*
X12998966Y4267000D01*
X12900822Y4247478D01*
X12808372Y4209184D01*
X12725169Y4153589D01*
X12654411Y4082831D01*
X12651807Y4078933D01*
X12615918Y4102914D01*
X12627478Y4130822D01*
X12647000Y4228966D01*
X12647000Y4329034D01*
X12627478Y4427178D01*
X12589184Y4519628D01*
X12533589Y4602831D01*
X12462831Y4673589D01*
X12379628Y4729184D01*
X12317340Y4754985D01*
X12385002Y4822647D01*
X12432389Y4893566D01*
X15115488Y4893566D01*
X15115488Y4793498D01*
X15135010Y4695354D01*
X15173304Y4602904D01*
X15228899Y4519701D01*
X15299657Y4448943D01*
X15382860Y4393348D01*
X15475310Y4355054D01*
X15573454Y4335532D01*
X15673522Y4335532D01*
X15771666Y4355054D01*
X15864116Y4393348D01*
X15939921Y4443999D01*
X15958820Y4398372D01*
X16014415Y4315169D01*
X16085173Y4244411D01*
X16168376Y4188816D01*
X16260826Y4150522D01*
X16358970Y4131000D01*
X16459038Y4131000D01*
X16557182Y4150522D01*
X16649632Y4188816D01*
X16732835Y4244411D01*
X16803593Y4315169D01*
X16859188Y4398372D01*
X16897482Y4490822D01*
X16917004Y4588966D01*
X16917004Y4689034D01*
X16897482Y4787178D01*
X16859188Y4879628D01*
X16803593Y4962831D01*
X16732835Y5033589D01*
X16649632Y5089184D01*
X16557182Y5127478D01*
X16459038Y5147000D01*
X16358970Y5147000D01*
X16260826Y5127478D01*
X16168376Y5089184D01*
X16092571Y5038533D01*
X16073672Y5084160D01*
X16018077Y5167363D01*
X15947319Y5238121D01*
X15864116Y5293716D01*
X15771666Y5332010D01*
X15673522Y5351532D01*
X15573454Y5351532D01*
X15475310Y5332010D01*
X15382860Y5293716D01*
X15299657Y5238121D01*
X15228899Y5167363D01*
X15173304Y5084160D01*
X15135010Y4991710D01*
X15115488Y4893566D01*
X12432389Y4893566D01*
X12440597Y4905850D01*
X12478891Y4998300D01*
X12498413Y5096444D01*
X12498413Y5196512D01*
X12478891Y5294656D01*
X12440597Y5387106D01*
X12385002Y5470309D01*
X12314244Y5541067D01*
X12231041Y5596662D01*
X12138591Y5634956D01*
X12040447Y5654478D01*
X11995954Y5654478D01*
X12022551Y5718689D01*
X12042073Y5816833D01*
X12042073Y5916901D01*
X12038740Y5933656D01*
X12044411Y5925169D01*
X12115169Y5854411D01*
X12198372Y5798816D01*
X12290822Y5760522D01*
X12388966Y5741000D01*
X12489034Y5741000D01*
X12587178Y5760522D01*
X12679628Y5798816D01*
X12762831Y5854411D01*
X12833589Y5925169D01*
X12889184Y6008372D01*
X12927478Y6100822D01*
X12947000Y6198966D01*
X12947000Y6299034D01*
X12927478Y6397178D01*
X12889184Y6489628D01*
X12833589Y6572831D01*
X12762831Y6643589D01*
X12679628Y6699184D01*
X12587178Y6737478D01*
X12489034Y6757000D01*
X12388966Y6757000D01*
X12290822Y6737478D01*
X12198372Y6699184D01*
X12115169Y6643589D01*
X12044411Y6572831D01*
X11988816Y6489628D01*
X11950522Y6397178D01*
X11931000Y6299034D01*
X11931000Y6198966D01*
X11934333Y6182211D01*
X11928662Y6190698D01*
X11857904Y6261456D01*
X11774701Y6317051D01*
X11682251Y6355345D01*
X11584107Y6374867D01*
X11484039Y6374867D01*
X11385895Y6355345D01*
X11293445Y6317051D01*
X11210242Y6261456D01*
X11139484Y6190698D01*
X11083889Y6107495D01*
X11045595Y6015045D01*
X11026073Y5916901D01*
X11026073Y5816833D01*
X11045595Y5718689D01*
X11083889Y5626239D01*
X11139484Y5543036D01*
X11210242Y5472278D01*
X11293445Y5416683D01*
X11385895Y5378389D01*
X11484039Y5358867D01*
X11528532Y5358867D01*
X11501935Y5294656D01*
X11482413Y5196512D01*
X11482413Y5096444D01*
X11501935Y4998300D01*
X11540229Y4905850D01*
X11595824Y4822647D01*
X11666582Y4751889D01*
X11749785Y4696294D01*
X11812073Y4670493D01*
X11744411Y4602831D01*
X11688816Y4519628D01*
X11650522Y4427178D01*
X11631000Y4329034D01*
X11631000Y4228966D01*
X11650522Y4130822D01*
X11688816Y4038372D01*
X11744411Y3955169D01*
X11815169Y3884411D01*
X11888988Y3835086D01*
X11877428Y3807178D01*
X11863469Y3737000D01*
X11808966Y3737000D01*
X11710822Y3717478D01*
X11657310Y3695313D01*
X11635238Y3728346D01*
X11564480Y3799104D01*
X11481277Y3854699D01*
X11388827Y3892993D01*
X11290683Y3912515D01*
X11190615Y3912515D01*
X11092471Y3892993D01*
X11000021Y3854699D01*
X10916818Y3799104D01*
X10846060Y3728346D01*
X10790465Y3645143D01*
X10752171Y3552693D01*
X10732649Y3454549D01*
X9806563Y3454549D01*
X9799626Y3459184D01*
X9707176Y3497478D01*
X9609032Y3517000D01*
X9508964Y3517000D01*
X9410820Y3497478D01*
X9318370Y3459184D01*
X9263738Y3422680D01*
X9242829Y3443589D01*
X9159626Y3499184D01*
X9067176Y3537478D01*
X8969032Y3557000D01*
X8868964Y3557000D01*
X8770820Y3537478D01*
X8678370Y3499184D01*
X8625704Y3463993D01*
X8615755Y3473942D01*
X8532552Y3529537D01*
X8440102Y3567831D01*
X8341958Y3587353D01*
X8241890Y3587353D01*
X8143746Y3567831D01*
X8051296Y3529537D01*
X7968093Y3473942D01*
X7897335Y3403184D01*
X7841740Y3319981D01*
X7803446Y3227531D01*
X7783924Y3129387D01*
X5507000Y3129387D01*
X5507000Y3139034D01*
X5487478Y3237178D01*
X5449184Y3329628D01*
X5393589Y3412831D01*
X5322831Y3483589D01*
X5239628Y3539184D01*
X5147178Y3577478D01*
X5049034Y3597000D01*
X4948966Y3597000D01*
X4850822Y3577478D01*
X4758372Y3539184D01*
X4675169Y3483589D01*
X4604411Y3412831D01*
X4548816Y3329628D01*
X4510522Y3237178D01*
X4491000Y3139034D01*
X2399431Y3139034D01*
X2399184Y3139628D01*
X2343589Y3222831D01*
X2272831Y3293589D01*
X2189628Y3349184D01*
X2097178Y3387478D01*
X1999034Y3407000D01*
X1898966Y3407000D01*
X1800822Y3387478D01*
X1708372Y3349184D01*
X1625169Y3293589D01*
X1554411Y3222831D01*
X1498816Y3139628D01*
X1460522Y3047178D01*
X1441000Y2949034D01*
X406400Y2949034D01*
X406400Y4668950D01*
X3427623Y4668950D01*
X3427623Y4568882D01*
X3447145Y4470738D01*
X3485439Y4378288D01*
X3541034Y4295085D01*
X3611792Y4224327D01*
X3694995Y4168732D01*
X3787445Y4130438D01*
X3885589Y4110916D01*
X3985657Y4110916D01*
X4083801Y4130438D01*
X4176251Y4168732D01*
X4259454Y4224327D01*
X4330212Y4295085D01*
X4385807Y4378288D01*
X4424101Y4470738D01*
X4443623Y4568882D01*
X4443623Y4668950D01*
X4424101Y4767094D01*
X4385807Y4859544D01*
X4339375Y4929034D01*
X5931000Y4929034D01*
X5931000Y4828966D01*
X5950522Y4730822D01*
X5988816Y4638372D01*
X6044411Y4555169D01*
X6115169Y4484411D01*
X6198372Y4428816D01*
X6290822Y4390522D01*
X6358509Y4377058D01*
X6341000Y4289034D01*
X6341000Y4188966D01*
X6360522Y4090822D01*
X6398816Y3998372D01*
X6454411Y3915169D01*
X6525169Y3844411D01*
X6608372Y3788816D01*
X6700822Y3750522D01*
X6798966Y3731000D01*
X6899034Y3731000D01*
X6997178Y3750522D01*
X7089628Y3788816D01*
X7172831Y3844411D01*
X7243589Y3915169D01*
X7299184Y3998372D01*
X7337478Y4090822D01*
X7357000Y4188966D01*
X7357000Y4289034D01*
X7337478Y4387178D01*
X7299184Y4479628D01*
X7243589Y4562831D01*
X7172831Y4633589D01*
X7089628Y4689184D01*
X6997178Y4727478D01*
X6929491Y4740942D01*
X6947000Y4828966D01*
X6947000Y4929034D01*
X6927478Y5027178D01*
X6889184Y5119628D01*
X6833589Y5202831D01*
X6762831Y5273589D01*
X6679628Y5329184D01*
X6587178Y5367478D01*
X6489034Y5387000D01*
X6388966Y5387000D01*
X6290822Y5367478D01*
X6198372Y5329184D01*
X6115169Y5273589D01*
X6044411Y5202831D01*
X5988816Y5119628D01*
X5950522Y5027178D01*
X5931000Y4929034D01*
X4339375Y4929034D01*
X4330212Y4942747D01*
X4259454Y5013505D01*
X4176251Y5069100D01*
X4083801Y5107394D01*
X3985657Y5126916D01*
X3885589Y5126916D01*
X3787445Y5107394D01*
X3694995Y5069100D01*
X3611792Y5013505D01*
X3541034Y4942747D01*
X3485439Y4859544D01*
X3447145Y4767094D01*
X3427623Y4668950D01*
X406400Y4668950D01*
X406400Y6899034D01*
X4081000Y6899034D01*
X4081000Y6798966D01*
X4100522Y6700822D01*
X4138816Y6608372D01*
X4194411Y6525169D01*
X4265169Y6454411D01*
X4348372Y6398816D01*
X4440822Y6360522D01*
X4538966Y6341000D01*
X4639034Y6341000D01*
X4737178Y6360522D01*
X4829628Y6398816D01*
X4912831Y6454411D01*
X4983589Y6525169D01*
X5015659Y6573165D01*
X5054411Y6515169D01*
X5125169Y6444411D01*
X5208372Y6388816D01*
X5300822Y6350522D01*
X5398966Y6331000D01*
X5499034Y6331000D01*
X5539423Y6339034D01*
X6790999Y6339034D01*
X6790999Y6238966D01*
X6810521Y6140822D01*
X6848815Y6048372D01*
X6904410Y5965169D01*
X6975168Y5894411D01*
X7058371Y5838816D01*
X7150821Y5800522D01*
X7248965Y5781000D01*
X7349033Y5781000D01*
X7447177Y5800522D01*
X7539627Y5838816D01*
X7622830Y5894411D01*
X7693588Y5965169D01*
X7749183Y6048372D01*
X7787477Y6140822D01*
X7806999Y6238966D01*
X7806999Y6339034D01*
X7787477Y6437178D01*
X7749183Y6529628D01*
X7716171Y6579034D01*
X9441000Y6579034D01*
X9441000Y6478966D01*
X9460522Y6380822D01*
X9498816Y6288372D01*
X9554411Y6205169D01*
X9625169Y6134411D01*
X9708372Y6078816D01*
X9800822Y6040522D01*
X9898966Y6021000D01*
X9999034Y6021000D01*
X10097178Y6040522D01*
X10189628Y6078816D01*
X10272831Y6134411D01*
X10343589Y6205169D01*
X10399184Y6288372D01*
X10437478Y6380822D01*
X10457000Y6478966D01*
X10457000Y6579034D01*
X10437478Y6677178D01*
X10399184Y6769628D01*
X10343589Y6852831D01*
X10272831Y6923589D01*
X10189628Y6979184D01*
X10097178Y7017478D01*
X9999034Y7037000D01*
X9898966Y7037000D01*
X9800822Y7017478D01*
X9708372Y6979184D01*
X9625169Y6923589D01*
X9554411Y6852831D01*
X9498816Y6769628D01*
X9460522Y6677178D01*
X9441000Y6579034D01*
X7716171Y6579034D01*
X7693588Y6612831D01*
X7622830Y6683589D01*
X7539627Y6739184D01*
X7447177Y6777478D01*
X7349033Y6797000D01*
X7248965Y6797000D01*
X7150821Y6777478D01*
X7058371Y6739184D01*
X6975168Y6683589D01*
X6904410Y6612831D01*
X6848815Y6529628D01*
X6810521Y6437178D01*
X6790999Y6339034D01*
X5539423Y6339034D01*
X5597178Y6350522D01*
X5689628Y6388816D01*
X5772831Y6444411D01*
X5843589Y6515169D01*
X5899184Y6598372D01*
X5937478Y6690822D01*
X5957000Y6788966D01*
X5957000Y6889034D01*
X5937478Y6987178D01*
X5899184Y7079628D01*
X5843589Y7162831D01*
X5772831Y7233589D01*
X5689628Y7289184D01*
X5597178Y7327478D01*
X5499034Y7347000D01*
X5398966Y7347000D01*
X5300822Y7327478D01*
X5208372Y7289184D01*
X5125169Y7233589D01*
X5054411Y7162831D01*
X5022341Y7114835D01*
X4983589Y7172831D01*
X4912831Y7243589D01*
X4829628Y7299184D01*
X4737178Y7337478D01*
X4639034Y7357000D01*
X4538966Y7357000D01*
X4440822Y7337478D01*
X4348372Y7299184D01*
X4265169Y7243589D01*
X4194411Y7172831D01*
X4138816Y7089628D01*
X4100522Y6997178D01*
X4081000Y6899034D01*
X406400Y6899034D01*
X406400Y7915013D01*
X528058Y7833724D01*
X666733Y7776283D01*
X813950Y7747000D01*
X964050Y7747000D01*
X1111267Y7776283D01*
X1249942Y7833724D01*
X1374747Y7917116D01*
X1480884Y8023253D01*
X1564276Y8148058D01*
X1621717Y8286733D01*
X1651000Y8433950D01*
X1651000Y8584050D01*
X1621717Y8731267D01*
X1564276Y8869942D01*
X1482987Y8991600D01*
X2835013Y8991600D01*
X2753724Y8869942D01*
G37*
X2753724Y8869942D02*
X2696283Y8731267D01*
X2667000Y8584050D01*
X2667000Y8433950D01*
X2696283Y8286733D01*
X2753724Y8148058D01*
X2837116Y8023253D01*
X2943253Y7917116D01*
X3068058Y7833724D01*
X3206733Y7776283D01*
X3353950Y7747000D01*
X3504050Y7747000D01*
X3651267Y7776283D01*
X3789942Y7833724D01*
X3914747Y7917116D01*
X4020884Y8023253D01*
X4104276Y8148058D01*
X4161717Y8286733D01*
X4191000Y8433950D01*
X4191000Y8584050D01*
X4161717Y8731267D01*
X4104276Y8869942D01*
X4022987Y8991600D01*
X5375013Y8991600D01*
X5293724Y8869942D01*
X5236283Y8731267D01*
X5207000Y8584050D01*
X5207000Y8433950D01*
X5236283Y8286733D01*
X5293724Y8148058D01*
X5377116Y8023253D01*
X5483253Y7917116D01*
X5608058Y7833724D01*
X5746733Y7776283D01*
X5893950Y7747000D01*
X6044050Y7747000D01*
X6191267Y7776283D01*
X6329942Y7833724D01*
X6454747Y7917116D01*
X6560884Y8023253D01*
X6644276Y8148058D01*
X6701717Y8286733D01*
X6731000Y8433950D01*
X6731000Y8584050D01*
X6701717Y8731267D01*
X6644276Y8869942D01*
X6562987Y8991600D01*
X7915013Y8991600D01*
X7833724Y8869942D01*
X7776283Y8731267D01*
X7747000Y8584050D01*
X7747000Y8433950D01*
X7776283Y8286733D01*
X7833724Y8148058D01*
X7917116Y8023253D01*
X8023253Y7917116D01*
X8148058Y7833724D01*
X8286733Y7776283D01*
X8433950Y7747000D01*
X8584050Y7747000D01*
X8731267Y7776283D01*
X8869942Y7833724D01*
X8994747Y7917116D01*
X9100884Y8023253D01*
X9184276Y8148058D01*
X9241717Y8286733D01*
X9271000Y8433950D01*
X9271000Y8584050D01*
X9241717Y8731267D01*
X9184276Y8869942D01*
X9102987Y8991600D01*
X10455013Y8991600D01*
X10373724Y8869942D01*
X10316283Y8731267D01*
X10287000Y8584050D01*
X10287000Y8433950D01*
X10316283Y8286733D01*
X10373724Y8148058D01*
X10457116Y8023253D01*
X10520361Y7960008D01*
X10518372Y7959184D01*
X10435169Y7903589D01*
X10364411Y7832831D01*
X10308816Y7749628D01*
X10270522Y7657178D01*
X10251000Y7559034D01*
X10251000Y7458966D01*
X10270522Y7360822D01*
X10308816Y7268372D01*
X10364411Y7185169D01*
X10435169Y7114411D01*
X10492778Y7075918D01*
X10470522Y7022187D01*
X10451000Y6924043D01*
X10451000Y6823975D01*
X10470522Y6725831D01*
X10508816Y6633381D01*
X10564411Y6550178D01*
X10635169Y6479420D01*
X10718372Y6423825D01*
X10810822Y6385531D01*
X10908966Y6366009D01*
X11009034Y6366009D01*
X11107178Y6385531D01*
X11199628Y6423825D01*
X11282831Y6479420D01*
X11353589Y6550178D01*
X11409184Y6633381D01*
X11447478Y6725831D01*
X11467000Y6823975D01*
X11467000Y6924043D01*
X11447478Y7022187D01*
X11409184Y7114637D01*
X11353589Y7197840D01*
X11282831Y7268598D01*
X11225222Y7307091D01*
X11247478Y7360822D01*
X11267000Y7458966D01*
X11267000Y7559034D01*
X11247478Y7657178D01*
X11209184Y7749628D01*
X11200746Y7762256D01*
X11271267Y7776283D01*
X11409942Y7833724D01*
X11534747Y7917116D01*
X11640884Y8023253D01*
X11724276Y8148058D01*
X11781717Y8286733D01*
X11811000Y8433950D01*
X11811000Y8584050D01*
X11781717Y8731267D01*
X11724276Y8869942D01*
X11642987Y8991600D01*
X12995013Y8991600D01*
X12913724Y8869942D01*
X12856283Y8731267D01*
X12827000Y8584050D01*
X12827000Y8433950D01*
X12856283Y8286733D01*
X12913724Y8148058D01*
X12997116Y8023253D01*
X13103253Y7917116D01*
X13228058Y7833724D01*
X13366733Y7776283D01*
X13513950Y7747000D01*
X13664050Y7747000D01*
X13811267Y7776283D01*
X13949942Y7833724D01*
X14074747Y7917116D01*
X14180884Y8023253D01*
X14264276Y8148058D01*
X14321717Y8286733D01*
X14351000Y8433950D01*
X14351000Y8584050D01*
X14321717Y8731267D01*
X14264276Y8869942D01*
X14182987Y8991600D01*
X15535013Y8991600D01*
X15453724Y8869942D01*
X15396283Y8731267D01*
X15367000Y8584050D01*
X15367000Y8433950D01*
X15396283Y8286733D01*
X15453724Y8148058D01*
X15537116Y8023253D01*
X15643253Y7917116D01*
X15768058Y7833724D01*
X15863936Y7794010D01*
X15780822Y7777478D01*
X15688372Y7739184D01*
X15605169Y7683589D01*
X15534411Y7612831D01*
X15478816Y7529628D01*
X15440522Y7437178D01*
X15433472Y7401734D01*
X15347178Y7437478D01*
X15249034Y7457000D01*
X15148966Y7457000D01*
X15050822Y7437478D01*
X14958372Y7399184D01*
X14875169Y7343589D01*
X14804411Y7272831D01*
X14748816Y7189628D01*
X14710522Y7097178D01*
X14691000Y6999034D01*
X14691000Y6898966D01*
X14710522Y6800822D01*
X14724071Y6768113D01*
X14678372Y6749184D01*
X14595169Y6693589D01*
X14524411Y6622831D01*
X14501318Y6588270D01*
X14491589Y6602831D01*
X14420831Y6673589D01*
X14337628Y6729184D01*
X14245178Y6767478D01*
X14147034Y6787000D01*
X14046966Y6787000D01*
X13948822Y6767478D01*
X13856372Y6729184D01*
X13773169Y6673589D01*
X13702411Y6602831D01*
X13646816Y6519628D01*
X13608522Y6427178D01*
X13589000Y6329034D01*
X13589000Y6228966D01*
X13608522Y6130822D01*
X13646816Y6038372D01*
X13702411Y5955169D01*
X13773169Y5884411D01*
X13856372Y5828816D01*
X13948822Y5790522D01*
X14046966Y5771000D01*
X14147034Y5771000D01*
X14245178Y5790522D01*
X14337628Y5828816D01*
X14420831Y5884411D01*
X14491589Y5955169D01*
X14514682Y5989730D01*
X14524411Y5975169D01*
X14595169Y5904411D01*
X14678372Y5848816D01*
X14770822Y5810522D01*
X14868966Y5791000D01*
X14969034Y5791000D01*
X15067178Y5810522D01*
X15159628Y5848816D01*
X15242831Y5904411D01*
X15243711Y5905291D01*
X15571000Y5905291D01*
X15571000Y5805223D01*
X15590522Y5707079D01*
X15628816Y5614629D01*
X15684411Y5531426D01*
X15755169Y5460668D01*
X15838372Y5405073D01*
X15930822Y5366779D01*
X16028966Y5347257D01*
X16129034Y5347257D01*
X16227178Y5366779D01*
X16319628Y5405073D01*
X16402831Y5460668D01*
X16473589Y5531426D01*
X16529184Y5614629D01*
X16551376Y5668204D01*
X16555169Y5664411D01*
X16638372Y5608816D01*
X16730822Y5570522D01*
X16828966Y5551000D01*
X16929034Y5551000D01*
X17027178Y5570522D01*
X17119628Y5608816D01*
X17133119Y5617830D01*
X17174636Y5555696D01*
X17235690Y5494642D01*
X17198372Y5479184D01*
X17115169Y5423589D01*
X17044411Y5352831D01*
X16988816Y5269628D01*
X16950522Y5177178D01*
X16931000Y5079034D01*
X16931000Y4978966D01*
X16950522Y4880822D01*
X16988816Y4788372D01*
X17044411Y4705169D01*
X17115169Y4634411D01*
X17198372Y4578816D01*
X17290822Y4540522D01*
X17388966Y4521000D01*
X17489034Y4521000D01*
X17587178Y4540522D01*
X17679628Y4578816D01*
X17762831Y4634411D01*
X17833589Y4705169D01*
X17889184Y4788372D01*
X17927478Y4880822D01*
X17947000Y4978966D01*
X17947000Y5079034D01*
X17927478Y5177178D01*
X17889184Y5269628D01*
X17833589Y5352831D01*
X17772535Y5413885D01*
X17809853Y5429343D01*
X17893056Y5484938D01*
X17963814Y5555696D01*
X18019409Y5638899D01*
X18057703Y5731349D01*
X18077225Y5829493D01*
X18077225Y5929561D01*
X18057703Y6027705D01*
X18019409Y6120155D01*
X17963814Y6203358D01*
X17893056Y6274116D01*
X17809853Y6329711D01*
X17717403Y6368005D01*
X17619259Y6387527D01*
X17519191Y6387527D01*
X17421047Y6368005D01*
X17328597Y6329711D01*
X17315106Y6320697D01*
X17273589Y6382831D01*
X17202831Y6453589D01*
X17119628Y6509184D01*
X17027178Y6547478D01*
X16929034Y6567000D01*
X16828966Y6567000D01*
X16730822Y6547478D01*
X16638372Y6509184D01*
X16555169Y6453589D01*
X16484411Y6382831D01*
X16428816Y6299628D01*
X16406624Y6246053D01*
X16402831Y6249846D01*
X16319628Y6305441D01*
X16227178Y6343735D01*
X16129034Y6363257D01*
X16028966Y6363257D01*
X15930822Y6343735D01*
X15838372Y6305441D01*
X15755169Y6249846D01*
X15684411Y6179088D01*
X15628816Y6095885D01*
X15590522Y6003435D01*
X15571000Y5905291D01*
X15243711Y5905291D01*
X15313589Y5975169D01*
X15369184Y6058372D01*
X15407478Y6150822D01*
X15427000Y6248966D01*
X15427000Y6349034D01*
X15407478Y6447178D01*
X15393929Y6479887D01*
X15439628Y6498816D01*
X15522831Y6554411D01*
X15593589Y6625169D01*
X15649184Y6708372D01*
X15687478Y6800822D01*
X15694528Y6836266D01*
X15780822Y6800522D01*
X15878966Y6781000D01*
X15979034Y6781000D01*
X16077178Y6800522D01*
X16169628Y6838816D01*
X16252831Y6894411D01*
X16323589Y6965169D01*
X16379184Y7048372D01*
X16417478Y7140822D01*
X16437000Y7238966D01*
X16437000Y7339034D01*
X16417478Y7437178D01*
X16379184Y7529628D01*
X16323589Y7612831D01*
X16252831Y7683589D01*
X16169628Y7739184D01*
X16150758Y7747000D01*
X16204050Y7747000D01*
X16351267Y7776283D01*
X16489942Y7833724D01*
X16614747Y7917116D01*
X16720884Y8023253D01*
X16804276Y8148058D01*
X16861717Y8286733D01*
X16891000Y8433950D01*
X16891000Y8584050D01*
X16861717Y8731267D01*
X16804276Y8869942D01*
X16722987Y8991600D01*
X18075013Y8991600D01*
X17993724Y8869942D01*
X17936283Y8731267D01*
X17907000Y8584050D01*
X17907000Y8433950D01*
X17936283Y8286733D01*
X17993724Y8148058D01*
X18077116Y8023253D01*
X18183253Y7917116D01*
X18308058Y7833724D01*
X18446733Y7776283D01*
X18593950Y7747000D01*
X18744050Y7747000D01*
X18891267Y7776283D01*
X19029942Y7833724D01*
X19151600Y7915013D01*
X19151600Y6408080D01*
X19094455Y6408080D01*
X18996311Y6388558D01*
X18903861Y6350264D01*
X18820658Y6294669D01*
X18749900Y6223911D01*
X18694305Y6140708D01*
X18656011Y6048258D01*
X18636489Y5950114D01*
X18636489Y5850046D01*
X18656011Y5751902D01*
X18694305Y5659452D01*
X18749900Y5576249D01*
X18820658Y5505491D01*
X18903861Y5449896D01*
X18996311Y5411602D01*
X19094455Y5392080D01*
X19151600Y5392080D01*
X19151600Y4334820D01*
X19112831Y4373589D01*
X19029628Y4429184D01*
X18937178Y4467478D01*
X18864237Y4481987D01*
X18882831Y4494411D01*
X18953589Y4565169D01*
X19009184Y4648372D01*
X19047478Y4740822D01*
X19067000Y4838966D01*
X19067000Y4939034D01*
X19047478Y5037178D01*
X19009184Y5129628D01*
X18953589Y5212831D01*
X18882831Y5283589D01*
X18799628Y5339184D01*
X18707178Y5377478D01*
X18609034Y5397000D01*
X18508966Y5397000D01*
X18410822Y5377478D01*
X18318372Y5339184D01*
X18235169Y5283589D01*
X18164411Y5212831D01*
X18108816Y5129628D01*
X18070522Y5037178D01*
X18051000Y4939034D01*
X18051000Y4838966D01*
X18070522Y4740822D01*
X18108816Y4648372D01*
X18164411Y4565169D01*
X18235169Y4494411D01*
X18318372Y4438816D01*
X18410822Y4400522D01*
X18483763Y4386013D01*
X18465169Y4373589D01*
X18394411Y4302831D01*
X18338816Y4219628D01*
X18300522Y4127178D01*
X18281000Y4029034D01*
X18281000Y3928966D01*
X18300522Y3830822D01*
X18338816Y3738372D01*
X18394411Y3655169D01*
X18465169Y3584411D01*
X18548372Y3528816D01*
X18640822Y3490522D01*
X18738966Y3471000D01*
X18839034Y3471000D01*
X18937178Y3490522D01*
X19029628Y3528816D01*
X19112831Y3584411D01*
X19151600Y3623180D01*
X19151600Y1482987D01*
X19029942Y1564276D01*
X18891267Y1621717D01*
X18744050Y1651000D01*
X18593950Y1651000D01*
X18446733Y1621717D01*
X18308058Y1564276D01*
X18183253Y1480884D01*
X18077116Y1374747D01*
X17993724Y1249942D01*
X17936283Y1111267D01*
X17907000Y964050D01*
X17907000Y813950D01*
X17936283Y666733D01*
X17993724Y528058D01*
X18075013Y406400D01*
X16722987Y406400D01*
X16804276Y528058D01*
X16861717Y666733D01*
X16891000Y813950D01*
X16891000Y964050D01*
X16861717Y1111267D01*
X16804276Y1249942D01*
X16720884Y1374747D01*
X16614747Y1480884D01*
X16489942Y1564276D01*
X16351267Y1621717D01*
X16204050Y1651000D01*
X16053950Y1651000D01*
X15906733Y1621717D01*
X15768058Y1564276D01*
X15643253Y1480884D01*
X15537116Y1374747D01*
X15453724Y1249942D01*
X15396283Y1111267D01*
X15367000Y964050D01*
X15367000Y813950D01*
X15396283Y666733D01*
X15453724Y528058D01*
X15535013Y406400D01*
X14182987Y406400D01*
X14264276Y528058D01*
X14321717Y666733D01*
X14351000Y813950D01*
X14351000Y964050D01*
X14321717Y1111267D01*
X14264276Y1249942D01*
X14180884Y1374747D01*
X14074747Y1480884D01*
X13949942Y1564276D01*
X13897668Y1585928D01*
X13925191Y1652374D01*
X13944713Y1750518D01*
X13944713Y1850586D01*
X13925191Y1948730D01*
X13893653Y2024869D01*
X13952831Y2064411D01*
X14023589Y2135169D01*
X14026171Y2139034D01*
X16621000Y2139034D01*
X16621000Y2038966D01*
X16640522Y1940822D01*
X16678816Y1848372D01*
X16734411Y1765169D01*
X16805169Y1694411D01*
X16888372Y1638816D01*
X16980822Y1600522D01*
X17078966Y1581000D01*
X17179034Y1581000D01*
X17277178Y1600522D01*
X17369628Y1638816D01*
X17452831Y1694411D01*
X17523589Y1765169D01*
X17579184Y1848372D01*
X17617478Y1940822D01*
X17637000Y2038966D01*
X17637000Y2139034D01*
X17617478Y2237178D01*
X17579184Y2329628D01*
X17523589Y2412831D01*
X17452831Y2483589D01*
X17369628Y2539184D01*
X17277178Y2577478D01*
X17179034Y2597000D01*
X17078966Y2597000D01*
X16980822Y2577478D01*
X16888372Y2539184D01*
X16805169Y2483589D01*
X16734411Y2412831D01*
X16678816Y2329628D01*
X16640522Y2237178D01*
X16621000Y2139034D01*
X14026171Y2139034D01*
X14079184Y2218372D01*
X14117478Y2310822D01*
X14137000Y2408966D01*
X14137000Y2509034D01*
X14117478Y2607178D01*
X14079184Y2699628D01*
X14078160Y2701160D01*
X14078966Y2701000D01*
X14179034Y2701000D01*
X14277178Y2720522D01*
X14369628Y2758816D01*
X14382751Y2767585D01*
X14404411Y2735169D01*
X14475169Y2664411D01*
X14558372Y2608816D01*
X14650822Y2570522D01*
X14748966Y2551000D01*
X14849034Y2551000D01*
X14947178Y2570522D01*
X15039628Y2608816D01*
X15122831Y2664411D01*
X15129762Y2671342D01*
X15208372Y2618816D01*
X15300822Y2580522D01*
X15398966Y2561000D01*
X15499034Y2561000D01*
X15597178Y2580522D01*
X15641869Y2599034D01*
X17751000Y2599034D01*
X17751000Y2498966D01*
X17770522Y2400822D01*
X17808816Y2308372D01*
X17864411Y2225169D01*
X17935169Y2154411D01*
X18018372Y2098816D01*
X18110822Y2060522D01*
X18208966Y2041000D01*
X18309034Y2041000D01*
X18407178Y2060522D01*
X18499628Y2098816D01*
X18582831Y2154411D01*
X18653589Y2225169D01*
X18709184Y2308372D01*
X18747478Y2400822D01*
X18767000Y2498966D01*
X18767000Y2599034D01*
X18747478Y2697178D01*
X18709184Y2789628D01*
X18653589Y2872831D01*
X18582831Y2943589D01*
X18499628Y2999184D01*
X18407178Y3037478D01*
X18309034Y3057000D01*
X18208966Y3057000D01*
X18110822Y3037478D01*
X18018372Y2999184D01*
X17935169Y2943589D01*
X17864411Y2872831D01*
X17808816Y2789628D01*
X17770522Y2697178D01*
X17751000Y2599034D01*
X15641869Y2599034D01*
X15689628Y2618816D01*
X15772831Y2674411D01*
X15843589Y2745169D01*
X15899184Y2828372D01*
X15937478Y2920822D01*
X15957000Y3018966D01*
X15957000Y3119034D01*
X15949574Y3156367D01*
X15979628Y3168816D01*
X15979954Y3169034D01*
X16311000Y3169034D01*
X16311000Y3068966D01*
X16330522Y2970822D01*
X16368816Y2878372D01*
X16424411Y2795169D01*
X16495169Y2724411D01*
X16578372Y2668816D01*
X16670822Y2630522D01*
X16768966Y2611000D01*
X16869034Y2611000D01*
X16967178Y2630522D01*
X17059628Y2668816D01*
X17142831Y2724411D01*
X17213589Y2795169D01*
X17269184Y2878372D01*
X17307478Y2970822D01*
X17327000Y3068966D01*
X17327000Y3169034D01*
X17307478Y3267178D01*
X17269184Y3359628D01*
X17213589Y3442831D01*
X17142831Y3513589D01*
X17059628Y3569184D01*
X16967178Y3607478D01*
X16869034Y3627000D01*
X16768966Y3627000D01*
X16670822Y3607478D01*
X16578372Y3569184D01*
X16495169Y3513589D01*
X16424411Y3442831D01*
X16368816Y3359628D01*
X16330522Y3267178D01*
X16311000Y3169034D01*
X15979954Y3169034D01*
X16062831Y3224411D01*
X16133589Y3295169D01*
X16189184Y3378372D01*
X16227478Y3470822D01*
X16247000Y3568966D01*
X16247000Y3669034D01*
X16227478Y3767178D01*
X16189184Y3859628D01*
X16133589Y3942831D01*
X16062831Y4013589D01*
X15979628Y4069184D01*
X15887178Y4107478D01*
X15789034Y4127000D01*
X15688966Y4127000D01*
X15590822Y4107478D01*
X15498372Y4069184D01*
X15415169Y4013589D01*
X15344411Y3942831D01*
X15288816Y3859628D01*
X15250522Y3767178D01*
X15231000Y3669034D01*
X15231000Y3568966D01*
X15238426Y3531633D01*
X15208372Y3519184D01*
X15125169Y3463589D01*
X15118238Y3456658D01*
X15039628Y3509184D01*
X14947178Y3547478D01*
X14849034Y3567000D01*
X14748966Y3567000D01*
X14650822Y3547478D01*
X14558372Y3509184D01*
X14545249Y3500415D01*
X14523589Y3532831D01*
X14452831Y3603589D01*
X14369628Y3659184D01*
X14277178Y3697478D01*
X14179034Y3717000D01*
X14078966Y3717000D01*
X13980822Y3697478D01*
X13888372Y3659184D01*
X13805169Y3603589D01*
X13734411Y3532831D01*
X13678816Y3449628D01*
X13640522Y3357178D01*
X13621000Y3259034D01*
X13621000Y3158966D01*
X13640522Y3060822D01*
X13678816Y2968372D01*
X13679840Y2966840D01*
X13679034Y2967000D01*
X13578966Y2967000D01*
X13480822Y2947478D01*
X13388372Y2909184D01*
X13305169Y2853589D01*
X13234411Y2782831D01*
X13178816Y2699628D01*
X13140522Y2607178D01*
X13121000Y2509034D01*
X13121000Y2408966D01*
X13140522Y2310822D01*
X13172060Y2234683D01*
X13112882Y2195141D01*
X13042124Y2124383D01*
X12986529Y2041180D01*
X12948235Y1948730D01*
X12928713Y1850586D01*
X12928713Y1750518D01*
X12948235Y1652374D01*
X12986529Y1559924D01*
X13042124Y1476721D01*
X13070607Y1448238D01*
X12997116Y1374747D01*
X12913724Y1249942D01*
X12856283Y1111267D01*
X12827000Y964050D01*
X12827000Y813950D01*
X12856283Y666733D01*
X12913724Y528058D01*
X12995013Y406400D01*
X11642987Y406400D01*
X11724276Y528058D01*
X11781717Y666733D01*
X11811000Y813950D01*
X11811000Y964050D01*
X11781717Y1111267D01*
X11724276Y1249942D01*
X11684793Y1309034D01*
X11801000Y1309034D01*
X11801000Y1208966D01*
X11820522Y1110822D01*
X11858816Y1018372D01*
X11914411Y935169D01*
X11985169Y864411D01*
X12068372Y808816D01*
X12160822Y770522D01*
X12258966Y751000D01*
X12359034Y751000D01*
X12457178Y770522D01*
X12549628Y808816D01*
X12632831Y864411D01*
X12703589Y935169D01*
X12759184Y1018372D01*
X12797478Y1110822D01*
X12817000Y1208966D01*
X12817000Y1309034D01*
X12797478Y1407178D01*
X12759184Y1499628D01*
X12703589Y1582831D01*
X12632831Y1653589D01*
X12549628Y1709184D01*
X12457178Y1747478D01*
X12359034Y1767000D01*
X12258966Y1767000D01*
X12160822Y1747478D01*
X12068372Y1709184D01*
X11985169Y1653589D01*
X11914411Y1582831D01*
X11858816Y1499628D01*
X11820522Y1407178D01*
X11801000Y1309034D01*
X11684793Y1309034D01*
X11640884Y1374747D01*
X11534747Y1480884D01*
X11409942Y1564276D01*
X11334108Y1595688D01*
X11403589Y1665169D01*
X11459184Y1748372D01*
X11497478Y1840822D01*
X11517000Y1938966D01*
X11517000Y2039034D01*
X11497478Y2137178D01*
X11459184Y2229628D01*
X11403589Y2312831D01*
X11332831Y2383589D01*
X11249628Y2439184D01*
X11157178Y2477478D01*
X11059034Y2497000D01*
X10958966Y2497000D01*
X10860822Y2477478D01*
X10768372Y2439184D01*
X10685169Y2383589D01*
X10614411Y2312831D01*
X10558816Y2229628D01*
X10520522Y2137178D01*
X10501000Y2039034D01*
X10501000Y1938966D01*
X10520522Y1840822D01*
X10558816Y1748372D01*
X10614411Y1665169D01*
X10685169Y1594411D01*
X10714116Y1575069D01*
X10688058Y1564276D01*
X10563253Y1480884D01*
X10457116Y1374747D01*
X10373724Y1249942D01*
X10316283Y1111267D01*
X10287000Y964050D01*
X10287000Y813950D01*
X10316283Y666733D01*
X10373724Y528058D01*
X10455013Y406400D01*
X9102987Y406400D01*
X9184276Y528058D01*
X9241717Y666733D01*
X9271000Y813950D01*
X9271000Y964050D01*
X9241717Y1111267D01*
X9184276Y1249942D01*
X9100884Y1374747D01*
X8994747Y1480884D01*
X8869942Y1564276D01*
X8731267Y1621717D01*
X8584050Y1651000D01*
X8433950Y1651000D01*
X8286733Y1621717D01*
X8148058Y1564276D01*
X8023253Y1480884D01*
X7917116Y1374747D01*
X7833724Y1249942D01*
X7776283Y1111267D01*
X7747000Y964050D01*
X7747000Y813950D01*
X7776283Y666733D01*
X7833724Y528058D01*
X7915013Y406400D01*
X6562987Y406400D01*
X6644276Y528058D01*
X6701717Y666733D01*
X6731000Y813950D01*
X6731000Y964050D01*
X6701717Y1111267D01*
X6644276Y1249942D01*
X6560884Y1374747D01*
X6454747Y1480884D01*
X6329942Y1564276D01*
X6191267Y1621717D01*
X6044050Y1651000D01*
X5893950Y1651000D01*
X5746733Y1621717D01*
X5608058Y1564276D01*
X5483253Y1480884D01*
X5377116Y1374747D01*
X5293724Y1249942D01*
X5236283Y1111267D01*
X5207000Y964050D01*
X5207000Y813950D01*
X5236283Y666733D01*
X5293724Y528058D01*
X5375013Y406400D01*
X4022987Y406400D01*
X4104276Y528058D01*
X4161717Y666733D01*
X4191000Y813950D01*
X4191000Y964050D01*
X4161717Y1111267D01*
X4104276Y1249942D01*
X4020884Y1374747D01*
X3914747Y1480884D01*
X3789942Y1564276D01*
X3651267Y1621717D01*
X3504050Y1651000D01*
X3353950Y1651000D01*
X3206733Y1621717D01*
X3068058Y1564276D01*
X2943253Y1480884D01*
X2837116Y1374747D01*
X2753724Y1249942D01*
X2696283Y1111267D01*
X2667000Y964050D01*
X2667000Y813950D01*
X2696283Y666733D01*
X2753724Y528058D01*
X2835013Y406400D01*
X1482987Y406400D01*
X1564276Y528058D01*
X1621717Y666733D01*
X1651000Y813950D01*
X1651000Y964050D01*
X1621717Y1111267D01*
X1564276Y1249942D01*
X1480884Y1374747D01*
X1374747Y1480884D01*
X1249942Y1564276D01*
X1111267Y1621717D01*
X964050Y1651000D01*
X813950Y1651000D01*
X666733Y1621717D01*
X528058Y1564276D01*
X406400Y1482987D01*
X406400Y2949034D01*
X1441000Y2949034D01*
X1441000Y2848966D01*
X1460522Y2750822D01*
X1498816Y2658372D01*
X1554411Y2575169D01*
X1625169Y2504411D01*
X1708372Y2448816D01*
X1800822Y2410522D01*
X1898966Y2391000D01*
X1999034Y2391000D01*
X2097178Y2410522D01*
X2189628Y2448816D01*
X2272831Y2504411D01*
X2343589Y2575169D01*
X2399184Y2658372D01*
X2437478Y2750822D01*
X2457000Y2848966D01*
X2457000Y2949034D01*
X2437478Y3047178D01*
X2399431Y3139034D01*
X4491000Y3139034D01*
X4491000Y3038966D01*
X4510522Y2940822D01*
X4548816Y2848372D01*
X4604411Y2765169D01*
X4675169Y2694411D01*
X4758372Y2638816D01*
X4850822Y2600522D01*
X4948966Y2581000D01*
X5049034Y2581000D01*
X5147178Y2600522D01*
X5216012Y2629034D01*
X5531000Y2629034D01*
X5531000Y2528966D01*
X5550522Y2430822D01*
X5588816Y2338372D01*
X5644411Y2255169D01*
X5715169Y2184411D01*
X5798372Y2128816D01*
X5890822Y2090522D01*
X5988966Y2071000D01*
X6089034Y2071000D01*
X6187178Y2090522D01*
X6279628Y2128816D01*
X6362831Y2184411D01*
X6433589Y2255169D01*
X6489184Y2338372D01*
X6527478Y2430822D01*
X6547000Y2528966D01*
X6547000Y2629034D01*
X6527478Y2727178D01*
X6489184Y2819628D01*
X6433589Y2902831D01*
X6362831Y2973589D01*
X6279628Y3029184D01*
X6187178Y3067478D01*
X6089034Y3087000D01*
X5988966Y3087000D01*
X5890822Y3067478D01*
X5798372Y3029184D01*
X5715169Y2973589D01*
X5644411Y2902831D01*
X5588816Y2819628D01*
X5550522Y2727178D01*
X5531000Y2629034D01*
X5216012Y2629034D01*
X5239628Y2638816D01*
X5322831Y2694411D01*
X5393589Y2765169D01*
X5449184Y2848372D01*
X5487478Y2940822D01*
X5507000Y3038966D01*
X5507000Y3129387D01*
X7783924Y3129387D01*
X7783924Y3029319D01*
X7803446Y2931175D01*
X7841740Y2838725D01*
X7897335Y2755522D01*
X7968093Y2684764D01*
X8051296Y2629169D01*
X8143746Y2590875D01*
X8241890Y2571353D01*
X8341958Y2571353D01*
X8440102Y2590875D01*
X8532552Y2629169D01*
X8585218Y2664360D01*
X8595167Y2654411D01*
X8678370Y2598816D01*
X8770820Y2560522D01*
X8868964Y2541000D01*
X8969032Y2541000D01*
X9067176Y2560522D01*
X9159626Y2598816D01*
X9214258Y2635320D01*
X9235167Y2614411D01*
X9318370Y2558816D01*
X9410820Y2520522D01*
X9508964Y2501000D01*
X9609032Y2501000D01*
X9707176Y2520522D01*
X9799626Y2558816D01*
X9882829Y2614411D01*
X9953587Y2685169D01*
X10009182Y2768372D01*
X10047476Y2860822D01*
X10066998Y2958966D01*
X10066998Y3059034D01*
X10047476Y3157178D01*
X10009182Y3249628D01*
X9953587Y3332831D01*
X9882829Y3403589D01*
X9806563Y3454549D01*
X10732649Y3454549D01*
X10732649Y3354481D01*
X10752171Y3256337D01*
X10790465Y3163887D01*
X10846060Y3080684D01*
X10916818Y3009926D01*
X11000021Y2954331D01*
X11092471Y2916037D01*
X11190615Y2896515D01*
X11290683Y2896515D01*
X11388827Y2916037D01*
X11442339Y2938202D01*
X11464411Y2905169D01*
X11535169Y2834411D01*
X11618372Y2778816D01*
X11710822Y2740522D01*
X11808966Y2721000D01*
X11909034Y2721000D01*
X12007178Y2740522D01*
X12099628Y2778816D01*
X12182831Y2834411D01*
X12253589Y2905169D01*
X12309184Y2988372D01*
X12347478Y3080822D01*
X12361437Y3151000D01*
X12415940Y3151000D01*
X12514084Y3170522D01*
X12606534Y3208816D01*
X12689737Y3264411D01*
X12760495Y3335169D01*
X12763099Y3339067D01*
X12808372Y3308816D01*
X12900822Y3270522D01*
X12998966Y3251000D01*
X13099034Y3251000D01*
X13197178Y3270522D01*
X13289628Y3308816D01*
X13372831Y3364411D01*
X13443589Y3435169D01*
X13499184Y3518372D01*
X13537478Y3610822D01*
X13557000Y3708966D01*
X13557000Y3809034D01*
X13537478Y3907178D01*
X13499184Y3999628D01*
X13443589Y4082831D01*
X13372831Y4153589D01*
X13289628Y4209184D01*
X13197178Y4247478D01*
X13099034Y4267000D01*
X12998966Y4267000D01*
X12900822Y4247478D01*
X12808372Y4209184D01*
X12725169Y4153589D01*
X12654411Y4082831D01*
X12651807Y4078933D01*
X12615918Y4102914D01*
X12627478Y4130822D01*
X12647000Y4228966D01*
X12647000Y4329034D01*
X12627478Y4427178D01*
X12589184Y4519628D01*
X12533589Y4602831D01*
X12462831Y4673589D01*
X12379628Y4729184D01*
X12317340Y4754985D01*
X12385002Y4822647D01*
X12432389Y4893566D01*
X15115488Y4893566D01*
X15115488Y4793498D01*
X15135010Y4695354D01*
X15173304Y4602904D01*
X15228899Y4519701D01*
X15299657Y4448943D01*
X15382860Y4393348D01*
X15475310Y4355054D01*
X15573454Y4335532D01*
X15673522Y4335532D01*
X15771666Y4355054D01*
X15864116Y4393348D01*
X15939921Y4443999D01*
X15958820Y4398372D01*
X16014415Y4315169D01*
X16085173Y4244411D01*
X16168376Y4188816D01*
X16260826Y4150522D01*
X16358970Y4131000D01*
X16459038Y4131000D01*
X16557182Y4150522D01*
X16649632Y4188816D01*
X16732835Y4244411D01*
X16803593Y4315169D01*
X16859188Y4398372D01*
X16897482Y4490822D01*
X16917004Y4588966D01*
X16917004Y4689034D01*
X16897482Y4787178D01*
X16859188Y4879628D01*
X16803593Y4962831D01*
X16732835Y5033589D01*
X16649632Y5089184D01*
X16557182Y5127478D01*
X16459038Y5147000D01*
X16358970Y5147000D01*
X16260826Y5127478D01*
X16168376Y5089184D01*
X16092571Y5038533D01*
X16073672Y5084160D01*
X16018077Y5167363D01*
X15947319Y5238121D01*
X15864116Y5293716D01*
X15771666Y5332010D01*
X15673522Y5351532D01*
X15573454Y5351532D01*
X15475310Y5332010D01*
X15382860Y5293716D01*
X15299657Y5238121D01*
X15228899Y5167363D01*
X15173304Y5084160D01*
X15135010Y4991710D01*
X15115488Y4893566D01*
X12432389Y4893566D01*
X12440597Y4905850D01*
X12478891Y4998300D01*
X12498413Y5096444D01*
X12498413Y5196512D01*
X12478891Y5294656D01*
X12440597Y5387106D01*
X12385002Y5470309D01*
X12314244Y5541067D01*
X12231041Y5596662D01*
X12138591Y5634956D01*
X12040447Y5654478D01*
X11995954Y5654478D01*
X12022551Y5718689D01*
X12042073Y5816833D01*
X12042073Y5916901D01*
X12038740Y5933656D01*
X12044411Y5925169D01*
X12115169Y5854411D01*
X12198372Y5798816D01*
X12290822Y5760522D01*
X12388966Y5741000D01*
X12489034Y5741000D01*
X12587178Y5760522D01*
X12679628Y5798816D01*
X12762831Y5854411D01*
X12833589Y5925169D01*
X12889184Y6008372D01*
X12927478Y6100822D01*
X12947000Y6198966D01*
X12947000Y6299034D01*
X12927478Y6397178D01*
X12889184Y6489628D01*
X12833589Y6572831D01*
X12762831Y6643589D01*
X12679628Y6699184D01*
X12587178Y6737478D01*
X12489034Y6757000D01*
X12388966Y6757000D01*
X12290822Y6737478D01*
X12198372Y6699184D01*
X12115169Y6643589D01*
X12044411Y6572831D01*
X11988816Y6489628D01*
X11950522Y6397178D01*
X11931000Y6299034D01*
X11931000Y6198966D01*
X11934333Y6182211D01*
X11928662Y6190698D01*
X11857904Y6261456D01*
X11774701Y6317051D01*
X11682251Y6355345D01*
X11584107Y6374867D01*
X11484039Y6374867D01*
X11385895Y6355345D01*
X11293445Y6317051D01*
X11210242Y6261456D01*
X11139484Y6190698D01*
X11083889Y6107495D01*
X11045595Y6015045D01*
X11026073Y5916901D01*
X11026073Y5816833D01*
X11045595Y5718689D01*
X11083889Y5626239D01*
X11139484Y5543036D01*
X11210242Y5472278D01*
X11293445Y5416683D01*
X11385895Y5378389D01*
X11484039Y5358867D01*
X11528532Y5358867D01*
X11501935Y5294656D01*
X11482413Y5196512D01*
X11482413Y5096444D01*
X11501935Y4998300D01*
X11540229Y4905850D01*
X11595824Y4822647D01*
X11666582Y4751889D01*
X11749785Y4696294D01*
X11812073Y4670493D01*
X11744411Y4602831D01*
X11688816Y4519628D01*
X11650522Y4427178D01*
X11631000Y4329034D01*
X11631000Y4228966D01*
X11650522Y4130822D01*
X11688816Y4038372D01*
X11744411Y3955169D01*
X11815169Y3884411D01*
X11888988Y3835086D01*
X11877428Y3807178D01*
X11863469Y3737000D01*
X11808966Y3737000D01*
X11710822Y3717478D01*
X11657310Y3695313D01*
X11635238Y3728346D01*
X11564480Y3799104D01*
X11481277Y3854699D01*
X11388827Y3892993D01*
X11290683Y3912515D01*
X11190615Y3912515D01*
X11092471Y3892993D01*
X11000021Y3854699D01*
X10916818Y3799104D01*
X10846060Y3728346D01*
X10790465Y3645143D01*
X10752171Y3552693D01*
X10732649Y3454549D01*
X9806563Y3454549D01*
X9799626Y3459184D01*
X9707176Y3497478D01*
X9609032Y3517000D01*
X9508964Y3517000D01*
X9410820Y3497478D01*
X9318370Y3459184D01*
X9263738Y3422680D01*
X9242829Y3443589D01*
X9159626Y3499184D01*
X9067176Y3537478D01*
X8969032Y3557000D01*
X8868964Y3557000D01*
X8770820Y3537478D01*
X8678370Y3499184D01*
X8625704Y3463993D01*
X8615755Y3473942D01*
X8532552Y3529537D01*
X8440102Y3567831D01*
X8341958Y3587353D01*
X8241890Y3587353D01*
X8143746Y3567831D01*
X8051296Y3529537D01*
X7968093Y3473942D01*
X7897335Y3403184D01*
X7841740Y3319981D01*
X7803446Y3227531D01*
X7783924Y3129387D01*
X5507000Y3129387D01*
X5507000Y3139034D01*
X5487478Y3237178D01*
X5449184Y3329628D01*
X5393589Y3412831D01*
X5322831Y3483589D01*
X5239628Y3539184D01*
X5147178Y3577478D01*
X5049034Y3597000D01*
X4948966Y3597000D01*
X4850822Y3577478D01*
X4758372Y3539184D01*
X4675169Y3483589D01*
X4604411Y3412831D01*
X4548816Y3329628D01*
X4510522Y3237178D01*
X4491000Y3139034D01*
X2399431Y3139034D01*
X2399184Y3139628D01*
X2343589Y3222831D01*
X2272831Y3293589D01*
X2189628Y3349184D01*
X2097178Y3387478D01*
X1999034Y3407000D01*
X1898966Y3407000D01*
X1800822Y3387478D01*
X1708372Y3349184D01*
X1625169Y3293589D01*
X1554411Y3222831D01*
X1498816Y3139628D01*
X1460522Y3047178D01*
X1441000Y2949034D01*
X406400Y2949034D01*
X406400Y4668950D01*
X3427623Y4668950D01*
X3427623Y4568882D01*
X3447145Y4470738D01*
X3485439Y4378288D01*
X3541034Y4295085D01*
X3611792Y4224327D01*
X3694995Y4168732D01*
X3787445Y4130438D01*
X3885589Y4110916D01*
X3985657Y4110916D01*
X4083801Y4130438D01*
X4176251Y4168732D01*
X4259454Y4224327D01*
X4330212Y4295085D01*
X4385807Y4378288D01*
X4424101Y4470738D01*
X4443623Y4568882D01*
X4443623Y4668950D01*
X4424101Y4767094D01*
X4385807Y4859544D01*
X4339375Y4929034D01*
X5931000Y4929034D01*
X5931000Y4828966D01*
X5950522Y4730822D01*
X5988816Y4638372D01*
X6044411Y4555169D01*
X6115169Y4484411D01*
X6198372Y4428816D01*
X6290822Y4390522D01*
X6358509Y4377058D01*
X6341000Y4289034D01*
X6341000Y4188966D01*
X6360522Y4090822D01*
X6398816Y3998372D01*
X6454411Y3915169D01*
X6525169Y3844411D01*
X6608372Y3788816D01*
X6700822Y3750522D01*
X6798966Y3731000D01*
X6899034Y3731000D01*
X6997178Y3750522D01*
X7089628Y3788816D01*
X7172831Y3844411D01*
X7243589Y3915169D01*
X7299184Y3998372D01*
X7337478Y4090822D01*
X7357000Y4188966D01*
X7357000Y4289034D01*
X7337478Y4387178D01*
X7299184Y4479628D01*
X7243589Y4562831D01*
X7172831Y4633589D01*
X7089628Y4689184D01*
X6997178Y4727478D01*
X6929491Y4740942D01*
X6947000Y4828966D01*
X6947000Y4929034D01*
X6927478Y5027178D01*
X6889184Y5119628D01*
X6833589Y5202831D01*
X6762831Y5273589D01*
X6679628Y5329184D01*
X6587178Y5367478D01*
X6489034Y5387000D01*
X6388966Y5387000D01*
X6290822Y5367478D01*
X6198372Y5329184D01*
X6115169Y5273589D01*
X6044411Y5202831D01*
X5988816Y5119628D01*
X5950522Y5027178D01*
X5931000Y4929034D01*
X4339375Y4929034D01*
X4330212Y4942747D01*
X4259454Y5013505D01*
X4176251Y5069100D01*
X4083801Y5107394D01*
X3985657Y5126916D01*
X3885589Y5126916D01*
X3787445Y5107394D01*
X3694995Y5069100D01*
X3611792Y5013505D01*
X3541034Y4942747D01*
X3485439Y4859544D01*
X3447145Y4767094D01*
X3427623Y4668950D01*
X406400Y4668950D01*
X406400Y6899034D01*
X4081000Y6899034D01*
X4081000Y6798966D01*
X4100522Y6700822D01*
X4138816Y6608372D01*
X4194411Y6525169D01*
X4265169Y6454411D01*
X4348372Y6398816D01*
X4440822Y6360522D01*
X4538966Y6341000D01*
X4639034Y6341000D01*
X4737178Y6360522D01*
X4829628Y6398816D01*
X4912831Y6454411D01*
X4983589Y6525169D01*
X5015659Y6573165D01*
X5054411Y6515169D01*
X5125169Y6444411D01*
X5208372Y6388816D01*
X5300822Y6350522D01*
X5398966Y6331000D01*
X5499034Y6331000D01*
X5539423Y6339034D01*
X6790999Y6339034D01*
X6790999Y6238966D01*
X6810521Y6140822D01*
X6848815Y6048372D01*
X6904410Y5965169D01*
X6975168Y5894411D01*
X7058371Y5838816D01*
X7150821Y5800522D01*
X7248965Y5781000D01*
X7349033Y5781000D01*
X7447177Y5800522D01*
X7539627Y5838816D01*
X7622830Y5894411D01*
X7693588Y5965169D01*
X7749183Y6048372D01*
X7787477Y6140822D01*
X7806999Y6238966D01*
X7806999Y6339034D01*
X7787477Y6437178D01*
X7749183Y6529628D01*
X7716171Y6579034D01*
X9441000Y6579034D01*
X9441000Y6478966D01*
X9460522Y6380822D01*
X9498816Y6288372D01*
X9554411Y6205169D01*
X9625169Y6134411D01*
X9708372Y6078816D01*
X9800822Y6040522D01*
X9898966Y6021000D01*
X9999034Y6021000D01*
X10097178Y6040522D01*
X10189628Y6078816D01*
X10272831Y6134411D01*
X10343589Y6205169D01*
X10399184Y6288372D01*
X10437478Y6380822D01*
X10457000Y6478966D01*
X10457000Y6579034D01*
X10437478Y6677178D01*
X10399184Y6769628D01*
X10343589Y6852831D01*
X10272831Y6923589D01*
X10189628Y6979184D01*
X10097178Y7017478D01*
X9999034Y7037000D01*
X9898966Y7037000D01*
X9800822Y7017478D01*
X9708372Y6979184D01*
X9625169Y6923589D01*
X9554411Y6852831D01*
X9498816Y6769628D01*
X9460522Y6677178D01*
X9441000Y6579034D01*
X7716171Y6579034D01*
X7693588Y6612831D01*
X7622830Y6683589D01*
X7539627Y6739184D01*
X7447177Y6777478D01*
X7349033Y6797000D01*
X7248965Y6797000D01*
X7150821Y6777478D01*
X7058371Y6739184D01*
X6975168Y6683589D01*
X6904410Y6612831D01*
X6848815Y6529628D01*
X6810521Y6437178D01*
X6790999Y6339034D01*
X5539423Y6339034D01*
X5597178Y6350522D01*
X5689628Y6388816D01*
X5772831Y6444411D01*
X5843589Y6515169D01*
X5899184Y6598372D01*
X5937478Y6690822D01*
X5957000Y6788966D01*
X5957000Y6889034D01*
X5937478Y6987178D01*
X5899184Y7079628D01*
X5843589Y7162831D01*
X5772831Y7233589D01*
X5689628Y7289184D01*
X5597178Y7327478D01*
X5499034Y7347000D01*
X5398966Y7347000D01*
X5300822Y7327478D01*
X5208372Y7289184D01*
X5125169Y7233589D01*
X5054411Y7162831D01*
X5022341Y7114835D01*
X4983589Y7172831D01*
X4912831Y7243589D01*
X4829628Y7299184D01*
X4737178Y7337478D01*
X4639034Y7357000D01*
X4538966Y7357000D01*
X4440822Y7337478D01*
X4348372Y7299184D01*
X4265169Y7243589D01*
X4194411Y7172831D01*
X4138816Y7089628D01*
X4100522Y6997178D01*
X4081000Y6899034D01*
X406400Y6899034D01*
X406400Y7915013D01*
X528058Y7833724D01*
X666733Y7776283D01*
X813950Y7747000D01*
X964050Y7747000D01*
X1111267Y7776283D01*
X1249942Y7833724D01*
X1374747Y7917116D01*
X1480884Y8023253D01*
X1564276Y8148058D01*
X1621717Y8286733D01*
X1651000Y8433950D01*
X1651000Y8584050D01*
X1621717Y8731267D01*
X1564276Y8869942D01*
X1482987Y8991600D01*
X2835013Y8991600D01*
X2753724Y8869942D01*
D13*
G36*
X18732500Y876300D02*
G01*
X18605500Y876300D01*
X18605500Y1663700D01*
X18732500Y1663700D01*
X18732500Y876300D01*
G37*
X18732500Y876300D02*
X18605500Y876300D01*
X18605500Y1663700D01*
X18732500Y1663700D01*
X18732500Y876300D01*
G36*
X18732500Y825500D02*
G01*
X17843500Y825500D01*
X17843500Y952500D01*
X18732500Y952500D01*
X18732500Y825500D01*
G37*
X18732500Y825500D02*
X17843500Y825500D01*
X17843500Y952500D01*
X18732500Y952500D01*
X18732500Y825500D01*
%TD*%
M02*
