%TF.GenerationSoftware,KiCad,Pcbnew,5.1.5-1.fc31*%
%TF.CreationDate,2020-04-06T00:23:24-07:00*%
%TF.ProjectId,prom,70726f6d-2e6b-4696-9361-645f70636258,rev?*%
%TF.SameCoordinates,PX8461678PY580d428*%
%TF.FileFunction,Soldermask,Top*%
%TF.FilePolarity,Negative*%
%FSLAX46Y46*%
G04 Gerber Fmt 4.6, Leading zero omitted, Abs format (unit mm)*
G04 Created by KiCad (PCBNEW 5.1.5-1.fc31) date 2020-04-06 00:23:24*
%MOMM*%
%LPD*%
G04 APERTURE LIST*
%ADD10C,0.100000*%
G04 APERTURE END LIST*
D10*
G36*
X18831255Y1423884D02*
G01*
X18831257Y1423883D01*
X18831258Y1423883D01*
X18867748Y1408768D01*
X18932488Y1381952D01*
X19023595Y1321076D01*
X19101076Y1243595D01*
X19161952Y1152488D01*
X19168649Y1136320D01*
X19199086Y1062840D01*
X19203884Y1051255D01*
X19225260Y943787D01*
X19225260Y834213D01*
X19203884Y726745D01*
X19161952Y625512D01*
X19101076Y534405D01*
X19023595Y456924D01*
X18932488Y396048D01*
X18881872Y375082D01*
X18831258Y354117D01*
X18831257Y354117D01*
X18831255Y354116D01*
X18723787Y332740D01*
X18614213Y332740D01*
X18506745Y354116D01*
X18506743Y354117D01*
X18506742Y354117D01*
X18456128Y375082D01*
X18405512Y396048D01*
X18314405Y456924D01*
X18236924Y534405D01*
X18176048Y625512D01*
X18134116Y726745D01*
X18112740Y834213D01*
X18112740Y943787D01*
X18134116Y1051255D01*
X18138915Y1062840D01*
X18169351Y1136320D01*
X18176048Y1152488D01*
X18236924Y1243595D01*
X18314405Y1321076D01*
X18405512Y1381952D01*
X18470252Y1408768D01*
X18506742Y1423883D01*
X18506743Y1423883D01*
X18506745Y1423884D01*
X18614213Y1445260D01*
X18723787Y1445260D01*
X18831255Y1423884D01*
G37*
G36*
X16291255Y1423884D02*
G01*
X16291257Y1423883D01*
X16291258Y1423883D01*
X16327748Y1408768D01*
X16392488Y1381952D01*
X16483595Y1321076D01*
X16561076Y1243595D01*
X16621952Y1152488D01*
X16628649Y1136320D01*
X16659086Y1062840D01*
X16663884Y1051255D01*
X16685260Y943787D01*
X16685260Y834213D01*
X16663884Y726745D01*
X16621952Y625512D01*
X16561076Y534405D01*
X16483595Y456924D01*
X16392488Y396048D01*
X16341872Y375082D01*
X16291258Y354117D01*
X16291257Y354117D01*
X16291255Y354116D01*
X16183787Y332740D01*
X16074213Y332740D01*
X15966745Y354116D01*
X15966743Y354117D01*
X15966742Y354117D01*
X15916128Y375082D01*
X15865512Y396048D01*
X15774405Y456924D01*
X15696924Y534405D01*
X15636048Y625512D01*
X15594116Y726745D01*
X15572740Y834213D01*
X15572740Y943787D01*
X15594116Y1051255D01*
X15598915Y1062840D01*
X15629351Y1136320D01*
X15636048Y1152488D01*
X15696924Y1243595D01*
X15774405Y1321076D01*
X15865512Y1381952D01*
X15930252Y1408768D01*
X15966742Y1423883D01*
X15966743Y1423883D01*
X15966745Y1423884D01*
X16074213Y1445260D01*
X16183787Y1445260D01*
X16291255Y1423884D01*
G37*
G36*
X1051255Y1423884D02*
G01*
X1051257Y1423883D01*
X1051258Y1423883D01*
X1087748Y1408768D01*
X1152488Y1381952D01*
X1243595Y1321076D01*
X1321076Y1243595D01*
X1381952Y1152488D01*
X1388649Y1136320D01*
X1419086Y1062840D01*
X1423884Y1051255D01*
X1445260Y943787D01*
X1445260Y834213D01*
X1423884Y726745D01*
X1381952Y625512D01*
X1321076Y534405D01*
X1243595Y456924D01*
X1152488Y396048D01*
X1101872Y375082D01*
X1051258Y354117D01*
X1051257Y354117D01*
X1051255Y354116D01*
X943787Y332740D01*
X834213Y332740D01*
X726745Y354116D01*
X726743Y354117D01*
X726742Y354117D01*
X676128Y375082D01*
X625512Y396048D01*
X534405Y456924D01*
X456924Y534405D01*
X396048Y625512D01*
X354116Y726745D01*
X332740Y834213D01*
X332740Y943787D01*
X354116Y1051255D01*
X358915Y1062840D01*
X389351Y1136320D01*
X396048Y1152488D01*
X456924Y1243595D01*
X534405Y1321076D01*
X625512Y1381952D01*
X690252Y1408768D01*
X726742Y1423883D01*
X726743Y1423883D01*
X726745Y1423884D01*
X834213Y1445260D01*
X943787Y1445260D01*
X1051255Y1423884D01*
G37*
G36*
X3591255Y1423884D02*
G01*
X3591257Y1423883D01*
X3591258Y1423883D01*
X3627748Y1408768D01*
X3692488Y1381952D01*
X3783595Y1321076D01*
X3861076Y1243595D01*
X3921952Y1152488D01*
X3928649Y1136320D01*
X3959086Y1062840D01*
X3963884Y1051255D01*
X3985260Y943787D01*
X3985260Y834213D01*
X3963884Y726745D01*
X3921952Y625512D01*
X3861076Y534405D01*
X3783595Y456924D01*
X3692488Y396048D01*
X3641872Y375082D01*
X3591258Y354117D01*
X3591257Y354117D01*
X3591255Y354116D01*
X3483787Y332740D01*
X3374213Y332740D01*
X3266745Y354116D01*
X3266743Y354117D01*
X3266742Y354117D01*
X3216128Y375082D01*
X3165512Y396048D01*
X3074405Y456924D01*
X2996924Y534405D01*
X2936048Y625512D01*
X2894116Y726745D01*
X2872740Y834213D01*
X2872740Y943787D01*
X2894116Y1051255D01*
X2898915Y1062840D01*
X2929351Y1136320D01*
X2936048Y1152488D01*
X2996924Y1243595D01*
X3074405Y1321076D01*
X3165512Y1381952D01*
X3230252Y1408768D01*
X3266742Y1423883D01*
X3266743Y1423883D01*
X3266745Y1423884D01*
X3374213Y1445260D01*
X3483787Y1445260D01*
X3591255Y1423884D01*
G37*
G36*
X6131255Y1423884D02*
G01*
X6131257Y1423883D01*
X6131258Y1423883D01*
X6167748Y1408768D01*
X6232488Y1381952D01*
X6323595Y1321076D01*
X6401076Y1243595D01*
X6461952Y1152488D01*
X6468649Y1136320D01*
X6499086Y1062840D01*
X6503884Y1051255D01*
X6525260Y943787D01*
X6525260Y834213D01*
X6503884Y726745D01*
X6461952Y625512D01*
X6401076Y534405D01*
X6323595Y456924D01*
X6232488Y396048D01*
X6181872Y375082D01*
X6131258Y354117D01*
X6131257Y354117D01*
X6131255Y354116D01*
X6023787Y332740D01*
X5914213Y332740D01*
X5806745Y354116D01*
X5806743Y354117D01*
X5806742Y354117D01*
X5756128Y375082D01*
X5705512Y396048D01*
X5614405Y456924D01*
X5536924Y534405D01*
X5476048Y625512D01*
X5434116Y726745D01*
X5412740Y834213D01*
X5412740Y943787D01*
X5434116Y1051255D01*
X5438915Y1062840D01*
X5469351Y1136320D01*
X5476048Y1152488D01*
X5536924Y1243595D01*
X5614405Y1321076D01*
X5705512Y1381952D01*
X5770252Y1408768D01*
X5806742Y1423883D01*
X5806743Y1423883D01*
X5806745Y1423884D01*
X5914213Y1445260D01*
X6023787Y1445260D01*
X6131255Y1423884D01*
G37*
G36*
X11211255Y1423884D02*
G01*
X11211257Y1423883D01*
X11211258Y1423883D01*
X11247748Y1408768D01*
X11312488Y1381952D01*
X11403595Y1321076D01*
X11481076Y1243595D01*
X11541952Y1152488D01*
X11548649Y1136320D01*
X11579086Y1062840D01*
X11583884Y1051255D01*
X11605260Y943787D01*
X11605260Y834213D01*
X11583884Y726745D01*
X11541952Y625512D01*
X11481076Y534405D01*
X11403595Y456924D01*
X11312488Y396048D01*
X11261872Y375082D01*
X11211258Y354117D01*
X11211257Y354117D01*
X11211255Y354116D01*
X11103787Y332740D01*
X10994213Y332740D01*
X10886745Y354116D01*
X10886743Y354117D01*
X10886742Y354117D01*
X10836128Y375082D01*
X10785512Y396048D01*
X10694405Y456924D01*
X10616924Y534405D01*
X10556048Y625512D01*
X10514116Y726745D01*
X10492740Y834213D01*
X10492740Y943787D01*
X10514116Y1051255D01*
X10518915Y1062840D01*
X10549351Y1136320D01*
X10556048Y1152488D01*
X10616924Y1243595D01*
X10694405Y1321076D01*
X10785512Y1381952D01*
X10850252Y1408768D01*
X10886742Y1423883D01*
X10886743Y1423883D01*
X10886745Y1423884D01*
X10994213Y1445260D01*
X11103787Y1445260D01*
X11211255Y1423884D01*
G37*
G36*
X13751255Y1423884D02*
G01*
X13751257Y1423883D01*
X13751258Y1423883D01*
X13787748Y1408768D01*
X13852488Y1381952D01*
X13943595Y1321076D01*
X14021076Y1243595D01*
X14081952Y1152488D01*
X14088649Y1136320D01*
X14119086Y1062840D01*
X14123884Y1051255D01*
X14145260Y943787D01*
X14145260Y834213D01*
X14123884Y726745D01*
X14081952Y625512D01*
X14021076Y534405D01*
X13943595Y456924D01*
X13852488Y396048D01*
X13801872Y375082D01*
X13751258Y354117D01*
X13751257Y354117D01*
X13751255Y354116D01*
X13643787Y332740D01*
X13534213Y332740D01*
X13426745Y354116D01*
X13426743Y354117D01*
X13426742Y354117D01*
X13376128Y375082D01*
X13325512Y396048D01*
X13234405Y456924D01*
X13156924Y534405D01*
X13096048Y625512D01*
X13054116Y726745D01*
X13032740Y834213D01*
X13032740Y943787D01*
X13054116Y1051255D01*
X13058915Y1062840D01*
X13089351Y1136320D01*
X13096048Y1152488D01*
X13156924Y1243595D01*
X13234405Y1321076D01*
X13325512Y1381952D01*
X13390252Y1408768D01*
X13426742Y1423883D01*
X13426743Y1423883D01*
X13426745Y1423884D01*
X13534213Y1445260D01*
X13643787Y1445260D01*
X13751255Y1423884D01*
G37*
G36*
X8671255Y1423884D02*
G01*
X8671257Y1423883D01*
X8671258Y1423883D01*
X8707748Y1408768D01*
X8772488Y1381952D01*
X8863595Y1321076D01*
X8941076Y1243595D01*
X9001952Y1152488D01*
X9008649Y1136320D01*
X9039086Y1062840D01*
X9043884Y1051255D01*
X9065260Y943787D01*
X9065260Y834213D01*
X9043884Y726745D01*
X9001952Y625512D01*
X8941076Y534405D01*
X8863595Y456924D01*
X8772488Y396048D01*
X8721872Y375082D01*
X8671258Y354117D01*
X8671257Y354117D01*
X8671255Y354116D01*
X8563787Y332740D01*
X8454213Y332740D01*
X8346745Y354116D01*
X8346743Y354117D01*
X8346742Y354117D01*
X8296128Y375082D01*
X8245512Y396048D01*
X8154405Y456924D01*
X8076924Y534405D01*
X8016048Y625512D01*
X7974116Y726745D01*
X7952740Y834213D01*
X7952740Y943787D01*
X7974116Y1051255D01*
X7978915Y1062840D01*
X8009351Y1136320D01*
X8016048Y1152488D01*
X8076924Y1243595D01*
X8154405Y1321076D01*
X8245512Y1381952D01*
X8310252Y1408768D01*
X8346742Y1423883D01*
X8346743Y1423883D01*
X8346745Y1423884D01*
X8454213Y1445260D01*
X8563787Y1445260D01*
X8671255Y1423884D01*
G37*
G36*
X9827166Y1619645D02*
G01*
X9827168Y1619644D01*
X9827169Y1619644D01*
X9841323Y1613781D01*
X9882174Y1596860D01*
X9931680Y1563781D01*
X9973781Y1521680D01*
X10006860Y1472174D01*
X10006861Y1472171D01*
X10029525Y1417457D01*
X10029645Y1417166D01*
X10041260Y1358770D01*
X10041260Y1299230D01*
X10029645Y1240834D01*
X10006860Y1185826D01*
X9973781Y1136320D01*
X9931680Y1094219D01*
X9882174Y1061140D01*
X9858317Y1051258D01*
X9827169Y1038356D01*
X9827168Y1038356D01*
X9827166Y1038355D01*
X9768770Y1026740D01*
X9709230Y1026740D01*
X9650834Y1038355D01*
X9650832Y1038356D01*
X9650831Y1038356D01*
X9619683Y1051258D01*
X9595826Y1061140D01*
X9546320Y1094219D01*
X9504219Y1136320D01*
X9471140Y1185826D01*
X9448355Y1240834D01*
X9436740Y1299230D01*
X9436740Y1358770D01*
X9448355Y1417166D01*
X9448476Y1417457D01*
X9471139Y1472171D01*
X9471140Y1472174D01*
X9504219Y1521680D01*
X9546320Y1563781D01*
X9595826Y1596860D01*
X9636677Y1613781D01*
X9650831Y1619644D01*
X9650832Y1619644D01*
X9650834Y1619645D01*
X9709230Y1631260D01*
X9768770Y1631260D01*
X9827166Y1619645D01*
G37*
G36*
X4727166Y1619645D02*
G01*
X4727168Y1619644D01*
X4727169Y1619644D01*
X4741323Y1613781D01*
X4782174Y1596860D01*
X4831680Y1563781D01*
X4873781Y1521680D01*
X4906860Y1472174D01*
X4906861Y1472171D01*
X4929525Y1417457D01*
X4929645Y1417166D01*
X4941260Y1358770D01*
X4941260Y1299230D01*
X4929645Y1240834D01*
X4906860Y1185826D01*
X4873781Y1136320D01*
X4831680Y1094219D01*
X4782174Y1061140D01*
X4758317Y1051258D01*
X4727169Y1038356D01*
X4727168Y1038356D01*
X4727166Y1038355D01*
X4668770Y1026740D01*
X4609230Y1026740D01*
X4550834Y1038355D01*
X4550832Y1038356D01*
X4550831Y1038356D01*
X4519683Y1051258D01*
X4495826Y1061140D01*
X4446320Y1094219D01*
X4404219Y1136320D01*
X4371140Y1185826D01*
X4348355Y1240834D01*
X4336740Y1299230D01*
X4336740Y1358770D01*
X4348355Y1417166D01*
X4348476Y1417457D01*
X4371139Y1472171D01*
X4371140Y1472174D01*
X4404219Y1521680D01*
X4446320Y1563781D01*
X4495826Y1596860D01*
X4536677Y1613781D01*
X4550831Y1619644D01*
X4550832Y1619644D01*
X4550834Y1619645D01*
X4609230Y1631260D01*
X4668770Y1631260D01*
X4727166Y1619645D01*
G37*
G36*
X12368505Y1455160D02*
G01*
X12376062Y1452030D01*
X12405626Y1439785D01*
X12439042Y1417457D01*
X12467457Y1389042D01*
X12489785Y1355626D01*
X12502030Y1326062D01*
X12505160Y1318505D01*
X12513000Y1279092D01*
X12513000Y1238908D01*
X12505160Y1199495D01*
X12505158Y1199491D01*
X12489785Y1162374D01*
X12467457Y1128958D01*
X12439042Y1100543D01*
X12405626Y1078215D01*
X12376062Y1065970D01*
X12368505Y1062840D01*
X12329092Y1055000D01*
X12288908Y1055000D01*
X12249495Y1062840D01*
X12241938Y1065970D01*
X12212374Y1078215D01*
X12178958Y1100543D01*
X12150543Y1128958D01*
X12128215Y1162374D01*
X12112842Y1199491D01*
X12112840Y1199495D01*
X12105000Y1238908D01*
X12105000Y1279092D01*
X12112840Y1318505D01*
X12115970Y1326062D01*
X12128215Y1355626D01*
X12150543Y1389042D01*
X12178958Y1417457D01*
X12212374Y1439785D01*
X12241938Y1452030D01*
X12249495Y1455160D01*
X12288908Y1463000D01*
X12329092Y1463000D01*
X12368505Y1455160D01*
G37*
G36*
X14927166Y1669645D02*
G01*
X14927168Y1669644D01*
X14927169Y1669644D01*
X14954670Y1658252D01*
X14982174Y1646860D01*
X15031680Y1613781D01*
X15073781Y1571680D01*
X15106860Y1522174D01*
X15129645Y1467166D01*
X15141260Y1408770D01*
X15141260Y1349230D01*
X15135149Y1318505D01*
X15129644Y1290831D01*
X15118253Y1263330D01*
X15106860Y1235826D01*
X15073781Y1186320D01*
X15031680Y1144219D01*
X14982174Y1111140D01*
X14954670Y1099748D01*
X14927169Y1088356D01*
X14927168Y1088356D01*
X14927166Y1088355D01*
X14868770Y1076740D01*
X14809230Y1076740D01*
X14750834Y1088355D01*
X14750832Y1088356D01*
X14750831Y1088356D01*
X14723330Y1099747D01*
X14695826Y1111140D01*
X14646320Y1144219D01*
X14604219Y1186320D01*
X14571140Y1235826D01*
X14559747Y1263330D01*
X14548356Y1290831D01*
X14542852Y1318505D01*
X14536740Y1349230D01*
X14536740Y1408770D01*
X14548355Y1467166D01*
X14571140Y1522174D01*
X14604219Y1571680D01*
X14646320Y1613781D01*
X14695826Y1646860D01*
X14723330Y1658252D01*
X14750831Y1669644D01*
X14750832Y1669644D01*
X14750834Y1669645D01*
X14809230Y1681260D01*
X14868770Y1681260D01*
X14927166Y1669645D01*
G37*
G36*
X13524879Y2091197D02*
G01*
X13524881Y2091196D01*
X13524882Y2091196D01*
X13552383Y2079804D01*
X13579887Y2068412D01*
X13629393Y2035333D01*
X13671494Y1993232D01*
X13704573Y1943726D01*
X13710456Y1929522D01*
X13722340Y1900834D01*
X13727358Y1888718D01*
X13738973Y1830322D01*
X13738973Y1770782D01*
X13727358Y1712386D01*
X13704573Y1657378D01*
X13671494Y1607872D01*
X13629393Y1565771D01*
X13579887Y1532692D01*
X13554494Y1522174D01*
X13524882Y1509908D01*
X13524881Y1509908D01*
X13524879Y1509907D01*
X13466483Y1498292D01*
X13406943Y1498292D01*
X13348547Y1509907D01*
X13348545Y1509908D01*
X13348544Y1509908D01*
X13318932Y1522174D01*
X13293539Y1532692D01*
X13244033Y1565771D01*
X13201932Y1607872D01*
X13168853Y1657378D01*
X13146068Y1712386D01*
X13134453Y1770782D01*
X13134453Y1830322D01*
X13146068Y1888718D01*
X13151087Y1900834D01*
X13162970Y1929522D01*
X13168853Y1943726D01*
X13201932Y1993232D01*
X13244033Y2035333D01*
X13293539Y2068412D01*
X13321043Y2079804D01*
X13348544Y2091196D01*
X13348545Y2091196D01*
X13348547Y2091197D01*
X13406943Y2102812D01*
X13466483Y2102812D01*
X13524879Y2091197D01*
G37*
G36*
X11097166Y2279645D02*
G01*
X11097168Y2279644D01*
X11097169Y2279644D01*
X11124670Y2268252D01*
X11152174Y2256860D01*
X11201680Y2223781D01*
X11243781Y2181680D01*
X11276860Y2132174D01*
X11299645Y2077166D01*
X11311260Y2018770D01*
X11311260Y1959230D01*
X11301114Y1908218D01*
X11299644Y1900831D01*
X11293086Y1885000D01*
X11276860Y1845826D01*
X11243781Y1796320D01*
X11201680Y1754219D01*
X11152174Y1721140D01*
X11131040Y1712386D01*
X11097169Y1698356D01*
X11097168Y1698356D01*
X11097166Y1698355D01*
X11038770Y1686740D01*
X10979230Y1686740D01*
X10920834Y1698355D01*
X10920832Y1698356D01*
X10920831Y1698356D01*
X10886960Y1712386D01*
X10865826Y1721140D01*
X10816320Y1754219D01*
X10774219Y1796320D01*
X10741140Y1845826D01*
X10724914Y1885000D01*
X10718356Y1900831D01*
X10716887Y1908218D01*
X10706740Y1959230D01*
X10706740Y2018770D01*
X10718355Y2077166D01*
X10741140Y2132174D01*
X10774219Y2181680D01*
X10816320Y2223781D01*
X10865826Y2256860D01*
X10893330Y2268252D01*
X10920831Y2279644D01*
X10920832Y2279644D01*
X10920834Y2279645D01*
X10979230Y2291260D01*
X11038770Y2291260D01*
X11097166Y2279645D01*
G37*
G36*
X10317892Y2186582D02*
G01*
X10317894Y2186581D01*
X10317895Y2186581D01*
X10329727Y2181680D01*
X10347148Y2174464D01*
X10373479Y2156871D01*
X10395871Y2134479D01*
X10413464Y2108148D01*
X10425582Y2078892D01*
X10431760Y2047833D01*
X10431760Y2016167D01*
X10425582Y1985108D01*
X10413464Y1955852D01*
X10395871Y1929521D01*
X10373479Y1907129D01*
X10347148Y1889536D01*
X10345180Y1888721D01*
X10317895Y1877419D01*
X10317894Y1877419D01*
X10317892Y1877418D01*
X10286833Y1871240D01*
X10255167Y1871240D01*
X10224108Y1877418D01*
X10224106Y1877419D01*
X10224105Y1877419D01*
X10196820Y1888721D01*
X10194852Y1889536D01*
X10168521Y1907129D01*
X10146129Y1929521D01*
X10128536Y1955852D01*
X10116418Y1985108D01*
X10110240Y2016167D01*
X10110240Y2047833D01*
X10116418Y2078892D01*
X10128536Y2108148D01*
X10146129Y2134479D01*
X10168521Y2156871D01*
X10194852Y2174464D01*
X10212273Y2181680D01*
X10224105Y2186581D01*
X10224106Y2186581D01*
X10224108Y2186582D01*
X10255167Y2192760D01*
X10286833Y2192760D01*
X10317892Y2186582D01*
G37*
G36*
X9817892Y2186582D02*
G01*
X9817894Y2186581D01*
X9817895Y2186581D01*
X9829727Y2181680D01*
X9847148Y2174464D01*
X9873479Y2156871D01*
X9895871Y2134479D01*
X9913464Y2108148D01*
X9925582Y2078892D01*
X9931760Y2047833D01*
X9931760Y2016167D01*
X9925582Y1985108D01*
X9913464Y1955852D01*
X9895871Y1929521D01*
X9873479Y1907129D01*
X9847148Y1889536D01*
X9845180Y1888721D01*
X9817895Y1877419D01*
X9817894Y1877419D01*
X9817892Y1877418D01*
X9786833Y1871240D01*
X9755167Y1871240D01*
X9724108Y1877418D01*
X9724106Y1877419D01*
X9724105Y1877419D01*
X9696820Y1888721D01*
X9694852Y1889536D01*
X9668521Y1907129D01*
X9646129Y1929521D01*
X9628536Y1955852D01*
X9616418Y1985108D01*
X9610240Y2016167D01*
X9610240Y2047833D01*
X9616418Y2078892D01*
X9628536Y2108148D01*
X9646129Y2134479D01*
X9668521Y2156871D01*
X9694852Y2174464D01*
X9712273Y2181680D01*
X9724105Y2186581D01*
X9724106Y2186581D01*
X9724108Y2186582D01*
X9755167Y2192760D01*
X9786833Y2192760D01*
X9817892Y2186582D01*
G37*
G36*
X9317892Y2186582D02*
G01*
X9317894Y2186581D01*
X9317895Y2186581D01*
X9329727Y2181680D01*
X9347148Y2174464D01*
X9373479Y2156871D01*
X9395871Y2134479D01*
X9413464Y2108148D01*
X9425582Y2078892D01*
X9431760Y2047833D01*
X9431760Y2016167D01*
X9425582Y1985108D01*
X9413464Y1955852D01*
X9395871Y1929521D01*
X9373479Y1907129D01*
X9347148Y1889536D01*
X9345180Y1888721D01*
X9317895Y1877419D01*
X9317894Y1877419D01*
X9317892Y1877418D01*
X9286833Y1871240D01*
X9255167Y1871240D01*
X9224108Y1877418D01*
X9224106Y1877419D01*
X9224105Y1877419D01*
X9196820Y1888721D01*
X9194852Y1889536D01*
X9168521Y1907129D01*
X9146129Y1929521D01*
X9128536Y1955852D01*
X9116418Y1985108D01*
X9110240Y2016167D01*
X9110240Y2047833D01*
X9116418Y2078892D01*
X9128536Y2108148D01*
X9146129Y2134479D01*
X9168521Y2156871D01*
X9194852Y2174464D01*
X9212273Y2181680D01*
X9224105Y2186581D01*
X9224106Y2186581D01*
X9224108Y2186582D01*
X9255167Y2192760D01*
X9286833Y2192760D01*
X9317892Y2186582D01*
G37*
G36*
X5237892Y2186582D02*
G01*
X5237894Y2186581D01*
X5237895Y2186581D01*
X5249727Y2181680D01*
X5267148Y2174464D01*
X5293479Y2156871D01*
X5315871Y2134479D01*
X5333464Y2108148D01*
X5345582Y2078892D01*
X5351760Y2047833D01*
X5351760Y2016167D01*
X5345582Y1985108D01*
X5333464Y1955852D01*
X5315871Y1929521D01*
X5293479Y1907129D01*
X5267148Y1889536D01*
X5265180Y1888721D01*
X5237895Y1877419D01*
X5237894Y1877419D01*
X5237892Y1877418D01*
X5206833Y1871240D01*
X5175167Y1871240D01*
X5144108Y1877418D01*
X5144106Y1877419D01*
X5144105Y1877419D01*
X5116820Y1888721D01*
X5114852Y1889536D01*
X5088521Y1907129D01*
X5066129Y1929521D01*
X5048536Y1955852D01*
X5036418Y1985108D01*
X5030240Y2016167D01*
X5030240Y2047833D01*
X5036418Y2078892D01*
X5048536Y2108148D01*
X5066129Y2134479D01*
X5088521Y2156871D01*
X5114852Y2174464D01*
X5132273Y2181680D01*
X5144105Y2186581D01*
X5144106Y2186581D01*
X5144108Y2186582D01*
X5175167Y2192760D01*
X5206833Y2192760D01*
X5237892Y2186582D01*
G37*
G36*
X14397892Y2186582D02*
G01*
X14397894Y2186581D01*
X14397895Y2186581D01*
X14409727Y2181680D01*
X14427148Y2174464D01*
X14453479Y2156871D01*
X14475871Y2134479D01*
X14493464Y2108148D01*
X14505582Y2078892D01*
X14511760Y2047833D01*
X14511760Y2016167D01*
X14505582Y1985108D01*
X14493464Y1955852D01*
X14475871Y1929521D01*
X14453479Y1907129D01*
X14427148Y1889536D01*
X14425180Y1888721D01*
X14397895Y1877419D01*
X14397894Y1877419D01*
X14397892Y1877418D01*
X14366833Y1871240D01*
X14335167Y1871240D01*
X14304108Y1877418D01*
X14304106Y1877419D01*
X14304105Y1877419D01*
X14276820Y1888721D01*
X14274852Y1889536D01*
X14248521Y1907129D01*
X14226129Y1929521D01*
X14208536Y1955852D01*
X14196418Y1985108D01*
X14190240Y2016167D01*
X14190240Y2047833D01*
X14196418Y2078892D01*
X14208536Y2108148D01*
X14226129Y2134479D01*
X14248521Y2156871D01*
X14274852Y2174464D01*
X14292273Y2181680D01*
X14304105Y2186581D01*
X14304106Y2186581D01*
X14304108Y2186582D01*
X14335167Y2192760D01*
X14366833Y2192760D01*
X14397892Y2186582D01*
G37*
G36*
X14897892Y2186582D02*
G01*
X14897894Y2186581D01*
X14897895Y2186581D01*
X14909727Y2181680D01*
X14927148Y2174464D01*
X14953479Y2156871D01*
X14975871Y2134479D01*
X14993464Y2108148D01*
X15005582Y2078892D01*
X15011760Y2047833D01*
X15011760Y2016167D01*
X15005582Y1985108D01*
X14993464Y1955852D01*
X14975871Y1929521D01*
X14953479Y1907129D01*
X14927148Y1889536D01*
X14925180Y1888721D01*
X14897895Y1877419D01*
X14897894Y1877419D01*
X14897892Y1877418D01*
X14866833Y1871240D01*
X14835167Y1871240D01*
X14804108Y1877418D01*
X14804106Y1877419D01*
X14804105Y1877419D01*
X14776820Y1888721D01*
X14774852Y1889536D01*
X14748521Y1907129D01*
X14726129Y1929521D01*
X14708536Y1955852D01*
X14696418Y1985108D01*
X14690240Y2016167D01*
X14690240Y2047833D01*
X14696418Y2078892D01*
X14708536Y2108148D01*
X14726129Y2134479D01*
X14748521Y2156871D01*
X14774852Y2174464D01*
X14792273Y2181680D01*
X14804105Y2186581D01*
X14804106Y2186581D01*
X14804108Y2186582D01*
X14835167Y2192760D01*
X14866833Y2192760D01*
X14897892Y2186582D01*
G37*
G36*
X4737892Y2186582D02*
G01*
X4737894Y2186581D01*
X4737895Y2186581D01*
X4749727Y2181680D01*
X4767148Y2174464D01*
X4793479Y2156871D01*
X4815871Y2134479D01*
X4833464Y2108148D01*
X4845582Y2078892D01*
X4851760Y2047833D01*
X4851760Y2016167D01*
X4845582Y1985108D01*
X4833464Y1955852D01*
X4815871Y1929521D01*
X4793479Y1907129D01*
X4767148Y1889536D01*
X4765180Y1888721D01*
X4737895Y1877419D01*
X4737894Y1877419D01*
X4737892Y1877418D01*
X4706833Y1871240D01*
X4675167Y1871240D01*
X4644108Y1877418D01*
X4644106Y1877419D01*
X4644105Y1877419D01*
X4616820Y1888721D01*
X4614852Y1889536D01*
X4588521Y1907129D01*
X4566129Y1929521D01*
X4548536Y1955852D01*
X4536418Y1985108D01*
X4530240Y2016167D01*
X4530240Y2047833D01*
X4536418Y2078892D01*
X4548536Y2108148D01*
X4566129Y2134479D01*
X4588521Y2156871D01*
X4614852Y2174464D01*
X4632273Y2181680D01*
X4644105Y2186581D01*
X4644106Y2186581D01*
X4644108Y2186582D01*
X4675167Y2192760D01*
X4706833Y2192760D01*
X4737892Y2186582D01*
G37*
G36*
X4237892Y2186582D02*
G01*
X4237894Y2186581D01*
X4237895Y2186581D01*
X4249727Y2181680D01*
X4267148Y2174464D01*
X4293479Y2156871D01*
X4315871Y2134479D01*
X4333464Y2108148D01*
X4345582Y2078892D01*
X4351760Y2047833D01*
X4351760Y2016167D01*
X4345582Y1985108D01*
X4333464Y1955852D01*
X4315871Y1929521D01*
X4293479Y1907129D01*
X4267148Y1889536D01*
X4265180Y1888721D01*
X4237895Y1877419D01*
X4237894Y1877419D01*
X4237892Y1877418D01*
X4206833Y1871240D01*
X4175167Y1871240D01*
X4144108Y1877418D01*
X4144106Y1877419D01*
X4144105Y1877419D01*
X4116820Y1888721D01*
X4114852Y1889536D01*
X4088521Y1907129D01*
X4066129Y1929521D01*
X4048536Y1955852D01*
X4036418Y1985108D01*
X4030240Y2016167D01*
X4030240Y2047833D01*
X4036418Y2078892D01*
X4048536Y2108148D01*
X4066129Y2134479D01*
X4088521Y2156871D01*
X4114852Y2174464D01*
X4132273Y2181680D01*
X4144105Y2186581D01*
X4144106Y2186581D01*
X4144108Y2186582D01*
X4175167Y2192760D01*
X4206833Y2192760D01*
X4237892Y2186582D01*
G37*
G36*
X15397892Y2186582D02*
G01*
X15397894Y2186581D01*
X15397895Y2186581D01*
X15409727Y2181680D01*
X15427148Y2174464D01*
X15453479Y2156871D01*
X15475871Y2134479D01*
X15493464Y2108148D01*
X15505582Y2078892D01*
X15511760Y2047833D01*
X15511760Y2016167D01*
X15505582Y1985108D01*
X15493464Y1955852D01*
X15475871Y1929521D01*
X15453479Y1907129D01*
X15427148Y1889536D01*
X15425180Y1888721D01*
X15397895Y1877419D01*
X15397894Y1877419D01*
X15397892Y1877418D01*
X15366833Y1871240D01*
X15335167Y1871240D01*
X15304108Y1877418D01*
X15304106Y1877419D01*
X15304105Y1877419D01*
X15276820Y1888721D01*
X15274852Y1889536D01*
X15248521Y1907129D01*
X15226129Y1929521D01*
X15208536Y1955852D01*
X15196418Y1985108D01*
X15190240Y2016167D01*
X15190240Y2047833D01*
X15196418Y2078892D01*
X15208536Y2108148D01*
X15226129Y2134479D01*
X15248521Y2156871D01*
X15274852Y2174464D01*
X15292273Y2181680D01*
X15304105Y2186581D01*
X15304106Y2186581D01*
X15304108Y2186582D01*
X15335167Y2192760D01*
X15366833Y2192760D01*
X15397892Y2186582D01*
G37*
G36*
X17188505Y2285160D02*
G01*
X17196062Y2282030D01*
X17225626Y2269785D01*
X17259042Y2247457D01*
X17287457Y2219042D01*
X17309785Y2185626D01*
X17316938Y2168355D01*
X17325160Y2148505D01*
X17333000Y2109092D01*
X17333000Y2068908D01*
X17325160Y2029495D01*
X17325158Y2029491D01*
X17309785Y1992374D01*
X17287457Y1958958D01*
X17259042Y1930543D01*
X17225626Y1908215D01*
X17196062Y1895970D01*
X17188505Y1892840D01*
X17149092Y1885000D01*
X17108908Y1885000D01*
X17069495Y1892840D01*
X17061938Y1895970D01*
X17032374Y1908215D01*
X16998958Y1930543D01*
X16970543Y1958958D01*
X16948215Y1992374D01*
X16932842Y2029491D01*
X16932840Y2029495D01*
X16925000Y2068908D01*
X16925000Y2109092D01*
X16932840Y2148505D01*
X16941062Y2168355D01*
X16948215Y2185626D01*
X16970543Y2219042D01*
X16998958Y2247457D01*
X17032374Y2269785D01*
X17061938Y2282030D01*
X17069495Y2285160D01*
X17108908Y2293000D01*
X17149092Y2293000D01*
X17188505Y2285160D01*
G37*
G36*
X13717166Y2749645D02*
G01*
X13717168Y2749644D01*
X13717169Y2749644D01*
X13739140Y2740543D01*
X13772174Y2726860D01*
X13821680Y2693781D01*
X13863781Y2651680D01*
X13896860Y2602174D01*
X13919645Y2547166D01*
X13931260Y2488770D01*
X13931260Y2429230D01*
X13919726Y2371240D01*
X13919644Y2370831D01*
X13912192Y2352840D01*
X13896860Y2315826D01*
X13863781Y2266320D01*
X13821680Y2224219D01*
X13772174Y2191140D01*
X13758862Y2185626D01*
X13717169Y2168356D01*
X13717168Y2168356D01*
X13717166Y2168355D01*
X13658770Y2156740D01*
X13599230Y2156740D01*
X13540834Y2168355D01*
X13540832Y2168356D01*
X13540831Y2168356D01*
X13499138Y2185626D01*
X13485826Y2191140D01*
X13436320Y2224219D01*
X13394219Y2266320D01*
X13361140Y2315826D01*
X13345808Y2352840D01*
X13338356Y2370831D01*
X13338275Y2371240D01*
X13326740Y2429230D01*
X13326740Y2488770D01*
X13338355Y2547166D01*
X13361140Y2602174D01*
X13394219Y2651680D01*
X13436320Y2693781D01*
X13485826Y2726860D01*
X13518860Y2740543D01*
X13540831Y2749644D01*
X13540832Y2749644D01*
X13540834Y2749645D01*
X13599230Y2761260D01*
X13658770Y2761260D01*
X13717166Y2749645D01*
G37*
G36*
X6127166Y2869645D02*
G01*
X6127168Y2869644D01*
X6127169Y2869644D01*
X6136379Y2865829D01*
X6182174Y2846860D01*
X6231680Y2813781D01*
X6273781Y2771680D01*
X6306860Y2722174D01*
X6314868Y2702840D01*
X6322582Y2684219D01*
X6329645Y2667166D01*
X6341260Y2608770D01*
X6341260Y2549230D01*
X6334684Y2516167D01*
X6329644Y2490831D01*
X6329089Y2489491D01*
X6306860Y2435826D01*
X6273781Y2386320D01*
X6231680Y2344219D01*
X6182174Y2311140D01*
X6154670Y2299747D01*
X6127169Y2288356D01*
X6127168Y2288356D01*
X6127166Y2288355D01*
X6068770Y2276740D01*
X6009230Y2276740D01*
X5950834Y2288355D01*
X5950832Y2288356D01*
X5950831Y2288356D01*
X5923330Y2299747D01*
X5895826Y2311140D01*
X5846320Y2344219D01*
X5804219Y2386320D01*
X5771140Y2435826D01*
X5748911Y2489491D01*
X5748356Y2490831D01*
X5743317Y2516167D01*
X5736740Y2549230D01*
X5736740Y2608770D01*
X5748355Y2667166D01*
X5755419Y2684219D01*
X5763132Y2702840D01*
X5771140Y2722174D01*
X5804219Y2771680D01*
X5846320Y2813781D01*
X5895826Y2846860D01*
X5941621Y2865829D01*
X5950831Y2869644D01*
X5950832Y2869644D01*
X5950834Y2869645D01*
X6009230Y2881260D01*
X6068770Y2881260D01*
X6127166Y2869645D01*
G37*
G36*
X18318505Y2745160D02*
G01*
X18326062Y2742030D01*
X18355626Y2729785D01*
X18389042Y2707457D01*
X18417457Y2679042D01*
X18439785Y2645626D01*
X18446938Y2628355D01*
X18455160Y2608505D01*
X18463000Y2569092D01*
X18463000Y2528908D01*
X18455160Y2489495D01*
X18452030Y2481938D01*
X18439785Y2452374D01*
X18417457Y2418958D01*
X18389042Y2390543D01*
X18355626Y2368215D01*
X18326062Y2355970D01*
X18318505Y2352840D01*
X18279092Y2345000D01*
X18238908Y2345000D01*
X18199495Y2352840D01*
X18191938Y2355970D01*
X18162374Y2368215D01*
X18128958Y2390543D01*
X18100543Y2418958D01*
X18078215Y2452374D01*
X18065970Y2481938D01*
X18062840Y2489495D01*
X18055000Y2528908D01*
X18055000Y2569092D01*
X18062840Y2608505D01*
X18071062Y2628355D01*
X18078215Y2645626D01*
X18100543Y2679042D01*
X18128958Y2707457D01*
X18162374Y2729785D01*
X18191938Y2742030D01*
X18199495Y2745160D01*
X18238908Y2753000D01*
X18279092Y2753000D01*
X18318505Y2745160D01*
G37*
G36*
X9817892Y2686582D02*
G01*
X9817894Y2686581D01*
X9817895Y2686581D01*
X9823597Y2684219D01*
X9847148Y2674464D01*
X9873479Y2656871D01*
X9895871Y2634479D01*
X9913464Y2608148D01*
X9925582Y2578892D01*
X9931760Y2547833D01*
X9931760Y2516167D01*
X9925582Y2485108D01*
X9913464Y2455852D01*
X9895871Y2429521D01*
X9873479Y2407129D01*
X9847148Y2389536D01*
X9832520Y2383477D01*
X9817895Y2377419D01*
X9817894Y2377419D01*
X9817892Y2377418D01*
X9786833Y2371240D01*
X9755167Y2371240D01*
X9724108Y2377418D01*
X9724106Y2377419D01*
X9724105Y2377419D01*
X9709480Y2383477D01*
X9694852Y2389536D01*
X9668521Y2407129D01*
X9646129Y2429521D01*
X9628536Y2455852D01*
X9616418Y2485108D01*
X9610240Y2516167D01*
X9610240Y2547833D01*
X9616418Y2578892D01*
X9628536Y2608148D01*
X9646129Y2634479D01*
X9668521Y2656871D01*
X9694852Y2674464D01*
X9718403Y2684219D01*
X9724105Y2686581D01*
X9724106Y2686581D01*
X9724108Y2686582D01*
X9755167Y2692760D01*
X9786833Y2692760D01*
X9817892Y2686582D01*
G37*
G36*
X14397892Y2686582D02*
G01*
X14397894Y2686581D01*
X14397895Y2686581D01*
X14403597Y2684219D01*
X14427148Y2674464D01*
X14453479Y2656871D01*
X14475871Y2634479D01*
X14493464Y2608148D01*
X14505582Y2578892D01*
X14511760Y2547833D01*
X14511760Y2516167D01*
X14505582Y2485108D01*
X14493464Y2455852D01*
X14475871Y2429521D01*
X14453479Y2407129D01*
X14427148Y2389536D01*
X14412520Y2383477D01*
X14397895Y2377419D01*
X14397894Y2377419D01*
X14397892Y2377418D01*
X14366833Y2371240D01*
X14335167Y2371240D01*
X14304108Y2377418D01*
X14304106Y2377419D01*
X14304105Y2377419D01*
X14289480Y2383477D01*
X14274852Y2389536D01*
X14248521Y2407129D01*
X14226129Y2429521D01*
X14208536Y2455852D01*
X14196418Y2485108D01*
X14190240Y2516167D01*
X14190240Y2547833D01*
X14196418Y2578892D01*
X14208536Y2608148D01*
X14226129Y2634479D01*
X14248521Y2656871D01*
X14274852Y2674464D01*
X14298403Y2684219D01*
X14304105Y2686581D01*
X14304106Y2686581D01*
X14304108Y2686582D01*
X14335167Y2692760D01*
X14366833Y2692760D01*
X14397892Y2686582D01*
G37*
G36*
X14897892Y2686582D02*
G01*
X14897894Y2686581D01*
X14897895Y2686581D01*
X14903597Y2684219D01*
X14927148Y2674464D01*
X14953479Y2656871D01*
X14975871Y2634479D01*
X14993464Y2608148D01*
X15005582Y2578892D01*
X15011760Y2547833D01*
X15011760Y2516167D01*
X15005582Y2485108D01*
X14993464Y2455852D01*
X14975871Y2429521D01*
X14953479Y2407129D01*
X14927148Y2389536D01*
X14912520Y2383477D01*
X14897895Y2377419D01*
X14897894Y2377419D01*
X14897892Y2377418D01*
X14866833Y2371240D01*
X14835167Y2371240D01*
X14804108Y2377418D01*
X14804106Y2377419D01*
X14804105Y2377419D01*
X14789480Y2383477D01*
X14774852Y2389536D01*
X14748521Y2407129D01*
X14726129Y2429521D01*
X14708536Y2455852D01*
X14696418Y2485108D01*
X14690240Y2516167D01*
X14690240Y2547833D01*
X14696418Y2578892D01*
X14708536Y2608148D01*
X14726129Y2634479D01*
X14748521Y2656871D01*
X14774852Y2674464D01*
X14798403Y2684219D01*
X14804105Y2686581D01*
X14804106Y2686581D01*
X14804108Y2686582D01*
X14835167Y2692760D01*
X14866833Y2692760D01*
X14897892Y2686582D01*
G37*
G36*
X5237892Y2686582D02*
G01*
X5237894Y2686581D01*
X5237895Y2686581D01*
X5243597Y2684219D01*
X5267148Y2674464D01*
X5293479Y2656871D01*
X5315871Y2634479D01*
X5333464Y2608148D01*
X5345582Y2578892D01*
X5351760Y2547833D01*
X5351760Y2516167D01*
X5345582Y2485108D01*
X5333464Y2455852D01*
X5315871Y2429521D01*
X5293479Y2407129D01*
X5267148Y2389536D01*
X5252520Y2383477D01*
X5237895Y2377419D01*
X5237894Y2377419D01*
X5237892Y2377418D01*
X5206833Y2371240D01*
X5175167Y2371240D01*
X5144108Y2377418D01*
X5144106Y2377419D01*
X5144105Y2377419D01*
X5129480Y2383477D01*
X5114852Y2389536D01*
X5088521Y2407129D01*
X5066129Y2429521D01*
X5048536Y2455852D01*
X5036418Y2485108D01*
X5030240Y2516167D01*
X5030240Y2547833D01*
X5036418Y2578892D01*
X5048536Y2608148D01*
X5066129Y2634479D01*
X5088521Y2656871D01*
X5114852Y2674464D01*
X5138403Y2684219D01*
X5144105Y2686581D01*
X5144106Y2686581D01*
X5144108Y2686582D01*
X5175167Y2692760D01*
X5206833Y2692760D01*
X5237892Y2686582D01*
G37*
G36*
X4737892Y2686582D02*
G01*
X4737894Y2686581D01*
X4737895Y2686581D01*
X4743597Y2684219D01*
X4767148Y2674464D01*
X4793479Y2656871D01*
X4815871Y2634479D01*
X4833464Y2608148D01*
X4845582Y2578892D01*
X4851760Y2547833D01*
X4851760Y2516167D01*
X4845582Y2485108D01*
X4833464Y2455852D01*
X4815871Y2429521D01*
X4793479Y2407129D01*
X4767148Y2389536D01*
X4752520Y2383477D01*
X4737895Y2377419D01*
X4737894Y2377419D01*
X4737892Y2377418D01*
X4706833Y2371240D01*
X4675167Y2371240D01*
X4644108Y2377418D01*
X4644106Y2377419D01*
X4644105Y2377419D01*
X4629480Y2383477D01*
X4614852Y2389536D01*
X4588521Y2407129D01*
X4566129Y2429521D01*
X4548536Y2455852D01*
X4536418Y2485108D01*
X4530240Y2516167D01*
X4530240Y2547833D01*
X4536418Y2578892D01*
X4548536Y2608148D01*
X4566129Y2634479D01*
X4588521Y2656871D01*
X4614852Y2674464D01*
X4638403Y2684219D01*
X4644105Y2686581D01*
X4644106Y2686581D01*
X4644108Y2686582D01*
X4675167Y2692760D01*
X4706833Y2692760D01*
X4737892Y2686582D01*
G37*
G36*
X15397892Y2686582D02*
G01*
X15397894Y2686581D01*
X15397895Y2686581D01*
X15403597Y2684219D01*
X15427148Y2674464D01*
X15453479Y2656871D01*
X15475871Y2634479D01*
X15493464Y2608148D01*
X15505582Y2578892D01*
X15511760Y2547833D01*
X15511760Y2516167D01*
X15505582Y2485108D01*
X15493464Y2455852D01*
X15475871Y2429521D01*
X15453479Y2407129D01*
X15427148Y2389536D01*
X15412520Y2383477D01*
X15397895Y2377419D01*
X15397894Y2377419D01*
X15397892Y2377418D01*
X15366833Y2371240D01*
X15335167Y2371240D01*
X15304108Y2377418D01*
X15304106Y2377419D01*
X15304105Y2377419D01*
X15289480Y2383477D01*
X15274852Y2389536D01*
X15248521Y2407129D01*
X15226129Y2429521D01*
X15208536Y2455852D01*
X15196418Y2485108D01*
X15190240Y2516167D01*
X15190240Y2547833D01*
X15196418Y2578892D01*
X15208536Y2608148D01*
X15226129Y2634479D01*
X15248521Y2656871D01*
X15274852Y2674464D01*
X15298403Y2684219D01*
X15304105Y2686581D01*
X15304106Y2686581D01*
X15304108Y2686582D01*
X15335167Y2692760D01*
X15366833Y2692760D01*
X15397892Y2686582D01*
G37*
G36*
X10317892Y2686582D02*
G01*
X10317894Y2686581D01*
X10317895Y2686581D01*
X10323597Y2684219D01*
X10347148Y2674464D01*
X10373479Y2656871D01*
X10395871Y2634479D01*
X10413464Y2608148D01*
X10425582Y2578892D01*
X10431760Y2547833D01*
X10431760Y2516167D01*
X10425582Y2485108D01*
X10413464Y2455852D01*
X10395871Y2429521D01*
X10373479Y2407129D01*
X10347148Y2389536D01*
X10332520Y2383477D01*
X10317895Y2377419D01*
X10317894Y2377419D01*
X10317892Y2377418D01*
X10286833Y2371240D01*
X10255167Y2371240D01*
X10224108Y2377418D01*
X10224106Y2377419D01*
X10224105Y2377419D01*
X10209480Y2383477D01*
X10194852Y2389536D01*
X10168521Y2407129D01*
X10146129Y2429521D01*
X10128536Y2455852D01*
X10116418Y2485108D01*
X10110240Y2516167D01*
X10110240Y2547833D01*
X10116418Y2578892D01*
X10128536Y2608148D01*
X10146129Y2634479D01*
X10168521Y2656871D01*
X10194852Y2674464D01*
X10218403Y2684219D01*
X10224105Y2686581D01*
X10224106Y2686581D01*
X10224108Y2686582D01*
X10255167Y2692760D01*
X10286833Y2692760D01*
X10317892Y2686582D01*
G37*
G36*
X9317892Y2686582D02*
G01*
X9317894Y2686581D01*
X9317895Y2686581D01*
X9323597Y2684219D01*
X9347148Y2674464D01*
X9373479Y2656871D01*
X9395871Y2634479D01*
X9413464Y2608148D01*
X9425582Y2578892D01*
X9431760Y2547833D01*
X9431760Y2516167D01*
X9425582Y2485108D01*
X9413464Y2455852D01*
X9395871Y2429521D01*
X9373479Y2407129D01*
X9347148Y2389536D01*
X9332520Y2383477D01*
X9317895Y2377419D01*
X9317894Y2377419D01*
X9317892Y2377418D01*
X9286833Y2371240D01*
X9255167Y2371240D01*
X9224108Y2377418D01*
X9224106Y2377419D01*
X9224105Y2377419D01*
X9209480Y2383477D01*
X9194852Y2389536D01*
X9168521Y2407129D01*
X9146129Y2429521D01*
X9128536Y2455852D01*
X9116418Y2485108D01*
X9110240Y2516167D01*
X9110240Y2547833D01*
X9116418Y2578892D01*
X9128536Y2608148D01*
X9146129Y2634479D01*
X9168521Y2656871D01*
X9194852Y2674464D01*
X9218403Y2684219D01*
X9224105Y2686581D01*
X9224106Y2686581D01*
X9224108Y2686582D01*
X9255167Y2692760D01*
X9286833Y2692760D01*
X9317892Y2686582D01*
G37*
G36*
X4237892Y2686582D02*
G01*
X4237894Y2686581D01*
X4237895Y2686581D01*
X4243597Y2684219D01*
X4267148Y2674464D01*
X4293479Y2656871D01*
X4315871Y2634479D01*
X4333464Y2608148D01*
X4345582Y2578892D01*
X4351760Y2547833D01*
X4351760Y2516167D01*
X4345582Y2485108D01*
X4333464Y2455852D01*
X4315871Y2429521D01*
X4293479Y2407129D01*
X4267148Y2389536D01*
X4252520Y2383477D01*
X4237895Y2377419D01*
X4237894Y2377419D01*
X4237892Y2377418D01*
X4206833Y2371240D01*
X4175167Y2371240D01*
X4144108Y2377418D01*
X4144106Y2377419D01*
X4144105Y2377419D01*
X4129480Y2383477D01*
X4114852Y2389536D01*
X4088521Y2407129D01*
X4066129Y2429521D01*
X4048536Y2455852D01*
X4036418Y2485108D01*
X4030240Y2516167D01*
X4030240Y2547833D01*
X4036418Y2578892D01*
X4048536Y2608148D01*
X4066129Y2634479D01*
X4088521Y2656871D01*
X4114852Y2674464D01*
X4138403Y2684219D01*
X4144105Y2686581D01*
X4144106Y2686581D01*
X4144108Y2686582D01*
X4175167Y2692760D01*
X4206833Y2692760D01*
X4237892Y2686582D01*
G37*
G36*
X1057166Y3209645D02*
G01*
X1057168Y3209644D01*
X1057169Y3209644D01*
X1063144Y3207169D01*
X1112174Y3186860D01*
X1161680Y3153781D01*
X1203781Y3111680D01*
X1236860Y3062174D01*
X1242075Y3049583D01*
X1257964Y3011226D01*
X1259645Y3007166D01*
X1271260Y2948770D01*
X1271260Y2889230D01*
X1261367Y2839491D01*
X1259644Y2830831D01*
X1251634Y2811493D01*
X1236860Y2775826D01*
X1203781Y2726320D01*
X1161680Y2684219D01*
X1112174Y2651140D01*
X1098862Y2645626D01*
X1057169Y2628356D01*
X1057168Y2628356D01*
X1057166Y2628355D01*
X998770Y2616740D01*
X939230Y2616740D01*
X880834Y2628355D01*
X880832Y2628356D01*
X880831Y2628356D01*
X839138Y2645626D01*
X825826Y2651140D01*
X776320Y2684219D01*
X734219Y2726320D01*
X701140Y2775826D01*
X686366Y2811493D01*
X678356Y2830831D01*
X676634Y2839491D01*
X666740Y2889230D01*
X666740Y2948770D01*
X678355Y3007166D01*
X680037Y3011226D01*
X695925Y3049583D01*
X701140Y3062174D01*
X734219Y3111680D01*
X776320Y3153781D01*
X825826Y3186860D01*
X874856Y3207169D01*
X880831Y3209644D01*
X880832Y3209644D01*
X880834Y3209645D01*
X939230Y3221260D01*
X998770Y3221260D01*
X1057166Y3209645D01*
G37*
G36*
X2008505Y3095160D02*
G01*
X2016062Y3092030D01*
X2045626Y3079785D01*
X2079042Y3057457D01*
X2107457Y3029042D01*
X2129785Y2995626D01*
X2142030Y2966062D01*
X2145160Y2958505D01*
X2153000Y2919092D01*
X2153000Y2878908D01*
X2145160Y2839495D01*
X2142030Y2831938D01*
X2129785Y2802374D01*
X2107457Y2768958D01*
X2079042Y2740543D01*
X2045626Y2718215D01*
X2017920Y2706740D01*
X2008505Y2702840D01*
X1969092Y2695000D01*
X1928908Y2695000D01*
X1889495Y2702840D01*
X1880080Y2706740D01*
X1852374Y2718215D01*
X1818958Y2740543D01*
X1790543Y2768958D01*
X1768215Y2802374D01*
X1755970Y2831938D01*
X1752840Y2839495D01*
X1745000Y2878908D01*
X1745000Y2919092D01*
X1752840Y2958505D01*
X1755970Y2966062D01*
X1768215Y2995626D01*
X1790543Y3029042D01*
X1818958Y3057457D01*
X1852374Y3079785D01*
X1881938Y3092030D01*
X1889495Y3095160D01*
X1928908Y3103000D01*
X1969092Y3103000D01*
X2008505Y3095160D01*
G37*
G36*
X8380090Y3369998D02*
G01*
X8380092Y3369997D01*
X8380093Y3369997D01*
X8405084Y3359645D01*
X8435098Y3347213D01*
X8484604Y3314134D01*
X8526705Y3272033D01*
X8559784Y3222527D01*
X8582569Y3167519D01*
X8587877Y3140831D01*
X8588551Y3137443D01*
X8589708Y3133631D01*
X8591585Y3130118D01*
X8594112Y3127039D01*
X8597191Y3124512D01*
X8600704Y3122635D01*
X8604516Y3121478D01*
X8608480Y3121088D01*
X8612444Y3121478D01*
X8616256Y3122635D01*
X8619769Y3124512D01*
X8622848Y3127039D01*
X8625375Y3130118D01*
X8627252Y3133631D01*
X8628244Y3136904D01*
X8643411Y3173519D01*
X8651138Y3192174D01*
X8684217Y3241680D01*
X8726318Y3283781D01*
X8775824Y3316860D01*
X8824108Y3336860D01*
X8830829Y3339644D01*
X8830830Y3339644D01*
X8830832Y3339645D01*
X8889228Y3351260D01*
X8948768Y3351260D01*
X9007164Y3339645D01*
X9007166Y3339644D01*
X9007167Y3339644D01*
X9013888Y3336860D01*
X9062172Y3316860D01*
X9111678Y3283781D01*
X9153779Y3241680D01*
X9186858Y3192174D01*
X9196153Y3169734D01*
X9209529Y3137443D01*
X9209643Y3137166D01*
X9221258Y3078770D01*
X9221258Y3066703D01*
X9221648Y3062739D01*
X9222805Y3058927D01*
X9224682Y3055414D01*
X9227209Y3052335D01*
X9230288Y3049808D01*
X9233801Y3047931D01*
X9237613Y3046774D01*
X9241577Y3046384D01*
X9245541Y3046774D01*
X9249353Y3047931D01*
X9252866Y3049808D01*
X9255945Y3052335D01*
X9258472Y3055414D01*
X9260349Y3058927D01*
X9261504Y3062734D01*
X9268353Y3097166D01*
X9269017Y3098768D01*
X9283457Y3133631D01*
X9291138Y3152174D01*
X9324217Y3201680D01*
X9366318Y3243781D01*
X9415824Y3276860D01*
X9446016Y3289366D01*
X9470829Y3299644D01*
X9470830Y3299644D01*
X9470832Y3299645D01*
X9529228Y3311260D01*
X9588768Y3311260D01*
X9647164Y3299645D01*
X9647166Y3299644D01*
X9647167Y3299644D01*
X9671980Y3289366D01*
X9702172Y3276860D01*
X9751678Y3243781D01*
X9793779Y3201680D01*
X9826858Y3152174D01*
X9834539Y3133631D01*
X9848980Y3098768D01*
X9849643Y3097166D01*
X9861258Y3038770D01*
X9861258Y2979230D01*
X9850637Y2925829D01*
X9849642Y2920831D01*
X9839489Y2896321D01*
X9826858Y2865826D01*
X9793779Y2816320D01*
X9751678Y2774219D01*
X9702172Y2741140D01*
X9674759Y2729785D01*
X9647167Y2718356D01*
X9647166Y2718356D01*
X9647164Y2718355D01*
X9588768Y2706740D01*
X9529228Y2706740D01*
X9470832Y2718355D01*
X9470830Y2718356D01*
X9470829Y2718356D01*
X9443237Y2729785D01*
X9415824Y2741140D01*
X9366318Y2774219D01*
X9324217Y2816320D01*
X9291138Y2865826D01*
X9278507Y2896321D01*
X9268354Y2920831D01*
X9267360Y2925829D01*
X9256738Y2979230D01*
X9256738Y2991297D01*
X9256348Y2995261D01*
X9255191Y2999073D01*
X9253314Y3002586D01*
X9250787Y3005665D01*
X9247708Y3008192D01*
X9244195Y3010069D01*
X9240383Y3011226D01*
X9236419Y3011616D01*
X9232455Y3011226D01*
X9228643Y3010069D01*
X9225130Y3008192D01*
X9222051Y3005665D01*
X9219524Y3002586D01*
X9217647Y2999073D01*
X9216492Y2995266D01*
X9209643Y2960834D01*
X9209642Y2960831D01*
X9201485Y2941139D01*
X9186858Y2905826D01*
X9153779Y2856320D01*
X9111678Y2814219D01*
X9062172Y2781140D01*
X9049350Y2775829D01*
X9007167Y2758356D01*
X9007166Y2758356D01*
X9007164Y2758355D01*
X8948768Y2746740D01*
X8889228Y2746740D01*
X8830832Y2758355D01*
X8830830Y2758356D01*
X8830829Y2758356D01*
X8788646Y2775829D01*
X8775824Y2781140D01*
X8726318Y2814219D01*
X8684217Y2856320D01*
X8651138Y2905826D01*
X8636511Y2941139D01*
X8628354Y2960831D01*
X8628293Y2961139D01*
X8622371Y2990911D01*
X8621214Y2994722D01*
X8619337Y2998235D01*
X8616810Y3001314D01*
X8613731Y3003841D01*
X8610218Y3005718D01*
X8606406Y3006875D01*
X8602442Y3007265D01*
X8598478Y3006875D01*
X8594666Y3005718D01*
X8591153Y3003841D01*
X8588074Y3001314D01*
X8585547Y2998235D01*
X8583670Y2994722D01*
X8582678Y2991449D01*
X8575541Y2974219D01*
X8559784Y2936179D01*
X8526705Y2886673D01*
X8484604Y2844572D01*
X8435098Y2811493D01*
X8413083Y2802374D01*
X8380093Y2788709D01*
X8380092Y2788709D01*
X8380090Y2788708D01*
X8321694Y2777093D01*
X8262154Y2777093D01*
X8203758Y2788708D01*
X8203756Y2788709D01*
X8203755Y2788709D01*
X8170765Y2802374D01*
X8148750Y2811493D01*
X8099244Y2844572D01*
X8057143Y2886673D01*
X8024064Y2936179D01*
X8006231Y2979232D01*
X8001280Y2991184D01*
X8001258Y2991297D01*
X7989664Y3049583D01*
X7989664Y3109123D01*
X8001279Y3167519D01*
X8024064Y3222527D01*
X8057143Y3272033D01*
X8099244Y3314134D01*
X8148750Y3347213D01*
X8178764Y3359645D01*
X8203755Y3369997D01*
X8203756Y3369997D01*
X8203758Y3369998D01*
X8262154Y3381613D01*
X8321694Y3381613D01*
X8380090Y3369998D01*
G37*
G36*
X14887166Y3349645D02*
G01*
X14887168Y3349644D01*
X14887169Y3349644D01*
X14909985Y3340193D01*
X14942174Y3326860D01*
X14991680Y3293781D01*
X15033781Y3251680D01*
X15066860Y3202174D01*
X15068079Y3199230D01*
X15088982Y3148768D01*
X15089645Y3147166D01*
X15101260Y3088770D01*
X15101260Y3029230D01*
X15089645Y2970834D01*
X15066860Y2915826D01*
X15033781Y2866320D01*
X14991680Y2824219D01*
X14942174Y2791140D01*
X14931551Y2786740D01*
X14887169Y2768356D01*
X14887168Y2768356D01*
X14887166Y2768355D01*
X14828770Y2756740D01*
X14769230Y2756740D01*
X14710834Y2768355D01*
X14710832Y2768356D01*
X14710831Y2768356D01*
X14666449Y2786740D01*
X14655826Y2791140D01*
X14606320Y2824219D01*
X14564219Y2866320D01*
X14531140Y2915826D01*
X14508355Y2970834D01*
X14496740Y3029230D01*
X14496740Y3088770D01*
X14508355Y3147166D01*
X14509019Y3148768D01*
X14529921Y3199230D01*
X14531140Y3202174D01*
X14564219Y3251680D01*
X14606320Y3293781D01*
X14655826Y3326860D01*
X14688015Y3340193D01*
X14710831Y3349644D01*
X14710832Y3349644D01*
X14710834Y3349645D01*
X14769230Y3361260D01*
X14828770Y3361260D01*
X14887166Y3349645D01*
G37*
G36*
X15827166Y3909645D02*
G01*
X15827168Y3909644D01*
X15827169Y3909644D01*
X15836594Y3905740D01*
X15882174Y3886860D01*
X15931680Y3853781D01*
X15973781Y3811680D01*
X16006860Y3762174D01*
X16014297Y3744219D01*
X16028000Y3711139D01*
X16029645Y3707166D01*
X16041260Y3648770D01*
X16041260Y3589230D01*
X16029730Y3531260D01*
X16029644Y3530831D01*
X16022646Y3513937D01*
X16006860Y3475826D01*
X15973781Y3426320D01*
X15931680Y3384219D01*
X15882174Y3351140D01*
X15855746Y3340193D01*
X15827169Y3328356D01*
X15827168Y3328356D01*
X15827166Y3328355D01*
X15768770Y3316740D01*
X15709230Y3316740D01*
X15674421Y3323663D01*
X15670462Y3324053D01*
X15666498Y3323663D01*
X15662686Y3322506D01*
X15659173Y3320629D01*
X15656094Y3318102D01*
X15653567Y3315022D01*
X15651690Y3311510D01*
X15650533Y3307698D01*
X15650143Y3303734D01*
X15650533Y3299770D01*
X15651690Y3295958D01*
X15653567Y3292445D01*
X15656089Y3289372D01*
X15683781Y3261680D01*
X15716860Y3212174D01*
X15725144Y3192174D01*
X15735356Y3167522D01*
X15739645Y3157166D01*
X15751260Y3098770D01*
X15751260Y3039230D01*
X15741704Y2991184D01*
X15739644Y2980831D01*
X15731487Y2961139D01*
X15716860Y2925826D01*
X15683781Y2876320D01*
X15641680Y2834219D01*
X15592174Y2801140D01*
X15585450Y2798355D01*
X15537169Y2778356D01*
X15537168Y2778356D01*
X15537166Y2778355D01*
X15478770Y2766740D01*
X15419230Y2766740D01*
X15360834Y2778355D01*
X15360832Y2778356D01*
X15360831Y2778356D01*
X15312550Y2798355D01*
X15305826Y2801140D01*
X15256320Y2834219D01*
X15214219Y2876320D01*
X15181140Y2925826D01*
X15166513Y2961139D01*
X15158356Y2980831D01*
X15156297Y2991184D01*
X15146740Y3039230D01*
X15146740Y3098770D01*
X15158355Y3157166D01*
X15162645Y3167522D01*
X15172856Y3192174D01*
X15181140Y3212174D01*
X15214219Y3261680D01*
X15256320Y3303781D01*
X15305826Y3336860D01*
X15336692Y3349645D01*
X15360831Y3359644D01*
X15360832Y3359644D01*
X15360834Y3359645D01*
X15419230Y3371260D01*
X15478770Y3371260D01*
X15513579Y3364337D01*
X15517538Y3363947D01*
X15521502Y3364337D01*
X15525314Y3365494D01*
X15528827Y3367371D01*
X15531906Y3369898D01*
X15534433Y3372978D01*
X15536310Y3376490D01*
X15537467Y3380302D01*
X15537857Y3384266D01*
X15537467Y3388230D01*
X15536310Y3392042D01*
X15534433Y3395555D01*
X15531911Y3398628D01*
X15504219Y3426320D01*
X15471140Y3475826D01*
X15455354Y3513937D01*
X15448356Y3530831D01*
X15448271Y3531260D01*
X15436740Y3589230D01*
X15436740Y3648770D01*
X15448355Y3707166D01*
X15450001Y3711139D01*
X15463703Y3744219D01*
X15471140Y3762174D01*
X15504219Y3811680D01*
X15546320Y3853781D01*
X15595826Y3886860D01*
X15641406Y3905740D01*
X15650831Y3909644D01*
X15650832Y3909644D01*
X15650834Y3909645D01*
X15709230Y3921260D01*
X15768770Y3921260D01*
X15827166Y3909645D01*
G37*
G36*
X5087166Y3379645D02*
G01*
X5087168Y3379644D01*
X5087169Y3379644D01*
X5094783Y3376490D01*
X5142174Y3356860D01*
X5191680Y3323781D01*
X5233781Y3281680D01*
X5266860Y3232174D01*
X5266861Y3232171D01*
X5283429Y3192174D01*
X5289645Y3177166D01*
X5301260Y3118770D01*
X5301260Y3059230D01*
X5290606Y3005665D01*
X5289644Y3000831D01*
X5281361Y2980834D01*
X5266860Y2945826D01*
X5233781Y2896320D01*
X5191680Y2854219D01*
X5142174Y2821140D01*
X5131551Y2816740D01*
X5087169Y2798356D01*
X5087168Y2798356D01*
X5087166Y2798355D01*
X5028770Y2786740D01*
X4969230Y2786740D01*
X4910834Y2798355D01*
X4910832Y2798356D01*
X4910831Y2798356D01*
X4866449Y2816740D01*
X4855826Y2821140D01*
X4806320Y2854219D01*
X4764219Y2896320D01*
X4731140Y2945826D01*
X4716639Y2980834D01*
X4708356Y3000831D01*
X4707395Y3005665D01*
X4696740Y3059230D01*
X4696740Y3118770D01*
X4708355Y3177166D01*
X4714572Y3192174D01*
X4731139Y3232171D01*
X4731140Y3232174D01*
X4764219Y3281680D01*
X4806320Y3323781D01*
X4855826Y3356860D01*
X4903217Y3376490D01*
X4910831Y3379644D01*
X4910832Y3379644D01*
X4910834Y3379645D01*
X4969230Y3391260D01*
X5028770Y3391260D01*
X5087166Y3379645D01*
G37*
G36*
X16907166Y3409645D02*
G01*
X16907168Y3409644D01*
X16907169Y3409644D01*
X16926395Y3401680D01*
X16962174Y3386860D01*
X17011680Y3353781D01*
X17053781Y3311680D01*
X17086860Y3262174D01*
X17109645Y3207166D01*
X17121260Y3148770D01*
X17121260Y3089230D01*
X17113046Y3047931D01*
X17109644Y3030831D01*
X17103634Y3016321D01*
X17086860Y2975826D01*
X17053781Y2926320D01*
X17011680Y2884219D01*
X16962174Y2851140D01*
X16951841Y2846860D01*
X16907169Y2828356D01*
X16907168Y2828356D01*
X16907166Y2828355D01*
X16848770Y2816740D01*
X16789230Y2816740D01*
X16730834Y2828355D01*
X16730832Y2828356D01*
X16730831Y2828356D01*
X16686159Y2846860D01*
X16675826Y2851140D01*
X16626320Y2884219D01*
X16584219Y2926320D01*
X16551140Y2975826D01*
X16534366Y3016321D01*
X16528356Y3030831D01*
X16524955Y3047931D01*
X16516740Y3089230D01*
X16516740Y3148770D01*
X16528355Y3207166D01*
X16551140Y3262174D01*
X16584219Y3311680D01*
X16626320Y3353781D01*
X16675826Y3386860D01*
X16711605Y3401680D01*
X16730831Y3409644D01*
X16730832Y3409644D01*
X16730834Y3409645D01*
X16789230Y3421260D01*
X16848770Y3421260D01*
X16907166Y3409645D01*
G37*
G36*
X14217166Y3499645D02*
G01*
X14217168Y3499644D01*
X14217169Y3499644D01*
X14244670Y3488253D01*
X14272174Y3476860D01*
X14321680Y3443781D01*
X14363781Y3401680D01*
X14396860Y3352174D01*
X14397908Y3349644D01*
X14418567Y3299770D01*
X14419645Y3297166D01*
X14431260Y3238770D01*
X14431260Y3179230D01*
X14419696Y3121088D01*
X14419644Y3120831D01*
X14415853Y3111680D01*
X14396860Y3065826D01*
X14363781Y3016320D01*
X14321680Y2974219D01*
X14272174Y2941140D01*
X14265450Y2938355D01*
X14217169Y2918356D01*
X14217168Y2918356D01*
X14217166Y2918355D01*
X14158770Y2906740D01*
X14099230Y2906740D01*
X14040834Y2918355D01*
X14040832Y2918356D01*
X14040831Y2918356D01*
X13992550Y2938355D01*
X13985826Y2941140D01*
X13936320Y2974219D01*
X13894219Y3016320D01*
X13861140Y3065826D01*
X13842147Y3111680D01*
X13838356Y3120831D01*
X13838305Y3121088D01*
X13826740Y3179230D01*
X13826740Y3238770D01*
X13838355Y3297166D01*
X13839434Y3299770D01*
X13860092Y3349644D01*
X13861140Y3352174D01*
X13894219Y3401680D01*
X13936320Y3443781D01*
X13985826Y3476860D01*
X14013330Y3488253D01*
X14040831Y3499644D01*
X14040832Y3499644D01*
X14040834Y3499645D01*
X14099230Y3511260D01*
X14158770Y3511260D01*
X14217166Y3499645D01*
G37*
G36*
X11328815Y3695160D02*
G01*
X11328817Y3695159D01*
X11328818Y3695159D01*
X11345244Y3688355D01*
X11383823Y3672375D01*
X11433329Y3639296D01*
X11475430Y3597195D01*
X11508509Y3547689D01*
X11515492Y3530831D01*
X11528410Y3499645D01*
X11531294Y3492681D01*
X11542909Y3434285D01*
X11542909Y3374745D01*
X11537917Y3349645D01*
X11537613Y3348121D01*
X11537223Y3344157D01*
X11537613Y3340193D01*
X11538770Y3336381D01*
X11540647Y3332868D01*
X11543174Y3329789D01*
X11546254Y3327262D01*
X11549766Y3325385D01*
X11553578Y3324228D01*
X11557542Y3323838D01*
X11561506Y3324228D01*
X11565318Y3325385D01*
X11568831Y3327262D01*
X11571910Y3329789D01*
X11574437Y3332869D01*
X11576314Y3336381D01*
X11582427Y3351139D01*
X11591140Y3372174D01*
X11624219Y3421680D01*
X11666320Y3463781D01*
X11715826Y3496860D01*
X11757051Y3513936D01*
X11770831Y3519644D01*
X11770832Y3519644D01*
X11770834Y3519645D01*
X11829230Y3531260D01*
X11888770Y3531260D01*
X11947166Y3519645D01*
X11947168Y3519644D01*
X11947169Y3519644D01*
X11960949Y3513936D01*
X12002174Y3496860D01*
X12051680Y3463781D01*
X12093781Y3421680D01*
X12126860Y3372174D01*
X12135573Y3351139D01*
X12149258Y3318102D01*
X12149645Y3317166D01*
X12161260Y3258770D01*
X12161260Y3199230D01*
X12151901Y3152174D01*
X12149644Y3140831D01*
X12145206Y3130118D01*
X12126860Y3085826D01*
X12093781Y3036320D01*
X12051680Y2994219D01*
X12002174Y2961140D01*
X11974670Y2949748D01*
X11947169Y2938356D01*
X11947168Y2938356D01*
X11947166Y2938355D01*
X11888770Y2926740D01*
X11829230Y2926740D01*
X11770834Y2938355D01*
X11770832Y2938356D01*
X11770831Y2938356D01*
X11743330Y2949748D01*
X11715826Y2961140D01*
X11666320Y2994219D01*
X11624219Y3036320D01*
X11591140Y3085826D01*
X11572794Y3130118D01*
X11568356Y3140831D01*
X11566100Y3152174D01*
X11556740Y3199230D01*
X11556740Y3258770D01*
X11562036Y3285399D01*
X11562426Y3289358D01*
X11562036Y3293322D01*
X11560879Y3297134D01*
X11559002Y3300647D01*
X11556475Y3303726D01*
X11553395Y3306253D01*
X11549883Y3308130D01*
X11546071Y3309287D01*
X11542107Y3309677D01*
X11538143Y3309287D01*
X11534331Y3308130D01*
X11530818Y3306253D01*
X11527739Y3303726D01*
X11525212Y3300646D01*
X11523335Y3297134D01*
X11508509Y3261341D01*
X11475430Y3211835D01*
X11433329Y3169734D01*
X11383823Y3136655D01*
X11376522Y3133631D01*
X11328818Y3113871D01*
X11328817Y3113871D01*
X11328815Y3113870D01*
X11270419Y3102255D01*
X11210879Y3102255D01*
X11152483Y3113870D01*
X11152481Y3113871D01*
X11152480Y3113871D01*
X11104776Y3133631D01*
X11097475Y3136655D01*
X11047969Y3169734D01*
X11005868Y3211835D01*
X10972789Y3261341D01*
X10956508Y3300647D01*
X10950005Y3316346D01*
X10949927Y3316740D01*
X10938389Y3374745D01*
X10938389Y3434285D01*
X10950004Y3492681D01*
X10952889Y3499645D01*
X10965806Y3530831D01*
X10972789Y3547689D01*
X11005868Y3597195D01*
X11047969Y3639296D01*
X11097475Y3672375D01*
X11136054Y3688355D01*
X11152480Y3695159D01*
X11152481Y3695159D01*
X11152483Y3695160D01*
X11210879Y3706775D01*
X11270419Y3706775D01*
X11328815Y3695160D01*
G37*
G36*
X12454072Y3949645D02*
G01*
X12454074Y3949644D01*
X12454075Y3949644D01*
X12481576Y3938253D01*
X12509080Y3926860D01*
X12558586Y3893781D01*
X12600687Y3851680D01*
X12633766Y3802174D01*
X12640333Y3786320D01*
X12650335Y3762174D01*
X12656551Y3747166D01*
X12668166Y3688770D01*
X12668166Y3629230D01*
X12657210Y3574146D01*
X12656550Y3570831D01*
X12646964Y3547689D01*
X12633766Y3515826D01*
X12600687Y3466320D01*
X12558586Y3424219D01*
X12509080Y3391140D01*
X12492371Y3384219D01*
X12454075Y3368356D01*
X12454074Y3368356D01*
X12454072Y3368355D01*
X12395676Y3356740D01*
X12336136Y3356740D01*
X12277740Y3368355D01*
X12277738Y3368356D01*
X12277737Y3368356D01*
X12239441Y3384219D01*
X12222732Y3391140D01*
X12173226Y3424219D01*
X12131125Y3466320D01*
X12098046Y3515826D01*
X12084848Y3547689D01*
X12075262Y3570831D01*
X12074603Y3574146D01*
X12063646Y3629230D01*
X12063646Y3688770D01*
X12075261Y3747166D01*
X12081478Y3762174D01*
X12091479Y3786320D01*
X12098046Y3802174D01*
X12131125Y3851680D01*
X12173226Y3893781D01*
X12222732Y3926860D01*
X12250236Y3938253D01*
X12277737Y3949644D01*
X12277738Y3949644D01*
X12277740Y3949645D01*
X12336136Y3961260D01*
X12395676Y3961260D01*
X12454072Y3949645D01*
G37*
G36*
X13127166Y4689645D02*
G01*
X13127168Y4689644D01*
X13127169Y4689644D01*
X13144469Y4682478D01*
X13182174Y4666860D01*
X13231680Y4633781D01*
X13273781Y4591680D01*
X13306860Y4542174D01*
X13310615Y4533108D01*
X13327968Y4491216D01*
X13329645Y4487166D01*
X13341260Y4428770D01*
X13341260Y4369230D01*
X13329645Y4310834D01*
X13306860Y4255826D01*
X13273781Y4206320D01*
X13231680Y4164219D01*
X13182174Y4131140D01*
X13171918Y4126892D01*
X13127169Y4108356D01*
X13127168Y4108356D01*
X13127166Y4108355D01*
X13084764Y4099921D01*
X13080962Y4098767D01*
X13077449Y4096890D01*
X13074370Y4094363D01*
X13071843Y4091284D01*
X13069965Y4087771D01*
X13068809Y4083959D01*
X13068418Y4079995D01*
X13068808Y4076031D01*
X13069965Y4072220D01*
X13071842Y4068707D01*
X13074369Y4065628D01*
X13077448Y4063101D01*
X13080961Y4061223D01*
X13084773Y4060066D01*
X13137166Y4049645D01*
X13137168Y4049644D01*
X13137169Y4049644D01*
X13150266Y4044219D01*
X13192174Y4026860D01*
X13241680Y3993781D01*
X13283781Y3951680D01*
X13316860Y3902174D01*
X13320765Y3892747D01*
X13339192Y3848261D01*
X13339645Y3847166D01*
X13351260Y3788770D01*
X13351260Y3729230D01*
X13339952Y3672375D01*
X13339644Y3670831D01*
X13334649Y3658773D01*
X13316860Y3615826D01*
X13283781Y3566320D01*
X13241680Y3524219D01*
X13192174Y3491140D01*
X13164670Y3479747D01*
X13137169Y3468356D01*
X13137168Y3468356D01*
X13137166Y3468355D01*
X13078770Y3456740D01*
X13019230Y3456740D01*
X12960834Y3468355D01*
X12960832Y3468356D01*
X12960831Y3468356D01*
X12933330Y3479747D01*
X12905826Y3491140D01*
X12856320Y3524219D01*
X12814219Y3566320D01*
X12781140Y3615826D01*
X12763351Y3658773D01*
X12758356Y3670831D01*
X12758049Y3672375D01*
X12746740Y3729230D01*
X12746740Y3788770D01*
X12758355Y3847166D01*
X12758809Y3848261D01*
X12777235Y3892747D01*
X12781140Y3902174D01*
X12814219Y3951680D01*
X12856320Y3993781D01*
X12905826Y4026860D01*
X12947734Y4044219D01*
X12960831Y4049644D01*
X12960832Y4049644D01*
X12960834Y4049645D01*
X13003236Y4058079D01*
X13007038Y4059233D01*
X13010551Y4061110D01*
X13013630Y4063637D01*
X13016157Y4066716D01*
X13018035Y4070229D01*
X13019191Y4074041D01*
X13019582Y4078005D01*
X13019192Y4081969D01*
X13018035Y4085780D01*
X13016158Y4089293D01*
X13013631Y4092372D01*
X13010552Y4094899D01*
X13007039Y4096777D01*
X13003227Y4097934D01*
X12993222Y4099924D01*
X12950834Y4108355D01*
X12950832Y4108356D01*
X12950831Y4108356D01*
X12906082Y4126892D01*
X12895826Y4131140D01*
X12846320Y4164219D01*
X12804219Y4206320D01*
X12771140Y4255826D01*
X12748355Y4310834D01*
X12736740Y4369230D01*
X12736740Y4428770D01*
X12748355Y4487166D01*
X12750033Y4491216D01*
X12767385Y4533108D01*
X12771140Y4542174D01*
X12804219Y4591680D01*
X12846320Y4633781D01*
X12895826Y4666860D01*
X12933531Y4682478D01*
X12950831Y4689644D01*
X12950832Y4689644D01*
X12950834Y4689645D01*
X13009230Y4701260D01*
X13068770Y4701260D01*
X13127166Y4689645D01*
G37*
G36*
X4338407Y4095226D02*
G01*
X4338409Y4095225D01*
X4338410Y4095225D01*
X4361282Y4085751D01*
X4393415Y4072441D01*
X4442921Y4039362D01*
X4485022Y3997261D01*
X4518101Y3947755D01*
X4526756Y3926860D01*
X4536983Y3902171D01*
X4540886Y3892747D01*
X4552501Y3834351D01*
X4552501Y3774811D01*
X4546294Y3743602D01*
X4540885Y3716412D01*
X4530448Y3691216D01*
X4518101Y3661407D01*
X4485022Y3611901D01*
X4442921Y3569800D01*
X4393415Y3536721D01*
X4380231Y3531260D01*
X4338410Y3513937D01*
X4338409Y3513937D01*
X4338407Y3513936D01*
X4280011Y3502321D01*
X4220471Y3502321D01*
X4162075Y3513936D01*
X4162073Y3513937D01*
X4162072Y3513937D01*
X4120251Y3531260D01*
X4107067Y3536721D01*
X4057561Y3569800D01*
X4015460Y3611901D01*
X3982381Y3661407D01*
X3970034Y3691216D01*
X3959597Y3716412D01*
X3954189Y3743602D01*
X3947981Y3774811D01*
X3947981Y3834351D01*
X3959596Y3892747D01*
X3963500Y3902171D01*
X3973726Y3926860D01*
X3982381Y3947755D01*
X4015460Y3997261D01*
X4057561Y4039362D01*
X4107067Y4072441D01*
X4139200Y4085751D01*
X4162072Y4095225D01*
X4162073Y4095225D01*
X4162075Y4095226D01*
X4220471Y4106841D01*
X4280011Y4106841D01*
X4338407Y4095226D01*
G37*
G36*
X9998261Y3925838D02*
G01*
X10016783Y3920219D01*
X10033853Y3911095D01*
X10048816Y3898816D01*
X10061095Y3883854D01*
X10070219Y3866784D01*
X10075838Y3848262D01*
X10077260Y3833823D01*
X10077260Y3624177D01*
X10075838Y3609738D01*
X10070219Y3591216D01*
X10061095Y3574146D01*
X10048816Y3559184D01*
X10033854Y3546905D01*
X10016784Y3537781D01*
X9998262Y3532162D01*
X9979000Y3530265D01*
X9959739Y3532162D01*
X9941217Y3537781D01*
X9924147Y3546905D01*
X9909185Y3559184D01*
X9896906Y3574146D01*
X9887782Y3591216D01*
X9882163Y3609738D01*
X9880741Y3624177D01*
X9880740Y3833822D01*
X9882162Y3848261D01*
X9887781Y3866783D01*
X9896905Y3883853D01*
X9909184Y3898816D01*
X9924146Y3911095D01*
X9941216Y3920219D01*
X9959738Y3925838D01*
X9979000Y3927735D01*
X9998261Y3925838D01*
G37*
G36*
X9598261Y3925838D02*
G01*
X9616783Y3920219D01*
X9633853Y3911095D01*
X9648816Y3898816D01*
X9661095Y3883854D01*
X9670219Y3866784D01*
X9675838Y3848262D01*
X9677260Y3833823D01*
X9677260Y3624177D01*
X9675838Y3609738D01*
X9670219Y3591216D01*
X9661095Y3574146D01*
X9648816Y3559184D01*
X9633854Y3546905D01*
X9616784Y3537781D01*
X9598262Y3532162D01*
X9579000Y3530265D01*
X9559739Y3532162D01*
X9541217Y3537781D01*
X9524147Y3546905D01*
X9509185Y3559184D01*
X9496906Y3574146D01*
X9487782Y3591216D01*
X9482163Y3609738D01*
X9480741Y3624177D01*
X9480740Y3833822D01*
X9482162Y3848261D01*
X9487781Y3866783D01*
X9496905Y3883853D01*
X9509184Y3898816D01*
X9524146Y3911095D01*
X9541216Y3920219D01*
X9559738Y3925838D01*
X9579000Y3927735D01*
X9598261Y3925838D01*
G37*
G36*
X9198261Y3925838D02*
G01*
X9216783Y3920219D01*
X9233853Y3911095D01*
X9248816Y3898816D01*
X9261095Y3883854D01*
X9270219Y3866784D01*
X9275838Y3848262D01*
X9277260Y3833823D01*
X9277260Y3624177D01*
X9275838Y3609738D01*
X9270219Y3591216D01*
X9261095Y3574146D01*
X9248816Y3559184D01*
X9233854Y3546905D01*
X9216784Y3537781D01*
X9198262Y3532162D01*
X9179000Y3530265D01*
X9159739Y3532162D01*
X9141217Y3537781D01*
X9124147Y3546905D01*
X9109185Y3559184D01*
X9096906Y3574146D01*
X9087782Y3591216D01*
X9082163Y3609738D01*
X9080741Y3624177D01*
X9080740Y3833822D01*
X9082162Y3848261D01*
X9087781Y3866783D01*
X9096905Y3883853D01*
X9109184Y3898816D01*
X9124146Y3911095D01*
X9141216Y3920219D01*
X9159738Y3925838D01*
X9179000Y3927735D01*
X9198261Y3925838D01*
G37*
G36*
X10398261Y3925838D02*
G01*
X10416783Y3920219D01*
X10433853Y3911095D01*
X10448816Y3898816D01*
X10461095Y3883854D01*
X10470219Y3866784D01*
X10475838Y3848262D01*
X10477260Y3833823D01*
X10477260Y3624177D01*
X10475838Y3609738D01*
X10470219Y3591216D01*
X10461095Y3574146D01*
X10448816Y3559184D01*
X10433854Y3546905D01*
X10416784Y3537781D01*
X10398262Y3532162D01*
X10379000Y3530265D01*
X10359739Y3532162D01*
X10341217Y3537781D01*
X10324147Y3546905D01*
X10309185Y3559184D01*
X10296906Y3574146D01*
X10287782Y3591216D01*
X10282163Y3609738D01*
X10280741Y3624177D01*
X10280740Y3833822D01*
X10282162Y3848261D01*
X10287781Y3866783D01*
X10296905Y3883853D01*
X10309184Y3898816D01*
X10324146Y3911095D01*
X10341216Y3920219D01*
X10359738Y3925838D01*
X10379000Y3927735D01*
X10398261Y3925838D01*
G37*
G36*
X8800763Y3875835D02*
G01*
X8822249Y3871562D01*
X8849224Y3860388D01*
X8873510Y3844161D01*
X8894161Y3823510D01*
X8910388Y3799224D01*
X8921562Y3772249D01*
X8927260Y3743601D01*
X8927260Y3714399D01*
X8921562Y3685751D01*
X8910388Y3658776D01*
X8894161Y3634490D01*
X8873510Y3613839D01*
X8849224Y3597612D01*
X8822249Y3586438D01*
X8800763Y3582164D01*
X8793602Y3580740D01*
X8764398Y3580740D01*
X8757237Y3582164D01*
X8735751Y3586438D01*
X8708776Y3597612D01*
X8684490Y3613839D01*
X8663839Y3634490D01*
X8647612Y3658776D01*
X8636438Y3685751D01*
X8630740Y3714399D01*
X8630740Y3743601D01*
X8636438Y3772249D01*
X8647612Y3799224D01*
X8663839Y3823510D01*
X8684490Y3844161D01*
X8708776Y3860388D01*
X8735751Y3871562D01*
X8757237Y3875835D01*
X8764398Y3877260D01*
X8793602Y3877260D01*
X8800763Y3875835D01*
G37*
G36*
X10898262Y3825838D02*
G01*
X10916784Y3820219D01*
X10933854Y3811095D01*
X10948816Y3798816D01*
X10961095Y3783854D01*
X10970219Y3766784D01*
X10975838Y3748262D01*
X10977735Y3729000D01*
X10975838Y3709738D01*
X10970219Y3691216D01*
X10961095Y3674146D01*
X10948816Y3659184D01*
X10933854Y3646905D01*
X10916784Y3637781D01*
X10898262Y3632162D01*
X10883823Y3630740D01*
X10674177Y3630740D01*
X10659738Y3632162D01*
X10641216Y3637781D01*
X10624146Y3646905D01*
X10609184Y3659184D01*
X10596905Y3674146D01*
X10587781Y3691216D01*
X10582162Y3709738D01*
X10580265Y3729000D01*
X10582162Y3748262D01*
X10587781Y3766784D01*
X10596905Y3783854D01*
X10609184Y3798816D01*
X10624146Y3811095D01*
X10641216Y3820219D01*
X10659738Y3825838D01*
X10674177Y3827260D01*
X10883823Y3827260D01*
X10898262Y3825838D01*
G37*
G36*
X18877166Y4269645D02*
G01*
X18877168Y4269644D01*
X18877169Y4269644D01*
X18899519Y4260386D01*
X18932174Y4246860D01*
X18981680Y4213781D01*
X19023781Y4171680D01*
X19056860Y4122174D01*
X19067771Y4095833D01*
X19073514Y4081969D01*
X19079645Y4067166D01*
X19091260Y4008770D01*
X19091260Y3949230D01*
X19081233Y3898816D01*
X19079644Y3890831D01*
X19071662Y3871562D01*
X19056860Y3835826D01*
X19023781Y3786320D01*
X18981680Y3744219D01*
X18932174Y3711140D01*
X18928794Y3709740D01*
X18877169Y3688356D01*
X18877168Y3688356D01*
X18877166Y3688355D01*
X18818770Y3676740D01*
X18759230Y3676740D01*
X18700834Y3688355D01*
X18700832Y3688356D01*
X18700831Y3688356D01*
X18649206Y3709740D01*
X18645826Y3711140D01*
X18596320Y3744219D01*
X18554219Y3786320D01*
X18521140Y3835826D01*
X18506338Y3871562D01*
X18498356Y3890831D01*
X18496768Y3898816D01*
X18486740Y3949230D01*
X18486740Y4008770D01*
X18498355Y4067166D01*
X18504487Y4081969D01*
X18510229Y4095833D01*
X18521140Y4122174D01*
X18554219Y4171680D01*
X18596320Y4213781D01*
X18645826Y4246860D01*
X18678481Y4260386D01*
X18700831Y4269644D01*
X18700832Y4269644D01*
X18700834Y4269645D01*
X18759230Y4281260D01*
X18818770Y4281260D01*
X18877166Y4269645D01*
G37*
G36*
X13919454Y4249596D02*
G01*
X13939541Y4245601D01*
X13971066Y4232543D01*
X13999447Y4213580D01*
X14023580Y4189447D01*
X14042543Y4161066D01*
X14055601Y4129541D01*
X14057066Y4122174D01*
X14062260Y4096065D01*
X14062260Y4061935D01*
X14061631Y4058773D01*
X14055601Y4028459D01*
X14042543Y3996934D01*
X14023580Y3968553D01*
X13999447Y3944420D01*
X13971066Y3925457D01*
X13939541Y3912399D01*
X13919454Y3908404D01*
X13906065Y3905740D01*
X13871935Y3905740D01*
X13858546Y3908404D01*
X13838459Y3912399D01*
X13806934Y3925457D01*
X13778553Y3944420D01*
X13754420Y3968553D01*
X13735457Y3996934D01*
X13722399Y4028459D01*
X13716369Y4058773D01*
X13715740Y4061935D01*
X13715740Y4096065D01*
X13720934Y4122174D01*
X13722399Y4129541D01*
X13735457Y4161066D01*
X13754420Y4189447D01*
X13778553Y4213580D01*
X13806934Y4232543D01*
X13838459Y4245601D01*
X13858546Y4249596D01*
X13871935Y4252260D01*
X13906065Y4252260D01*
X13919454Y4249596D01*
G37*
G36*
X14719454Y4249596D02*
G01*
X14739541Y4245601D01*
X14771066Y4232543D01*
X14799447Y4213580D01*
X14823580Y4189447D01*
X14842543Y4161066D01*
X14855601Y4129541D01*
X14857066Y4122174D01*
X14862260Y4096065D01*
X14862260Y4061935D01*
X14861631Y4058773D01*
X14855601Y4028459D01*
X14842543Y3996934D01*
X14823580Y3968553D01*
X14799447Y3944420D01*
X14771066Y3925457D01*
X14739541Y3912399D01*
X14719454Y3908404D01*
X14706065Y3905740D01*
X14671935Y3905740D01*
X14658546Y3908404D01*
X14638459Y3912399D01*
X14606934Y3925457D01*
X14578553Y3944420D01*
X14554420Y3968553D01*
X14535457Y3996934D01*
X14522399Y4028459D01*
X14516369Y4058773D01*
X14515740Y4061935D01*
X14515740Y4096065D01*
X14520934Y4122174D01*
X14522399Y4129541D01*
X14535457Y4161066D01*
X14554420Y4189447D01*
X14578553Y4213580D01*
X14606934Y4232543D01*
X14638459Y4245601D01*
X14658546Y4249596D01*
X14671935Y4252260D01*
X14706065Y4252260D01*
X14719454Y4249596D01*
G37*
G36*
X14319454Y4249596D02*
G01*
X14339541Y4245601D01*
X14371066Y4232543D01*
X14399447Y4213580D01*
X14423580Y4189447D01*
X14442543Y4161066D01*
X14455601Y4129541D01*
X14457066Y4122174D01*
X14462260Y4096065D01*
X14462260Y4061935D01*
X14461631Y4058773D01*
X14455601Y4028459D01*
X14442543Y3996934D01*
X14423580Y3968553D01*
X14399447Y3944420D01*
X14371066Y3925457D01*
X14339541Y3912399D01*
X14319454Y3908404D01*
X14306065Y3905740D01*
X14271935Y3905740D01*
X14258546Y3908404D01*
X14238459Y3912399D01*
X14206934Y3925457D01*
X14178553Y3944420D01*
X14154420Y3968553D01*
X14135457Y3996934D01*
X14122399Y4028459D01*
X14116369Y4058773D01*
X14115740Y4061935D01*
X14115740Y4096065D01*
X14120934Y4122174D01*
X14122399Y4129541D01*
X14135457Y4161066D01*
X14154420Y4189447D01*
X14178553Y4213580D01*
X14206934Y4232543D01*
X14238459Y4245601D01*
X14258546Y4249596D01*
X14271935Y4252260D01*
X14306065Y4252260D01*
X14319454Y4249596D01*
G37*
G36*
X3467892Y4234582D02*
G01*
X3467894Y4234581D01*
X3467895Y4234581D01*
X3472815Y4232543D01*
X3497148Y4222464D01*
X3523479Y4204871D01*
X3545871Y4182479D01*
X3563464Y4156148D01*
X3563465Y4156145D01*
X3573823Y4131140D01*
X3575582Y4126892D01*
X3581760Y4095833D01*
X3581760Y4064167D01*
X3576512Y4037781D01*
X3575581Y4033105D01*
X3572994Y4026860D01*
X3563464Y4003852D01*
X3545871Y3977521D01*
X3523479Y3955129D01*
X3497148Y3937536D01*
X3495226Y3936740D01*
X3467895Y3925419D01*
X3467894Y3925419D01*
X3467892Y3925418D01*
X3436833Y3919240D01*
X3405167Y3919240D01*
X3374108Y3925418D01*
X3374106Y3925419D01*
X3374105Y3925419D01*
X3346774Y3936740D01*
X3344852Y3937536D01*
X3318521Y3955129D01*
X3296129Y3977521D01*
X3278536Y4003852D01*
X3269006Y4026860D01*
X3266419Y4033105D01*
X3265489Y4037781D01*
X3260240Y4064167D01*
X3260240Y4095833D01*
X3266418Y4126892D01*
X3268178Y4131140D01*
X3278535Y4156145D01*
X3278536Y4156148D01*
X3296129Y4182479D01*
X3318521Y4204871D01*
X3344852Y4222464D01*
X3369185Y4232543D01*
X3374105Y4234581D01*
X3374106Y4234581D01*
X3374108Y4234582D01*
X3405167Y4240760D01*
X3436833Y4240760D01*
X3467892Y4234582D01*
G37*
G36*
X2967892Y4234582D02*
G01*
X2967894Y4234581D01*
X2967895Y4234581D01*
X2972815Y4232543D01*
X2997148Y4222464D01*
X3023479Y4204871D01*
X3045871Y4182479D01*
X3063464Y4156148D01*
X3063465Y4156145D01*
X3073823Y4131140D01*
X3075582Y4126892D01*
X3081760Y4095833D01*
X3081760Y4064167D01*
X3076512Y4037781D01*
X3075581Y4033105D01*
X3072994Y4026860D01*
X3063464Y4003852D01*
X3045871Y3977521D01*
X3023479Y3955129D01*
X2997148Y3937536D01*
X2995226Y3936740D01*
X2967895Y3925419D01*
X2967894Y3925419D01*
X2967892Y3925418D01*
X2936833Y3919240D01*
X2905167Y3919240D01*
X2874108Y3925418D01*
X2874106Y3925419D01*
X2874105Y3925419D01*
X2846774Y3936740D01*
X2844852Y3937536D01*
X2818521Y3955129D01*
X2796129Y3977521D01*
X2778536Y4003852D01*
X2769006Y4026860D01*
X2766419Y4033105D01*
X2765489Y4037781D01*
X2760240Y4064167D01*
X2760240Y4095833D01*
X2766418Y4126892D01*
X2768178Y4131140D01*
X2778535Y4156145D01*
X2778536Y4156148D01*
X2796129Y4182479D01*
X2818521Y4204871D01*
X2844852Y4222464D01*
X2869185Y4232543D01*
X2874105Y4234581D01*
X2874106Y4234581D01*
X2874108Y4234582D01*
X2905167Y4240760D01*
X2936833Y4240760D01*
X2967892Y4234582D01*
G37*
G36*
X6937166Y4529645D02*
G01*
X6937168Y4529644D01*
X6937169Y4529644D01*
X6964670Y4518253D01*
X6992174Y4506860D01*
X7041680Y4473781D01*
X7083781Y4431680D01*
X7116860Y4382174D01*
X7128105Y4355027D01*
X7139188Y4328271D01*
X7139645Y4327166D01*
X7151260Y4268770D01*
X7151260Y4209230D01*
X7141681Y4161069D01*
X7139644Y4150831D01*
X7131487Y4131139D01*
X7116860Y4095826D01*
X7083781Y4046320D01*
X7041680Y4004219D01*
X6992174Y3971140D01*
X6964670Y3959748D01*
X6937169Y3948356D01*
X6937168Y3948356D01*
X6937166Y3948355D01*
X6878770Y3936740D01*
X6819230Y3936740D01*
X6760834Y3948355D01*
X6760832Y3948356D01*
X6760831Y3948356D01*
X6733330Y3959747D01*
X6705826Y3971140D01*
X6656320Y4004219D01*
X6614219Y4046320D01*
X6581140Y4095826D01*
X6566513Y4131139D01*
X6558356Y4150831D01*
X6556320Y4161069D01*
X6546740Y4209230D01*
X6546740Y4268770D01*
X6558355Y4327166D01*
X6558813Y4328271D01*
X6569895Y4355027D01*
X6581140Y4382174D01*
X6614219Y4431680D01*
X6656320Y4473781D01*
X6705826Y4506860D01*
X6733330Y4518253D01*
X6760831Y4529644D01*
X6760832Y4529644D01*
X6760834Y4529645D01*
X6819230Y4541260D01*
X6878770Y4541260D01*
X6937166Y4529645D01*
G37*
G36*
X12227166Y4569645D02*
G01*
X12227168Y4569644D01*
X12227169Y4569644D01*
X12253421Y4558770D01*
X12282174Y4546860D01*
X12331680Y4513781D01*
X12373781Y4471680D01*
X12406860Y4422174D01*
X12410485Y4413423D01*
X12428000Y4371139D01*
X12429645Y4367166D01*
X12441260Y4308770D01*
X12441260Y4249230D01*
X12431233Y4198816D01*
X12429644Y4190831D01*
X12426020Y4182083D01*
X12406860Y4135826D01*
X12373781Y4086320D01*
X12331680Y4044219D01*
X12282174Y4011140D01*
X12276452Y4008770D01*
X12227169Y3988356D01*
X12227168Y3988356D01*
X12227166Y3988355D01*
X12168770Y3976740D01*
X12109230Y3976740D01*
X12050834Y3988355D01*
X12050832Y3988356D01*
X12050831Y3988356D01*
X12001548Y4008770D01*
X11995826Y4011140D01*
X11946320Y4044219D01*
X11904219Y4086320D01*
X11871140Y4135826D01*
X11851980Y4182083D01*
X11848356Y4190831D01*
X11846768Y4198816D01*
X11836740Y4249230D01*
X11836740Y4308770D01*
X11848355Y4367166D01*
X11850001Y4371139D01*
X11867515Y4413423D01*
X11871140Y4422174D01*
X11904219Y4471680D01*
X11946320Y4513781D01*
X11995826Y4546860D01*
X12024579Y4558770D01*
X12050831Y4569644D01*
X12050832Y4569644D01*
X12050834Y4569645D01*
X12109230Y4581260D01*
X12168770Y4581260D01*
X12227166Y4569645D01*
G37*
G36*
X9200763Y4275836D02*
G01*
X9222249Y4271562D01*
X9249224Y4260388D01*
X9273510Y4244161D01*
X9294161Y4223510D01*
X9310388Y4199224D01*
X9321562Y4172249D01*
X9327260Y4143601D01*
X9327260Y4114399D01*
X9321562Y4085751D01*
X9310388Y4058776D01*
X9294161Y4034490D01*
X9273510Y4013839D01*
X9249224Y3997612D01*
X9222249Y3986438D01*
X9200763Y3982164D01*
X9193602Y3980740D01*
X9164398Y3980740D01*
X9157237Y3982164D01*
X9135751Y3986438D01*
X9108776Y3997612D01*
X9084490Y4013839D01*
X9063839Y4034490D01*
X9047612Y4058776D01*
X9036438Y4085751D01*
X9030740Y4114399D01*
X9030740Y4143601D01*
X9036438Y4172249D01*
X9047612Y4199224D01*
X9063839Y4223510D01*
X9084490Y4244161D01*
X9108776Y4260388D01*
X9135751Y4271562D01*
X9157237Y4275835D01*
X9164398Y4277260D01*
X9193602Y4277260D01*
X9200763Y4275836D01*
G37*
G36*
X10000763Y4275836D02*
G01*
X10022249Y4271562D01*
X10049224Y4260388D01*
X10073510Y4244161D01*
X10094161Y4223510D01*
X10110388Y4199224D01*
X10121562Y4172249D01*
X10127260Y4143601D01*
X10127260Y4114399D01*
X10121562Y4085751D01*
X10110388Y4058776D01*
X10094161Y4034490D01*
X10073510Y4013839D01*
X10049224Y3997612D01*
X10022249Y3986438D01*
X10000763Y3982164D01*
X9993602Y3980740D01*
X9964398Y3980740D01*
X9957237Y3982164D01*
X9935751Y3986438D01*
X9908776Y3997612D01*
X9884490Y4013839D01*
X9863839Y4034490D01*
X9847612Y4058776D01*
X9836438Y4085751D01*
X9830740Y4114399D01*
X9830740Y4143601D01*
X9836438Y4172249D01*
X9847612Y4199224D01*
X9863839Y4223510D01*
X9884490Y4244161D01*
X9908776Y4260388D01*
X9935751Y4271562D01*
X9957237Y4275835D01*
X9964398Y4277260D01*
X9993602Y4277260D01*
X10000763Y4275836D01*
G37*
G36*
X9600763Y4275836D02*
G01*
X9622249Y4271562D01*
X9649224Y4260388D01*
X9673510Y4244161D01*
X9694161Y4223510D01*
X9710388Y4199224D01*
X9721562Y4172249D01*
X9727260Y4143601D01*
X9727260Y4114399D01*
X9721562Y4085751D01*
X9710388Y4058776D01*
X9694161Y4034490D01*
X9673510Y4013839D01*
X9649224Y3997612D01*
X9622249Y3986438D01*
X9600763Y3982164D01*
X9593602Y3980740D01*
X9564398Y3980740D01*
X9557237Y3982164D01*
X9535751Y3986438D01*
X9508776Y3997612D01*
X9484490Y4013839D01*
X9463839Y4034490D01*
X9447612Y4058776D01*
X9436438Y4085751D01*
X9430740Y4114399D01*
X9430740Y4143601D01*
X9436438Y4172249D01*
X9447612Y4199224D01*
X9463839Y4223510D01*
X9484490Y4244161D01*
X9508776Y4260388D01*
X9535751Y4271562D01*
X9557237Y4275835D01*
X9564398Y4277260D01*
X9593602Y4277260D01*
X9600763Y4275836D01*
G37*
G36*
X10400763Y4275836D02*
G01*
X10422249Y4271562D01*
X10449224Y4260388D01*
X10473510Y4244161D01*
X10494161Y4223510D01*
X10510388Y4199224D01*
X10521562Y4172249D01*
X10527260Y4143601D01*
X10527260Y4114399D01*
X10521562Y4085751D01*
X10510388Y4058776D01*
X10494161Y4034490D01*
X10473510Y4013839D01*
X10449224Y3997612D01*
X10422249Y3986438D01*
X10400763Y3982164D01*
X10393602Y3980740D01*
X10364398Y3980740D01*
X10357237Y3982164D01*
X10335751Y3986438D01*
X10308776Y3997612D01*
X10284490Y4013839D01*
X10263839Y4034490D01*
X10247612Y4058776D01*
X10236438Y4085751D01*
X10230740Y4114399D01*
X10230740Y4143601D01*
X10236438Y4172249D01*
X10247612Y4199224D01*
X10263839Y4223510D01*
X10284490Y4244161D01*
X10308776Y4260388D01*
X10335751Y4271562D01*
X10357237Y4275835D01*
X10364398Y4277260D01*
X10393602Y4277260D01*
X10400763Y4275836D01*
G37*
G36*
X8227166Y4615902D02*
G01*
X8227168Y4615901D01*
X8227169Y4615901D01*
X8242173Y4609686D01*
X8282174Y4593117D01*
X8331680Y4560038D01*
X8373781Y4517937D01*
X8406860Y4468431D01*
X8406861Y4468428D01*
X8426022Y4422171D01*
X8429645Y4413423D01*
X8441260Y4355027D01*
X8441260Y4295487D01*
X8429897Y4238356D01*
X8429644Y4237088D01*
X8419990Y4213781D01*
X8406860Y4182083D01*
X8373781Y4132577D01*
X8331680Y4090476D01*
X8282174Y4057397D01*
X8256846Y4046906D01*
X8227169Y4034613D01*
X8227168Y4034613D01*
X8227166Y4034612D01*
X8168770Y4022997D01*
X8109230Y4022997D01*
X8050834Y4034612D01*
X8050832Y4034613D01*
X8050831Y4034613D01*
X8021154Y4046906D01*
X7995826Y4057397D01*
X7946320Y4090476D01*
X7904219Y4132577D01*
X7871140Y4182083D01*
X7858010Y4213781D01*
X7848356Y4237088D01*
X7848104Y4238356D01*
X7836740Y4295487D01*
X7836740Y4355027D01*
X7848355Y4413423D01*
X7851979Y4422171D01*
X7871139Y4468428D01*
X7871140Y4468431D01*
X7904219Y4517937D01*
X7946320Y4560038D01*
X7995826Y4593117D01*
X8035827Y4609686D01*
X8050831Y4615901D01*
X8050832Y4615901D01*
X8050834Y4615902D01*
X8109230Y4627517D01*
X8168770Y4627517D01*
X8227166Y4615902D01*
G37*
G36*
X10898262Y4225838D02*
G01*
X10916784Y4220219D01*
X10933854Y4211095D01*
X10948816Y4198816D01*
X10961095Y4183854D01*
X10970219Y4166784D01*
X10975838Y4148262D01*
X10977735Y4129000D01*
X10975838Y4109738D01*
X10970219Y4091216D01*
X10961095Y4074146D01*
X10948816Y4059184D01*
X10933854Y4046905D01*
X10916784Y4037781D01*
X10898262Y4032162D01*
X10883823Y4030740D01*
X10674177Y4030740D01*
X10659738Y4032162D01*
X10641216Y4037781D01*
X10624146Y4046905D01*
X10609184Y4059184D01*
X10596905Y4074146D01*
X10587781Y4091216D01*
X10582162Y4109738D01*
X10580265Y4129000D01*
X10582162Y4148262D01*
X10587781Y4166784D01*
X10596905Y4183854D01*
X10609184Y4198816D01*
X10624146Y4211095D01*
X10641216Y4220219D01*
X10659738Y4225838D01*
X10674177Y4227260D01*
X10883823Y4227260D01*
X10898262Y4225838D01*
G37*
G36*
X8898262Y4225838D02*
G01*
X8916784Y4220219D01*
X8933854Y4211095D01*
X8948816Y4198816D01*
X8961095Y4183854D01*
X8970219Y4166784D01*
X8975838Y4148262D01*
X8977735Y4129000D01*
X8975838Y4109738D01*
X8970219Y4091216D01*
X8961095Y4074146D01*
X8948816Y4059184D01*
X8933854Y4046905D01*
X8916784Y4037781D01*
X8898262Y4032162D01*
X8883823Y4030740D01*
X8674177Y4030740D01*
X8659738Y4032162D01*
X8641216Y4037781D01*
X8624146Y4046905D01*
X8609184Y4059184D01*
X8596905Y4074146D01*
X8587781Y4091216D01*
X8582162Y4109738D01*
X8580265Y4129000D01*
X8582162Y4148262D01*
X8587781Y4166784D01*
X8596905Y4183854D01*
X8609184Y4198816D01*
X8624146Y4211095D01*
X8641216Y4220219D01*
X8659738Y4225838D01*
X8674177Y4227260D01*
X8883823Y4227260D01*
X8898262Y4225838D01*
G37*
G36*
X2527166Y4819645D02*
G01*
X2527168Y4819644D01*
X2527169Y4819644D01*
X2554670Y4808252D01*
X2582174Y4796860D01*
X2631680Y4763781D01*
X2673781Y4721680D01*
X2706860Y4672174D01*
X2706861Y4672171D01*
X2727548Y4622229D01*
X2729425Y4618716D01*
X2731952Y4615637D01*
X2735031Y4613110D01*
X2738544Y4611233D01*
X2742356Y4610076D01*
X2746320Y4609686D01*
X2750284Y4610076D01*
X2754096Y4611233D01*
X2757609Y4613110D01*
X2760688Y4615637D01*
X2763215Y4618716D01*
X2765092Y4622229D01*
X2766248Y4626039D01*
X2766418Y4626891D01*
X2766420Y4626895D01*
X2778536Y4656148D01*
X2796129Y4682479D01*
X2818521Y4704871D01*
X2844852Y4722464D01*
X2864357Y4730543D01*
X2874105Y4734581D01*
X2874106Y4734581D01*
X2874108Y4734582D01*
X2905167Y4740760D01*
X2936833Y4740760D01*
X2967892Y4734582D01*
X2967894Y4734581D01*
X2967895Y4734581D01*
X2977643Y4730543D01*
X2997148Y4722464D01*
X3023479Y4704871D01*
X3045871Y4682479D01*
X3063464Y4656148D01*
X3075582Y4626892D01*
X3081760Y4595833D01*
X3081760Y4564167D01*
X3077204Y4541260D01*
X3075581Y4533105D01*
X3069523Y4518480D01*
X3063464Y4503852D01*
X3045871Y4477521D01*
X3023479Y4455129D01*
X2997148Y4437536D01*
X2989794Y4434490D01*
X2967895Y4425419D01*
X2967894Y4425419D01*
X2967892Y4425418D01*
X2936833Y4419240D01*
X2905167Y4419240D01*
X2874108Y4425418D01*
X2874106Y4425419D01*
X2874105Y4425419D01*
X2852206Y4434490D01*
X2844852Y4437536D01*
X2818521Y4455129D01*
X2796129Y4477521D01*
X2778536Y4503852D01*
X2778535Y4503855D01*
X2777773Y4504995D01*
X2775246Y4508074D01*
X2772167Y4510601D01*
X2768654Y4512478D01*
X2764842Y4513635D01*
X2760878Y4514025D01*
X2756914Y4513635D01*
X2753102Y4512478D01*
X2749589Y4510601D01*
X2746510Y4508074D01*
X2743983Y4504995D01*
X2742106Y4501482D01*
X2740951Y4497677D01*
X2730736Y4446321D01*
X2729644Y4440831D01*
X2718463Y4413839D01*
X2706860Y4385826D01*
X2673781Y4336320D01*
X2631680Y4294219D01*
X2582174Y4261140D01*
X2569352Y4255829D01*
X2527169Y4238356D01*
X2527168Y4238356D01*
X2527166Y4238355D01*
X2468770Y4226740D01*
X2409230Y4226740D01*
X2350834Y4238355D01*
X2350832Y4238356D01*
X2350831Y4238356D01*
X2308648Y4255829D01*
X2295826Y4261140D01*
X2246320Y4294219D01*
X2204219Y4336320D01*
X2171140Y4385826D01*
X2159537Y4413839D01*
X2148356Y4440831D01*
X2147148Y4446905D01*
X2136740Y4499230D01*
X2136740Y4558770D01*
X2148355Y4617166D01*
X2149620Y4620219D01*
X2171139Y4672171D01*
X2171140Y4672174D01*
X2204219Y4721680D01*
X2246320Y4763781D01*
X2295826Y4796860D01*
X2323330Y4808252D01*
X2350831Y4819644D01*
X2350832Y4819644D01*
X2350834Y4819645D01*
X2409230Y4831260D01*
X2468770Y4831260D01*
X2527166Y4819645D01*
G37*
G36*
X14519454Y4599596D02*
G01*
X14539541Y4595601D01*
X14571066Y4582543D01*
X14599447Y4563580D01*
X14623580Y4539447D01*
X14642543Y4511066D01*
X14655601Y4479541D01*
X14657811Y4468431D01*
X14662093Y4446906D01*
X14662260Y4446063D01*
X14662260Y4411937D01*
X14655601Y4378459D01*
X14642543Y4346934D01*
X14623580Y4318553D01*
X14599447Y4294420D01*
X14571066Y4275457D01*
X14539541Y4262399D01*
X14519454Y4258404D01*
X14506065Y4255740D01*
X14471935Y4255740D01*
X14458546Y4258404D01*
X14438459Y4262399D01*
X14406934Y4275457D01*
X14378553Y4294420D01*
X14354420Y4318553D01*
X14335457Y4346934D01*
X14322399Y4378459D01*
X14315740Y4411937D01*
X14315740Y4446063D01*
X14315908Y4446906D01*
X14320189Y4468431D01*
X14322399Y4479541D01*
X14335457Y4511066D01*
X14354420Y4539447D01*
X14378553Y4563580D01*
X14406934Y4582543D01*
X14438459Y4595601D01*
X14458546Y4599596D01*
X14471935Y4602260D01*
X14506065Y4602260D01*
X14519454Y4599596D01*
G37*
G36*
X14119454Y4599596D02*
G01*
X14139541Y4595601D01*
X14171066Y4582543D01*
X14199447Y4563580D01*
X14223580Y4539447D01*
X14242543Y4511066D01*
X14255601Y4479541D01*
X14257811Y4468431D01*
X14262093Y4446906D01*
X14262260Y4446063D01*
X14262260Y4411937D01*
X14255601Y4378459D01*
X14242543Y4346934D01*
X14223580Y4318553D01*
X14199447Y4294420D01*
X14171066Y4275457D01*
X14139541Y4262399D01*
X14119454Y4258404D01*
X14106065Y4255740D01*
X14071935Y4255740D01*
X14058546Y4258404D01*
X14038459Y4262399D01*
X14006934Y4275457D01*
X13978553Y4294420D01*
X13954420Y4318553D01*
X13935457Y4346934D01*
X13922399Y4378459D01*
X13915740Y4411937D01*
X13915740Y4446063D01*
X13915908Y4446906D01*
X13920189Y4468431D01*
X13922399Y4479541D01*
X13935457Y4511066D01*
X13954420Y4539447D01*
X13978553Y4563580D01*
X14006934Y4582543D01*
X14038459Y4595601D01*
X14058546Y4599596D01*
X14071935Y4602260D01*
X14106065Y4602260D01*
X14119454Y4599596D01*
G37*
G36*
X4217166Y5485813D02*
G01*
X4217168Y5485812D01*
X4217169Y5485812D01*
X4237815Y5477260D01*
X4272174Y5463028D01*
X4321680Y5429949D01*
X4363781Y5387848D01*
X4396860Y5338342D01*
X4419645Y5283334D01*
X4431260Y5224938D01*
X4431260Y5165398D01*
X4419645Y5107002D01*
X4396860Y5051994D01*
X4363781Y5002488D01*
X4321680Y4960387D01*
X4272174Y4927308D01*
X4257370Y4921176D01*
X4217169Y4904524D01*
X4217168Y4904524D01*
X4217166Y4904523D01*
X4158770Y4892908D01*
X4136602Y4892908D01*
X4132638Y4892518D01*
X4128826Y4891361D01*
X4125313Y4889484D01*
X4122234Y4886957D01*
X4119707Y4883878D01*
X4117830Y4880365D01*
X4116673Y4876553D01*
X4116283Y4872589D01*
X4116673Y4868625D01*
X4117830Y4864813D01*
X4119707Y4861300D01*
X4122234Y4858221D01*
X4125307Y4855699D01*
X4128303Y4853697D01*
X4170404Y4811596D01*
X4203483Y4762090D01*
X4203484Y4762087D01*
X4225798Y4708218D01*
X4226268Y4707082D01*
X4237883Y4648686D01*
X4237883Y4589146D01*
X4227998Y4539447D01*
X4226267Y4530747D01*
X4225810Y4529644D01*
X4203483Y4475742D01*
X4170404Y4426236D01*
X4128303Y4384135D01*
X4078797Y4351056D01*
X4068838Y4346931D01*
X4023792Y4328272D01*
X4023791Y4328272D01*
X4023789Y4328271D01*
X3965393Y4316656D01*
X3905853Y4316656D01*
X3847457Y4328271D01*
X3847455Y4328272D01*
X3847454Y4328272D01*
X3802408Y4346931D01*
X3792449Y4351056D01*
X3742943Y4384135D01*
X3700842Y4426236D01*
X3667763Y4475742D01*
X3645436Y4529644D01*
X3644979Y4530747D01*
X3643249Y4539447D01*
X3633363Y4589146D01*
X3633363Y4648686D01*
X3644978Y4707082D01*
X3645449Y4708218D01*
X3667762Y4762087D01*
X3667763Y4762090D01*
X3700842Y4811596D01*
X3742943Y4853697D01*
X3792449Y4886776D01*
X3822178Y4899090D01*
X3847454Y4909560D01*
X3847455Y4909560D01*
X3847457Y4909561D01*
X3905853Y4921176D01*
X3928021Y4921176D01*
X3931985Y4921566D01*
X3935797Y4922723D01*
X3939310Y4924600D01*
X3942389Y4927127D01*
X3944916Y4930206D01*
X3946793Y4933719D01*
X3947950Y4937531D01*
X3948340Y4941495D01*
X3947950Y4945459D01*
X3946793Y4949271D01*
X3944916Y4952784D01*
X3942389Y4955863D01*
X3939316Y4958385D01*
X3936320Y4960387D01*
X3894219Y5002488D01*
X3861140Y5051994D01*
X3838355Y5107002D01*
X3826740Y5165398D01*
X3826740Y5224938D01*
X3838355Y5283334D01*
X3861140Y5338342D01*
X3894219Y5387848D01*
X3936320Y5429949D01*
X3985826Y5463028D01*
X4020185Y5477260D01*
X4040831Y5485812D01*
X4040832Y5485812D01*
X4040834Y5485813D01*
X4099230Y5497428D01*
X4158770Y5497428D01*
X4217166Y5485813D01*
G37*
G36*
X677166Y4929645D02*
G01*
X677168Y4929644D01*
X677169Y4929644D01*
X697612Y4921176D01*
X732174Y4906860D01*
X781680Y4873781D01*
X823781Y4831680D01*
X856860Y4782174D01*
X856861Y4782171D01*
X879110Y4728459D01*
X879645Y4727166D01*
X891260Y4668770D01*
X891260Y4609230D01*
X880054Y4552888D01*
X879644Y4550831D01*
X871326Y4530750D01*
X856860Y4495826D01*
X823781Y4446320D01*
X781680Y4404219D01*
X732174Y4371140D01*
X722587Y4367169D01*
X677169Y4348356D01*
X677168Y4348356D01*
X677166Y4348355D01*
X618770Y4336740D01*
X559230Y4336740D01*
X500834Y4348355D01*
X500832Y4348356D01*
X500831Y4348356D01*
X455413Y4367169D01*
X445826Y4371140D01*
X396320Y4404219D01*
X354219Y4446320D01*
X321140Y4495826D01*
X306674Y4530750D01*
X298356Y4550831D01*
X297947Y4552888D01*
X286740Y4609230D01*
X286740Y4668770D01*
X298355Y4727166D01*
X298891Y4728459D01*
X321139Y4782171D01*
X321140Y4782174D01*
X354219Y4831680D01*
X396320Y4873781D01*
X445826Y4906860D01*
X480388Y4921176D01*
X500831Y4929644D01*
X500832Y4929644D01*
X500834Y4929645D01*
X559230Y4941260D01*
X618770Y4941260D01*
X677166Y4929645D01*
G37*
G36*
X16497170Y4929645D02*
G01*
X16497172Y4929644D01*
X16497173Y4929644D01*
X16517616Y4921176D01*
X16552178Y4906860D01*
X16601684Y4873781D01*
X16643785Y4831680D01*
X16676864Y4782174D01*
X16676865Y4782171D01*
X16699114Y4728459D01*
X16699649Y4727166D01*
X16711264Y4668770D01*
X16711264Y4609230D01*
X16700058Y4552888D01*
X16699648Y4550831D01*
X16691330Y4530750D01*
X16676864Y4495826D01*
X16643785Y4446320D01*
X16601684Y4404219D01*
X16552178Y4371140D01*
X16542591Y4367169D01*
X16497173Y4348356D01*
X16497172Y4348356D01*
X16497170Y4348355D01*
X16438774Y4336740D01*
X16379234Y4336740D01*
X16320838Y4348355D01*
X16320836Y4348356D01*
X16320835Y4348356D01*
X16275417Y4367169D01*
X16265830Y4371140D01*
X16216324Y4404219D01*
X16174223Y4446320D01*
X16141144Y4495826D01*
X16126678Y4530750D01*
X16118360Y4550831D01*
X16117951Y4552888D01*
X16106744Y4609230D01*
X16106744Y4668770D01*
X16118359Y4727166D01*
X16118895Y4728459D01*
X16141143Y4782171D01*
X16141144Y4782174D01*
X16174223Y4831680D01*
X16216324Y4873781D01*
X16265830Y4906860D01*
X16300392Y4921176D01*
X16320835Y4929644D01*
X16320836Y4929644D01*
X16320838Y4929645D01*
X16379234Y4941260D01*
X16438774Y4941260D01*
X16497170Y4929645D01*
G37*
G36*
X9200763Y4675836D02*
G01*
X9222249Y4671562D01*
X9249224Y4660388D01*
X9273510Y4644161D01*
X9294161Y4623510D01*
X9310388Y4599224D01*
X9321562Y4572249D01*
X9327260Y4543601D01*
X9327260Y4514399D01*
X9321562Y4485751D01*
X9310388Y4458776D01*
X9294161Y4434490D01*
X9273510Y4413839D01*
X9249224Y4397612D01*
X9222249Y4386438D01*
X9200811Y4382174D01*
X9193602Y4380740D01*
X9164398Y4380740D01*
X9157189Y4382174D01*
X9135751Y4386438D01*
X9108776Y4397612D01*
X9084490Y4413839D01*
X9063839Y4434490D01*
X9047612Y4458776D01*
X9036438Y4485751D01*
X9030740Y4514399D01*
X9030740Y4543601D01*
X9036438Y4572249D01*
X9047612Y4599224D01*
X9063839Y4623510D01*
X9084490Y4644161D01*
X9108776Y4660388D01*
X9135751Y4671562D01*
X9157237Y4675835D01*
X9164398Y4677260D01*
X9193602Y4677260D01*
X9200763Y4675836D01*
G37*
G36*
X10000763Y4675836D02*
G01*
X10022249Y4671562D01*
X10049224Y4660388D01*
X10073510Y4644161D01*
X10094161Y4623510D01*
X10110388Y4599224D01*
X10121562Y4572249D01*
X10127260Y4543601D01*
X10127260Y4514399D01*
X10121562Y4485751D01*
X10110388Y4458776D01*
X10094161Y4434490D01*
X10073510Y4413839D01*
X10049224Y4397612D01*
X10022249Y4386438D01*
X10000811Y4382174D01*
X9993602Y4380740D01*
X9964398Y4380740D01*
X9957189Y4382174D01*
X9935751Y4386438D01*
X9908776Y4397612D01*
X9884490Y4413839D01*
X9863839Y4434490D01*
X9847612Y4458776D01*
X9836438Y4485751D01*
X9830740Y4514399D01*
X9830740Y4543601D01*
X9836438Y4572249D01*
X9847612Y4599224D01*
X9863839Y4623510D01*
X9884490Y4644161D01*
X9908776Y4660388D01*
X9935751Y4671562D01*
X9957237Y4675835D01*
X9964398Y4677260D01*
X9993602Y4677260D01*
X10000763Y4675836D01*
G37*
G36*
X10400763Y4675836D02*
G01*
X10422249Y4671562D01*
X10449224Y4660388D01*
X10473510Y4644161D01*
X10494161Y4623510D01*
X10510388Y4599224D01*
X10521562Y4572249D01*
X10527260Y4543601D01*
X10527260Y4514399D01*
X10521562Y4485751D01*
X10510388Y4458776D01*
X10494161Y4434490D01*
X10473510Y4413839D01*
X10449224Y4397612D01*
X10422249Y4386438D01*
X10400811Y4382174D01*
X10393602Y4380740D01*
X10364398Y4380740D01*
X10357189Y4382174D01*
X10335751Y4386438D01*
X10308776Y4397612D01*
X10284490Y4413839D01*
X10263839Y4434490D01*
X10247612Y4458776D01*
X10236438Y4485751D01*
X10230740Y4514399D01*
X10230740Y4543601D01*
X10236438Y4572249D01*
X10247612Y4599224D01*
X10263839Y4623510D01*
X10284490Y4644161D01*
X10308776Y4660388D01*
X10335751Y4671562D01*
X10357237Y4675835D01*
X10364398Y4677260D01*
X10393602Y4677260D01*
X10400763Y4675836D01*
G37*
G36*
X9600763Y4675836D02*
G01*
X9622249Y4671562D01*
X9649224Y4660388D01*
X9673510Y4644161D01*
X9694161Y4623510D01*
X9710388Y4599224D01*
X9721562Y4572249D01*
X9727260Y4543601D01*
X9727260Y4514399D01*
X9721562Y4485751D01*
X9710388Y4458776D01*
X9694161Y4434490D01*
X9673510Y4413839D01*
X9649224Y4397612D01*
X9622249Y4386438D01*
X9600811Y4382174D01*
X9593602Y4380740D01*
X9564398Y4380740D01*
X9557189Y4382174D01*
X9535751Y4386438D01*
X9508776Y4397612D01*
X9484490Y4413839D01*
X9463839Y4434490D01*
X9447612Y4458776D01*
X9436438Y4485751D01*
X9430740Y4514399D01*
X9430740Y4543601D01*
X9436438Y4572249D01*
X9447612Y4599224D01*
X9463839Y4623510D01*
X9484490Y4644161D01*
X9508776Y4660388D01*
X9535751Y4671562D01*
X9557237Y4675835D01*
X9564398Y4677260D01*
X9593602Y4677260D01*
X9600763Y4675836D01*
G37*
G36*
X3467892Y4734582D02*
G01*
X3467894Y4734581D01*
X3467895Y4734581D01*
X3477643Y4730543D01*
X3497148Y4722464D01*
X3523479Y4704871D01*
X3545871Y4682479D01*
X3563464Y4656148D01*
X3575582Y4626892D01*
X3581760Y4595833D01*
X3581760Y4564167D01*
X3577204Y4541260D01*
X3575581Y4533105D01*
X3569523Y4518480D01*
X3563464Y4503852D01*
X3545871Y4477521D01*
X3523479Y4455129D01*
X3497148Y4437536D01*
X3489794Y4434490D01*
X3467895Y4425419D01*
X3467894Y4425419D01*
X3467892Y4425418D01*
X3436833Y4419240D01*
X3405167Y4419240D01*
X3374108Y4425418D01*
X3374106Y4425419D01*
X3374105Y4425419D01*
X3352206Y4434490D01*
X3344852Y4437536D01*
X3318521Y4455129D01*
X3296129Y4477521D01*
X3278536Y4503852D01*
X3272477Y4518480D01*
X3266419Y4533105D01*
X3264797Y4541260D01*
X3260240Y4564167D01*
X3260240Y4595833D01*
X3266418Y4626892D01*
X3278536Y4656148D01*
X3296129Y4682479D01*
X3318521Y4704871D01*
X3344852Y4722464D01*
X3364357Y4730543D01*
X3374105Y4734581D01*
X3374106Y4734581D01*
X3374108Y4734582D01*
X3405167Y4740760D01*
X3436833Y4740760D01*
X3467892Y4734582D01*
G37*
G36*
X8898262Y4625838D02*
G01*
X8916784Y4620219D01*
X8933854Y4611095D01*
X8948816Y4598816D01*
X8961095Y4583854D01*
X8970219Y4566784D01*
X8975838Y4548262D01*
X8977735Y4529000D01*
X8975838Y4509738D01*
X8970219Y4491216D01*
X8961095Y4474146D01*
X8948816Y4459184D01*
X8933854Y4446905D01*
X8916784Y4437781D01*
X8898262Y4432162D01*
X8883823Y4430740D01*
X8674177Y4430740D01*
X8659738Y4432162D01*
X8641216Y4437781D01*
X8624146Y4446905D01*
X8609184Y4459184D01*
X8596905Y4474146D01*
X8587781Y4491216D01*
X8582162Y4509738D01*
X8580265Y4529000D01*
X8582162Y4548262D01*
X8587781Y4566784D01*
X8596905Y4583854D01*
X8609184Y4598816D01*
X8624146Y4611095D01*
X8641216Y4620219D01*
X8659738Y4625838D01*
X8674177Y4627260D01*
X8883823Y4627260D01*
X8898262Y4625838D01*
G37*
G36*
X10898262Y4625838D02*
G01*
X10916784Y4620219D01*
X10933854Y4611095D01*
X10948816Y4598816D01*
X10961095Y4583854D01*
X10970219Y4566784D01*
X10975838Y4548262D01*
X10977735Y4529000D01*
X10975838Y4509738D01*
X10970219Y4491216D01*
X10961095Y4474146D01*
X10948816Y4459184D01*
X10933854Y4446905D01*
X10916784Y4437781D01*
X10898262Y4432162D01*
X10883823Y4430740D01*
X10674177Y4430740D01*
X10659738Y4432162D01*
X10641216Y4437781D01*
X10624146Y4446905D01*
X10609184Y4459184D01*
X10596905Y4474146D01*
X10587781Y4491216D01*
X10582162Y4509738D01*
X10580265Y4529000D01*
X10582162Y4548262D01*
X10587781Y4566784D01*
X10596905Y4583854D01*
X10609184Y4598816D01*
X10624146Y4611095D01*
X10641216Y4620219D01*
X10659738Y4625838D01*
X10674177Y4627260D01*
X10883823Y4627260D01*
X10898262Y4625838D01*
G37*
G36*
X15711654Y5134177D02*
G01*
X15711656Y5134176D01*
X15711657Y5134176D01*
X15729242Y5126892D01*
X15766662Y5111392D01*
X15816168Y5078313D01*
X15858269Y5036212D01*
X15891348Y4986706D01*
X15898477Y4969495D01*
X15911314Y4938505D01*
X15914133Y4931698D01*
X15925748Y4873302D01*
X15925748Y4813762D01*
X15914133Y4755366D01*
X15891348Y4700358D01*
X15858269Y4650852D01*
X15816168Y4608751D01*
X15766662Y4575672D01*
X15752111Y4569645D01*
X15711657Y4552888D01*
X15711656Y4552888D01*
X15711654Y4552887D01*
X15653258Y4541272D01*
X15593718Y4541272D01*
X15535322Y4552887D01*
X15535320Y4552888D01*
X15535319Y4552888D01*
X15494865Y4569645D01*
X15480314Y4575672D01*
X15430808Y4608751D01*
X15388707Y4650852D01*
X15355628Y4700358D01*
X15332843Y4755366D01*
X15321228Y4813762D01*
X15321228Y4873302D01*
X15332843Y4931698D01*
X15335663Y4938505D01*
X15348499Y4969495D01*
X15355628Y4986706D01*
X15388707Y5036212D01*
X15430808Y5078313D01*
X15480314Y5111392D01*
X15517734Y5126892D01*
X15535319Y5134176D01*
X15535320Y5134176D01*
X15535322Y5134177D01*
X15593718Y5145792D01*
X15653258Y5145792D01*
X15711654Y5134177D01*
G37*
G36*
X14319454Y4949596D02*
G01*
X14339541Y4945601D01*
X14371066Y4932543D01*
X14399447Y4913580D01*
X14423580Y4889447D01*
X14442543Y4861066D01*
X14455601Y4829541D01*
X14459170Y4811596D01*
X14462260Y4796065D01*
X14462260Y4761935D01*
X14459678Y4748958D01*
X14455601Y4728459D01*
X14442543Y4696934D01*
X14423580Y4668553D01*
X14399447Y4644420D01*
X14371066Y4625457D01*
X14339541Y4612399D01*
X14319454Y4608404D01*
X14306065Y4605740D01*
X14271935Y4605740D01*
X14258546Y4608404D01*
X14238459Y4612399D01*
X14206934Y4625457D01*
X14178553Y4644420D01*
X14154420Y4668553D01*
X14135457Y4696934D01*
X14122399Y4728459D01*
X14118322Y4748958D01*
X14115740Y4761935D01*
X14115740Y4796065D01*
X14118830Y4811596D01*
X14122399Y4829541D01*
X14135457Y4861066D01*
X14154420Y4889447D01*
X14178553Y4913580D01*
X14206934Y4932543D01*
X14238459Y4945601D01*
X14258546Y4949596D01*
X14271935Y4952260D01*
X14306065Y4952260D01*
X14319454Y4949596D01*
G37*
G36*
X14719454Y4949596D02*
G01*
X14739541Y4945601D01*
X14771066Y4932543D01*
X14799447Y4913580D01*
X14823580Y4889447D01*
X14842543Y4861066D01*
X14855601Y4829541D01*
X14859170Y4811596D01*
X14862260Y4796065D01*
X14862260Y4761935D01*
X14859678Y4748958D01*
X14855601Y4728459D01*
X14842543Y4696934D01*
X14823580Y4668553D01*
X14799447Y4644420D01*
X14771066Y4625457D01*
X14739541Y4612399D01*
X14719454Y4608404D01*
X14706065Y4605740D01*
X14671935Y4605740D01*
X14658546Y4608404D01*
X14638459Y4612399D01*
X14606934Y4625457D01*
X14578553Y4644420D01*
X14554420Y4668553D01*
X14535457Y4696934D01*
X14522399Y4728459D01*
X14518322Y4748958D01*
X14515740Y4761935D01*
X14515740Y4796065D01*
X14518830Y4811596D01*
X14522399Y4829541D01*
X14535457Y4861066D01*
X14554420Y4889447D01*
X14578553Y4913580D01*
X14606934Y4932543D01*
X14638459Y4945601D01*
X14658546Y4949596D01*
X14671935Y4952260D01*
X14706065Y4952260D01*
X14719454Y4949596D01*
G37*
G36*
X13919454Y4949596D02*
G01*
X13939541Y4945601D01*
X13971066Y4932543D01*
X13999447Y4913580D01*
X14023580Y4889447D01*
X14042543Y4861066D01*
X14055601Y4829541D01*
X14059170Y4811596D01*
X14062260Y4796065D01*
X14062260Y4761935D01*
X14059678Y4748958D01*
X14055601Y4728459D01*
X14042543Y4696934D01*
X14023580Y4668553D01*
X13999447Y4644420D01*
X13971066Y4625457D01*
X13939541Y4612399D01*
X13919454Y4608404D01*
X13906065Y4605740D01*
X13871935Y4605740D01*
X13858546Y4608404D01*
X13838459Y4612399D01*
X13806934Y4625457D01*
X13778553Y4644420D01*
X13754420Y4668553D01*
X13735457Y4696934D01*
X13722399Y4728459D01*
X13718322Y4748958D01*
X13715740Y4761935D01*
X13715740Y4796065D01*
X13718830Y4811596D01*
X13722399Y4829541D01*
X13735457Y4861066D01*
X13754420Y4889447D01*
X13778553Y4913580D01*
X13806934Y4932543D01*
X13838459Y4945601D01*
X13858546Y4949596D01*
X13871935Y4952260D01*
X13906065Y4952260D01*
X13919454Y4949596D01*
G37*
G36*
X6498505Y5075160D02*
G01*
X6506062Y5072030D01*
X6535626Y5059785D01*
X6569042Y5037457D01*
X6597457Y5009042D01*
X6619785Y4975626D01*
X6631119Y4948260D01*
X6635160Y4938505D01*
X6643000Y4899092D01*
X6643000Y4858908D01*
X6635160Y4819495D01*
X6635158Y4819491D01*
X6619785Y4782374D01*
X6597457Y4748958D01*
X6569042Y4720543D01*
X6535626Y4698215D01*
X6506062Y4685970D01*
X6498505Y4682840D01*
X6459092Y4675000D01*
X6418908Y4675000D01*
X6379495Y4682840D01*
X6371938Y4685970D01*
X6342374Y4698215D01*
X6308958Y4720543D01*
X6280543Y4748958D01*
X6258215Y4782374D01*
X6242842Y4819491D01*
X6242840Y4819495D01*
X6235000Y4858908D01*
X6235000Y4899092D01*
X6242840Y4938505D01*
X6246881Y4948260D01*
X6258215Y4975626D01*
X6280543Y5009042D01*
X6308958Y5037457D01*
X6342374Y5059785D01*
X6371938Y5072030D01*
X6379495Y5075160D01*
X6418908Y5083000D01*
X6459092Y5083000D01*
X6498505Y5075160D01*
G37*
G36*
X18618505Y5085160D02*
G01*
X18626062Y5082030D01*
X18655626Y5069785D01*
X18689042Y5047457D01*
X18717457Y5019042D01*
X18739785Y4985626D01*
X18752030Y4956062D01*
X18755160Y4948505D01*
X18763000Y4909092D01*
X18763000Y4868908D01*
X18755160Y4829495D01*
X18755158Y4829491D01*
X18739785Y4792374D01*
X18717457Y4758958D01*
X18689042Y4730543D01*
X18655626Y4708215D01*
X18626062Y4695970D01*
X18618505Y4692840D01*
X18579092Y4685000D01*
X18538908Y4685000D01*
X18499495Y4692840D01*
X18491938Y4695970D01*
X18462374Y4708215D01*
X18428958Y4730543D01*
X18400543Y4758958D01*
X18378215Y4792374D01*
X18362842Y4829491D01*
X18362840Y4829495D01*
X18355000Y4868908D01*
X18355000Y4909092D01*
X18362840Y4948505D01*
X18365970Y4956062D01*
X18378215Y4985626D01*
X18400543Y5019042D01*
X18428958Y5047457D01*
X18462374Y5069785D01*
X18491938Y5082030D01*
X18499495Y5085160D01*
X18538908Y5093000D01*
X18579092Y5093000D01*
X18618505Y5085160D01*
G37*
G36*
X10000763Y5075836D02*
G01*
X10022249Y5071562D01*
X10049224Y5060388D01*
X10073510Y5044161D01*
X10094161Y5023510D01*
X10110388Y4999224D01*
X10121562Y4972249D01*
X10125538Y4952260D01*
X10127260Y4943602D01*
X10127260Y4914398D01*
X10126204Y4909090D01*
X10121562Y4885751D01*
X10110388Y4858776D01*
X10094161Y4834490D01*
X10073510Y4813839D01*
X10049224Y4797612D01*
X10022249Y4786438D01*
X10001816Y4782374D01*
X9993602Y4780740D01*
X9964398Y4780740D01*
X9956184Y4782374D01*
X9935751Y4786438D01*
X9908776Y4797612D01*
X9884490Y4813839D01*
X9863839Y4834490D01*
X9847612Y4858776D01*
X9836438Y4885751D01*
X9831796Y4909090D01*
X9830740Y4914398D01*
X9830740Y4943602D01*
X9832462Y4952260D01*
X9836438Y4972249D01*
X9847612Y4999224D01*
X9863839Y5023510D01*
X9884490Y5044161D01*
X9908776Y5060388D01*
X9935751Y5071562D01*
X9957237Y5075835D01*
X9964398Y5077260D01*
X9993602Y5077260D01*
X10000763Y5075836D01*
G37*
G36*
X10400763Y5075836D02*
G01*
X10422249Y5071562D01*
X10449224Y5060388D01*
X10473510Y5044161D01*
X10494161Y5023510D01*
X10510388Y4999224D01*
X10521562Y4972249D01*
X10525538Y4952260D01*
X10527260Y4943602D01*
X10527260Y4914398D01*
X10526204Y4909090D01*
X10521562Y4885751D01*
X10510388Y4858776D01*
X10494161Y4834490D01*
X10473510Y4813839D01*
X10449224Y4797612D01*
X10422249Y4786438D01*
X10401816Y4782374D01*
X10393602Y4780740D01*
X10364398Y4780740D01*
X10356184Y4782374D01*
X10335751Y4786438D01*
X10308776Y4797612D01*
X10284490Y4813839D01*
X10263839Y4834490D01*
X10247612Y4858776D01*
X10236438Y4885751D01*
X10231796Y4909090D01*
X10230740Y4914398D01*
X10230740Y4943602D01*
X10232462Y4952260D01*
X10236438Y4972249D01*
X10247612Y4999224D01*
X10263839Y5023510D01*
X10284490Y5044161D01*
X10308776Y5060388D01*
X10335751Y5071562D01*
X10357237Y5075835D01*
X10364398Y5077260D01*
X10393602Y5077260D01*
X10400763Y5075836D01*
G37*
G36*
X9600763Y5075836D02*
G01*
X9622249Y5071562D01*
X9649224Y5060388D01*
X9673510Y5044161D01*
X9694161Y5023510D01*
X9710388Y4999224D01*
X9721562Y4972249D01*
X9725538Y4952260D01*
X9727260Y4943602D01*
X9727260Y4914398D01*
X9726204Y4909090D01*
X9721562Y4885751D01*
X9710388Y4858776D01*
X9694161Y4834490D01*
X9673510Y4813839D01*
X9649224Y4797612D01*
X9622249Y4786438D01*
X9601816Y4782374D01*
X9593602Y4780740D01*
X9564398Y4780740D01*
X9556184Y4782374D01*
X9535751Y4786438D01*
X9508776Y4797612D01*
X9484490Y4813839D01*
X9463839Y4834490D01*
X9447612Y4858776D01*
X9436438Y4885751D01*
X9431796Y4909090D01*
X9430740Y4914398D01*
X9430740Y4943602D01*
X9432462Y4952260D01*
X9436438Y4972249D01*
X9447612Y4999224D01*
X9463839Y5023510D01*
X9484490Y5044161D01*
X9508776Y5060388D01*
X9535751Y5071562D01*
X9557237Y5075835D01*
X9564398Y5077260D01*
X9593602Y5077260D01*
X9600763Y5075836D01*
G37*
G36*
X9200763Y5075836D02*
G01*
X9222249Y5071562D01*
X9249224Y5060388D01*
X9273510Y5044161D01*
X9294161Y5023510D01*
X9310388Y4999224D01*
X9321562Y4972249D01*
X9325538Y4952260D01*
X9327260Y4943602D01*
X9327260Y4914398D01*
X9326204Y4909090D01*
X9321562Y4885751D01*
X9310388Y4858776D01*
X9294161Y4834490D01*
X9273510Y4813839D01*
X9249224Y4797612D01*
X9222249Y4786438D01*
X9201816Y4782374D01*
X9193602Y4780740D01*
X9164398Y4780740D01*
X9156184Y4782374D01*
X9135751Y4786438D01*
X9108776Y4797612D01*
X9084490Y4813839D01*
X9063839Y4834490D01*
X9047612Y4858776D01*
X9036438Y4885751D01*
X9031796Y4909090D01*
X9030740Y4914398D01*
X9030740Y4943602D01*
X9032462Y4952260D01*
X9036438Y4972249D01*
X9047612Y4999224D01*
X9063839Y5023510D01*
X9084490Y5044161D01*
X9108776Y5060388D01*
X9135751Y5071562D01*
X9157237Y5075835D01*
X9164398Y5077260D01*
X9193602Y5077260D01*
X9200763Y5075836D01*
G37*
G36*
X17498505Y5225160D02*
G01*
X17506062Y5222030D01*
X17535626Y5209785D01*
X17569042Y5187457D01*
X17597457Y5159042D01*
X17619785Y5125626D01*
X17632030Y5096062D01*
X17635160Y5088505D01*
X17643000Y5049092D01*
X17643000Y5008908D01*
X17635160Y4969495D01*
X17635158Y4969491D01*
X17619785Y4932374D01*
X17597457Y4898958D01*
X17569042Y4870543D01*
X17535626Y4848215D01*
X17506062Y4835970D01*
X17498505Y4832840D01*
X17459092Y4825000D01*
X17418908Y4825000D01*
X17379495Y4832840D01*
X17371938Y4835970D01*
X17342374Y4848215D01*
X17308958Y4870543D01*
X17280543Y4898958D01*
X17258215Y4932374D01*
X17242842Y4969491D01*
X17242840Y4969495D01*
X17235000Y5008908D01*
X17235000Y5049092D01*
X17242840Y5088505D01*
X17245970Y5096062D01*
X17258215Y5125626D01*
X17280543Y5159042D01*
X17308958Y5187457D01*
X17342374Y5209785D01*
X17371938Y5222030D01*
X17379495Y5225160D01*
X17418908Y5233000D01*
X17459092Y5233000D01*
X17498505Y5225160D01*
G37*
G36*
X10898262Y5025838D02*
G01*
X10916784Y5020219D01*
X10933854Y5011095D01*
X10948816Y4998816D01*
X10961095Y4983854D01*
X10970219Y4966784D01*
X10975838Y4948262D01*
X10977735Y4929000D01*
X10975838Y4909738D01*
X10970219Y4891216D01*
X10961095Y4874146D01*
X10948816Y4859184D01*
X10933854Y4846905D01*
X10916784Y4837781D01*
X10898262Y4832162D01*
X10883823Y4830740D01*
X10674177Y4830740D01*
X10659738Y4832162D01*
X10641216Y4837781D01*
X10624146Y4846905D01*
X10609184Y4859184D01*
X10596905Y4874146D01*
X10587781Y4891216D01*
X10582162Y4909738D01*
X10580265Y4929000D01*
X10582162Y4948262D01*
X10587781Y4966784D01*
X10596905Y4983854D01*
X10609184Y4998816D01*
X10624146Y5011095D01*
X10641216Y5020219D01*
X10659738Y5025838D01*
X10674177Y5027260D01*
X10883823Y5027260D01*
X10898262Y5025838D01*
G37*
G36*
X8898262Y5025838D02*
G01*
X8916784Y5020219D01*
X8933854Y5011095D01*
X8948816Y4998816D01*
X8961095Y4983854D01*
X8970219Y4966784D01*
X8975838Y4948262D01*
X8977735Y4929000D01*
X8975838Y4909738D01*
X8970219Y4891216D01*
X8961095Y4874146D01*
X8948816Y4859184D01*
X8933854Y4846905D01*
X8916784Y4837781D01*
X8898262Y4832162D01*
X8883823Y4830740D01*
X8674177Y4830740D01*
X8659738Y4832162D01*
X8641216Y4837781D01*
X8624146Y4846905D01*
X8609184Y4859184D01*
X8596905Y4874146D01*
X8587781Y4891216D01*
X8582162Y4909738D01*
X8580265Y4929000D01*
X8582162Y4948262D01*
X8587781Y4966784D01*
X8596905Y4983854D01*
X8609184Y4998816D01*
X8624146Y5011095D01*
X8641216Y5020219D01*
X8659738Y5025838D01*
X8674177Y5027260D01*
X8883823Y5027260D01*
X8898262Y5025838D01*
G37*
G36*
X12078579Y5437123D02*
G01*
X12078581Y5437122D01*
X12078582Y5437122D01*
X12105823Y5425838D01*
X12133587Y5414338D01*
X12183093Y5381259D01*
X12225194Y5339158D01*
X12258273Y5289652D01*
X12281058Y5234644D01*
X12292673Y5176248D01*
X12292673Y5116708D01*
X12281471Y5060386D01*
X12281057Y5058309D01*
X12270618Y5033108D01*
X12258273Y5003304D01*
X12225194Y4953798D01*
X12183093Y4911697D01*
X12133587Y4878618D01*
X12114092Y4870543D01*
X12078582Y4855834D01*
X12078581Y4855834D01*
X12078579Y4855833D01*
X12020183Y4844218D01*
X11960643Y4844218D01*
X11902247Y4855833D01*
X11902245Y4855834D01*
X11902244Y4855834D01*
X11866734Y4870543D01*
X11847239Y4878618D01*
X11797733Y4911697D01*
X11755632Y4953798D01*
X11722553Y5003304D01*
X11710208Y5033108D01*
X11699769Y5058309D01*
X11699356Y5060386D01*
X11688153Y5116708D01*
X11688153Y5176248D01*
X11699768Y5234644D01*
X11722553Y5289652D01*
X11755632Y5339158D01*
X11797733Y5381259D01*
X11847239Y5414338D01*
X11875003Y5425838D01*
X11902244Y5437122D01*
X11902245Y5437122D01*
X11902247Y5437123D01*
X11960643Y5448738D01*
X12020183Y5448738D01*
X12078579Y5437123D01*
G37*
G36*
X3467892Y5234582D02*
G01*
X3467894Y5234581D01*
X3467895Y5234581D01*
X3473735Y5232162D01*
X3497148Y5222464D01*
X3523479Y5204871D01*
X3545871Y5182479D01*
X3563464Y5156148D01*
X3569523Y5141520D01*
X3571677Y5136321D01*
X3575582Y5126892D01*
X3581760Y5095833D01*
X3581760Y5064167D01*
X3576626Y5038355D01*
X3575581Y5033105D01*
X3570243Y5020219D01*
X3563464Y5003852D01*
X3545871Y4977521D01*
X3523479Y4955129D01*
X3497148Y4937536D01*
X3485089Y4932541D01*
X3467895Y4925419D01*
X3467894Y4925419D01*
X3467892Y4925418D01*
X3436833Y4919240D01*
X3405167Y4919240D01*
X3374108Y4925418D01*
X3374106Y4925419D01*
X3374105Y4925419D01*
X3356911Y4932541D01*
X3344852Y4937536D01*
X3318521Y4955129D01*
X3296129Y4977521D01*
X3278536Y5003852D01*
X3271757Y5020219D01*
X3266419Y5033105D01*
X3265375Y5038355D01*
X3260240Y5064167D01*
X3260240Y5095833D01*
X3266418Y5126892D01*
X3270324Y5136321D01*
X3272477Y5141520D01*
X3278536Y5156148D01*
X3296129Y5182479D01*
X3318521Y5204871D01*
X3344852Y5222464D01*
X3368265Y5232162D01*
X3374105Y5234581D01*
X3374106Y5234581D01*
X3374108Y5234582D01*
X3405167Y5240760D01*
X3436833Y5240760D01*
X3467892Y5234582D01*
G37*
G36*
X2967892Y5234582D02*
G01*
X2967894Y5234581D01*
X2967895Y5234581D01*
X2973735Y5232162D01*
X2997148Y5222464D01*
X3023479Y5204871D01*
X3045871Y5182479D01*
X3063464Y5156148D01*
X3069523Y5141520D01*
X3071677Y5136321D01*
X3075582Y5126892D01*
X3081760Y5095833D01*
X3081760Y5064167D01*
X3076626Y5038355D01*
X3075581Y5033105D01*
X3070243Y5020219D01*
X3063464Y5003852D01*
X3045871Y4977521D01*
X3023479Y4955129D01*
X2997148Y4937536D01*
X2985089Y4932541D01*
X2967895Y4925419D01*
X2967894Y4925419D01*
X2967892Y4925418D01*
X2936833Y4919240D01*
X2905167Y4919240D01*
X2874108Y4925418D01*
X2874106Y4925419D01*
X2874105Y4925419D01*
X2856911Y4932541D01*
X2844852Y4937536D01*
X2818521Y4955129D01*
X2796129Y4977521D01*
X2778536Y5003852D01*
X2771757Y5020219D01*
X2766419Y5033105D01*
X2765375Y5038355D01*
X2760240Y5064167D01*
X2760240Y5095833D01*
X2766418Y5126892D01*
X2770324Y5136321D01*
X2772477Y5141520D01*
X2778536Y5156148D01*
X2796129Y5182479D01*
X2818521Y5204871D01*
X2844852Y5222464D01*
X2868265Y5232162D01*
X2874105Y5234581D01*
X2874106Y5234581D01*
X2874108Y5234582D01*
X2905167Y5240760D01*
X2936833Y5240760D01*
X2967892Y5234582D01*
G37*
G36*
X2387166Y5519645D02*
G01*
X2387168Y5519644D01*
X2387169Y5519644D01*
X2414670Y5508252D01*
X2442174Y5496860D01*
X2491680Y5463781D01*
X2533781Y5421680D01*
X2566860Y5372174D01*
X2589645Y5317166D01*
X2601260Y5258770D01*
X2601260Y5199230D01*
X2589645Y5140834D01*
X2566860Y5085826D01*
X2533781Y5036320D01*
X2491680Y4994219D01*
X2442174Y4961140D01*
X2427662Y4955129D01*
X2387169Y4938356D01*
X2387168Y4938356D01*
X2387166Y4938355D01*
X2328770Y4926740D01*
X2269230Y4926740D01*
X2210834Y4938355D01*
X2210832Y4938356D01*
X2210831Y4938356D01*
X2170338Y4955129D01*
X2155826Y4961140D01*
X2106320Y4994219D01*
X2064219Y5036320D01*
X2031140Y5085826D01*
X2008355Y5140834D01*
X1996740Y5199230D01*
X1996740Y5258770D01*
X2008355Y5317166D01*
X2031140Y5372174D01*
X2064219Y5421680D01*
X2106320Y5463781D01*
X2155826Y5496860D01*
X2183330Y5508253D01*
X2210831Y5519644D01*
X2210832Y5519644D01*
X2210834Y5519645D01*
X2269230Y5531260D01*
X2328770Y5531260D01*
X2387166Y5519645D01*
G37*
G36*
X687166Y5619645D02*
G01*
X687168Y5619644D01*
X687169Y5619644D01*
X701183Y5613839D01*
X742174Y5596860D01*
X791680Y5563781D01*
X833781Y5521680D01*
X866860Y5472174D01*
X866861Y5472171D01*
X888381Y5420219D01*
X889645Y5417166D01*
X901260Y5358770D01*
X901260Y5299230D01*
X890853Y5246905D01*
X889644Y5240831D01*
X887055Y5234581D01*
X866860Y5185826D01*
X833781Y5136320D01*
X791680Y5094219D01*
X742174Y5061140D01*
X714670Y5049747D01*
X687169Y5038356D01*
X687168Y5038356D01*
X687166Y5038355D01*
X628770Y5026740D01*
X569230Y5026740D01*
X510834Y5038355D01*
X510832Y5038356D01*
X510831Y5038356D01*
X483330Y5049747D01*
X455826Y5061140D01*
X406320Y5094219D01*
X364219Y5136320D01*
X331140Y5185826D01*
X310945Y5234581D01*
X308356Y5240831D01*
X307148Y5246905D01*
X296740Y5299230D01*
X296740Y5358770D01*
X308355Y5417166D01*
X309620Y5420219D01*
X331139Y5472171D01*
X331140Y5472174D01*
X364219Y5521680D01*
X406320Y5563781D01*
X455826Y5596860D01*
X496817Y5613839D01*
X510831Y5619644D01*
X510832Y5619644D01*
X510834Y5619645D01*
X569230Y5631260D01*
X628770Y5631260D01*
X687166Y5619645D01*
G37*
G36*
X10400763Y5475835D02*
G01*
X10422249Y5471562D01*
X10449224Y5460388D01*
X10473510Y5444161D01*
X10494161Y5423510D01*
X10510388Y5399224D01*
X10521562Y5372249D01*
X10527260Y5343601D01*
X10527260Y5314399D01*
X10521562Y5285751D01*
X10510388Y5258776D01*
X10494161Y5234490D01*
X10473510Y5213839D01*
X10449224Y5197612D01*
X10422249Y5186438D01*
X10402344Y5182479D01*
X10393602Y5180740D01*
X10364398Y5180740D01*
X10355656Y5182479D01*
X10335751Y5186438D01*
X10308776Y5197612D01*
X10284490Y5213839D01*
X10263839Y5234490D01*
X10247612Y5258776D01*
X10236438Y5285751D01*
X10230740Y5314399D01*
X10230740Y5343601D01*
X10236438Y5372249D01*
X10247612Y5399224D01*
X10263839Y5423510D01*
X10284490Y5444161D01*
X10308776Y5460388D01*
X10335751Y5471562D01*
X10357237Y5475835D01*
X10364398Y5477260D01*
X10393602Y5477260D01*
X10400763Y5475835D01*
G37*
G36*
X10000763Y5475835D02*
G01*
X10022249Y5471562D01*
X10049224Y5460388D01*
X10073510Y5444161D01*
X10094161Y5423510D01*
X10110388Y5399224D01*
X10121562Y5372249D01*
X10127260Y5343601D01*
X10127260Y5314399D01*
X10121562Y5285751D01*
X10110388Y5258776D01*
X10094161Y5234490D01*
X10073510Y5213839D01*
X10049224Y5197612D01*
X10022249Y5186438D01*
X10002344Y5182479D01*
X9993602Y5180740D01*
X9964398Y5180740D01*
X9955656Y5182479D01*
X9935751Y5186438D01*
X9908776Y5197612D01*
X9884490Y5213839D01*
X9863839Y5234490D01*
X9847612Y5258776D01*
X9836438Y5285751D01*
X9830740Y5314399D01*
X9830740Y5343601D01*
X9836438Y5372249D01*
X9847612Y5399224D01*
X9863839Y5423510D01*
X9884490Y5444161D01*
X9908776Y5460388D01*
X9935751Y5471562D01*
X9957237Y5475835D01*
X9964398Y5477260D01*
X9993602Y5477260D01*
X10000763Y5475835D01*
G37*
G36*
X9200763Y5475835D02*
G01*
X9222249Y5471562D01*
X9249224Y5460388D01*
X9273510Y5444161D01*
X9294161Y5423510D01*
X9310388Y5399224D01*
X9321562Y5372249D01*
X9327260Y5343601D01*
X9327260Y5314399D01*
X9321562Y5285751D01*
X9310388Y5258776D01*
X9294161Y5234490D01*
X9273510Y5213839D01*
X9249224Y5197612D01*
X9222249Y5186438D01*
X9202344Y5182479D01*
X9193602Y5180740D01*
X9164398Y5180740D01*
X9155656Y5182479D01*
X9135751Y5186438D01*
X9108776Y5197612D01*
X9084490Y5213839D01*
X9063839Y5234490D01*
X9047612Y5258776D01*
X9036438Y5285751D01*
X9030740Y5314399D01*
X9030740Y5343601D01*
X9036438Y5372249D01*
X9047612Y5399224D01*
X9063839Y5423510D01*
X9084490Y5444161D01*
X9108776Y5460388D01*
X9135751Y5471562D01*
X9157237Y5475835D01*
X9164398Y5477260D01*
X9193602Y5477260D01*
X9200763Y5475835D01*
G37*
G36*
X9600763Y5475835D02*
G01*
X9622249Y5471562D01*
X9649224Y5460388D01*
X9673510Y5444161D01*
X9694161Y5423510D01*
X9710388Y5399224D01*
X9721562Y5372249D01*
X9727260Y5343601D01*
X9727260Y5314399D01*
X9721562Y5285751D01*
X9710388Y5258776D01*
X9694161Y5234490D01*
X9673510Y5213839D01*
X9649224Y5197612D01*
X9622249Y5186438D01*
X9602344Y5182479D01*
X9593602Y5180740D01*
X9564398Y5180740D01*
X9555656Y5182479D01*
X9535751Y5186438D01*
X9508776Y5197612D01*
X9484490Y5213839D01*
X9463839Y5234490D01*
X9447612Y5258776D01*
X9436438Y5285751D01*
X9430740Y5314399D01*
X9430740Y5343601D01*
X9436438Y5372249D01*
X9447612Y5399224D01*
X9463839Y5423510D01*
X9484490Y5444161D01*
X9508776Y5460388D01*
X9535751Y5471562D01*
X9557237Y5475835D01*
X9564398Y5477260D01*
X9593602Y5477260D01*
X9600763Y5475835D01*
G37*
G36*
X8898262Y5425838D02*
G01*
X8916784Y5420219D01*
X8933854Y5411095D01*
X8948816Y5398816D01*
X8961095Y5383854D01*
X8970219Y5366784D01*
X8975838Y5348262D01*
X8977735Y5329000D01*
X8975838Y5309738D01*
X8970219Y5291216D01*
X8961095Y5274146D01*
X8948816Y5259184D01*
X8933854Y5246905D01*
X8916784Y5237781D01*
X8898262Y5232162D01*
X8883823Y5230740D01*
X8674177Y5230740D01*
X8659738Y5232162D01*
X8641216Y5237781D01*
X8624146Y5246905D01*
X8609184Y5259184D01*
X8596905Y5274146D01*
X8587781Y5291216D01*
X8582162Y5309738D01*
X8580265Y5329000D01*
X8582162Y5348262D01*
X8587781Y5366784D01*
X8596905Y5383854D01*
X8609184Y5398816D01*
X8624146Y5411095D01*
X8641216Y5420219D01*
X8659738Y5425838D01*
X8674177Y5427260D01*
X8883823Y5427260D01*
X8898262Y5425838D01*
G37*
G36*
X10898262Y5425838D02*
G01*
X10916784Y5420219D01*
X10933854Y5411095D01*
X10948816Y5398816D01*
X10961095Y5383854D01*
X10970219Y5366784D01*
X10975838Y5348262D01*
X10977735Y5329000D01*
X10975838Y5309738D01*
X10970219Y5291216D01*
X10961095Y5274146D01*
X10948816Y5259184D01*
X10933854Y5246905D01*
X10916784Y5237781D01*
X10898262Y5232162D01*
X10883823Y5230740D01*
X10674177Y5230740D01*
X10659738Y5232162D01*
X10641216Y5237781D01*
X10624146Y5246905D01*
X10609184Y5259184D01*
X10596905Y5274146D01*
X10587781Y5291216D01*
X10582162Y5309738D01*
X10580265Y5329000D01*
X10582162Y5348262D01*
X10587781Y5366784D01*
X10596905Y5383854D01*
X10609184Y5398816D01*
X10624146Y5411095D01*
X10641216Y5420219D01*
X10659738Y5425838D01*
X10674177Y5427260D01*
X10883823Y5427260D01*
X10898262Y5425838D01*
G37*
G36*
X9998261Y5925838D02*
G01*
X10016783Y5920219D01*
X10033853Y5911095D01*
X10048816Y5898816D01*
X10061095Y5883854D01*
X10070219Y5866784D01*
X10075838Y5848262D01*
X10077260Y5833823D01*
X10077260Y5624177D01*
X10075838Y5609738D01*
X10070219Y5591216D01*
X10061095Y5574146D01*
X10048816Y5559184D01*
X10033854Y5546905D01*
X10016784Y5537781D01*
X9998262Y5532162D01*
X9979000Y5530265D01*
X9959739Y5532162D01*
X9941217Y5537781D01*
X9924147Y5546905D01*
X9909185Y5559184D01*
X9896906Y5574146D01*
X9887782Y5591216D01*
X9882163Y5609738D01*
X9880741Y5624177D01*
X9880740Y5833822D01*
X9882162Y5848261D01*
X9887781Y5866783D01*
X9896905Y5883853D01*
X9909184Y5898816D01*
X9924146Y5911095D01*
X9941216Y5920219D01*
X9959738Y5925838D01*
X9979000Y5927735D01*
X9998261Y5925838D01*
G37*
G36*
X10398261Y5925838D02*
G01*
X10416783Y5920219D01*
X10433853Y5911095D01*
X10448816Y5898816D01*
X10461095Y5883854D01*
X10470219Y5866784D01*
X10475838Y5848262D01*
X10477260Y5833823D01*
X10477260Y5624177D01*
X10475838Y5609738D01*
X10470219Y5591216D01*
X10461095Y5574146D01*
X10448816Y5559184D01*
X10433854Y5546905D01*
X10416784Y5537781D01*
X10398262Y5532162D01*
X10379000Y5530265D01*
X10359739Y5532162D01*
X10341217Y5537781D01*
X10324147Y5546905D01*
X10309185Y5559184D01*
X10296906Y5574146D01*
X10287782Y5591216D01*
X10282163Y5609738D01*
X10280741Y5624177D01*
X10280740Y5833822D01*
X10282162Y5848261D01*
X10287781Y5866783D01*
X10296905Y5883853D01*
X10309184Y5898816D01*
X10324146Y5911095D01*
X10341216Y5920219D01*
X10359738Y5925838D01*
X10379000Y5927735D01*
X10398261Y5925838D01*
G37*
G36*
X9598261Y5925838D02*
G01*
X9616783Y5920219D01*
X9633853Y5911095D01*
X9648816Y5898816D01*
X9661095Y5883854D01*
X9670219Y5866784D01*
X9675838Y5848262D01*
X9677260Y5833823D01*
X9677260Y5624177D01*
X9675838Y5609738D01*
X9670219Y5591216D01*
X9661095Y5574146D01*
X9648816Y5559184D01*
X9633854Y5546905D01*
X9616784Y5537781D01*
X9598262Y5532162D01*
X9579000Y5530265D01*
X9559739Y5532162D01*
X9541217Y5537781D01*
X9524147Y5546905D01*
X9509185Y5559184D01*
X9496906Y5574146D01*
X9487782Y5591216D01*
X9482163Y5609738D01*
X9480741Y5624177D01*
X9480740Y5833822D01*
X9482162Y5848261D01*
X9487781Y5866783D01*
X9496905Y5883853D01*
X9509184Y5898816D01*
X9524146Y5911095D01*
X9541216Y5920219D01*
X9559738Y5925838D01*
X9579000Y5927735D01*
X9598261Y5925838D01*
G37*
G36*
X9198261Y5925838D02*
G01*
X9216783Y5920219D01*
X9233853Y5911095D01*
X9248816Y5898816D01*
X9261095Y5883854D01*
X9270219Y5866784D01*
X9275838Y5848262D01*
X9277260Y5833823D01*
X9277260Y5624177D01*
X9275838Y5609738D01*
X9270219Y5591216D01*
X9261095Y5574146D01*
X9248816Y5559184D01*
X9233854Y5546905D01*
X9216784Y5537781D01*
X9198262Y5532162D01*
X9179000Y5530265D01*
X9159739Y5532162D01*
X9141217Y5537781D01*
X9124147Y5546905D01*
X9109185Y5559184D01*
X9096906Y5574146D01*
X9087782Y5591216D01*
X9082163Y5609738D01*
X9080741Y5624177D01*
X9080740Y5833822D01*
X9082162Y5848261D01*
X9087781Y5866783D01*
X9096905Y5883853D01*
X9109184Y5898816D01*
X9124146Y5911095D01*
X9141216Y5920219D01*
X9159738Y5925838D01*
X9179000Y5927735D01*
X9198261Y5925838D01*
G37*
G36*
X16167166Y6145902D02*
G01*
X16167168Y6145901D01*
X16167169Y6145901D01*
X16194145Y6134727D01*
X16222174Y6123117D01*
X16271680Y6090038D01*
X16313781Y6047937D01*
X16346860Y5998431D01*
X16355845Y5976740D01*
X16368649Y5945829D01*
X16369645Y5943423D01*
X16381260Y5885027D01*
X16381260Y5825487D01*
X16369897Y5768356D01*
X16369644Y5767088D01*
X16361846Y5748262D01*
X16346860Y5712083D01*
X16313781Y5662577D01*
X16271680Y5620476D01*
X16222174Y5587397D01*
X16195195Y5576222D01*
X16167169Y5564613D01*
X16167168Y5564613D01*
X16167166Y5564612D01*
X16108770Y5552997D01*
X16049230Y5552997D01*
X15990834Y5564612D01*
X15990832Y5564613D01*
X15990831Y5564613D01*
X15962805Y5576222D01*
X15935826Y5587397D01*
X15886320Y5620476D01*
X15844219Y5662577D01*
X15811140Y5712083D01*
X15796154Y5748262D01*
X15788356Y5767088D01*
X15788104Y5768356D01*
X15776740Y5825487D01*
X15776740Y5885027D01*
X15788355Y5943423D01*
X15789352Y5945829D01*
X15802155Y5976740D01*
X15811140Y5998431D01*
X15844219Y6047937D01*
X15886320Y6090038D01*
X15935826Y6123117D01*
X15963855Y6134727D01*
X15990831Y6145901D01*
X15990832Y6145901D01*
X15990834Y6145902D01*
X16049230Y6157517D01*
X16108770Y6157517D01*
X16167166Y6145902D01*
G37*
G36*
X11622239Y6157512D02*
G01*
X11622241Y6157511D01*
X11622242Y6157511D01*
X11637958Y6151001D01*
X11677247Y6134727D01*
X11726753Y6101648D01*
X11768854Y6059547D01*
X11801933Y6010041D01*
X11810961Y5988246D01*
X11824185Y5956321D01*
X11824718Y5955033D01*
X11836333Y5896637D01*
X11836333Y5837097D01*
X11828719Y5798816D01*
X11824717Y5778698D01*
X11813325Y5751197D01*
X11801933Y5723693D01*
X11768854Y5674187D01*
X11726753Y5632086D01*
X11677247Y5599007D01*
X11658438Y5591216D01*
X11622242Y5576223D01*
X11622241Y5576223D01*
X11622239Y5576222D01*
X11563843Y5564607D01*
X11504303Y5564607D01*
X11445907Y5576222D01*
X11445905Y5576223D01*
X11445904Y5576223D01*
X11409708Y5591216D01*
X11390899Y5599007D01*
X11341393Y5632086D01*
X11299292Y5674187D01*
X11266213Y5723693D01*
X11254821Y5751197D01*
X11243429Y5778698D01*
X11239428Y5798816D01*
X11231813Y5837097D01*
X11231813Y5896637D01*
X11243428Y5955033D01*
X11243962Y5956321D01*
X11257185Y5988246D01*
X11266213Y6010041D01*
X11299292Y6059547D01*
X11341393Y6101648D01*
X11390899Y6134727D01*
X11430188Y6151001D01*
X11445904Y6157511D01*
X11445905Y6157511D01*
X11445907Y6157512D01*
X11504303Y6169127D01*
X11563843Y6169127D01*
X11622239Y6157512D01*
G37*
G36*
X17657391Y6170172D02*
G01*
X17657393Y6170171D01*
X17657394Y6170171D01*
X17662780Y6167940D01*
X17712399Y6147387D01*
X17761905Y6114308D01*
X17804006Y6072207D01*
X17837085Y6022701D01*
X17844075Y6005826D01*
X17854301Y5981139D01*
X17859870Y5967693D01*
X17871485Y5909297D01*
X17871485Y5849757D01*
X17861353Y5798816D01*
X17859869Y5791358D01*
X17859778Y5791139D01*
X17837085Y5736353D01*
X17804006Y5686847D01*
X17761905Y5644746D01*
X17712399Y5611667D01*
X17707010Y5609435D01*
X17657394Y5588883D01*
X17657393Y5588883D01*
X17657391Y5588882D01*
X17598995Y5577267D01*
X17539455Y5577267D01*
X17481059Y5588882D01*
X17481057Y5588883D01*
X17481056Y5588883D01*
X17431440Y5609435D01*
X17426051Y5611667D01*
X17376545Y5644746D01*
X17334444Y5686847D01*
X17301365Y5736353D01*
X17278672Y5791139D01*
X17278581Y5791358D01*
X17277098Y5798816D01*
X17266965Y5849757D01*
X17266965Y5909297D01*
X17278580Y5967693D01*
X17284150Y5981139D01*
X17294375Y6005826D01*
X17301365Y6022701D01*
X17334444Y6072207D01*
X17376545Y6114308D01*
X17426051Y6147387D01*
X17475670Y6167940D01*
X17481056Y6170171D01*
X17481057Y6170171D01*
X17481059Y6170172D01*
X17539455Y6181787D01*
X17598995Y6181787D01*
X17657391Y6170172D01*
G37*
G36*
X8800763Y5875835D02*
G01*
X8822249Y5871562D01*
X8849224Y5860388D01*
X8873510Y5844161D01*
X8894161Y5823510D01*
X8910388Y5799224D01*
X8921562Y5772249D01*
X8927260Y5743601D01*
X8927260Y5714399D01*
X8921562Y5685751D01*
X8910388Y5658776D01*
X8894161Y5634490D01*
X8873510Y5613839D01*
X8849224Y5597612D01*
X8822249Y5586438D01*
X8800763Y5582164D01*
X8793602Y5580740D01*
X8764398Y5580740D01*
X8757237Y5582164D01*
X8735751Y5586438D01*
X8708776Y5597612D01*
X8684490Y5613839D01*
X8663839Y5634490D01*
X8647612Y5658776D01*
X8636438Y5685751D01*
X8630740Y5714399D01*
X8630740Y5743601D01*
X8636438Y5772249D01*
X8647612Y5799224D01*
X8663839Y5823510D01*
X8684490Y5844161D01*
X8708776Y5860388D01*
X8735751Y5871562D01*
X8757237Y5875835D01*
X8764398Y5877260D01*
X8793602Y5877260D01*
X8800763Y5875835D01*
G37*
G36*
X19232655Y6190725D02*
G01*
X19232657Y6190724D01*
X19232658Y6190724D01*
X19254233Y6181787D01*
X19287663Y6167940D01*
X19337169Y6134861D01*
X19379270Y6092760D01*
X19412349Y6043254D01*
X19421509Y6021140D01*
X19435089Y5988356D01*
X19435134Y5988246D01*
X19446749Y5929850D01*
X19446749Y5870310D01*
X19436786Y5820219D01*
X19435133Y5811911D01*
X19426529Y5791140D01*
X19412349Y5756906D01*
X19379270Y5707400D01*
X19337169Y5665299D01*
X19287663Y5632220D01*
X19268245Y5624177D01*
X19232658Y5609436D01*
X19232657Y5609436D01*
X19232655Y5609435D01*
X19174259Y5597820D01*
X19114719Y5597820D01*
X19056323Y5609435D01*
X19056321Y5609436D01*
X19056320Y5609436D01*
X19020733Y5624177D01*
X19001315Y5632220D01*
X18951809Y5665299D01*
X18909708Y5707400D01*
X18876629Y5756906D01*
X18862449Y5791140D01*
X18853845Y5811911D01*
X18852193Y5820219D01*
X18842229Y5870310D01*
X18842229Y5929850D01*
X18853844Y5988246D01*
X18853890Y5988356D01*
X18867469Y6021140D01*
X18876629Y6043254D01*
X18909708Y6092760D01*
X18951809Y6134861D01*
X19001315Y6167940D01*
X19034745Y6181787D01*
X19056320Y6190724D01*
X19056321Y6190724D01*
X19056323Y6190725D01*
X19114719Y6202340D01*
X19174259Y6202340D01*
X19232655Y6190725D01*
G37*
G36*
X10898262Y5825838D02*
G01*
X10916784Y5820219D01*
X10933854Y5811095D01*
X10948816Y5798816D01*
X10961095Y5783854D01*
X10970219Y5766784D01*
X10975838Y5748262D01*
X10977735Y5729000D01*
X10975838Y5709738D01*
X10970219Y5691216D01*
X10961095Y5674146D01*
X10948816Y5659184D01*
X10933854Y5646905D01*
X10916784Y5637781D01*
X10898262Y5632162D01*
X10883823Y5630740D01*
X10674177Y5630740D01*
X10659738Y5632162D01*
X10641216Y5637781D01*
X10624146Y5646905D01*
X10609184Y5659184D01*
X10596905Y5674146D01*
X10587781Y5691216D01*
X10582162Y5709738D01*
X10580265Y5729000D01*
X10582162Y5748262D01*
X10587781Y5766784D01*
X10596905Y5783854D01*
X10609184Y5798816D01*
X10624146Y5811095D01*
X10641216Y5820219D01*
X10659738Y5825838D01*
X10674177Y5827260D01*
X10883823Y5827260D01*
X10898262Y5825838D01*
G37*
G36*
X16967166Y6349645D02*
G01*
X16967168Y6349644D01*
X16967169Y6349644D01*
X16986395Y6341680D01*
X17022174Y6326860D01*
X17071680Y6293781D01*
X17113781Y6251680D01*
X17146860Y6202174D01*
X17156554Y6178770D01*
X17169554Y6147387D01*
X17169645Y6147166D01*
X17181260Y6088770D01*
X17181260Y6029230D01*
X17170407Y5974663D01*
X17169644Y5970831D01*
X17164476Y5958355D01*
X17146860Y5915826D01*
X17113781Y5866320D01*
X17071680Y5824219D01*
X17022174Y5791140D01*
X17011551Y5786740D01*
X16967169Y5768356D01*
X16967168Y5768356D01*
X16967166Y5768355D01*
X16908770Y5756740D01*
X16849230Y5756740D01*
X16790834Y5768355D01*
X16790832Y5768356D01*
X16790831Y5768356D01*
X16746449Y5786740D01*
X16735826Y5791140D01*
X16686320Y5824219D01*
X16644219Y5866320D01*
X16611140Y5915826D01*
X16593524Y5958355D01*
X16588356Y5970831D01*
X16587594Y5974663D01*
X16576740Y6029230D01*
X16576740Y6088770D01*
X16588355Y6147166D01*
X16588447Y6147387D01*
X16601446Y6178770D01*
X16611140Y6202174D01*
X16644219Y6251680D01*
X16686320Y6293781D01*
X16735826Y6326860D01*
X16771605Y6341680D01*
X16790831Y6349644D01*
X16790832Y6349644D01*
X16790834Y6349645D01*
X16849230Y6361260D01*
X16908770Y6361260D01*
X16967166Y6349645D01*
G37*
G36*
X5977166Y6353477D02*
G01*
X5977168Y6353476D01*
X5977169Y6353476D01*
X5986420Y6349644D01*
X6032174Y6330692D01*
X6081680Y6297613D01*
X6123781Y6255512D01*
X6156860Y6206006D01*
X6163190Y6190724D01*
X6172628Y6167940D01*
X6179645Y6150998D01*
X6191260Y6092602D01*
X6191260Y6033062D01*
X6180058Y5976740D01*
X6179644Y5974663D01*
X6177814Y5970245D01*
X6156860Y5919658D01*
X6123781Y5870152D01*
X6081680Y5828051D01*
X6032174Y5794972D01*
X6022920Y5791139D01*
X5977169Y5772188D01*
X5977168Y5772188D01*
X5977166Y5772187D01*
X5918770Y5760572D01*
X5859230Y5760572D01*
X5800834Y5772187D01*
X5800832Y5772188D01*
X5800831Y5772188D01*
X5755080Y5791139D01*
X5745826Y5794972D01*
X5696320Y5828051D01*
X5654219Y5870152D01*
X5621140Y5919658D01*
X5600186Y5970245D01*
X5598356Y5974663D01*
X5597943Y5976740D01*
X5586740Y6033062D01*
X5586740Y6092602D01*
X5598355Y6150998D01*
X5605373Y6167940D01*
X5614810Y6190724D01*
X5621140Y6206006D01*
X5654219Y6255512D01*
X5696320Y6297613D01*
X5745826Y6330692D01*
X5791580Y6349644D01*
X5800831Y6353476D01*
X5800832Y6353476D01*
X5800834Y6353477D01*
X5859230Y6365092D01*
X5918770Y6365092D01*
X5977166Y6353477D01*
G37*
G36*
X4217166Y6379645D02*
G01*
X4217168Y6379644D01*
X4217169Y6379644D01*
X4223144Y6377169D01*
X4272174Y6356860D01*
X4321680Y6323781D01*
X4363781Y6281680D01*
X4396860Y6232174D01*
X4407699Y6206006D01*
X4418982Y6178768D01*
X4419645Y6177166D01*
X4431260Y6118770D01*
X4431260Y6059230D01*
X4420403Y6004644D01*
X4419644Y6000831D01*
X4411487Y5981139D01*
X4396860Y5945826D01*
X4363781Y5896320D01*
X4321680Y5854219D01*
X4272174Y5821140D01*
X4249900Y5811914D01*
X4217169Y5798356D01*
X4217168Y5798356D01*
X4217166Y5798355D01*
X4158770Y5786740D01*
X4099230Y5786740D01*
X4040834Y5798355D01*
X4040832Y5798356D01*
X4040831Y5798356D01*
X4008100Y5811914D01*
X3985826Y5821140D01*
X3936320Y5854219D01*
X3894219Y5896320D01*
X3861140Y5945826D01*
X3846513Y5981139D01*
X3838356Y6000831D01*
X3837598Y6004644D01*
X3826740Y6059230D01*
X3826740Y6118770D01*
X3838355Y6177166D01*
X3839019Y6178768D01*
X3850301Y6206006D01*
X3861140Y6232174D01*
X3894219Y6281680D01*
X3936320Y6323781D01*
X3985826Y6356860D01*
X4034856Y6377169D01*
X4040831Y6379644D01*
X4040832Y6379644D01*
X4040834Y6379645D01*
X4099230Y6391260D01*
X4158770Y6391260D01*
X4217166Y6379645D01*
G37*
G36*
X18307164Y6439645D02*
G01*
X18307166Y6439644D01*
X18307167Y6439644D01*
X18325201Y6432174D01*
X18362172Y6416860D01*
X18411678Y6383781D01*
X18453779Y6341680D01*
X18486858Y6292174D01*
X18486859Y6292171D01*
X18507336Y6242737D01*
X18509643Y6237166D01*
X18521258Y6178770D01*
X18521258Y6119230D01*
X18511905Y6072206D01*
X18509642Y6060831D01*
X18502761Y6044219D01*
X18486858Y6005826D01*
X18453779Y5956320D01*
X18411678Y5914219D01*
X18362172Y5881140D01*
X18339049Y5871562D01*
X18307167Y5858356D01*
X18307166Y5858356D01*
X18307164Y5858355D01*
X18248768Y5846740D01*
X18189228Y5846740D01*
X18130832Y5858355D01*
X18130830Y5858356D01*
X18130829Y5858356D01*
X18098947Y5871562D01*
X18075824Y5881140D01*
X18026318Y5914219D01*
X17984217Y5956320D01*
X17951138Y6005826D01*
X17935235Y6044219D01*
X17928354Y6060831D01*
X17926092Y6072206D01*
X17916738Y6119230D01*
X17916738Y6178770D01*
X17928353Y6237166D01*
X17930661Y6242737D01*
X17951137Y6292171D01*
X17951138Y6292174D01*
X17984217Y6341680D01*
X18026318Y6383781D01*
X18075824Y6416860D01*
X18112795Y6432174D01*
X18130829Y6439644D01*
X18130830Y6439644D01*
X18130832Y6439645D01*
X18189228Y6451260D01*
X18248768Y6451260D01*
X18307164Y6439645D01*
G37*
G36*
X12612621Y6891986D02*
G01*
X12612623Y6891985D01*
X12612624Y6891985D01*
X12623598Y6887439D01*
X12642333Y6879679D01*
X12669072Y6861812D01*
X12691812Y6839072D01*
X12709679Y6812333D01*
X12709679Y6812332D01*
X12720652Y6785843D01*
X12721986Y6782621D01*
X12728260Y6751080D01*
X12728260Y6718920D01*
X12722927Y6692108D01*
X12721985Y6687376D01*
X12719480Y6681329D01*
X12709679Y6657667D01*
X12702097Y6646320D01*
X12691813Y6630929D01*
X12669071Y6608187D01*
X12660199Y6602259D01*
X12642333Y6590321D01*
X12625537Y6583364D01*
X12612624Y6578015D01*
X12612623Y6578015D01*
X12612621Y6578014D01*
X12581080Y6571740D01*
X12551832Y6571740D01*
X12547868Y6571350D01*
X12544056Y6570193D01*
X12540543Y6568316D01*
X12537464Y6565789D01*
X12534937Y6562710D01*
X12533060Y6559197D01*
X12531903Y6555385D01*
X12531513Y6551421D01*
X12531903Y6547457D01*
X12533060Y6543645D01*
X12534937Y6540132D01*
X12537464Y6537053D01*
X12540543Y6534526D01*
X12544056Y6532649D01*
X12582174Y6516860D01*
X12631680Y6483781D01*
X12673781Y6441680D01*
X12706860Y6392174D01*
X12717217Y6367169D01*
X12724477Y6349644D01*
X12729645Y6337166D01*
X12738595Y6292171D01*
X12741003Y6280060D01*
X12742160Y6276248D01*
X12744037Y6272736D01*
X12746564Y6269656D01*
X12749643Y6267129D01*
X12753156Y6265252D01*
X12756968Y6264095D01*
X12760932Y6263705D01*
X12764896Y6264095D01*
X12768708Y6265252D01*
X12772220Y6267129D01*
X12775300Y6269656D01*
X12777827Y6272735D01*
X12779704Y6276248D01*
X12780861Y6280060D01*
X12781251Y6284024D01*
X12781251Y6302275D01*
X12792866Y6360671D01*
X12795558Y6367169D01*
X12815650Y6415676D01*
X12815651Y6415679D01*
X12848730Y6465185D01*
X12890831Y6507286D01*
X12940337Y6540365D01*
X12972651Y6553750D01*
X12980589Y6557038D01*
X12984102Y6558915D01*
X12987181Y6561442D01*
X12989708Y6564521D01*
X12991585Y6568034D01*
X12992742Y6571846D01*
X12993132Y6575810D01*
X12992742Y6579774D01*
X12991585Y6583586D01*
X12989708Y6587099D01*
X12987181Y6590178D01*
X12984109Y6592699D01*
X12960928Y6608188D01*
X12938188Y6630928D01*
X12920321Y6657667D01*
X12910520Y6681329D01*
X12908015Y6687376D01*
X12907074Y6692108D01*
X12901740Y6718920D01*
X12901740Y6751080D01*
X12908014Y6782621D01*
X12909349Y6785843D01*
X12920321Y6812332D01*
X12920321Y6812333D01*
X12938188Y6839072D01*
X12960928Y6861812D01*
X12987667Y6879679D01*
X13006402Y6887439D01*
X13017376Y6891985D01*
X13017377Y6891985D01*
X13017379Y6891986D01*
X13048920Y6898260D01*
X13081080Y6898260D01*
X13112621Y6891986D01*
X13112623Y6891985D01*
X13112624Y6891985D01*
X13123598Y6887439D01*
X13142333Y6879679D01*
X13169072Y6861812D01*
X13191812Y6839072D01*
X13209679Y6812333D01*
X13209679Y6812332D01*
X13220652Y6785843D01*
X13221986Y6782621D01*
X13228260Y6751080D01*
X13228260Y6718920D01*
X13222927Y6692108D01*
X13221985Y6687376D01*
X13219480Y6681329D01*
X13209679Y6657667D01*
X13191812Y6630928D01*
X13169072Y6608188D01*
X13166021Y6606149D01*
X13158515Y6601134D01*
X13155436Y6598607D01*
X13152909Y6595527D01*
X13151032Y6592015D01*
X13149875Y6588203D01*
X13149485Y6584239D01*
X13149875Y6580275D01*
X13151032Y6576463D01*
X13152909Y6572950D01*
X13155436Y6569871D01*
X13158516Y6567344D01*
X13162028Y6565467D01*
X13165834Y6564312D01*
X13171677Y6563150D01*
X13171679Y6563149D01*
X13171680Y6563149D01*
X13194371Y6553750D01*
X13226685Y6540365D01*
X13276191Y6507286D01*
X13318292Y6465185D01*
X13351371Y6415679D01*
X13351372Y6415676D01*
X13371465Y6367169D01*
X13374156Y6360671D01*
X13385771Y6302275D01*
X13385771Y6242735D01*
X13375448Y6190834D01*
X13374155Y6184336D01*
X13367855Y6169127D01*
X13351371Y6129331D01*
X13318292Y6079825D01*
X13276191Y6037724D01*
X13226685Y6004645D01*
X13199181Y5993253D01*
X13171680Y5981861D01*
X13171679Y5981861D01*
X13171677Y5981860D01*
X13113281Y5970245D01*
X13053741Y5970245D01*
X12995345Y5981860D01*
X12995343Y5981861D01*
X12995342Y5981861D01*
X12967841Y5993253D01*
X12940337Y6004645D01*
X12890831Y6037724D01*
X12848730Y6079825D01*
X12815651Y6129331D01*
X12799167Y6169127D01*
X12792867Y6184336D01*
X12791575Y6190831D01*
X12781507Y6241449D01*
X12780351Y6245257D01*
X12778474Y6248769D01*
X12775947Y6251849D01*
X12772868Y6254376D01*
X12769355Y6256253D01*
X12765543Y6257410D01*
X12761579Y6257800D01*
X12757615Y6257410D01*
X12753803Y6256253D01*
X12750291Y6254376D01*
X12747211Y6251849D01*
X12744684Y6248770D01*
X12742807Y6245257D01*
X12741650Y6241445D01*
X12741260Y6237481D01*
X12741260Y6219230D01*
X12731059Y6167941D01*
X12729644Y6160831D01*
X12719288Y6135829D01*
X12706860Y6105826D01*
X12673781Y6056320D01*
X12631680Y6014219D01*
X12582174Y5981140D01*
X12571551Y5976740D01*
X12527169Y5958356D01*
X12527168Y5958356D01*
X12527166Y5958355D01*
X12468770Y5946740D01*
X12409230Y5946740D01*
X12350834Y5958355D01*
X12350832Y5958356D01*
X12350831Y5958356D01*
X12306449Y5976740D01*
X12295826Y5981140D01*
X12246320Y6014219D01*
X12204219Y6056320D01*
X12171140Y6105826D01*
X12158712Y6135829D01*
X12148356Y6160831D01*
X12146942Y6167941D01*
X12136740Y6219230D01*
X12136740Y6278770D01*
X12148355Y6337166D01*
X12153524Y6349644D01*
X12160783Y6367169D01*
X12171140Y6392174D01*
X12204219Y6441680D01*
X12246320Y6483781D01*
X12295826Y6516860D01*
X12336677Y6533781D01*
X12350831Y6539644D01*
X12350832Y6539644D01*
X12350834Y6539645D01*
X12409230Y6551260D01*
X12468770Y6551260D01*
X12484216Y6548188D01*
X12488179Y6547798D01*
X12492143Y6548189D01*
X12495954Y6549345D01*
X12499467Y6551223D01*
X12502546Y6553750D01*
X12505073Y6556829D01*
X12506951Y6560342D01*
X12508107Y6564153D01*
X12508497Y6568118D01*
X12508106Y6572082D01*
X12506950Y6575893D01*
X12505072Y6579406D01*
X12502545Y6582485D01*
X12499466Y6585012D01*
X12495959Y6586887D01*
X12487667Y6590321D01*
X12469801Y6602259D01*
X12460929Y6608187D01*
X12438187Y6630929D01*
X12427903Y6646320D01*
X12420321Y6657667D01*
X12410520Y6681329D01*
X12408015Y6687376D01*
X12407074Y6692108D01*
X12401740Y6718920D01*
X12401740Y6751080D01*
X12408014Y6782621D01*
X12409349Y6785843D01*
X12420321Y6812332D01*
X12420321Y6812333D01*
X12438188Y6839072D01*
X12460928Y6861812D01*
X12487667Y6879679D01*
X12506402Y6887439D01*
X12517376Y6891985D01*
X12517377Y6891985D01*
X12517379Y6891986D01*
X12548920Y6898260D01*
X12581080Y6898260D01*
X12612621Y6891986D01*
G37*
G36*
X14185166Y6569645D02*
G01*
X14185168Y6569644D01*
X14185169Y6569644D01*
X14210390Y6559197D01*
X14240174Y6546860D01*
X14289680Y6513781D01*
X14331781Y6471680D01*
X14364860Y6422174D01*
X14376253Y6394670D01*
X14382477Y6379644D01*
X14387645Y6367166D01*
X14399260Y6308770D01*
X14399260Y6249230D01*
X14389901Y6202174D01*
X14387644Y6190831D01*
X14383898Y6181787D01*
X14364860Y6135826D01*
X14331781Y6086320D01*
X14289680Y6044219D01*
X14240174Y6011140D01*
X14224491Y6004644D01*
X14185169Y5988356D01*
X14185168Y5988356D01*
X14185166Y5988355D01*
X14126770Y5976740D01*
X14067230Y5976740D01*
X14008834Y5988355D01*
X14008832Y5988356D01*
X14008831Y5988356D01*
X13969509Y6004644D01*
X13953826Y6011140D01*
X13904320Y6044219D01*
X13862219Y6086320D01*
X13829140Y6135826D01*
X13810102Y6181787D01*
X13806356Y6190831D01*
X13804100Y6202174D01*
X13794740Y6249230D01*
X13794740Y6308770D01*
X13806355Y6367166D01*
X13811524Y6379644D01*
X13817747Y6394670D01*
X13829140Y6422174D01*
X13862219Y6471680D01*
X13904320Y6513781D01*
X13953826Y6546860D01*
X13983610Y6559197D01*
X14008831Y6569644D01*
X14008832Y6569644D01*
X14008834Y6569645D01*
X14067230Y6581260D01*
X14126770Y6581260D01*
X14185166Y6569645D01*
G37*
G36*
X7293892Y6893582D02*
G01*
X7293894Y6893581D01*
X7293895Y6893581D01*
X7297748Y6891985D01*
X7323148Y6881464D01*
X7349479Y6863871D01*
X7371871Y6841479D01*
X7389464Y6815148D01*
X7401582Y6785892D01*
X7407760Y6754833D01*
X7407760Y6723167D01*
X7401582Y6692108D01*
X7389464Y6662852D01*
X7371871Y6636521D01*
X7353838Y6618488D01*
X7351320Y6615420D01*
X7349443Y6611907D01*
X7348286Y6608095D01*
X7347896Y6604131D01*
X7348286Y6600167D01*
X7349443Y6596355D01*
X7351320Y6592842D01*
X7353847Y6589763D01*
X7356926Y6587236D01*
X7360439Y6585359D01*
X7364245Y6584204D01*
X7387165Y6579645D01*
X7387167Y6579644D01*
X7387168Y6579644D01*
X7409984Y6570193D01*
X7442173Y6556860D01*
X7491679Y6523781D01*
X7533780Y6481680D01*
X7566859Y6432174D01*
X7566860Y6432171D01*
X7583428Y6392174D01*
X7589644Y6377166D01*
X7601259Y6318770D01*
X7601259Y6259230D01*
X7589911Y6202174D01*
X7589643Y6200831D01*
X7580505Y6178770D01*
X7566859Y6145826D01*
X7533780Y6096320D01*
X7491679Y6054219D01*
X7442173Y6021140D01*
X7425464Y6014219D01*
X7387168Y5998356D01*
X7387167Y5998356D01*
X7387165Y5998355D01*
X7328769Y5986740D01*
X7269229Y5986740D01*
X7210833Y5998355D01*
X7210831Y5998356D01*
X7210830Y5998356D01*
X7172534Y6014219D01*
X7155825Y6021140D01*
X7106319Y6054219D01*
X7064218Y6096320D01*
X7031139Y6145826D01*
X7017493Y6178770D01*
X7008355Y6200831D01*
X7008088Y6202174D01*
X6996739Y6259230D01*
X6996739Y6318770D01*
X7008354Y6377166D01*
X7014571Y6392174D01*
X7031138Y6432171D01*
X7031139Y6432174D01*
X7064218Y6481680D01*
X7106319Y6523781D01*
X7155825Y6556860D01*
X7166638Y6561339D01*
X7170150Y6563217D01*
X7173229Y6565744D01*
X7175756Y6568823D01*
X7177634Y6572336D01*
X7178790Y6576148D01*
X7179180Y6580112D01*
X7178789Y6584076D01*
X7177633Y6587888D01*
X7175755Y6591400D01*
X7173228Y6594479D01*
X7170156Y6597001D01*
X7144521Y6614129D01*
X7122129Y6636521D01*
X7104536Y6662852D01*
X7092418Y6692108D01*
X7086240Y6723167D01*
X7086240Y6754833D01*
X7092418Y6785892D01*
X7104536Y6815148D01*
X7122129Y6841479D01*
X7144521Y6863871D01*
X7170852Y6881464D01*
X7196252Y6891985D01*
X7200105Y6893581D01*
X7200106Y6893581D01*
X7200108Y6893582D01*
X7231167Y6899760D01*
X7262833Y6899760D01*
X7293892Y6893582D01*
G37*
G36*
X15007166Y6589645D02*
G01*
X15007168Y6589644D01*
X15007169Y6589644D01*
X15029787Y6580275D01*
X15062174Y6566860D01*
X15111680Y6533781D01*
X15153781Y6491680D01*
X15186860Y6442174D01*
X15209645Y6387166D01*
X15221260Y6328770D01*
X15221260Y6269230D01*
X15209645Y6210834D01*
X15186860Y6155826D01*
X15153781Y6106320D01*
X15111680Y6064219D01*
X15062174Y6031140D01*
X15041800Y6022701D01*
X15007169Y6008356D01*
X15007168Y6008356D01*
X15007166Y6008355D01*
X14948770Y5996740D01*
X14889230Y5996740D01*
X14830834Y6008355D01*
X14830832Y6008356D01*
X14830831Y6008356D01*
X14796200Y6022701D01*
X14775826Y6031140D01*
X14726320Y6064219D01*
X14684219Y6106320D01*
X14651140Y6155826D01*
X14628355Y6210834D01*
X14616740Y6269230D01*
X14616740Y6328770D01*
X14628355Y6387166D01*
X14651140Y6442174D01*
X14684219Y6491680D01*
X14726320Y6533781D01*
X14775826Y6566860D01*
X14808213Y6580275D01*
X14830831Y6589644D01*
X14830832Y6589644D01*
X14830834Y6589645D01*
X14889230Y6601260D01*
X14948770Y6601260D01*
X15007166Y6589645D01*
G37*
G36*
X10037166Y6819645D02*
G01*
X10037168Y6819644D01*
X10037169Y6819644D01*
X10038168Y6819230D01*
X10092174Y6796860D01*
X10141680Y6763781D01*
X10183781Y6721680D01*
X10216860Y6672174D01*
X10239645Y6617166D01*
X10251260Y6558770D01*
X10251260Y6499230D01*
X10239912Y6442174D01*
X10239644Y6440831D01*
X10229224Y6415676D01*
X10216860Y6385826D01*
X10183781Y6336320D01*
X10141680Y6294219D01*
X10092174Y6261140D01*
X10078584Y6255511D01*
X10037169Y6238356D01*
X10037168Y6238356D01*
X10037166Y6238355D01*
X9978770Y6226740D01*
X9919230Y6226740D01*
X9860834Y6238355D01*
X9860832Y6238356D01*
X9860831Y6238356D01*
X9819416Y6255511D01*
X9805826Y6261140D01*
X9756320Y6294219D01*
X9714219Y6336320D01*
X9681140Y6385826D01*
X9668776Y6415676D01*
X9658356Y6440831D01*
X9658089Y6442174D01*
X9646740Y6499230D01*
X9646740Y6558770D01*
X9658355Y6617166D01*
X9681140Y6672174D01*
X9714219Y6721680D01*
X9756320Y6763781D01*
X9805826Y6796860D01*
X9859832Y6819230D01*
X9860831Y6819644D01*
X9860832Y6819644D01*
X9860834Y6819645D01*
X9919230Y6831260D01*
X9978770Y6831260D01*
X10037166Y6819645D01*
G37*
G36*
X5537166Y7129645D02*
G01*
X5537168Y7129644D01*
X5537169Y7129644D01*
X5564670Y7118253D01*
X5592174Y7106860D01*
X5641680Y7073781D01*
X5683781Y7031680D01*
X5716860Y6982174D01*
X5739645Y6927166D01*
X5751260Y6868770D01*
X5751260Y6809230D01*
X5739645Y6750834D01*
X5716860Y6695826D01*
X5683781Y6646320D01*
X5641680Y6604219D01*
X5592174Y6571140D01*
X5579147Y6565744D01*
X5537169Y6548356D01*
X5537168Y6548356D01*
X5537166Y6548355D01*
X5478770Y6536740D01*
X5419230Y6536740D01*
X5360834Y6548355D01*
X5360832Y6548356D01*
X5360831Y6548356D01*
X5318853Y6565744D01*
X5305826Y6571140D01*
X5256320Y6604219D01*
X5214219Y6646320D01*
X5181140Y6695826D01*
X5158355Y6750834D01*
X5146740Y6809230D01*
X5146740Y6868770D01*
X5158355Y6927166D01*
X5181140Y6982174D01*
X5214219Y7031680D01*
X5256320Y7073781D01*
X5305826Y7106860D01*
X5333330Y7118253D01*
X5360831Y7129644D01*
X5360832Y7129644D01*
X5360834Y7129645D01*
X5419230Y7141260D01*
X5478770Y7141260D01*
X5537166Y7129645D01*
G37*
G36*
X4677166Y7139645D02*
G01*
X4677168Y7139644D01*
X4677169Y7139644D01*
X4684706Y7136522D01*
X4732174Y7116860D01*
X4781680Y7083781D01*
X4823781Y7041680D01*
X4856860Y6992174D01*
X4879645Y6937166D01*
X4891260Y6878770D01*
X4891260Y6819230D01*
X4884619Y6785840D01*
X4879644Y6760831D01*
X4877159Y6754832D01*
X4856860Y6705826D01*
X4823781Y6656320D01*
X4781680Y6614219D01*
X4732174Y6581140D01*
X4710919Y6572336D01*
X4677169Y6558356D01*
X4677168Y6558356D01*
X4677166Y6558355D01*
X4618770Y6546740D01*
X4559230Y6546740D01*
X4500834Y6558355D01*
X4500832Y6558356D01*
X4500831Y6558356D01*
X4467081Y6572336D01*
X4445826Y6581140D01*
X4396320Y6614219D01*
X4354219Y6656320D01*
X4321140Y6705826D01*
X4300841Y6754832D01*
X4298356Y6760831D01*
X4293382Y6785840D01*
X4286740Y6819230D01*
X4286740Y6878770D01*
X4298355Y6937166D01*
X4321140Y6992174D01*
X4354219Y7041680D01*
X4396320Y7083781D01*
X4445826Y7116860D01*
X4493294Y7136522D01*
X4500831Y7139644D01*
X4500832Y7139644D01*
X4500834Y7139645D01*
X4559230Y7151260D01*
X4618770Y7151260D01*
X4677166Y7139645D01*
G37*
G36*
X17696621Y6891986D02*
G01*
X17696623Y6891985D01*
X17696624Y6891985D01*
X17707598Y6887439D01*
X17726333Y6879679D01*
X17753072Y6861812D01*
X17775812Y6839072D01*
X17793679Y6812333D01*
X17793679Y6812332D01*
X17804652Y6785843D01*
X17805986Y6782621D01*
X17812260Y6751080D01*
X17812260Y6718920D01*
X17806927Y6692108D01*
X17805985Y6687376D01*
X17803480Y6681329D01*
X17793679Y6657667D01*
X17786097Y6646320D01*
X17775813Y6630929D01*
X17753071Y6608187D01*
X17744199Y6602259D01*
X17726333Y6590321D01*
X17709537Y6583364D01*
X17696624Y6578015D01*
X17696623Y6578015D01*
X17696621Y6578014D01*
X17665080Y6571740D01*
X17632920Y6571740D01*
X17601379Y6578014D01*
X17601377Y6578015D01*
X17601376Y6578015D01*
X17588463Y6583364D01*
X17571667Y6590321D01*
X17553801Y6602259D01*
X17544929Y6608187D01*
X17522187Y6630929D01*
X17511903Y6646320D01*
X17504321Y6657667D01*
X17494520Y6681329D01*
X17492015Y6687376D01*
X17491074Y6692108D01*
X17485740Y6718920D01*
X17485740Y6751080D01*
X17492014Y6782621D01*
X17493349Y6785843D01*
X17504321Y6812332D01*
X17504321Y6812333D01*
X17522188Y6839072D01*
X17544928Y6861812D01*
X17571667Y6879679D01*
X17590402Y6887439D01*
X17601376Y6891985D01*
X17601377Y6891985D01*
X17601379Y6891986D01*
X17632920Y6898260D01*
X17665080Y6898260D01*
X17696621Y6891986D01*
G37*
G36*
X11612621Y6891986D02*
G01*
X11612623Y6891985D01*
X11612624Y6891985D01*
X11623598Y6887439D01*
X11642333Y6879679D01*
X11669072Y6861812D01*
X11691812Y6839072D01*
X11709679Y6812333D01*
X11709679Y6812332D01*
X11720652Y6785843D01*
X11721986Y6782621D01*
X11728260Y6751080D01*
X11728260Y6718920D01*
X11722927Y6692108D01*
X11721985Y6687376D01*
X11719480Y6681329D01*
X11709679Y6657667D01*
X11702097Y6646320D01*
X11691813Y6630929D01*
X11669071Y6608187D01*
X11660199Y6602259D01*
X11642333Y6590321D01*
X11625537Y6583364D01*
X11612624Y6578015D01*
X11612623Y6578015D01*
X11612621Y6578014D01*
X11581080Y6571740D01*
X11548920Y6571740D01*
X11517379Y6578014D01*
X11517377Y6578015D01*
X11517376Y6578015D01*
X11504463Y6583364D01*
X11487667Y6590321D01*
X11469801Y6602259D01*
X11460929Y6608187D01*
X11438187Y6630929D01*
X11427903Y6646320D01*
X11420321Y6657667D01*
X11410520Y6681329D01*
X11408015Y6687376D01*
X11407074Y6692108D01*
X11401740Y6718920D01*
X11401740Y6751080D01*
X11408014Y6782621D01*
X11409349Y6785843D01*
X11420321Y6812332D01*
X11420321Y6812333D01*
X11438188Y6839072D01*
X11460928Y6861812D01*
X11487667Y6879679D01*
X11506402Y6887439D01*
X11517376Y6891985D01*
X11517377Y6891985D01*
X11517379Y6891986D01*
X11548920Y6898260D01*
X11581080Y6898260D01*
X11612621Y6891986D01*
G37*
G36*
X12112621Y6891986D02*
G01*
X12112623Y6891985D01*
X12112624Y6891985D01*
X12123598Y6887439D01*
X12142333Y6879679D01*
X12169072Y6861812D01*
X12191812Y6839072D01*
X12209679Y6812333D01*
X12209679Y6812332D01*
X12220652Y6785843D01*
X12221986Y6782621D01*
X12228260Y6751080D01*
X12228260Y6718920D01*
X12222927Y6692108D01*
X12221985Y6687376D01*
X12219480Y6681329D01*
X12209679Y6657667D01*
X12202097Y6646320D01*
X12191813Y6630929D01*
X12169071Y6608187D01*
X12160199Y6602259D01*
X12142333Y6590321D01*
X12125537Y6583364D01*
X12112624Y6578015D01*
X12112623Y6578015D01*
X12112621Y6578014D01*
X12081080Y6571740D01*
X12048920Y6571740D01*
X12017379Y6578014D01*
X12017377Y6578015D01*
X12017376Y6578015D01*
X12004463Y6583364D01*
X11987667Y6590321D01*
X11969801Y6602259D01*
X11960929Y6608187D01*
X11938187Y6630929D01*
X11927903Y6646320D01*
X11920321Y6657667D01*
X11910520Y6681329D01*
X11908015Y6687376D01*
X11907074Y6692108D01*
X11901740Y6718920D01*
X11901740Y6751080D01*
X11908014Y6782621D01*
X11909349Y6785843D01*
X11920321Y6812332D01*
X11920321Y6812333D01*
X11938188Y6839072D01*
X11960928Y6861812D01*
X11987667Y6879679D01*
X12006402Y6887439D01*
X12017376Y6891985D01*
X12017377Y6891985D01*
X12017379Y6891986D01*
X12048920Y6898260D01*
X12081080Y6898260D01*
X12112621Y6891986D01*
G37*
G36*
X17196621Y6891986D02*
G01*
X17196623Y6891985D01*
X17196624Y6891985D01*
X17207598Y6887439D01*
X17226333Y6879679D01*
X17253072Y6861812D01*
X17275812Y6839072D01*
X17293679Y6812333D01*
X17293679Y6812332D01*
X17304652Y6785843D01*
X17305986Y6782621D01*
X17312260Y6751080D01*
X17312260Y6718920D01*
X17306927Y6692108D01*
X17305985Y6687376D01*
X17303480Y6681329D01*
X17293679Y6657667D01*
X17286097Y6646320D01*
X17275813Y6630929D01*
X17253071Y6608187D01*
X17244199Y6602259D01*
X17226333Y6590321D01*
X17209537Y6583364D01*
X17196624Y6578015D01*
X17196623Y6578015D01*
X17196621Y6578014D01*
X17165080Y6571740D01*
X17132920Y6571740D01*
X17101379Y6578014D01*
X17101377Y6578015D01*
X17101376Y6578015D01*
X17088463Y6583364D01*
X17071667Y6590321D01*
X17053801Y6602259D01*
X17044929Y6608187D01*
X17022187Y6630929D01*
X17011903Y6646320D01*
X17004321Y6657667D01*
X16994520Y6681329D01*
X16992015Y6687376D01*
X16991074Y6692108D01*
X16985740Y6718920D01*
X16985740Y6751080D01*
X16992014Y6782621D01*
X16993349Y6785843D01*
X17004321Y6812332D01*
X17004321Y6812333D01*
X17022188Y6839072D01*
X17044928Y6861812D01*
X17071667Y6879679D01*
X17090402Y6887439D01*
X17101376Y6891985D01*
X17101377Y6891985D01*
X17101379Y6891986D01*
X17132920Y6898260D01*
X17165080Y6898260D01*
X17196621Y6891986D01*
G37*
G36*
X18196621Y6891986D02*
G01*
X18196623Y6891985D01*
X18196624Y6891985D01*
X18207598Y6887439D01*
X18226333Y6879679D01*
X18253072Y6861812D01*
X18275812Y6839072D01*
X18293679Y6812333D01*
X18293679Y6812332D01*
X18304652Y6785843D01*
X18305986Y6782621D01*
X18312260Y6751080D01*
X18312260Y6718920D01*
X18306927Y6692108D01*
X18305985Y6687376D01*
X18303480Y6681329D01*
X18293679Y6657667D01*
X18286097Y6646320D01*
X18275813Y6630929D01*
X18253071Y6608187D01*
X18244199Y6602259D01*
X18226333Y6590321D01*
X18209537Y6583364D01*
X18196624Y6578015D01*
X18196623Y6578015D01*
X18196621Y6578014D01*
X18165080Y6571740D01*
X18132920Y6571740D01*
X18101379Y6578014D01*
X18101377Y6578015D01*
X18101376Y6578015D01*
X18088463Y6583364D01*
X18071667Y6590321D01*
X18053801Y6602259D01*
X18044929Y6608187D01*
X18022187Y6630929D01*
X18011903Y6646320D01*
X18004321Y6657667D01*
X17994520Y6681329D01*
X17992015Y6687376D01*
X17991074Y6692108D01*
X17985740Y6718920D01*
X17985740Y6751080D01*
X17992014Y6782621D01*
X17993349Y6785843D01*
X18004321Y6812332D01*
X18004321Y6812333D01*
X18022188Y6839072D01*
X18044928Y6861812D01*
X18071667Y6879679D01*
X18090402Y6887439D01*
X18101376Y6891985D01*
X18101377Y6891985D01*
X18101379Y6891986D01*
X18132920Y6898260D01*
X18165080Y6898260D01*
X18196621Y6891986D01*
G37*
G36*
X16696621Y6891986D02*
G01*
X16696623Y6891985D01*
X16696624Y6891985D01*
X16707598Y6887439D01*
X16726333Y6879679D01*
X16753072Y6861812D01*
X16775812Y6839072D01*
X16793679Y6812333D01*
X16793679Y6812332D01*
X16804652Y6785843D01*
X16805986Y6782621D01*
X16812260Y6751080D01*
X16812260Y6718920D01*
X16806927Y6692108D01*
X16805985Y6687376D01*
X16803480Y6681329D01*
X16793679Y6657667D01*
X16786097Y6646320D01*
X16775813Y6630929D01*
X16753071Y6608187D01*
X16744199Y6602259D01*
X16726333Y6590321D01*
X16709537Y6583364D01*
X16696624Y6578015D01*
X16696623Y6578015D01*
X16696621Y6578014D01*
X16665080Y6571740D01*
X16632920Y6571740D01*
X16601379Y6578014D01*
X16601377Y6578015D01*
X16601376Y6578015D01*
X16588463Y6583364D01*
X16571667Y6590321D01*
X16553801Y6602259D01*
X16544929Y6608187D01*
X16522187Y6630929D01*
X16511903Y6646320D01*
X16504321Y6657667D01*
X16494520Y6681329D01*
X16492015Y6687376D01*
X16491074Y6692108D01*
X16485740Y6718920D01*
X16485740Y6751080D01*
X16492014Y6782621D01*
X16493349Y6785843D01*
X16504321Y6812332D01*
X16504321Y6812333D01*
X16522188Y6839072D01*
X16544928Y6861812D01*
X16571667Y6879679D01*
X16590402Y6887439D01*
X16601376Y6891985D01*
X16601377Y6891985D01*
X16601379Y6891986D01*
X16632920Y6898260D01*
X16665080Y6898260D01*
X16696621Y6891986D01*
G37*
G36*
X11047166Y7164654D02*
G01*
X11047168Y7164653D01*
X11047169Y7164653D01*
X11064032Y7157668D01*
X11102174Y7141869D01*
X11151680Y7108790D01*
X11193781Y7066689D01*
X11226860Y7017183D01*
X11249645Y6962175D01*
X11261260Y6903779D01*
X11261260Y6844239D01*
X11249655Y6785892D01*
X11249644Y6785840D01*
X11240507Y6763781D01*
X11226860Y6730835D01*
X11193781Y6681329D01*
X11151680Y6639228D01*
X11102174Y6606149D01*
X11087732Y6600167D01*
X11047169Y6583365D01*
X11047168Y6583365D01*
X11047166Y6583364D01*
X10988770Y6571749D01*
X10929230Y6571749D01*
X10870834Y6583364D01*
X10870832Y6583365D01*
X10870831Y6583365D01*
X10830268Y6600167D01*
X10815826Y6606149D01*
X10766320Y6639228D01*
X10724219Y6681329D01*
X10691140Y6730835D01*
X10677493Y6763781D01*
X10668356Y6785840D01*
X10668346Y6785892D01*
X10656740Y6844239D01*
X10656740Y6903779D01*
X10668355Y6962175D01*
X10691140Y7017183D01*
X10724219Y7066689D01*
X10766320Y7108790D01*
X10815826Y7141869D01*
X10853968Y7157668D01*
X10870831Y7164653D01*
X10870832Y7164653D01*
X10870834Y7164654D01*
X10929230Y7176269D01*
X10988770Y7176269D01*
X11047166Y7164654D01*
G37*
G36*
X6793892Y6893582D02*
G01*
X6793894Y6893581D01*
X6793895Y6893581D01*
X6797748Y6891985D01*
X6823148Y6881464D01*
X6849479Y6863871D01*
X6871871Y6841479D01*
X6889464Y6815148D01*
X6901582Y6785892D01*
X6907760Y6754833D01*
X6907760Y6723167D01*
X6901582Y6692108D01*
X6889464Y6662852D01*
X6871871Y6636521D01*
X6849479Y6614129D01*
X6823148Y6596536D01*
X6813899Y6592705D01*
X6793895Y6584419D01*
X6793894Y6584419D01*
X6793892Y6584418D01*
X6762833Y6578240D01*
X6731167Y6578240D01*
X6700108Y6584418D01*
X6700106Y6584419D01*
X6700105Y6584419D01*
X6680101Y6592705D01*
X6670852Y6596536D01*
X6644521Y6614129D01*
X6622129Y6636521D01*
X6604536Y6662852D01*
X6592418Y6692108D01*
X6586240Y6723167D01*
X6586240Y6754833D01*
X6592418Y6785892D01*
X6604536Y6815148D01*
X6622129Y6841479D01*
X6644521Y6863871D01*
X6670852Y6881464D01*
X6696252Y6891985D01*
X6700105Y6893581D01*
X6700106Y6893581D01*
X6700108Y6893582D01*
X6731167Y6899760D01*
X6762833Y6899760D01*
X6793892Y6893582D01*
G37*
G36*
X7793892Y6893582D02*
G01*
X7793894Y6893581D01*
X7793895Y6893581D01*
X7797748Y6891985D01*
X7823148Y6881464D01*
X7849479Y6863871D01*
X7871871Y6841479D01*
X7889464Y6815148D01*
X7901582Y6785892D01*
X7907760Y6754833D01*
X7907760Y6723167D01*
X7901582Y6692108D01*
X7889464Y6662852D01*
X7871871Y6636521D01*
X7849479Y6614129D01*
X7823148Y6596536D01*
X7813899Y6592705D01*
X7793895Y6584419D01*
X7793894Y6584419D01*
X7793892Y6584418D01*
X7762833Y6578240D01*
X7731167Y6578240D01*
X7700108Y6584418D01*
X7700106Y6584419D01*
X7700105Y6584419D01*
X7680101Y6592705D01*
X7670852Y6596536D01*
X7644521Y6614129D01*
X7622129Y6636521D01*
X7604536Y6662852D01*
X7592418Y6692108D01*
X7586240Y6723167D01*
X7586240Y6754833D01*
X7592418Y6785892D01*
X7604536Y6815148D01*
X7622129Y6841479D01*
X7644521Y6863871D01*
X7670852Y6881464D01*
X7696252Y6891985D01*
X7700105Y6893581D01*
X7700106Y6893581D01*
X7700108Y6893582D01*
X7731167Y6899760D01*
X7762833Y6899760D01*
X7793892Y6893582D01*
G37*
G36*
X15287166Y7239645D02*
G01*
X15287168Y7239644D01*
X15287169Y7239644D01*
X15314670Y7228252D01*
X15342174Y7216860D01*
X15391680Y7183781D01*
X15433781Y7141680D01*
X15466860Y7092174D01*
X15470336Y7083781D01*
X15482582Y7054219D01*
X15489645Y7037166D01*
X15501260Y6978770D01*
X15501260Y6919230D01*
X15489840Y6861812D01*
X15489644Y6860831D01*
X15478253Y6833330D01*
X15466860Y6805826D01*
X15433781Y6756320D01*
X15391680Y6714219D01*
X15342174Y6681140D01*
X15320528Y6672174D01*
X15287169Y6658356D01*
X15287168Y6658356D01*
X15287166Y6658355D01*
X15228770Y6646740D01*
X15169230Y6646740D01*
X15110834Y6658355D01*
X15110832Y6658356D01*
X15110831Y6658356D01*
X15077472Y6672174D01*
X15055826Y6681140D01*
X15006320Y6714219D01*
X14964219Y6756320D01*
X14931140Y6805826D01*
X14919748Y6833330D01*
X14908356Y6860831D01*
X14908161Y6861812D01*
X14896740Y6919230D01*
X14896740Y6978770D01*
X14908355Y7037166D01*
X14915419Y7054219D01*
X14927664Y7083781D01*
X14931140Y7092174D01*
X14964219Y7141680D01*
X15006320Y7183781D01*
X15055826Y7216860D01*
X15083330Y7228252D01*
X15110831Y7239644D01*
X15110832Y7239644D01*
X15110834Y7239645D01*
X15169230Y7251260D01*
X15228770Y7251260D01*
X15287166Y7239645D01*
G37*
G36*
X16017166Y7579645D02*
G01*
X16017168Y7579644D01*
X16017169Y7579644D01*
X16044670Y7568253D01*
X16072174Y7556860D01*
X16121680Y7523781D01*
X16163781Y7481680D01*
X16196860Y7432174D01*
X16196861Y7432171D01*
X16217865Y7381465D01*
X16219645Y7377166D01*
X16231260Y7318770D01*
X16231260Y7259230D01*
X16220820Y7206740D01*
X16219644Y7200831D01*
X16209470Y7176269D01*
X16196860Y7145826D01*
X16163781Y7096320D01*
X16121680Y7054219D01*
X16072174Y7021140D01*
X16044670Y7009748D01*
X16017169Y6998356D01*
X16017168Y6998356D01*
X16017166Y6998355D01*
X15958770Y6986740D01*
X15899230Y6986740D01*
X15840834Y6998355D01*
X15840832Y6998356D01*
X15840831Y6998356D01*
X15813330Y7009748D01*
X15785826Y7021140D01*
X15736320Y7054219D01*
X15694219Y7096320D01*
X15661140Y7145826D01*
X15648530Y7176269D01*
X15638356Y7200831D01*
X15637181Y7206740D01*
X15626740Y7259230D01*
X15626740Y7318770D01*
X15638355Y7377166D01*
X15640136Y7381465D01*
X15661139Y7432171D01*
X15661140Y7432174D01*
X15694219Y7481680D01*
X15736320Y7523781D01*
X15785826Y7556860D01*
X15813330Y7568252D01*
X15840831Y7579644D01*
X15840832Y7579644D01*
X15840834Y7579645D01*
X15899230Y7591260D01*
X15958770Y7591260D01*
X16017166Y7579645D01*
G37*
G36*
X17696621Y7391986D02*
G01*
X17696623Y7391985D01*
X17696624Y7391985D01*
X17707598Y7387439D01*
X17726333Y7379679D01*
X17744199Y7367741D01*
X17753071Y7361813D01*
X17775813Y7339071D01*
X17776291Y7338355D01*
X17793679Y7312333D01*
X17805986Y7282621D01*
X17812260Y7251080D01*
X17812260Y7218920D01*
X17805986Y7187379D01*
X17793679Y7157667D01*
X17775812Y7130928D01*
X17753072Y7108188D01*
X17726333Y7090321D01*
X17712084Y7084419D01*
X17696624Y7078015D01*
X17696623Y7078015D01*
X17696621Y7078014D01*
X17665080Y7071740D01*
X17632920Y7071740D01*
X17601379Y7078014D01*
X17601377Y7078015D01*
X17601376Y7078015D01*
X17585916Y7084419D01*
X17571667Y7090321D01*
X17544928Y7108188D01*
X17522188Y7130928D01*
X17504321Y7157667D01*
X17492014Y7187379D01*
X17485740Y7218920D01*
X17485740Y7251080D01*
X17492014Y7282621D01*
X17504321Y7312333D01*
X17521709Y7338355D01*
X17522187Y7339071D01*
X17544929Y7361813D01*
X17553801Y7367741D01*
X17571667Y7379679D01*
X17590402Y7387439D01*
X17601376Y7391985D01*
X17601377Y7391985D01*
X17601379Y7391986D01*
X17632920Y7398260D01*
X17665080Y7398260D01*
X17696621Y7391986D01*
G37*
G36*
X11612621Y7391986D02*
G01*
X11612623Y7391985D01*
X11612624Y7391985D01*
X11623598Y7387439D01*
X11642333Y7379679D01*
X11660199Y7367741D01*
X11669071Y7361813D01*
X11691813Y7339071D01*
X11692291Y7338355D01*
X11709679Y7312333D01*
X11721986Y7282621D01*
X11728260Y7251080D01*
X11728260Y7218920D01*
X11721986Y7187379D01*
X11709679Y7157667D01*
X11691812Y7130928D01*
X11669072Y7108188D01*
X11642333Y7090321D01*
X11628084Y7084419D01*
X11612624Y7078015D01*
X11612623Y7078015D01*
X11612621Y7078014D01*
X11581080Y7071740D01*
X11548920Y7071740D01*
X11517379Y7078014D01*
X11517377Y7078015D01*
X11517376Y7078015D01*
X11501916Y7084419D01*
X11487667Y7090321D01*
X11460928Y7108188D01*
X11438188Y7130928D01*
X11420321Y7157667D01*
X11408014Y7187379D01*
X11401740Y7218920D01*
X11401740Y7251080D01*
X11408014Y7282621D01*
X11420321Y7312333D01*
X11437709Y7338355D01*
X11438187Y7339071D01*
X11460929Y7361813D01*
X11469801Y7367741D01*
X11487667Y7379679D01*
X11506402Y7387439D01*
X11517376Y7391985D01*
X11517377Y7391985D01*
X11517379Y7391986D01*
X11548920Y7398260D01*
X11581080Y7398260D01*
X11612621Y7391986D01*
G37*
G36*
X12112621Y7391986D02*
G01*
X12112623Y7391985D01*
X12112624Y7391985D01*
X12123598Y7387439D01*
X12142333Y7379679D01*
X12160199Y7367741D01*
X12169071Y7361813D01*
X12191813Y7339071D01*
X12192291Y7338355D01*
X12209679Y7312333D01*
X12221986Y7282621D01*
X12228260Y7251080D01*
X12228260Y7218920D01*
X12221986Y7187379D01*
X12209679Y7157667D01*
X12191812Y7130928D01*
X12169072Y7108188D01*
X12142333Y7090321D01*
X12128084Y7084419D01*
X12112624Y7078015D01*
X12112623Y7078015D01*
X12112621Y7078014D01*
X12081080Y7071740D01*
X12048920Y7071740D01*
X12017379Y7078014D01*
X12017377Y7078015D01*
X12017376Y7078015D01*
X12001916Y7084419D01*
X11987667Y7090321D01*
X11960928Y7108188D01*
X11938188Y7130928D01*
X11920321Y7157667D01*
X11908014Y7187379D01*
X11901740Y7218920D01*
X11901740Y7251080D01*
X11908014Y7282621D01*
X11920321Y7312333D01*
X11937709Y7338355D01*
X11938187Y7339071D01*
X11960929Y7361813D01*
X11969801Y7367741D01*
X11987667Y7379679D01*
X12006402Y7387439D01*
X12017376Y7391985D01*
X12017377Y7391985D01*
X12017379Y7391986D01*
X12048920Y7398260D01*
X12081080Y7398260D01*
X12112621Y7391986D01*
G37*
G36*
X13112621Y7391986D02*
G01*
X13112623Y7391985D01*
X13112624Y7391985D01*
X13123598Y7387439D01*
X13142333Y7379679D01*
X13160199Y7367741D01*
X13169071Y7361813D01*
X13191813Y7339071D01*
X13192291Y7338355D01*
X13209679Y7312333D01*
X13221986Y7282621D01*
X13228260Y7251080D01*
X13228260Y7218920D01*
X13221986Y7187379D01*
X13209679Y7157667D01*
X13191812Y7130928D01*
X13169072Y7108188D01*
X13142333Y7090321D01*
X13128084Y7084419D01*
X13112624Y7078015D01*
X13112623Y7078015D01*
X13112621Y7078014D01*
X13081080Y7071740D01*
X13048920Y7071740D01*
X13017379Y7078014D01*
X13017377Y7078015D01*
X13017376Y7078015D01*
X13001916Y7084419D01*
X12987667Y7090321D01*
X12960928Y7108188D01*
X12938188Y7130928D01*
X12920321Y7157667D01*
X12908014Y7187379D01*
X12901740Y7218920D01*
X12901740Y7251080D01*
X12908014Y7282621D01*
X12920321Y7312333D01*
X12937709Y7338355D01*
X12938187Y7339071D01*
X12960929Y7361813D01*
X12969801Y7367741D01*
X12987667Y7379679D01*
X13006402Y7387439D01*
X13017376Y7391985D01*
X13017377Y7391985D01*
X13017379Y7391986D01*
X13048920Y7398260D01*
X13081080Y7398260D01*
X13112621Y7391986D01*
G37*
G36*
X18196621Y7391986D02*
G01*
X18196623Y7391985D01*
X18196624Y7391985D01*
X18207598Y7387439D01*
X18226333Y7379679D01*
X18244199Y7367741D01*
X18253071Y7361813D01*
X18275813Y7339071D01*
X18276291Y7338355D01*
X18293679Y7312333D01*
X18305986Y7282621D01*
X18312260Y7251080D01*
X18312260Y7218920D01*
X18305986Y7187379D01*
X18293679Y7157667D01*
X18275812Y7130928D01*
X18253072Y7108188D01*
X18226333Y7090321D01*
X18212084Y7084419D01*
X18196624Y7078015D01*
X18196623Y7078015D01*
X18196621Y7078014D01*
X18165080Y7071740D01*
X18132920Y7071740D01*
X18101379Y7078014D01*
X18101377Y7078015D01*
X18101376Y7078015D01*
X18085916Y7084419D01*
X18071667Y7090321D01*
X18044928Y7108188D01*
X18022188Y7130928D01*
X18004321Y7157667D01*
X17992014Y7187379D01*
X17985740Y7218920D01*
X17985740Y7251080D01*
X17992014Y7282621D01*
X18004321Y7312333D01*
X18021709Y7338355D01*
X18022187Y7339071D01*
X18044929Y7361813D01*
X18053801Y7367741D01*
X18071667Y7379679D01*
X18090402Y7387439D01*
X18101376Y7391985D01*
X18101377Y7391985D01*
X18101379Y7391986D01*
X18132920Y7398260D01*
X18165080Y7398260D01*
X18196621Y7391986D01*
G37*
G36*
X17196621Y7391986D02*
G01*
X17196623Y7391985D01*
X17196624Y7391985D01*
X17207598Y7387439D01*
X17226333Y7379679D01*
X17244199Y7367741D01*
X17253071Y7361813D01*
X17275813Y7339071D01*
X17276291Y7338355D01*
X17293679Y7312333D01*
X17305986Y7282621D01*
X17312260Y7251080D01*
X17312260Y7218920D01*
X17305986Y7187379D01*
X17293679Y7157667D01*
X17275812Y7130928D01*
X17253072Y7108188D01*
X17226333Y7090321D01*
X17212084Y7084419D01*
X17196624Y7078015D01*
X17196623Y7078015D01*
X17196621Y7078014D01*
X17165080Y7071740D01*
X17132920Y7071740D01*
X17101379Y7078014D01*
X17101377Y7078015D01*
X17101376Y7078015D01*
X17085916Y7084419D01*
X17071667Y7090321D01*
X17044928Y7108188D01*
X17022188Y7130928D01*
X17004321Y7157667D01*
X16992014Y7187379D01*
X16985740Y7218920D01*
X16985740Y7251080D01*
X16992014Y7282621D01*
X17004321Y7312333D01*
X17021709Y7338355D01*
X17022187Y7339071D01*
X17044929Y7361813D01*
X17053801Y7367741D01*
X17071667Y7379679D01*
X17090402Y7387439D01*
X17101376Y7391985D01*
X17101377Y7391985D01*
X17101379Y7391986D01*
X17132920Y7398260D01*
X17165080Y7398260D01*
X17196621Y7391986D01*
G37*
G36*
X12612621Y7391986D02*
G01*
X12612623Y7391985D01*
X12612624Y7391985D01*
X12623598Y7387439D01*
X12642333Y7379679D01*
X12660199Y7367741D01*
X12669071Y7361813D01*
X12691813Y7339071D01*
X12692291Y7338355D01*
X12709679Y7312333D01*
X12721986Y7282621D01*
X12728260Y7251080D01*
X12728260Y7218920D01*
X12721986Y7187379D01*
X12709679Y7157667D01*
X12691812Y7130928D01*
X12669072Y7108188D01*
X12642333Y7090321D01*
X12628084Y7084419D01*
X12612624Y7078015D01*
X12612623Y7078015D01*
X12612621Y7078014D01*
X12581080Y7071740D01*
X12548920Y7071740D01*
X12517379Y7078014D01*
X12517377Y7078015D01*
X12517376Y7078015D01*
X12501916Y7084419D01*
X12487667Y7090321D01*
X12460928Y7108188D01*
X12438188Y7130928D01*
X12420321Y7157667D01*
X12408014Y7187379D01*
X12401740Y7218920D01*
X12401740Y7251080D01*
X12408014Y7282621D01*
X12420321Y7312333D01*
X12437709Y7338355D01*
X12438187Y7339071D01*
X12460929Y7361813D01*
X12469801Y7367741D01*
X12487667Y7379679D01*
X12506402Y7387439D01*
X12517376Y7391985D01*
X12517377Y7391985D01*
X12517379Y7391986D01*
X12548920Y7398260D01*
X12581080Y7398260D01*
X12612621Y7391986D01*
G37*
G36*
X16696621Y7391986D02*
G01*
X16696623Y7391985D01*
X16696624Y7391985D01*
X16707598Y7387439D01*
X16726333Y7379679D01*
X16744199Y7367741D01*
X16753071Y7361813D01*
X16775813Y7339071D01*
X16776291Y7338355D01*
X16793679Y7312333D01*
X16805986Y7282621D01*
X16812260Y7251080D01*
X16812260Y7218920D01*
X16805986Y7187379D01*
X16793679Y7157667D01*
X16775812Y7130928D01*
X16753072Y7108188D01*
X16726333Y7090321D01*
X16712084Y7084419D01*
X16696624Y7078015D01*
X16696623Y7078015D01*
X16696621Y7078014D01*
X16665080Y7071740D01*
X16632920Y7071740D01*
X16601379Y7078014D01*
X16601377Y7078015D01*
X16601376Y7078015D01*
X16585916Y7084419D01*
X16571667Y7090321D01*
X16544928Y7108188D01*
X16522188Y7130928D01*
X16504321Y7157667D01*
X16492014Y7187379D01*
X16485740Y7218920D01*
X16485740Y7251080D01*
X16492014Y7282621D01*
X16504321Y7312333D01*
X16521709Y7338355D01*
X16522187Y7339071D01*
X16544929Y7361813D01*
X16553801Y7367741D01*
X16571667Y7379679D01*
X16590402Y7387439D01*
X16601376Y7391985D01*
X16601377Y7391985D01*
X16601379Y7391986D01*
X16632920Y7398260D01*
X16665080Y7398260D01*
X16696621Y7391986D01*
G37*
G36*
X7793892Y7393582D02*
G01*
X7793894Y7393581D01*
X7793895Y7393581D01*
X7797748Y7391985D01*
X7823148Y7381464D01*
X7849479Y7363871D01*
X7871871Y7341479D01*
X7889464Y7315148D01*
X7901582Y7285892D01*
X7907760Y7254833D01*
X7907760Y7223167D01*
X7901582Y7192108D01*
X7889464Y7162852D01*
X7871871Y7136521D01*
X7849479Y7114129D01*
X7823148Y7096536D01*
X7812617Y7092174D01*
X7793895Y7084419D01*
X7793894Y7084419D01*
X7793892Y7084418D01*
X7762833Y7078240D01*
X7731167Y7078240D01*
X7700108Y7084418D01*
X7700106Y7084419D01*
X7700105Y7084419D01*
X7681383Y7092174D01*
X7670852Y7096536D01*
X7644521Y7114129D01*
X7622129Y7136521D01*
X7604536Y7162852D01*
X7592418Y7192108D01*
X7586240Y7223167D01*
X7586240Y7254833D01*
X7592418Y7285892D01*
X7604536Y7315148D01*
X7622129Y7341479D01*
X7644521Y7363871D01*
X7670852Y7381464D01*
X7696252Y7391985D01*
X7700105Y7393581D01*
X7700106Y7393581D01*
X7700108Y7393582D01*
X7731167Y7399760D01*
X7762833Y7399760D01*
X7793892Y7393582D01*
G37*
G36*
X6793892Y7393582D02*
G01*
X6793894Y7393581D01*
X6793895Y7393581D01*
X6797748Y7391985D01*
X6823148Y7381464D01*
X6849479Y7363871D01*
X6871871Y7341479D01*
X6889464Y7315148D01*
X6901582Y7285892D01*
X6907760Y7254833D01*
X6907760Y7223167D01*
X6901582Y7192108D01*
X6889464Y7162852D01*
X6871871Y7136521D01*
X6849479Y7114129D01*
X6823148Y7096536D01*
X6812617Y7092174D01*
X6793895Y7084419D01*
X6793894Y7084419D01*
X6793892Y7084418D01*
X6762833Y7078240D01*
X6731167Y7078240D01*
X6700108Y7084418D01*
X6700106Y7084419D01*
X6700105Y7084419D01*
X6681383Y7092174D01*
X6670852Y7096536D01*
X6644521Y7114129D01*
X6622129Y7136521D01*
X6604536Y7162852D01*
X6592418Y7192108D01*
X6586240Y7223167D01*
X6586240Y7254833D01*
X6592418Y7285892D01*
X6604536Y7315148D01*
X6622129Y7341479D01*
X6644521Y7363871D01*
X6670852Y7381464D01*
X6696252Y7391985D01*
X6700105Y7393581D01*
X6700106Y7393581D01*
X6700108Y7393582D01*
X6731167Y7399760D01*
X6762833Y7399760D01*
X6793892Y7393582D01*
G37*
G36*
X7293892Y7393582D02*
G01*
X7293894Y7393581D01*
X7293895Y7393581D01*
X7297748Y7391985D01*
X7323148Y7381464D01*
X7349479Y7363871D01*
X7371871Y7341479D01*
X7389464Y7315148D01*
X7401582Y7285892D01*
X7407760Y7254833D01*
X7407760Y7223167D01*
X7401582Y7192108D01*
X7389464Y7162852D01*
X7371871Y7136521D01*
X7349479Y7114129D01*
X7323148Y7096536D01*
X7312617Y7092174D01*
X7293895Y7084419D01*
X7293894Y7084419D01*
X7293892Y7084418D01*
X7262833Y7078240D01*
X7231167Y7078240D01*
X7200108Y7084418D01*
X7200106Y7084419D01*
X7200105Y7084419D01*
X7181383Y7092174D01*
X7170852Y7096536D01*
X7144521Y7114129D01*
X7122129Y7136521D01*
X7104536Y7162852D01*
X7092418Y7192108D01*
X7086240Y7223167D01*
X7086240Y7254833D01*
X7092418Y7285892D01*
X7104536Y7315148D01*
X7122129Y7341479D01*
X7144521Y7363871D01*
X7170852Y7381464D01*
X7196252Y7391985D01*
X7200105Y7393581D01*
X7200106Y7393581D01*
X7200108Y7393582D01*
X7231167Y7399760D01*
X7262833Y7399760D01*
X7293892Y7393582D01*
G37*
G36*
X10847166Y7799645D02*
G01*
X10847168Y7799644D01*
X10847169Y7799644D01*
X10848168Y7799230D01*
X10902174Y7776860D01*
X10951680Y7743781D01*
X10993781Y7701680D01*
X11026860Y7652174D01*
X11049645Y7597166D01*
X11061260Y7538770D01*
X11061260Y7479230D01*
X11049645Y7420834D01*
X11026860Y7365826D01*
X10993781Y7316320D01*
X10951680Y7274219D01*
X10902174Y7241140D01*
X10898562Y7239644D01*
X10847169Y7218356D01*
X10847168Y7218356D01*
X10847166Y7218355D01*
X10788770Y7206740D01*
X10729230Y7206740D01*
X10670834Y7218355D01*
X10670832Y7218356D01*
X10670831Y7218356D01*
X10619438Y7239644D01*
X10615826Y7241140D01*
X10566320Y7274219D01*
X10524219Y7316320D01*
X10491140Y7365826D01*
X10468355Y7420834D01*
X10456740Y7479230D01*
X10456740Y7538770D01*
X10468355Y7597166D01*
X10491140Y7652174D01*
X10524219Y7701680D01*
X10566320Y7743781D01*
X10615826Y7776860D01*
X10669832Y7799230D01*
X10670831Y7799644D01*
X10670832Y7799644D01*
X10670834Y7799645D01*
X10729230Y7811260D01*
X10788770Y7811260D01*
X10847166Y7799645D01*
G37*
G36*
X2077166Y7919645D02*
G01*
X2077168Y7919644D01*
X2077169Y7919644D01*
X2083144Y7917169D01*
X2132174Y7896860D01*
X2181680Y7863781D01*
X2223781Y7821680D01*
X2256860Y7772174D01*
X2279645Y7717166D01*
X2291260Y7658770D01*
X2291260Y7599230D01*
X2282833Y7556860D01*
X2279644Y7540831D01*
X2268253Y7513330D01*
X2256860Y7485826D01*
X2223781Y7436320D01*
X2181680Y7394219D01*
X2132174Y7361140D01*
X2104670Y7349748D01*
X2077169Y7338356D01*
X2077168Y7338356D01*
X2077166Y7338355D01*
X2018770Y7326740D01*
X1959230Y7326740D01*
X1900834Y7338355D01*
X1900832Y7338356D01*
X1900831Y7338356D01*
X1873330Y7349748D01*
X1845826Y7361140D01*
X1796320Y7394219D01*
X1754219Y7436320D01*
X1721140Y7485826D01*
X1709747Y7513330D01*
X1698356Y7540831D01*
X1695168Y7556860D01*
X1686740Y7599230D01*
X1686740Y7658770D01*
X1698355Y7717166D01*
X1721140Y7772174D01*
X1754219Y7821680D01*
X1796320Y7863781D01*
X1845826Y7896860D01*
X1894856Y7917169D01*
X1900831Y7919644D01*
X1900832Y7919644D01*
X1900834Y7919645D01*
X1959230Y7931260D01*
X2018770Y7931260D01*
X2077166Y7919645D01*
G37*
G36*
X7377166Y8119645D02*
G01*
X7377168Y8119644D01*
X7377169Y8119644D01*
X7404670Y8108253D01*
X7432174Y8096860D01*
X7481680Y8063781D01*
X7523781Y8021680D01*
X7556860Y7972174D01*
X7579645Y7917166D01*
X7591260Y7858770D01*
X7591260Y7799230D01*
X7579645Y7740834D01*
X7556860Y7685826D01*
X7523781Y7636320D01*
X7481680Y7594219D01*
X7432174Y7561140D01*
X7421841Y7556860D01*
X7377169Y7538356D01*
X7377168Y7538356D01*
X7377166Y7538355D01*
X7318770Y7526740D01*
X7259230Y7526740D01*
X7200834Y7538355D01*
X7200832Y7538356D01*
X7200831Y7538356D01*
X7156159Y7556860D01*
X7145826Y7561140D01*
X7096320Y7594219D01*
X7054219Y7636320D01*
X7021140Y7685826D01*
X6998355Y7740834D01*
X6986740Y7799230D01*
X6986740Y7858770D01*
X6998355Y7917166D01*
X7021140Y7972174D01*
X7054219Y8021680D01*
X7096320Y8063781D01*
X7145826Y8096860D01*
X7173330Y8108253D01*
X7200831Y8119644D01*
X7200832Y8119644D01*
X7200834Y8119645D01*
X7259230Y8131260D01*
X7318770Y8131260D01*
X7377166Y8119645D01*
G37*
G36*
X8671255Y9043884D02*
G01*
X8671257Y9043883D01*
X8671258Y9043883D01*
X8721871Y9022918D01*
X8772488Y9001952D01*
X8863595Y8941076D01*
X8941076Y8863595D01*
X9001952Y8772488D01*
X9043884Y8671255D01*
X9065260Y8563787D01*
X9065260Y8454213D01*
X9043884Y8346745D01*
X9001952Y8245512D01*
X8941076Y8154405D01*
X8863595Y8076924D01*
X8772488Y8016048D01*
X8721871Y7995082D01*
X8671258Y7974117D01*
X8671257Y7974117D01*
X8671255Y7974116D01*
X8563787Y7952740D01*
X8454213Y7952740D01*
X8346745Y7974116D01*
X8346743Y7974117D01*
X8346742Y7974117D01*
X8296129Y7995082D01*
X8245512Y8016048D01*
X8154405Y8076924D01*
X8076924Y8154405D01*
X8016048Y8245512D01*
X7974116Y8346745D01*
X7952740Y8454213D01*
X7952740Y8563787D01*
X7974116Y8671255D01*
X8016048Y8772488D01*
X8076924Y8863595D01*
X8154405Y8941076D01*
X8245512Y9001952D01*
X8296129Y9022918D01*
X8346742Y9043883D01*
X8346743Y9043883D01*
X8346745Y9043884D01*
X8454213Y9065260D01*
X8563787Y9065260D01*
X8671255Y9043884D01*
G37*
G36*
X13751255Y9043884D02*
G01*
X13751257Y9043883D01*
X13751258Y9043883D01*
X13801871Y9022918D01*
X13852488Y9001952D01*
X13943595Y8941076D01*
X14021076Y8863595D01*
X14081952Y8772488D01*
X14123884Y8671255D01*
X14145260Y8563787D01*
X14145260Y8454213D01*
X14123884Y8346745D01*
X14081952Y8245512D01*
X14021076Y8154405D01*
X13943595Y8076924D01*
X13852488Y8016048D01*
X13801871Y7995082D01*
X13751258Y7974117D01*
X13751257Y7974117D01*
X13751255Y7974116D01*
X13643787Y7952740D01*
X13534213Y7952740D01*
X13426745Y7974116D01*
X13426743Y7974117D01*
X13426742Y7974117D01*
X13376129Y7995082D01*
X13325512Y8016048D01*
X13234405Y8076924D01*
X13156924Y8154405D01*
X13096048Y8245512D01*
X13054116Y8346745D01*
X13032740Y8454213D01*
X13032740Y8563787D01*
X13054116Y8671255D01*
X13096048Y8772488D01*
X13156924Y8863595D01*
X13234405Y8941076D01*
X13325512Y9001952D01*
X13376129Y9022918D01*
X13426742Y9043883D01*
X13426743Y9043883D01*
X13426745Y9043884D01*
X13534213Y9065260D01*
X13643787Y9065260D01*
X13751255Y9043884D01*
G37*
G36*
X18831255Y9043884D02*
G01*
X18831257Y9043883D01*
X18831258Y9043883D01*
X18881871Y9022918D01*
X18932488Y9001952D01*
X19023595Y8941076D01*
X19101076Y8863595D01*
X19161952Y8772488D01*
X19203884Y8671255D01*
X19225260Y8563787D01*
X19225260Y8454213D01*
X19203884Y8346745D01*
X19161952Y8245512D01*
X19101076Y8154405D01*
X19023595Y8076924D01*
X18932488Y8016048D01*
X18881871Y7995082D01*
X18831258Y7974117D01*
X18831257Y7974117D01*
X18831255Y7974116D01*
X18723787Y7952740D01*
X18614213Y7952740D01*
X18506745Y7974116D01*
X18506743Y7974117D01*
X18506742Y7974117D01*
X18456129Y7995082D01*
X18405512Y8016048D01*
X18314405Y8076924D01*
X18236924Y8154405D01*
X18176048Y8245512D01*
X18134116Y8346745D01*
X18112740Y8454213D01*
X18112740Y8563787D01*
X18134116Y8671255D01*
X18176048Y8772488D01*
X18236924Y8863595D01*
X18314405Y8941076D01*
X18405512Y9001952D01*
X18456129Y9022918D01*
X18506742Y9043883D01*
X18506743Y9043883D01*
X18506745Y9043884D01*
X18614213Y9065260D01*
X18723787Y9065260D01*
X18831255Y9043884D01*
G37*
G36*
X11211255Y9043884D02*
G01*
X11211257Y9043883D01*
X11211258Y9043883D01*
X11261871Y9022918D01*
X11312488Y9001952D01*
X11403595Y8941076D01*
X11481076Y8863595D01*
X11541952Y8772488D01*
X11583884Y8671255D01*
X11605260Y8563787D01*
X11605260Y8454213D01*
X11583884Y8346745D01*
X11541952Y8245512D01*
X11481076Y8154405D01*
X11403595Y8076924D01*
X11312488Y8016048D01*
X11261871Y7995082D01*
X11211258Y7974117D01*
X11211257Y7974117D01*
X11211255Y7974116D01*
X11103787Y7952740D01*
X10994213Y7952740D01*
X10886745Y7974116D01*
X10886743Y7974117D01*
X10886742Y7974117D01*
X10836129Y7995082D01*
X10785512Y8016048D01*
X10694405Y8076924D01*
X10616924Y8154405D01*
X10556048Y8245512D01*
X10514116Y8346745D01*
X10492740Y8454213D01*
X10492740Y8563787D01*
X10514116Y8671255D01*
X10556048Y8772488D01*
X10616924Y8863595D01*
X10694405Y8941076D01*
X10785512Y9001952D01*
X10836129Y9022918D01*
X10886742Y9043883D01*
X10886743Y9043883D01*
X10886745Y9043884D01*
X10994213Y9065260D01*
X11103787Y9065260D01*
X11211255Y9043884D01*
G37*
G36*
X1051255Y9043884D02*
G01*
X1051257Y9043883D01*
X1051258Y9043883D01*
X1101871Y9022918D01*
X1152488Y9001952D01*
X1243595Y8941076D01*
X1321076Y8863595D01*
X1381952Y8772488D01*
X1423884Y8671255D01*
X1445260Y8563787D01*
X1445260Y8454213D01*
X1423884Y8346745D01*
X1381952Y8245512D01*
X1321076Y8154405D01*
X1243595Y8076924D01*
X1152488Y8016048D01*
X1101871Y7995082D01*
X1051258Y7974117D01*
X1051257Y7974117D01*
X1051255Y7974116D01*
X943787Y7952740D01*
X834213Y7952740D01*
X726745Y7974116D01*
X726743Y7974117D01*
X726742Y7974117D01*
X676129Y7995082D01*
X625512Y8016048D01*
X534405Y8076924D01*
X456924Y8154405D01*
X396048Y8245512D01*
X354116Y8346745D01*
X332740Y8454213D01*
X332740Y8563787D01*
X354116Y8671255D01*
X396048Y8772488D01*
X456924Y8863595D01*
X534405Y8941076D01*
X625512Y9001952D01*
X676129Y9022918D01*
X726742Y9043883D01*
X726743Y9043883D01*
X726745Y9043884D01*
X834213Y9065260D01*
X943787Y9065260D01*
X1051255Y9043884D01*
G37*
G36*
X3591255Y9043884D02*
G01*
X3591257Y9043883D01*
X3591258Y9043883D01*
X3641871Y9022918D01*
X3692488Y9001952D01*
X3783595Y8941076D01*
X3861076Y8863595D01*
X3921952Y8772488D01*
X3963884Y8671255D01*
X3985260Y8563787D01*
X3985260Y8454213D01*
X3963884Y8346745D01*
X3921952Y8245512D01*
X3861076Y8154405D01*
X3783595Y8076924D01*
X3692488Y8016048D01*
X3641871Y7995082D01*
X3591258Y7974117D01*
X3591257Y7974117D01*
X3591255Y7974116D01*
X3483787Y7952740D01*
X3374213Y7952740D01*
X3266745Y7974116D01*
X3266743Y7974117D01*
X3266742Y7974117D01*
X3216129Y7995082D01*
X3165512Y8016048D01*
X3074405Y8076924D01*
X2996924Y8154405D01*
X2936048Y8245512D01*
X2894116Y8346745D01*
X2872740Y8454213D01*
X2872740Y8563787D01*
X2894116Y8671255D01*
X2936048Y8772488D01*
X2996924Y8863595D01*
X3074405Y8941076D01*
X3165512Y9001952D01*
X3216129Y9022918D01*
X3266742Y9043883D01*
X3266743Y9043883D01*
X3266745Y9043884D01*
X3374213Y9065260D01*
X3483787Y9065260D01*
X3591255Y9043884D01*
G37*
G36*
X6131255Y9043884D02*
G01*
X6131257Y9043883D01*
X6131258Y9043883D01*
X6181871Y9022918D01*
X6232488Y9001952D01*
X6323595Y8941076D01*
X6401076Y8863595D01*
X6461952Y8772488D01*
X6503884Y8671255D01*
X6525260Y8563787D01*
X6525260Y8454213D01*
X6503884Y8346745D01*
X6461952Y8245512D01*
X6401076Y8154405D01*
X6323595Y8076924D01*
X6232488Y8016048D01*
X6181871Y7995082D01*
X6131258Y7974117D01*
X6131257Y7974117D01*
X6131255Y7974116D01*
X6023787Y7952740D01*
X5914213Y7952740D01*
X5806745Y7974116D01*
X5806743Y7974117D01*
X5806742Y7974117D01*
X5756129Y7995082D01*
X5705512Y8016048D01*
X5614405Y8076924D01*
X5536924Y8154405D01*
X5476048Y8245512D01*
X5434116Y8346745D01*
X5412740Y8454213D01*
X5412740Y8563787D01*
X5434116Y8671255D01*
X5476048Y8772488D01*
X5536924Y8863595D01*
X5614405Y8941076D01*
X5705512Y9001952D01*
X5756129Y9022918D01*
X5806742Y9043883D01*
X5806743Y9043883D01*
X5806745Y9043884D01*
X5914213Y9065260D01*
X6023787Y9065260D01*
X6131255Y9043884D01*
G37*
G36*
X16291255Y9043884D02*
G01*
X16291257Y9043883D01*
X16291258Y9043883D01*
X16341871Y9022918D01*
X16392488Y9001952D01*
X16483595Y8941076D01*
X16561076Y8863595D01*
X16621952Y8772488D01*
X16663884Y8671255D01*
X16685260Y8563787D01*
X16685260Y8454213D01*
X16663884Y8346745D01*
X16621952Y8245512D01*
X16561076Y8154405D01*
X16483595Y8076924D01*
X16392488Y8016048D01*
X16341871Y7995082D01*
X16291258Y7974117D01*
X16291257Y7974117D01*
X16291255Y7974116D01*
X16183787Y7952740D01*
X16074213Y7952740D01*
X15966745Y7974116D01*
X15966743Y7974117D01*
X15966742Y7974117D01*
X15916129Y7995082D01*
X15865512Y8016048D01*
X15774405Y8076924D01*
X15696924Y8154405D01*
X15636048Y8245512D01*
X15594116Y8346745D01*
X15572740Y8454213D01*
X15572740Y8563787D01*
X15594116Y8671255D01*
X15636048Y8772488D01*
X15696924Y8863595D01*
X15774405Y8941076D01*
X15865512Y9001952D01*
X15916129Y9022918D01*
X15966742Y9043883D01*
X15966743Y9043883D01*
X15966745Y9043884D01*
X16074213Y9065260D01*
X16183787Y9065260D01*
X16291255Y9043884D01*
G37*
M02*
