%TF.GenerationSoftware,KiCad,Pcbnew,5.1.5-1.fc31*%
%TF.CreationDate,2020-04-05T23:19:50-07:00*%
%TF.ProjectId,prom,70726f6d-2e6b-4696-9361-645f70636258,rev?*%
%TF.SameCoordinates,PX8461678PY580d428*%
%TF.FileFunction,Copper,L1,Top*%
%TF.FilePolarity,Positive*%
%FSLAX46Y46*%
G04 Gerber Fmt 4.6, Leading zero omitted, Abs format (unit mm)*
G04 Created by KiCad (PCBNEW 5.1.5-1.fc31) date 2020-04-05 23:19:50*
%MOMM*%
%LPD*%
G04 APERTURE LIST*
%TA.AperFunction,SMDPad,CuDef*%
%ADD10O,0.300000X0.100000*%
%TD*%
%TA.AperFunction,SMDPad,CuDef*%
%ADD11O,0.100000X0.300000*%
%TD*%
%TA.AperFunction,BGAPad,CuDef*%
%ADD12C,0.200000*%
%TD*%
%TA.AperFunction,ComponentPad*%
%ADD13C,1.016000*%
%TD*%
%TA.AperFunction,ComponentPad*%
%ADD14C,0.508000*%
%TD*%
%TA.AperFunction,BGAPad,CuDef*%
%ADD15C,0.225000*%
%TD*%
%TA.AperFunction,BGAPad,CuDef*%
%ADD16C,0.230000*%
%TD*%
%TA.AperFunction,BGAPad,CuDef*%
%ADD17C,0.250000*%
%TD*%
%TA.AperFunction,ViaPad*%
%ADD18C,0.508000*%
%TD*%
%TA.AperFunction,Conductor*%
%ADD19C,0.152400*%
%TD*%
%TA.AperFunction,Conductor*%
%ADD20C,0.099822*%
%TD*%
G04 APERTURE END LIST*
D10*
%TO.P,U10,F6*%
%TO.N,+3V3*%
X10779000Y3729000D03*
%TO.P,U10,E6*%
%TO.N,Net-(U10-PadE6)*%
X10779000Y4129000D03*
%TO.P,U10,D6*%
%TO.N,A2*%
X10779000Y4529000D03*
%TO.P,U10,C6*%
%TO.N,OE_N*%
X10779000Y4929000D03*
%TO.P,U10,B6*%
%TO.N,D3*%
X10779000Y5329000D03*
%TO.P,U10,A6*%
%TO.N,+3V3*%
X10779000Y5729000D03*
D11*
%TO.P,U10,F5*%
%TO.N,Net-(TP4-Pad1)*%
X10379000Y3729000D03*
D12*
%TO.P,U10,E5*%
%TO.N,Net-(TP6-Pad1)*%
X10379000Y4129000D03*
%TO.P,U10,D5*%
%TO.N,Net-(R2-Pad2)*%
X10379000Y4529000D03*
%TO.P,U10,C5*%
%TO.N,Net-(U10-PadC5)*%
X10379000Y4929000D03*
%TO.P,U10,B5*%
%TO.N,D2*%
X10379000Y5329000D03*
D11*
%TO.P,U10,A5*%
%TO.N,+3V3*%
X10379000Y5729000D03*
%TO.P,U10,F4*%
%TO.N,Net-(R1-Pad2)*%
X9979000Y3729000D03*
D12*
%TO.P,U10,E4*%
%TO.N,Net-(TP3-Pad1)*%
X9979000Y4129000D03*
%TO.P,U10,D4*%
%TO.N,GND*%
X9979000Y4529000D03*
%TO.P,U10,C4*%
%TO.N,Net-(U10-PadC4)*%
X9979000Y4929000D03*
%TO.P,U10,B4*%
%TO.N,D1*%
X9979000Y5329000D03*
D11*
%TO.P,U10,A4*%
%TO.N,+3V3*%
X9979000Y5729000D03*
%TO.P,U10,F3*%
%TO.N,Net-(U10-PadF3)*%
X9579000Y3729000D03*
D12*
%TO.P,U10,E3*%
%TO.N,Net-(U10-PadE3)*%
X9579000Y4129000D03*
%TO.P,U10,D3*%
%TO.N,GND*%
X9579000Y4529000D03*
%TO.P,U10,C3*%
%TO.N,Net-(U10-PadC3)*%
X9579000Y4929000D03*
%TO.P,U10,B3*%
%TO.N,D0*%
X9579000Y5329000D03*
D11*
%TO.P,U10,A3*%
%TO.N,CE1_N*%
X9579000Y5729000D03*
%TO.P,U10,F2*%
%TO.N,A1*%
X9179000Y3729000D03*
D12*
%TO.P,U10,E2*%
%TO.N,A0*%
X9179000Y4129000D03*
%TO.P,U10,D2*%
%TO.N,GND*%
X9179000Y4529000D03*
%TO.P,U10,C2*%
%TO.N,A5*%
X9179000Y4929000D03*
%TO.P,U10,B2*%
%TO.N,+1V2*%
X9179000Y5329000D03*
D11*
%TO.P,U10,A2*%
%TO.N,CE2_N*%
X9179000Y5729000D03*
D12*
%TO.P,U10,F1*%
%TO.N,+3V3*%
X8779000Y3729000D03*
D10*
%TO.P,U10,E1*%
%TO.N,A3*%
X8779000Y4129000D03*
%TO.P,U10,D1*%
%TO.N,Net-(U10-PadD1)*%
X8779000Y4529000D03*
%TO.P,U10,C1*%
%TO.N,A4*%
X8779000Y4929000D03*
%TO.P,U10,B1*%
%TO.N,A6*%
X8779000Y5329000D03*
D12*
%TO.P,U10,A1*%
%TO.N,A7*%
X8779000Y5729000D03*
%TD*%
D13*
%TO.P,J1,16*%
%TO.N,+5V*%
X889000Y8509000D03*
%TO.P,J1,15*%
%TO.N,/Sheet5E85C2D6/DIP_A7*%
X3429000Y8509000D03*
%TO.P,J1,14*%
%TO.N,/Sheet5E85C2D6/DIP_CE2_N*%
X5969000Y8509000D03*
%TO.P,J1,13*%
%TO.N,/Sheet5E85C2D6/DIP_CE1_N*%
X8509000Y8509000D03*
%TO.P,J1,12*%
%TO.N,/Sheet5E85C2D6/DIP_D0*%
X11049000Y8509000D03*
%TO.P,J1,11*%
%TO.N,/Sheet5E85C2D6/DIP_D1*%
X13589000Y8509000D03*
%TO.P,J1,10*%
%TO.N,/Sheet5E85C2D6/DIP_D2*%
X16129000Y8509000D03*
%TO.P,J1,9*%
%TO.N,/Sheet5E85C2D6/DIP_D3*%
X18669000Y8509000D03*
%TO.P,J1,8*%
%TO.N,GND*%
X18669000Y889000D03*
%TO.P,J1,7*%
%TO.N,/Sheet5E85C2D6/DIP_A2*%
X16129000Y889000D03*
%TO.P,J1,6*%
%TO.N,/Sheet5E85C2D6/DIP_A1*%
X13589000Y889000D03*
%TO.P,J1,5*%
%TO.N,/Sheet5E85C2D6/DIP_A0*%
X11049000Y889000D03*
%TO.P,J1,4*%
%TO.N,/Sheet5E85C2D6/DIP_A3*%
X8509000Y889000D03*
%TO.P,J1,3*%
%TO.N,/Sheet5E85C2D6/DIP_A4*%
X5969000Y889000D03*
%TO.P,J1,2*%
%TO.N,/Sheet5E85C2D6/DIP_A5*%
X3429000Y889000D03*
%TO.P,J1,1*%
%TO.N,/Sheet5E85C2D6/DIP_A6*%
X889000Y889000D03*
%TD*%
D14*
%TO.P,TP1,1*%
%TO.N,+3V3*%
X1949000Y2899000D03*
%TD*%
%TO.P,TP2,1*%
%TO.N,+1V2*%
X6439000Y4879000D03*
%TD*%
%TO.P,TP3,1*%
%TO.N,Net-(TP3-Pad1)*%
X18259000Y2549000D03*
%TD*%
%TO.P,TP4,1*%
%TO.N,Net-(TP4-Pad1)*%
X17439000Y5029000D03*
%TD*%
%TO.P,TP5,1*%
%TO.N,Net-(R1-Pad2)*%
X12309000Y1259000D03*
%TD*%
%TO.P,TP6,1*%
%TO.N,Net-(TP6-Pad1)*%
X17129000Y2089000D03*
%TD*%
%TO.P,TP7,1*%
%TO.N,Net-(R2-Pad2)*%
X18559000Y4889000D03*
%TD*%
D15*
%TO.P,U3,6*%
%TO.N,A1*%
X14351000Y2532000D03*
%TO.P,U3,5*%
%TO.N,+3V3*%
X14851000Y2532000D03*
%TO.P,U3,4*%
%TO.N,A2*%
X15351000Y2532000D03*
%TO.P,U3,3*%
%TO.N,/Sheet5E85C2D6/DIP_A2*%
X15351000Y2032000D03*
%TO.P,U3,2*%
%TO.N,GND*%
X14851000Y2032000D03*
%TO.P,U3,1*%
%TO.N,/Sheet5E85C2D6/DIP_A1*%
X14351000Y2032000D03*
%TD*%
%TO.P,U4,6*%
%TO.N,A3*%
X9271000Y2532000D03*
%TO.P,U4,5*%
%TO.N,+3V3*%
X9771000Y2532000D03*
%TO.P,U4,4*%
%TO.N,A0*%
X10271000Y2532000D03*
%TO.P,U4,3*%
%TO.N,/Sheet5E85C2D6/DIP_A0*%
X10271000Y2032000D03*
%TO.P,U4,2*%
%TO.N,GND*%
X9771000Y2032000D03*
%TO.P,U4,1*%
%TO.N,/Sheet5E85C2D6/DIP_A3*%
X9271000Y2032000D03*
%TD*%
%TO.P,U5,6*%
%TO.N,A5*%
X4191000Y2532000D03*
%TO.P,U5,5*%
%TO.N,+3V3*%
X4691000Y2532000D03*
%TO.P,U5,4*%
%TO.N,A4*%
X5191000Y2532000D03*
%TO.P,U5,3*%
%TO.N,/Sheet5E85C2D6/DIP_A4*%
X5191000Y2032000D03*
%TO.P,U5,2*%
%TO.N,GND*%
X4691000Y2032000D03*
%TO.P,U5,1*%
%TO.N,/Sheet5E85C2D6/DIP_A5*%
X4191000Y2032000D03*
%TD*%
%TO.P,U6,6*%
%TO.N,A7*%
X3421000Y5080000D03*
%TO.P,U6,5*%
%TO.N,+3V3*%
X3421000Y4580000D03*
%TO.P,U6,4*%
%TO.N,A6*%
X3421000Y4080000D03*
%TO.P,U6,3*%
%TO.N,/Sheet5E85C2D6/DIP_A6*%
X2921000Y4080000D03*
%TO.P,U6,2*%
%TO.N,GND*%
X2921000Y4580000D03*
%TO.P,U6,1*%
%TO.N,/Sheet5E85C2D6/DIP_A7*%
X2921000Y5080000D03*
%TD*%
%TO.P,U7,6*%
%TO.N,CE1_N*%
X7747000Y6739000D03*
%TO.P,U7,5*%
%TO.N,+3V3*%
X7247000Y6739000D03*
%TO.P,U7,4*%
%TO.N,CE2_N*%
X6747000Y6739000D03*
%TO.P,U7,3*%
%TO.N,/Sheet5E85C2D6/DIP_CE2_N*%
X6747000Y7239000D03*
%TO.P,U7,2*%
%TO.N,GND*%
X7247000Y7239000D03*
%TO.P,U7,1*%
%TO.N,/Sheet5E85C2D6/DIP_CE1_N*%
X7747000Y7239000D03*
%TD*%
D16*
%TO.P,U8,A2*%
%TO.N,+3V3*%
X11565000Y7235000D03*
%TO.P,U8,B2*%
%TO.N,OE_N*%
X12065000Y7235000D03*
%TO.P,U8,C2*%
%TO.N,/Sheet5E85C2D6/DIP_D0*%
X12565000Y7235000D03*
%TO.P,U8,D2*%
%TO.N,D1*%
X13065000Y7235000D03*
%TO.P,U8,D1*%
%TO.N,GND*%
X13065000Y6735000D03*
%TO.P,U8,C1*%
%TO.N,/Sheet5E85C2D6/DIP_D1*%
X12565000Y6735000D03*
%TO.P,U8,B1*%
%TO.N,D0*%
X12065000Y6735000D03*
%TO.P,U8,A1*%
%TO.N,OE_N*%
X11565000Y6735000D03*
%TD*%
%TO.P,U9,A2*%
%TO.N,+3V3*%
X16649000Y7235000D03*
%TO.P,U9,B2*%
%TO.N,OE_N*%
X17149000Y7235000D03*
%TO.P,U9,C2*%
%TO.N,/Sheet5E85C2D6/DIP_D2*%
X17649000Y7235000D03*
%TO.P,U9,D2*%
%TO.N,D3*%
X18149000Y7235000D03*
%TO.P,U9,D1*%
%TO.N,GND*%
X18149000Y6735000D03*
%TO.P,U9,C1*%
%TO.N,/Sheet5E85C2D6/DIP_D3*%
X17649000Y6735000D03*
%TO.P,U9,B1*%
%TO.N,D2*%
X17149000Y6735000D03*
%TO.P,U9,A1*%
%TO.N,OE_N*%
X16649000Y6735000D03*
%TD*%
D17*
%TO.P,U11,A3*%
%TO.N,Net-(R2-Pad2)*%
X13889000Y4779000D03*
%TO.P,U11,C3*%
%TO.N,Net-(TP4-Pad1)*%
X14289000Y4779000D03*
%TO.P,U11,E3*%
%TO.N,Net-(U11-PadE3)*%
X14689000Y4779000D03*
%TO.P,U11,E1*%
%TO.N,Net-(TP6-Pad1)*%
X14689000Y4079000D03*
%TO.P,U11,A1*%
%TO.N,+3V3*%
X13889000Y4079000D03*
%TO.P,U11,C1*%
%TO.N,Net-(U11-PadC1)*%
X14289000Y4079000D03*
%TO.P,U11,B2*%
%TO.N,GND*%
X14089000Y4429000D03*
%TO.P,U11,D2*%
%TO.N,Net-(TP3-Pad1)*%
X14489000Y4429000D03*
%TD*%
D18*
%TO.N,GND*%
X7289000Y7829000D03*
X14839000Y1379000D03*
X9739000Y1329000D03*
X4639000Y1329000D03*
X2439000Y4529000D03*
X1989000Y7629000D03*
X969000Y2919000D03*
X4129000Y6089000D03*
X599000Y5329000D03*
X589000Y4639000D03*
X2299000Y5229000D03*
X5889000Y6062832D03*
X4250241Y3804581D03*
X8139000Y4325257D03*
X13083511Y6272505D03*
X18218998Y6149000D03*
X4129000Y5195168D03*
X13039000Y4399000D03*
%TO.N,+3V3*%
X18789000Y3979000D03*
X4589000Y6849000D03*
X5449000Y6839000D03*
X4999000Y3089000D03*
X7298999Y6289000D03*
X8291924Y3079353D03*
X9558998Y3009000D03*
X9949000Y6529000D03*
X13436713Y1800552D03*
X14799000Y3059000D03*
X11534073Y5866867D03*
X3935623Y4618916D03*
X11240649Y3404515D03*
X13049000Y3759000D03*
X10759000Y7509000D03*
X15929000Y7289000D03*
%TO.N,/Sheet5E85C2D6/DIP_D3*%
X19144489Y5900080D03*
X17569225Y5879527D03*
%TO.N,/Sheet5E85C2D6/DIP_D1*%
X14097000Y6279000D03*
X12439000Y6249000D03*
%TO.N,Net-(R1-Pad2)*%
X11009000Y1989000D03*
%TO.N,Net-(R2-Pad2)*%
X16409004Y4639000D03*
X12139000Y4279000D03*
%TO.N,Net-(TP3-Pad1)*%
X16819000Y3119000D03*
X14129000Y3209000D03*
%TO.N,Net-(TP4-Pad1)*%
X15623488Y4843532D03*
X15739000Y3619000D03*
%TO.N,A2*%
X15449000Y3069000D03*
X12365906Y3659000D03*
%TO.N,A1*%
X8918998Y3049000D03*
X13629000Y2459000D03*
%TO.N,A4*%
X6039000Y2579000D03*
X6849000Y4239000D03*
%TO.N,OE_N*%
X10959000Y6874009D03*
X15199000Y6949000D03*
%TO.N,D2*%
X16879000Y6059000D03*
X14919000Y6299000D03*
%TO.N,D3*%
X11990413Y5146478D03*
X16079000Y5855257D03*
%TO.N,Net-(TP6-Pad1)*%
X11859000Y3229000D03*
%TD*%
D19*
%TO.N,GND*%
X13065000Y6735000D02*
X13065000Y6239000D01*
D20*
X9979000Y4529000D02*
X9579000Y4529000D01*
X9579000Y4529000D02*
X9179000Y4529000D01*
D19*
X7247000Y7239000D02*
X7247000Y7787000D01*
D20*
X7247000Y7787000D02*
X7289000Y7829000D01*
D19*
X14851000Y2032000D02*
X14851000Y1391000D01*
D20*
X14851000Y1391000D02*
X14839000Y1379000D01*
D19*
X9771000Y2032000D02*
X9771000Y1361000D01*
D20*
X9771000Y1361000D02*
X9739000Y1329000D01*
D19*
X4691000Y2032000D02*
X4691000Y1381000D01*
D20*
X4691000Y1381000D02*
X4639000Y1329000D01*
D19*
X2921000Y4580000D02*
X2490000Y4580000D01*
X2490000Y4580000D02*
X2439000Y4529000D01*
D20*
X9179000Y4529000D02*
X8978832Y4328832D01*
X8978832Y4328832D02*
X8142575Y4328832D01*
X8142575Y4328832D02*
X8139000Y4325257D01*
X13065000Y6253994D02*
X13083511Y6272505D01*
X13065000Y6239000D02*
X13065000Y6253994D01*
D19*
X18149000Y6218998D02*
X18218998Y6149000D01*
X18149000Y6735000D02*
X18149000Y6218998D01*
D20*
X14089000Y4429000D02*
X13069000Y4429000D01*
X13069000Y4429000D02*
X13039000Y4399000D01*
D19*
%TO.N,+3V3*%
X9771000Y2532000D02*
X9771000Y2997000D01*
X7247000Y6739000D02*
X7247000Y6371000D01*
X14851000Y2532000D02*
X14851000Y2991000D01*
X4691000Y2532000D02*
X4691000Y3031000D01*
D20*
X10379000Y5729000D02*
X10779000Y5729000D01*
X4691000Y3031000D02*
X4739000Y3079000D01*
X4739000Y3079000D02*
X4989000Y3079000D01*
X4989000Y3079000D02*
X4999000Y3089000D01*
X7298999Y6319001D02*
X7298999Y6289000D01*
X7247000Y6371000D02*
X7298999Y6319001D01*
X8779000Y3566429D02*
X8291924Y3079353D01*
X8779000Y3729000D02*
X8779000Y3566429D01*
X9570998Y2997000D02*
X9558998Y3009000D01*
X9771000Y2997000D02*
X9570998Y2997000D01*
X9979000Y5729000D02*
X9979000Y6499000D01*
X9979000Y6499000D02*
X9949000Y6529000D01*
X14799000Y3043000D02*
X14799000Y3059000D01*
X14851000Y2991000D02*
X14799000Y3043000D01*
X10916867Y5866867D02*
X11534073Y5866867D01*
X10779000Y5729000D02*
X10916867Y5866867D01*
D19*
X3421000Y4580000D02*
X3896707Y4580000D01*
X3896707Y4580000D02*
X3935623Y4618916D01*
D20*
X11103485Y3404515D02*
X11240649Y3404515D01*
X10779000Y3729000D02*
X11103485Y3404515D01*
X13569000Y3759000D02*
X13049000Y3759000D01*
X13889000Y4079000D02*
X13569000Y3759000D01*
D19*
X11291000Y7509000D02*
X10759000Y7509000D01*
X11565000Y7235000D02*
X11291000Y7509000D01*
X16649000Y7235000D02*
X15983000Y7235000D01*
X15983000Y7235000D02*
X15929000Y7289000D01*
D20*
%TO.N,+1V2*%
X9179000Y5329000D02*
X8979000Y5129000D01*
X8979000Y5129000D02*
X8239000Y5129000D01*
X6689000Y5129000D02*
X6449000Y4889000D01*
X8239000Y5129000D02*
X6689000Y5129000D01*
D19*
%TO.N,/Sheet5E85C2D6/DIP_A6*%
X1199000Y889000D02*
X889000Y889000D01*
X2921000Y4080000D02*
X2921000Y2611000D01*
X2921000Y2611000D02*
X1199000Y889000D01*
%TO.N,/Sheet5E85C2D6/DIP_A5*%
X4191000Y1651000D02*
X3429000Y889000D01*
X4191000Y2032000D02*
X4191000Y1651000D01*
%TO.N,/Sheet5E85C2D6/DIP_A4*%
X5191000Y1667000D02*
X5969000Y889000D01*
X5191000Y2032000D02*
X5191000Y1667000D01*
%TO.N,/Sheet5E85C2D6/DIP_A3*%
X9271000Y1651000D02*
X8509000Y889000D01*
X9271000Y2032000D02*
X9271000Y1651000D01*
%TO.N,/Sheet5E85C2D6/DIP_A0*%
X10271000Y1667000D02*
X11049000Y889000D01*
X10271000Y2032000D02*
X10271000Y1667000D01*
%TO.N,/Sheet5E85C2D6/DIP_A1*%
X14351000Y1651000D02*
X13589000Y889000D01*
X14351000Y2032000D02*
X14351000Y1651000D01*
%TO.N,/Sheet5E85C2D6/DIP_A2*%
X15351000Y1667000D02*
X16129000Y889000D01*
X15351000Y2032000D02*
X15351000Y1667000D01*
%TO.N,/Sheet5E85C2D6/DIP_D3*%
X17649000Y6735000D02*
X17649000Y5959302D01*
X18669000Y8509000D02*
X19144489Y8033511D01*
X17649000Y5959302D02*
X17569225Y5879527D01*
X19144489Y8033511D02*
X19144489Y5900080D01*
%TO.N,/Sheet5E85C2D6/DIP_D2*%
X17649000Y7235000D02*
X17649000Y7751000D01*
X16891000Y8509000D02*
X16129000Y8509000D01*
X17649000Y7751000D02*
X16891000Y8509000D01*
%TO.N,/Sheet5E85C2D6/DIP_D1*%
X14439000Y7659000D02*
X14439000Y6621000D01*
X14439000Y6621000D02*
X14097000Y6279000D01*
X13589000Y8509000D02*
X14439000Y7659000D01*
X12565000Y6375000D02*
X12439000Y6249000D01*
X12565000Y6735000D02*
X12565000Y6375000D01*
%TO.N,/Sheet5E85C2D6/DIP_D0*%
X12565000Y7235000D02*
X12565000Y7755000D01*
X11811000Y8509000D02*
X11049000Y8509000D01*
X12565000Y7755000D02*
X11811000Y8509000D01*
%TO.N,/Sheet5E85C2D6/DIP_CE1_N*%
X7747000Y7747000D02*
X8509000Y8509000D01*
X7747000Y7239000D02*
X7747000Y7747000D01*
%TO.N,/Sheet5E85C2D6/DIP_CE2_N*%
X6747000Y7731000D02*
X5969000Y8509000D01*
X6747000Y7239000D02*
X6747000Y7731000D01*
%TO.N,/Sheet5E85C2D6/DIP_A7*%
X2921000Y8001000D02*
X3429000Y8509000D01*
X2921000Y5080000D02*
X2921000Y8001000D01*
D20*
%TO.N,Net-(R1-Pad2)*%
X9979000Y3464167D02*
X11009000Y2434167D01*
X11009000Y2434167D02*
X11009000Y1989000D01*
X9979000Y3729000D02*
X9979000Y3464167D01*
%TO.N,Net-(R2-Pad2)*%
X10379000Y4529000D02*
X10579000Y4729000D01*
X10579000Y4729000D02*
X11289000Y4729000D01*
D19*
X16779000Y4639000D02*
X16409004Y4639000D01*
X16999000Y4419000D02*
X16779000Y4639000D01*
X16999000Y4419000D02*
X18089000Y4419000D01*
X18089000Y4419000D02*
X18559000Y4889000D01*
D20*
X12662735Y4802735D02*
X12139000Y4279000D01*
X13865265Y4802735D02*
X12662735Y4802735D01*
X11739000Y4279000D02*
X12139000Y4279000D01*
X11289000Y4729000D02*
X11739000Y4279000D01*
X13889000Y4779000D02*
X13865265Y4802735D01*
D19*
%TO.N,Net-(TP3-Pad1)*%
X17689000Y3119000D02*
X18259000Y2549000D01*
X16819000Y3119000D02*
X17689000Y3119000D01*
D20*
X13795536Y2875536D02*
X14129000Y3209000D01*
X12845536Y2875536D02*
X13795536Y2875536D01*
X12509000Y2539000D02*
X12845536Y2875536D01*
X10178743Y3929257D02*
X10178743Y3546778D01*
X10178743Y3546778D02*
X11186521Y2539000D01*
X9979000Y4129000D02*
X10178743Y3929257D01*
X11186521Y2539000D02*
X12509000Y2539000D01*
X16819000Y3569000D02*
X16819000Y3119000D01*
X14489000Y4429000D02*
X15959000Y4429000D01*
X15959000Y4429000D02*
X16819000Y3569000D01*
%TO.N,Net-(TP4-Pad1)*%
X16509000Y5299000D02*
X16078956Y5299000D01*
X16078956Y5299000D02*
X15623488Y4843532D01*
X16509000Y5299000D02*
X16559000Y5299000D01*
X16559000Y5299000D02*
X16829000Y5029000D01*
X16829000Y5029000D02*
X17429000Y5029000D01*
X15178020Y5289000D02*
X15623488Y4843532D01*
X14289000Y4779000D02*
X14799000Y5289000D01*
X14799000Y5289000D02*
X15178020Y5289000D01*
X11267986Y2785265D02*
X12293544Y2785265D01*
X10379000Y3674251D02*
X11267986Y2785265D01*
X12583469Y3075190D02*
X13325190Y3075190D01*
X12293544Y2785265D02*
X12583469Y3075190D01*
X10379000Y3729000D02*
X10379000Y3674251D01*
X13869000Y3619000D02*
X15739000Y3619000D01*
X13325190Y3075190D02*
X13869000Y3619000D01*
%TO.N,A2*%
X15351000Y2532000D02*
X15351000Y2971000D01*
X15351000Y2971000D02*
X15449000Y3069000D01*
X10779000Y4529000D02*
X11132754Y4529000D01*
X11132754Y4529000D02*
X12002754Y3659000D01*
X12002754Y3659000D02*
X12365906Y3659000D01*
%TO.N,A1*%
X9179000Y3729000D02*
X9179000Y3309002D01*
X9179000Y3309002D02*
X8918998Y3049000D01*
X14278000Y2459000D02*
X13629000Y2459000D01*
X14351000Y2532000D02*
X14278000Y2459000D01*
%TO.N,A0*%
X9738074Y3422739D02*
X10271000Y2889813D01*
X9477616Y3422739D02*
X9738074Y3422739D01*
X9179000Y4129000D02*
X9378743Y3929257D01*
X10271000Y2889813D02*
X10271000Y2532000D01*
X9378743Y3521612D02*
X9477616Y3422739D01*
X9378743Y3929257D02*
X9378743Y3521612D01*
%TO.N,A3*%
X7875265Y2892735D02*
X8236000Y2532000D01*
X7875265Y3355265D02*
X7875265Y2892735D01*
X8779000Y4129000D02*
X8649000Y4129000D01*
X8236000Y2532000D02*
X9271000Y2532000D01*
X8649000Y4129000D02*
X7875265Y3355265D01*
%TO.N,A5*%
X9179000Y4929000D02*
X8979000Y4729000D01*
X8979000Y4729000D02*
X8239000Y4729000D01*
X4191000Y3011000D02*
X4191000Y2532000D01*
X4679000Y3499000D02*
X4191000Y3011000D01*
X6719000Y3499000D02*
X4679000Y3499000D01*
X8239000Y4729000D02*
X7949000Y4729000D01*
X7949000Y4729000D02*
X6719000Y3499000D01*
%TO.N,A4*%
X5238000Y2579000D02*
X5191000Y2532000D01*
D19*
X6039000Y2579000D02*
X5238000Y2579000D01*
D20*
X8779000Y4929000D02*
X7539000Y4929000D01*
X7539000Y4929000D02*
X6849000Y4239000D01*
%TO.N,A6*%
X8748137Y5359863D02*
X5249863Y5359863D01*
X8779000Y5329000D02*
X8748137Y5359863D01*
X4098404Y4208404D02*
X3549404Y4208404D01*
X5249863Y5359863D02*
X4098404Y4208404D01*
X3549404Y4208404D02*
X3421000Y4080000D01*
%TO.N,A7*%
X3421000Y5231000D02*
X3421000Y5080000D01*
X8739000Y5689000D02*
X7959000Y5689000D01*
X8779000Y5729000D02*
X8739000Y5689000D01*
X7959000Y5689000D02*
X7869000Y5599000D01*
X7869000Y5599000D02*
X3789000Y5599000D01*
X3789000Y5599000D02*
X3421000Y5231000D01*
%TO.N,CE2_N*%
X6979000Y5859000D02*
X6747000Y6091000D01*
X9179000Y5939000D02*
X8989000Y6129000D01*
X8989000Y6129000D02*
X7874000Y6129000D01*
X7604000Y5859000D02*
X6979000Y5859000D01*
X6747000Y6091000D02*
X6747000Y6739000D01*
X9179000Y5729000D02*
X9179000Y5939000D01*
X7874000Y6129000D02*
X7604000Y5859000D01*
%TO.N,CE1_N*%
X9579000Y5729000D02*
X9579000Y5929000D01*
X8769000Y6739000D02*
X7747000Y6739000D01*
X9579000Y5929000D02*
X8769000Y6739000D01*
%TO.N,OE_N*%
X17149000Y7235000D02*
X16649000Y6735000D01*
X11565000Y6735000D02*
X12065000Y7235000D01*
X15745000Y6735000D02*
X16649000Y6735000D01*
D19*
X11565000Y6735000D02*
X11098009Y6735000D01*
X11098009Y6735000D02*
X10959000Y6874009D01*
X15399000Y6949000D02*
X15199000Y6949000D01*
X15745000Y6735000D02*
X15613000Y6735000D01*
X15613000Y6735000D02*
X15399000Y6949000D01*
D20*
X15008655Y5628655D02*
X15745000Y6365000D01*
X14679525Y5628655D02*
X15008655Y5628655D01*
X11591473Y4929000D02*
X11821473Y4699000D01*
X11821473Y4699000D02*
X12196646Y4699000D01*
X12196646Y4699000D02*
X12686646Y5189000D01*
X15745000Y6365000D02*
X15745000Y6735000D01*
X14239870Y5189000D02*
X14679525Y5628655D01*
X12686646Y5189000D02*
X14239870Y5189000D01*
X10779000Y4929000D02*
X11591473Y4929000D01*
D19*
%TO.N,D1*%
X13539000Y6029000D02*
X13289000Y5779000D01*
X13289000Y5779000D02*
X12219000Y5779000D01*
X13539000Y6908000D02*
X13539000Y6029000D01*
X13065000Y7235000D02*
X13212000Y7235000D01*
X13212000Y7235000D02*
X13539000Y6908000D01*
D20*
X9979000Y5329000D02*
X10179257Y5529257D01*
X10179257Y6119257D02*
X10330611Y6270611D01*
X10330611Y6270611D02*
X11757389Y6270611D01*
X10179257Y5529257D02*
X10179257Y6119257D01*
X12219000Y5809000D02*
X12219000Y5779000D01*
X11757389Y6270611D02*
X12219000Y5809000D01*
%TO.N,D0*%
X10169000Y6979000D02*
X10677734Y6470266D01*
X10677734Y6470266D02*
X11800266Y6470266D01*
X9779257Y5529257D02*
X9779257Y6081214D01*
X11800266Y6470266D02*
X12065000Y6735000D01*
X9579000Y5329000D02*
X9779257Y5529257D01*
X9779257Y6081214D02*
X9495265Y6365206D01*
X9495265Y6365206D02*
X9495265Y6752794D01*
X9721471Y6979000D02*
X10169000Y6979000D01*
X9495265Y6752794D02*
X9721471Y6979000D01*
%TO.N,D2*%
X16879000Y6465000D02*
X16879000Y6059000D01*
X17149000Y6735000D02*
X16879000Y6465000D01*
X11796619Y5550213D02*
X14170213Y5550213D01*
X11685406Y5439000D02*
X11796619Y5550213D01*
X14170213Y5550213D02*
X14919000Y6299000D01*
X11249000Y5439000D02*
X11685406Y5439000D01*
X10379000Y5329000D02*
X10579000Y5529000D01*
X11159000Y5529000D02*
X11249000Y5439000D01*
X10579000Y5529000D02*
X11159000Y5529000D01*
D19*
%TO.N,D3*%
X18719024Y6664976D02*
X18719024Y5962587D01*
X18149000Y7235000D02*
X18719024Y6664976D01*
X18719024Y5962587D02*
X18516600Y5760163D01*
D20*
X10899000Y5209000D02*
X11927891Y5209000D01*
X11927891Y5209000D02*
X11990413Y5146478D01*
X10779000Y5329000D02*
X10899000Y5209000D01*
X16782207Y5475793D02*
X16402743Y5855257D01*
X18516600Y5740400D02*
X18251993Y5475793D01*
X16402743Y5855257D02*
X16079000Y5855257D01*
X18251993Y5475793D02*
X16782207Y5475793D01*
%TO.N,Net-(TP6-Pad1)*%
X10379000Y4129000D02*
X10579257Y3928743D01*
X11336222Y3928743D02*
X11859000Y3405965D01*
X11859000Y3405965D02*
X11859000Y3229000D01*
X10579257Y3928743D02*
X11336222Y3928743D01*
X16296445Y3711555D02*
X16296445Y2791555D01*
X15928746Y4079254D02*
X16296445Y3711555D01*
X16296445Y2791555D02*
X17009000Y2079000D01*
X14689000Y4079000D02*
X14689254Y4079254D01*
X14689254Y4079254D02*
X15928746Y4079254D01*
%TD*%
M02*
