%TF.GenerationSoftware,KiCad,Pcbnew,5.1.5-1.fc31*%
%TF.CreationDate,2020-04-07T00:15:37-07:00*%
%TF.ProjectId,prom,70726f6d-2e6b-4696-9361-645f70636258,rev?*%
%TF.SameCoordinates,PX8461678PY580d428*%
%TF.FileFunction,Soldermask,Top*%
%TF.FilePolarity,Negative*%
%FSLAX46Y46*%
G04 Gerber Fmt 4.6, Leading zero omitted, Abs format (unit mm)*
G04 Created by KiCad (PCBNEW 5.1.5-1.fc31) date 2020-04-07 00:15:37*
%MOMM*%
%LPD*%
G04 APERTURE LIST*
%ADD10O,0.396520X0.196520*%
%ADD11O,0.196520X0.396520*%
%ADD12C,0.296520*%
%ADD13C,1.112520*%
%ADD14C,0.408000*%
%ADD15C,0.321520*%
%ADD16C,0.326520*%
%ADD17C,0.346520*%
%ADD18C,0.408000*%
G04 APERTURE END LIST*
D10*
%TO.C,U10*%
X10779000Y3729000D03*
X10779000Y4129000D03*
X10779000Y4529000D03*
X10779000Y4929000D03*
X10779000Y5329000D03*
X10779000Y5729000D03*
D11*
X10379000Y3729000D03*
D12*
X10379000Y4129000D03*
X10379000Y4529000D03*
X10379000Y4929000D03*
X10379000Y5329000D03*
D11*
X10379000Y5729000D03*
X9979000Y3729000D03*
D12*
X9979000Y4129000D03*
X9979000Y4529000D03*
X9979000Y4929000D03*
X9979000Y5329000D03*
D11*
X9979000Y5729000D03*
X9579000Y3729000D03*
D12*
X9579000Y4129000D03*
X9579000Y4529000D03*
X9579000Y4929000D03*
X9579000Y5329000D03*
D11*
X9579000Y5729000D03*
X9179000Y3729000D03*
D12*
X9179000Y4129000D03*
X9179000Y4529000D03*
X9179000Y4929000D03*
X9179000Y5329000D03*
D11*
X9179000Y5729000D03*
D12*
X8779000Y3729000D03*
D10*
X8779000Y4129000D03*
X8779000Y4529000D03*
X8779000Y4929000D03*
X8779000Y5329000D03*
D12*
X8779000Y5729000D03*
%TD*%
D13*
%TO.C,J1*%
X889000Y8509000D03*
X3429000Y8509000D03*
X5969000Y8509000D03*
X8509000Y8509000D03*
X11049000Y8509000D03*
X13589000Y8509000D03*
X16129000Y8509000D03*
X18669000Y8509000D03*
X18669000Y889000D03*
X16129000Y889000D03*
X13589000Y889000D03*
X11049000Y889000D03*
X8509000Y889000D03*
X5969000Y889000D03*
X3429000Y889000D03*
X889000Y889000D03*
%TD*%
D14*
%TO.C,TP1*%
X1949000Y2899000D03*
%TD*%
%TO.C,TP2*%
X6439000Y4879000D03*
%TD*%
%TO.C,TP3*%
X18259000Y2549000D03*
%TD*%
%TO.C,TP4*%
X17439000Y5029000D03*
%TD*%
%TO.C,TP5*%
X12309000Y1259000D03*
%TD*%
%TO.C,TP6*%
X17129000Y2089000D03*
%TD*%
%TO.C,TP7*%
X18559000Y4889000D03*
%TD*%
D15*
%TO.C,U3*%
X14351000Y2532000D03*
X14851000Y2532000D03*
X15351000Y2532000D03*
X15351000Y2032000D03*
X14851000Y2032000D03*
X14351000Y2032000D03*
%TD*%
%TO.C,U4*%
X9271000Y2532000D03*
X9771000Y2532000D03*
X10271000Y2532000D03*
X10271000Y2032000D03*
X9771000Y2032000D03*
X9271000Y2032000D03*
%TD*%
%TO.C,U5*%
X4191000Y2532000D03*
X4691000Y2532000D03*
X5191000Y2532000D03*
X5191000Y2032000D03*
X4691000Y2032000D03*
X4191000Y2032000D03*
%TD*%
%TO.C,U6*%
X3421000Y5080000D03*
X3421000Y4580000D03*
X3421000Y4080000D03*
X2921000Y4080000D03*
X2921000Y4580000D03*
X2921000Y5080000D03*
%TD*%
%TO.C,U7*%
X7747000Y6739000D03*
X7247000Y6739000D03*
X6747000Y6739000D03*
X6747000Y7239000D03*
X7247000Y7239000D03*
X7747000Y7239000D03*
%TD*%
D16*
%TO.C,U8*%
X11565000Y7235000D03*
X12065000Y7235000D03*
X12565000Y7235000D03*
X13065000Y7235000D03*
X13065000Y6735000D03*
X12565000Y6735000D03*
X12065000Y6735000D03*
X11565000Y6735000D03*
%TD*%
%TO.C,U9*%
X16649000Y7235000D03*
X17149000Y7235000D03*
X17649000Y7235000D03*
X18149000Y7235000D03*
X18149000Y6735000D03*
X17649000Y6735000D03*
X17149000Y6735000D03*
X16649000Y6735000D03*
%TD*%
D17*
%TO.C,U11*%
X13889000Y4779000D03*
X14289000Y4779000D03*
X14689000Y4779000D03*
X14689000Y4079000D03*
X13889000Y4079000D03*
X14289000Y4079000D03*
X14089000Y4429000D03*
X14489000Y4429000D03*
%TD*%
D18*
X7289000Y7829000D03*
X14839000Y1379000D03*
X9739000Y1329000D03*
X4639000Y1329000D03*
X2439000Y4529000D03*
X1989000Y7629000D03*
X969000Y2919000D03*
X4129000Y6089000D03*
X599000Y5329000D03*
X589000Y4639000D03*
X2299000Y5229000D03*
X5889000Y6062832D03*
X8139000Y4325257D03*
X13083511Y6272505D03*
X18218998Y6149000D03*
X4129000Y5195168D03*
X13039000Y4399000D03*
X4339000Y3679000D03*
X18789000Y3979000D03*
X4999000Y3089000D03*
X7298999Y6289000D03*
X9949000Y6529000D03*
X13436713Y1800552D03*
X14799000Y3059000D03*
X11534073Y5866867D03*
X10759000Y7509000D03*
X15929000Y7289000D03*
X5449000Y6954000D03*
X4589000Y6954000D03*
X11289000Y3354000D03*
X3964000Y4554000D03*
X13089000Y3704000D03*
X9564000Y3004000D03*
X8239000Y3079000D03*
X17569225Y5879527D03*
X18939000Y5554000D03*
X14097000Y6279000D03*
X12439000Y6249000D03*
X11009000Y1989000D03*
X16409004Y4639000D03*
X12139000Y4279000D03*
X16819000Y3119000D03*
X14129000Y3209000D03*
X15623488Y4843532D03*
X15739000Y3619000D03*
X15449000Y3069000D03*
X12365906Y3659000D03*
X13629000Y2459000D03*
X8889000Y3054000D03*
X6039000Y2579000D03*
X6849000Y4239000D03*
X10959000Y6874009D03*
X15199000Y6949000D03*
X16879000Y6059000D03*
X14919000Y6299000D03*
X11990413Y5146478D03*
X16079000Y5855257D03*
X11914000Y3204000D03*
M02*
