%TF.GenerationSoftware,KiCad,Pcbnew,5.1.5-1.fc31*%
%TF.CreationDate,2020-04-05T20:09:36-07:00*%
%TF.ProjectId,prom,70726f6d-2e6b-4696-9361-645f70636258,rev?*%
%TF.SameCoordinates,PX8461678PY580d428*%
%TF.FileFunction,Copper,L1,Top*%
%TF.FilePolarity,Positive*%
%FSLAX46Y46*%
G04 Gerber Fmt 4.6, Leading zero omitted, Abs format (unit mm)*
G04 Created by KiCad (PCBNEW 5.1.5-1.fc31) date 2020-04-05 20:09:36*
%MOMM*%
%LPD*%
G04 APERTURE LIST*
%TA.AperFunction,SMDPad,CuDef*%
%ADD10O,0.300000X0.100000*%
%TD*%
%TA.AperFunction,SMDPad,CuDef*%
%ADD11O,0.100000X0.300000*%
%TD*%
%TA.AperFunction,BGAPad,CuDef*%
%ADD12C,0.200000*%
%TD*%
%TA.AperFunction,ComponentPad*%
%ADD13C,1.016000*%
%TD*%
%TA.AperFunction,BGAPad,CuDef*%
%ADD14C,0.250000*%
%TD*%
%TA.AperFunction,BGAPad,CuDef*%
%ADD15C,0.225000*%
%TD*%
%TA.AperFunction,BGAPad,CuDef*%
%ADD16C,0.230000*%
%TD*%
%TA.AperFunction,ViaPad*%
%ADD17C,0.406400*%
%TD*%
%TA.AperFunction,Conductor*%
%ADD18C,0.152400*%
%TD*%
%TA.AperFunction,Conductor*%
%ADD19C,0.100000*%
%TD*%
%TA.AperFunction,Conductor*%
%ADD20C,0.099822*%
%TD*%
G04 APERTURE END LIST*
D10*
%TO.P,U10,F6*%
%TO.N,+3V3*%
X10779000Y3729000D03*
%TO.P,U10,E6*%
%TO.N,Net-(U10-PadE6)*%
X10779000Y4129000D03*
%TO.P,U10,D6*%
%TO.N,A2*%
X10779000Y4529000D03*
%TO.P,U10,C6*%
%TO.N,OE_N*%
X10779000Y4929000D03*
%TO.P,U10,B6*%
%TO.N,D3*%
X10779000Y5329000D03*
%TO.P,U10,A6*%
%TO.N,+3V3*%
X10779000Y5729000D03*
D11*
%TO.P,U10,F5*%
%TO.N,Net-(TP4-Pad1)*%
X10379000Y3729000D03*
D12*
%TO.P,U10,E5*%
%TO.N,Net-(TP6-Pad1)*%
X10379000Y4129000D03*
%TO.P,U10,D5*%
%TO.N,Net-(R2-Pad2)*%
X10379000Y4529000D03*
%TO.P,U10,C5*%
%TO.N,Net-(U10-PadC5)*%
X10379000Y4929000D03*
%TO.P,U10,B5*%
%TO.N,D2*%
X10379000Y5329000D03*
D11*
%TO.P,U10,A5*%
%TO.N,+3V3*%
X10379000Y5729000D03*
%TO.P,U10,F4*%
%TO.N,Net-(R1-Pad2)*%
X9979000Y3729000D03*
D12*
%TO.P,U10,E4*%
%TO.N,Net-(TP3-Pad1)*%
X9979000Y4129000D03*
%TO.P,U10,D4*%
%TO.N,GND*%
X9979000Y4529000D03*
%TO.P,U10,C4*%
%TO.N,Net-(U10-PadC4)*%
X9979000Y4929000D03*
%TO.P,U10,B4*%
%TO.N,D1*%
X9979000Y5329000D03*
D11*
%TO.P,U10,A4*%
%TO.N,+3V3*%
X9979000Y5729000D03*
%TO.P,U10,F3*%
%TO.N,Net-(U10-PadF3)*%
X9579000Y3729000D03*
D12*
%TO.P,U10,E3*%
%TO.N,Net-(U10-PadE3)*%
X9579000Y4129000D03*
%TO.P,U10,D3*%
%TO.N,GND*%
X9579000Y4529000D03*
%TO.P,U10,C3*%
%TO.N,Net-(U10-PadC3)*%
X9579000Y4929000D03*
%TO.P,U10,B3*%
%TO.N,D0*%
X9579000Y5329000D03*
D11*
%TO.P,U10,A3*%
%TO.N,CE1_N*%
X9579000Y5729000D03*
%TO.P,U10,F2*%
%TO.N,A1*%
X9179000Y3729000D03*
D12*
%TO.P,U10,E2*%
%TO.N,A0*%
X9179000Y4129000D03*
%TO.P,U10,D2*%
%TO.N,GND*%
X9179000Y4529000D03*
%TO.P,U10,C2*%
%TO.N,A5*%
X9179000Y4929000D03*
%TO.P,U10,B2*%
%TO.N,+1V2*%
X9179000Y5329000D03*
D11*
%TO.P,U10,A2*%
%TO.N,CE2_N*%
X9179000Y5729000D03*
D12*
%TO.P,U10,F1*%
%TO.N,+3V3*%
X8779000Y3729000D03*
D10*
%TO.P,U10,E1*%
%TO.N,A3*%
X8779000Y4129000D03*
%TO.P,U10,D1*%
%TO.N,Net-(U10-PadD1)*%
X8779000Y4529000D03*
%TO.P,U10,C1*%
%TO.N,A4*%
X8779000Y4929000D03*
%TO.P,U10,B1*%
%TO.N,A6*%
X8779000Y5329000D03*
D12*
%TO.P,U10,A1*%
%TO.N,A7*%
X8779000Y5729000D03*
%TD*%
D13*
%TO.P,J1,16*%
%TO.N,+5V*%
X889000Y8509000D03*
%TO.P,J1,15*%
%TO.N,/Sheet5E85C2D6/DIP_A7*%
X3429000Y8509000D03*
%TO.P,J1,14*%
%TO.N,/Sheet5E85C2D6/DIP_CE2_N*%
X5969000Y8509000D03*
%TO.P,J1,13*%
%TO.N,/Sheet5E85C2D6/DIP_CE1_N*%
X8509000Y8509000D03*
%TO.P,J1,12*%
%TO.N,/Sheet5E85C2D6/DIP_D0*%
X11049000Y8509000D03*
%TO.P,J1,11*%
%TO.N,/Sheet5E85C2D6/DIP_D1*%
X13589000Y8509000D03*
%TO.P,J1,10*%
%TO.N,/Sheet5E85C2D6/DIP_D2*%
X16129000Y8509000D03*
%TO.P,J1,9*%
%TO.N,/Sheet5E85C2D6/DIP_D3*%
X18669000Y8509000D03*
%TO.P,J1,8*%
%TO.N,GND*%
X18669000Y889000D03*
%TO.P,J1,7*%
%TO.N,/Sheet5E85C2D6/DIP_A2*%
X16129000Y889000D03*
%TO.P,J1,6*%
%TO.N,/Sheet5E85C2D6/DIP_A1*%
X13589000Y889000D03*
%TO.P,J1,5*%
%TO.N,/Sheet5E85C2D6/DIP_A0*%
X11049000Y889000D03*
%TO.P,J1,4*%
%TO.N,/Sheet5E85C2D6/DIP_A3*%
X8509000Y889000D03*
%TO.P,J1,3*%
%TO.N,/Sheet5E85C2D6/DIP_A4*%
X5969000Y889000D03*
%TO.P,J1,2*%
%TO.N,/Sheet5E85C2D6/DIP_A5*%
X3429000Y889000D03*
%TO.P,J1,1*%
%TO.N,/Sheet5E85C2D6/DIP_A6*%
X889000Y889000D03*
%TD*%
D14*
%TO.P,TP1,1*%
%TO.N,+3V3*%
X1429000Y2279000D03*
%TD*%
%TO.P,TP2,1*%
%TO.N,+1V2*%
X5599000Y4099000D03*
%TD*%
%TO.P,TP3,1*%
%TO.N,Net-(TP3-Pad1)*%
X17389000Y2959000D03*
%TD*%
%TO.P,TP4,1*%
%TO.N,Net-(TP4-Pad1)*%
X16509000Y5299000D03*
%TD*%
%TO.P,TP5,1*%
%TO.N,Net-(R1-Pad2)*%
X12319000Y789000D03*
%TD*%
%TO.P,TP6,1*%
%TO.N,Net-(TP6-Pad1)*%
X16279000Y2959000D03*
%TD*%
%TO.P,TP7,1*%
%TO.N,Net-(R2-Pad2)*%
X17139000Y4829000D03*
%TD*%
D15*
%TO.P,U3,6*%
%TO.N,A1*%
X14351000Y2532000D03*
%TO.P,U3,5*%
%TO.N,+3V3*%
X14851000Y2532000D03*
%TO.P,U3,4*%
%TO.N,A2*%
X15351000Y2532000D03*
%TO.P,U3,3*%
%TO.N,/Sheet5E85C2D6/DIP_A2*%
X15351000Y2032000D03*
%TO.P,U3,2*%
%TO.N,GND*%
X14851000Y2032000D03*
%TO.P,U3,1*%
%TO.N,/Sheet5E85C2D6/DIP_A1*%
X14351000Y2032000D03*
%TD*%
%TO.P,U4,6*%
%TO.N,A3*%
X9271000Y2532000D03*
%TO.P,U4,5*%
%TO.N,+3V3*%
X9771000Y2532000D03*
%TO.P,U4,4*%
%TO.N,A0*%
X10271000Y2532000D03*
%TO.P,U4,3*%
%TO.N,/Sheet5E85C2D6/DIP_A0*%
X10271000Y2032000D03*
%TO.P,U4,2*%
%TO.N,GND*%
X9771000Y2032000D03*
%TO.P,U4,1*%
%TO.N,/Sheet5E85C2D6/DIP_A3*%
X9271000Y2032000D03*
%TD*%
%TO.P,U5,6*%
%TO.N,A5*%
X4191000Y2532000D03*
%TO.P,U5,5*%
%TO.N,+3V3*%
X4691000Y2532000D03*
%TO.P,U5,4*%
%TO.N,A4*%
X5191000Y2532000D03*
%TO.P,U5,3*%
%TO.N,/Sheet5E85C2D6/DIP_A4*%
X5191000Y2032000D03*
%TO.P,U5,2*%
%TO.N,GND*%
X4691000Y2032000D03*
%TO.P,U5,1*%
%TO.N,/Sheet5E85C2D6/DIP_A5*%
X4191000Y2032000D03*
%TD*%
%TO.P,U6,6*%
%TO.N,A7*%
X3421000Y5080000D03*
%TO.P,U6,5*%
%TO.N,+3V3*%
X3421000Y4580000D03*
%TO.P,U6,4*%
%TO.N,A6*%
X3421000Y4080000D03*
%TO.P,U6,3*%
%TO.N,/Sheet5E85C2D6/DIP_A6*%
X2921000Y4080000D03*
%TO.P,U6,2*%
%TO.N,GND*%
X2921000Y4580000D03*
%TO.P,U6,1*%
%TO.N,/Sheet5E85C2D6/DIP_A7*%
X2921000Y5080000D03*
%TD*%
%TO.P,U7,6*%
%TO.N,CE1_N*%
X7747000Y6739000D03*
%TO.P,U7,5*%
%TO.N,+3V3*%
X7247000Y6739000D03*
%TO.P,U7,4*%
%TO.N,CE2_N*%
X6747000Y6739000D03*
%TO.P,U7,3*%
%TO.N,/Sheet5E85C2D6/DIP_CE2_N*%
X6747000Y7239000D03*
%TO.P,U7,2*%
%TO.N,GND*%
X7247000Y7239000D03*
%TO.P,U7,1*%
%TO.N,/Sheet5E85C2D6/DIP_CE1_N*%
X7747000Y7239000D03*
%TD*%
D16*
%TO.P,U8,A2*%
%TO.N,+3V3*%
X11565000Y7235000D03*
%TO.P,U8,B2*%
%TO.N,OE_N*%
X12065000Y7235000D03*
%TO.P,U8,C2*%
%TO.N,/Sheet5E85C2D6/DIP_D0*%
X12565000Y7235000D03*
%TO.P,U8,D2*%
%TO.N,D1*%
X13065000Y7235000D03*
%TO.P,U8,D1*%
%TO.N,GND*%
X13065000Y6735000D03*
%TO.P,U8,C1*%
%TO.N,/Sheet5E85C2D6/DIP_D1*%
X12565000Y6735000D03*
%TO.P,U8,B1*%
%TO.N,D0*%
X12065000Y6735000D03*
%TO.P,U8,A1*%
%TO.N,OE_N*%
X11565000Y6735000D03*
%TD*%
%TO.P,U9,A2*%
%TO.N,+3V3*%
X16649000Y7235000D03*
%TO.P,U9,B2*%
%TO.N,OE_N*%
X17149000Y7235000D03*
%TO.P,U9,C2*%
%TO.N,/Sheet5E85C2D6/DIP_D2*%
X17649000Y7235000D03*
%TO.P,U9,D2*%
%TO.N,D3*%
X18149000Y7235000D03*
%TO.P,U9,D1*%
%TO.N,GND*%
X18149000Y6735000D03*
%TO.P,U9,C1*%
%TO.N,/Sheet5E85C2D6/DIP_D3*%
X17649000Y6735000D03*
%TO.P,U9,B1*%
%TO.N,D2*%
X17149000Y6735000D03*
%TO.P,U9,A1*%
%TO.N,OE_N*%
X16649000Y6735000D03*
%TD*%
D14*
%TO.P,U11,A3*%
%TO.N,Net-(R2-Pad2)*%
X13889000Y4779000D03*
%TO.P,U11,C3*%
%TO.N,Net-(TP4-Pad1)*%
X14289000Y4779000D03*
%TO.P,U11,E3*%
%TO.N,Net-(U11-PadE3)*%
X14689000Y4779000D03*
%TO.P,U11,E1*%
%TO.N,Net-(TP6-Pad1)*%
X14689000Y4079000D03*
%TO.P,U11,A1*%
%TO.N,+3V3*%
X13889000Y4079000D03*
%TO.P,U11,C1*%
%TO.N,Net-(U11-PadC1)*%
X14289000Y4079000D03*
%TO.P,U11,B2*%
%TO.N,GND*%
X14089000Y4429000D03*
%TO.P,U11,D2*%
%TO.N,Net-(TP3-Pad1)*%
X14489000Y4429000D03*
%TD*%
D17*
%TO.N,GND*%
X18110200Y6197600D03*
X8139000Y4329000D03*
X7289000Y7829000D03*
X14839000Y1379000D03*
X9739000Y1329000D03*
X4639000Y1329000D03*
X2439000Y4529000D03*
X1989000Y7629000D03*
X639000Y5279000D03*
X2239000Y5179000D03*
X639000Y4679000D03*
X969000Y2919000D03*
X5889000Y6059000D03*
X4129000Y6089000D03*
X4179000Y5249000D03*
X4269000Y3779000D03*
X13079000Y6239000D03*
X13119000Y4209000D03*
%TO.N,+3V3*%
X15875000Y7239000D03*
X7289000Y6329000D03*
X4739000Y3079000D03*
X10939000Y7379000D03*
X18789000Y3979000D03*
X9939000Y6529000D03*
X3939000Y4629000D03*
X1919000Y2909000D03*
X4589000Y6849000D03*
X5449000Y6839000D03*
X11610120Y5917664D03*
X8429000Y3109000D03*
X13389000Y2009000D03*
X9588569Y3028569D03*
X11339809Y3575800D03*
X14854973Y2989087D03*
X13058816Y3671943D03*
%TO.N,+1V2*%
X6259000Y4909000D03*
%TO.N,/Sheet5E85C2D6/DIP_D3*%
X17653000Y5969000D03*
X18923000Y5969000D03*
%TO.N,/Sheet5E85C2D6/DIP_D1*%
X14097000Y5969000D03*
X12479000Y6209000D03*
%TO.N,Net-(R1-Pad2)*%
X12039000Y1299000D03*
X10839000Y1989000D03*
%TO.N,Net-(R2-Pad2)*%
X12949001Y4714960D03*
X16489000Y4729000D03*
%TO.N,Net-(TP3-Pad1)*%
X16819000Y3119000D03*
X14399000Y3209000D03*
%TO.N,Net-(TP4-Pad1)*%
X15656173Y4925763D03*
X15879000Y3649000D03*
%TO.N,A2*%
X15649000Y3169000D03*
X12409000Y4239000D03*
%TO.N,A1*%
X13699000Y2499000D03*
X9019000Y3039004D03*
%TO.N,A4*%
X6039000Y2579000D03*
X6629000Y4499000D03*
%TO.N,OE_N*%
X10959000Y6829000D03*
X15329000Y6839000D03*
%TO.N,D2*%
X15049000Y6309000D03*
X16949000Y6139000D03*
%TO.N,D3*%
X16079000Y5859000D03*
X11719000Y5159000D03*
%TO.N,Net-(TP6-Pad1)*%
X16119000Y2359000D03*
X12099000Y3609000D03*
%TD*%
D18*
%TO.N,GND*%
X18149000Y6735000D02*
X18149000Y6236400D01*
X18149000Y6236400D02*
X18110200Y6197600D01*
X13065000Y6735000D02*
X13065000Y6239000D01*
D19*
X9979000Y4529000D02*
X9579000Y4529000D01*
X9579000Y4529000D02*
X9179000Y4529000D01*
X9179000Y4529000D02*
X8979000Y4329000D01*
X8979000Y4329000D02*
X8139000Y4329000D01*
D18*
X7247000Y7239000D02*
X7247000Y7787000D01*
D19*
X7247000Y7787000D02*
X7289000Y7829000D01*
D18*
X14851000Y2032000D02*
X14851000Y1391000D01*
D19*
X14851000Y1391000D02*
X14839000Y1379000D01*
D18*
X9771000Y2032000D02*
X9771000Y1361000D01*
D19*
X9771000Y1361000D02*
X9739000Y1329000D01*
D18*
X4691000Y2032000D02*
X4691000Y1381000D01*
D19*
X4691000Y1381000D02*
X4639000Y1329000D01*
D18*
X2921000Y4580000D02*
X2490000Y4580000D01*
X2490000Y4580000D02*
X2439000Y4529000D01*
D20*
X13065000Y6239000D02*
X13079000Y6239000D01*
X14089000Y4429000D02*
X13339000Y4429000D01*
X13339000Y4429000D02*
X13119000Y4209000D01*
D18*
%TO.N,+3V3*%
X16649000Y7235000D02*
X15879000Y7235000D01*
X15879000Y7235000D02*
X15875000Y7239000D01*
X9771000Y2532000D02*
X9771000Y2997000D01*
X7247000Y6739000D02*
X7247000Y6371000D01*
D19*
X7247000Y6371000D02*
X7289000Y6329000D01*
D18*
X14851000Y2532000D02*
X14851000Y2991000D01*
X4691000Y2532000D02*
X4691000Y3031000D01*
D19*
X4691000Y3031000D02*
X4739000Y3079000D01*
D18*
X11565000Y7235000D02*
X11083000Y7235000D01*
X11083000Y7235000D02*
X10939000Y7379000D01*
D20*
X10379000Y5729000D02*
X10779000Y5729000D01*
X9979000Y6489000D02*
X9939000Y6529000D01*
X9979000Y5729000D02*
X9979000Y6489000D01*
D18*
X3421000Y4580000D02*
X3890000Y4580000D01*
X3890000Y4580000D02*
X3939000Y4629000D01*
X1919000Y2769000D02*
X1429000Y2279000D01*
X1919000Y2909000D02*
X1919000Y2769000D01*
D20*
X10967664Y5917664D02*
X11610120Y5917664D01*
X10779000Y5729000D02*
X10967664Y5917664D01*
D19*
X8779000Y3459000D02*
X8429000Y3109000D01*
X8779000Y3729000D02*
X8779000Y3459000D01*
X9620138Y2997000D02*
X9588569Y3028569D01*
X9771000Y2997000D02*
X9620138Y2997000D01*
D20*
X10779000Y3729000D02*
X10932200Y3575800D01*
X10932200Y3575800D02*
X11339809Y3575800D01*
D19*
X14852913Y2989087D02*
X14854973Y2989087D01*
X14851000Y2991000D02*
X14852913Y2989087D01*
D20*
X13481943Y3671943D02*
X13058816Y3671943D01*
X13889000Y4079000D02*
X13481943Y3671943D01*
D19*
%TO.N,+1V2*%
X9179000Y5329000D02*
X8979000Y5129000D01*
X8979000Y5129000D02*
X8239000Y5129000D01*
D20*
X6479000Y5129000D02*
X6259000Y4909000D01*
X8239000Y5129000D02*
X6479000Y5129000D01*
X6259000Y4909000D02*
X5989000Y4909000D01*
X5599000Y4519000D02*
X5599000Y4099000D01*
X5989000Y4909000D02*
X5599000Y4519000D01*
D18*
%TO.N,/Sheet5E85C2D6/DIP_A6*%
X2921000Y2921000D02*
X889000Y889000D01*
X2921000Y4080000D02*
X2921000Y2921000D01*
%TO.N,/Sheet5E85C2D6/DIP_A5*%
X4191000Y1651000D02*
X3429000Y889000D01*
X4191000Y2032000D02*
X4191000Y1651000D01*
%TO.N,/Sheet5E85C2D6/DIP_A4*%
X5191000Y1667000D02*
X5969000Y889000D01*
X5191000Y2032000D02*
X5191000Y1667000D01*
%TO.N,/Sheet5E85C2D6/DIP_A3*%
X9271000Y1651000D02*
X8509000Y889000D01*
X9271000Y2032000D02*
X9271000Y1651000D01*
%TO.N,/Sheet5E85C2D6/DIP_A0*%
X10271000Y1667000D02*
X11049000Y889000D01*
X10271000Y2032000D02*
X10271000Y1667000D01*
%TO.N,/Sheet5E85C2D6/DIP_A1*%
X14351000Y1651000D02*
X13589000Y889000D01*
X14351000Y2032000D02*
X14351000Y1651000D01*
%TO.N,/Sheet5E85C2D6/DIP_A2*%
X15351000Y1667000D02*
X16129000Y889000D01*
X15351000Y2032000D02*
X15351000Y1667000D01*
%TO.N,/Sheet5E85C2D6/DIP_D3*%
X17649000Y6735000D02*
X17649000Y5973000D01*
X17649000Y5973000D02*
X17653000Y5969000D01*
X18923000Y8255000D02*
X18669000Y8509000D01*
X18923000Y5969000D02*
X18923000Y8255000D01*
%TO.N,/Sheet5E85C2D6/DIP_D2*%
X17649000Y7235000D02*
X17649000Y7751000D01*
X16891000Y8509000D02*
X16129000Y8509000D01*
X17649000Y7751000D02*
X16891000Y8509000D01*
%TO.N,/Sheet5E85C2D6/DIP_D1*%
X14439000Y7659000D02*
X13589000Y8509000D01*
X14097000Y5969000D02*
X14439000Y6311000D01*
X14439000Y6311000D02*
X14439000Y7659000D01*
X12479000Y6209000D02*
X12565000Y6295000D01*
X12565000Y6295000D02*
X12565000Y6735000D01*
%TO.N,/Sheet5E85C2D6/DIP_D0*%
X12565000Y7235000D02*
X12565000Y7755000D01*
X11811000Y8509000D02*
X11049000Y8509000D01*
X12565000Y7755000D02*
X11811000Y8509000D01*
%TO.N,/Sheet5E85C2D6/DIP_CE1_N*%
X7747000Y7747000D02*
X8509000Y8509000D01*
X7747000Y7239000D02*
X7747000Y7747000D01*
%TO.N,/Sheet5E85C2D6/DIP_CE2_N*%
X6747000Y7731000D02*
X5969000Y8509000D01*
X6747000Y7239000D02*
X6747000Y7731000D01*
%TO.N,/Sheet5E85C2D6/DIP_A7*%
X2921000Y8001000D02*
X3429000Y8509000D01*
X2921000Y5080000D02*
X2921000Y8001000D01*
D20*
%TO.N,Net-(R1-Pad2)*%
X12039000Y1069000D02*
X12319000Y789000D01*
X12039000Y1299000D02*
X12039000Y1069000D01*
X9979000Y3464167D02*
X10839000Y2604167D01*
X10839000Y2604167D02*
X10839000Y1989000D01*
X9979000Y3729000D02*
X9979000Y3464167D01*
D19*
%TO.N,Net-(R2-Pad2)*%
X10379000Y4529000D02*
X10579000Y4729000D01*
X10579000Y4729000D02*
X11289000Y4729000D01*
D20*
X13889000Y4779000D02*
X13013041Y4779000D01*
X13013041Y4779000D02*
X12949001Y4714960D01*
D18*
X16589000Y4829000D02*
X16489000Y4729000D01*
X17139000Y4829000D02*
X16589000Y4829000D01*
D20*
X11289000Y4729000D02*
X11461934Y4556066D01*
X12362617Y4714960D02*
X12949001Y4714960D01*
X11461934Y4556066D02*
X12203723Y4556066D01*
X12203723Y4556066D02*
X12362617Y4714960D01*
%TO.N,Net-(TP3-Pad1)*%
X14559000Y4499000D02*
X14489000Y4429000D01*
X15689000Y4499000D02*
X14559000Y4499000D01*
X15689000Y4499000D02*
X15969000Y4499000D01*
X15969000Y4499000D02*
X16819000Y3649000D01*
X16819000Y3649000D02*
X16819000Y3119000D01*
X17229000Y3119000D02*
X17389000Y2959000D01*
X16819000Y3119000D02*
X17229000Y3119000D01*
X10178743Y3929257D02*
X10178743Y3546778D01*
X9979000Y4129000D02*
X10178743Y3929257D01*
X10766521Y2959000D02*
X14149000Y2959000D01*
X14149000Y2959000D02*
X14399000Y3209000D01*
X10178743Y3546778D02*
X10766521Y2959000D01*
%TO.N,Net-(TP4-Pad1)*%
X10379000Y3729000D02*
X10885135Y3222865D01*
X12332865Y3222865D02*
X12339000Y3229000D01*
X10885135Y3222865D02*
X12332865Y3222865D01*
X14762224Y5429000D02*
X15152936Y5429000D01*
X14289000Y4779000D02*
X14289000Y4955776D01*
X15152936Y5429000D02*
X15656173Y4925763D01*
X14289000Y4955776D02*
X14762224Y5429000D01*
X16135763Y4925763D02*
X15656173Y4925763D01*
X16509000Y5299000D02*
X16135763Y4925763D01*
X14319000Y3649000D02*
X15879000Y3649000D01*
X13849000Y3179000D02*
X14319000Y3649000D01*
X12332865Y3222865D02*
X12376730Y3179000D01*
X12376730Y3179000D02*
X13849000Y3179000D01*
%TO.N,A2*%
X11028822Y4529000D02*
X11318822Y4239000D01*
X10779000Y4529000D02*
X11028822Y4529000D01*
X11318822Y4239000D02*
X12409000Y4239000D01*
X15351000Y2871000D02*
X15649000Y3169000D01*
X15351000Y2532000D02*
X15351000Y2871000D01*
%TO.N,A1*%
X14318000Y2499000D02*
X14351000Y2532000D01*
X13699000Y2499000D02*
X14318000Y2499000D01*
X9179000Y3199004D02*
X9019000Y3039004D01*
X9179000Y3729000D02*
X9179000Y3199004D01*
%TO.N,A0*%
X10271000Y2867000D02*
X10271000Y2532000D01*
X9536521Y3389000D02*
X9749000Y3389000D01*
X9179000Y4129000D02*
X9378743Y3929257D01*
X9378743Y3929257D02*
X9378743Y3546778D01*
X9378743Y3546778D02*
X9536521Y3389000D01*
X9749000Y3389000D02*
X10271000Y2867000D01*
%TO.N,A3*%
X8049000Y2859000D02*
X8376000Y2532000D01*
X8049000Y3648822D02*
X8049000Y2859000D01*
X8779000Y4129000D02*
X8529178Y4129000D01*
X8376000Y2532000D02*
X9271000Y2532000D01*
X8529178Y4129000D02*
X8049000Y3648822D01*
D19*
%TO.N,A5*%
X9179000Y4929000D02*
X8979000Y4729000D01*
X8979000Y4729000D02*
X8239000Y4729000D01*
D20*
X4191000Y3181000D02*
X4191000Y2532000D01*
X4489000Y3479000D02*
X4191000Y3181000D01*
X6169000Y3479000D02*
X4489000Y3479000D01*
X8239000Y4729000D02*
X7419000Y4729000D01*
X7419000Y4729000D02*
X6169000Y3479000D01*
%TO.N,A4*%
X5238000Y2579000D02*
X5191000Y2532000D01*
X6039000Y2579000D02*
X5238000Y2579000D01*
X7059000Y4929000D02*
X8779000Y4929000D01*
X6629000Y4499000D02*
X7059000Y4929000D01*
D19*
%TO.N,A6*%
X8779000Y5329000D02*
X5289000Y5329000D01*
X4040000Y4080000D02*
X3421000Y4080000D01*
X5289000Y5329000D02*
X4040000Y4080000D01*
%TO.N,A7*%
X7789000Y5729000D02*
X7689000Y5729000D01*
X8779000Y5729000D02*
X7789000Y5729000D01*
X7689000Y5729000D02*
X7589000Y5629000D01*
X3970000Y5629000D02*
X3421000Y5080000D01*
X7589000Y5629000D02*
X3970000Y5629000D01*
%TO.N,CE2_N*%
X6747000Y6221000D02*
X6747000Y6739000D01*
X7039000Y5929000D02*
X6747000Y6221000D01*
X9179000Y5939000D02*
X8989000Y6129000D01*
X9179000Y5729000D02*
X9179000Y5939000D01*
X8989000Y6129000D02*
X7739000Y6129000D01*
X7539000Y5929000D02*
X7039000Y5929000D01*
X7739000Y6129000D02*
X7539000Y5929000D01*
%TO.N,CE1_N*%
X9579000Y5984175D02*
X8824175Y6739000D01*
X9579000Y5729000D02*
X9579000Y5984175D01*
X8824175Y6739000D02*
X7747000Y6739000D01*
D20*
%TO.N,OE_N*%
X17149000Y7235000D02*
X16649000Y6735000D01*
X11565000Y6735000D02*
X12065000Y7235000D01*
X15745000Y6735000D02*
X16649000Y6735000D01*
D18*
X11565000Y6735000D02*
X11053000Y6735000D01*
X11053000Y6735000D02*
X10959000Y6829000D01*
X15641000Y6839000D02*
X15745000Y6735000D01*
X15329000Y6839000D02*
X15641000Y6839000D01*
D20*
X11868409Y4806066D02*
X12151343Y5089000D01*
X14679525Y5628655D02*
X15008655Y5628655D01*
X14139870Y5089000D02*
X14679525Y5628655D01*
X11426657Y4929000D02*
X11549591Y4806066D01*
X12151343Y5089000D02*
X14139870Y5089000D01*
X15008655Y5628655D02*
X15745000Y6365000D01*
X15745000Y6365000D02*
X15745000Y6735000D01*
X11549591Y4806066D02*
X11868409Y4806066D01*
X10779000Y4929000D02*
X11426657Y4929000D01*
D18*
%TO.N,D1*%
X12019000Y5809000D02*
X11989000Y5779000D01*
X13212000Y7235000D02*
X13539000Y6908000D01*
X13065000Y7235000D02*
X13212000Y7235000D01*
X13539000Y6908000D02*
X13539000Y6029000D01*
X13539000Y6029000D02*
X13319000Y5809000D01*
X13319000Y5809000D02*
X12019000Y5809000D01*
D20*
X10179257Y6119257D02*
X10330611Y6270611D01*
X10330611Y6270611D02*
X11757389Y6270611D01*
X9979000Y5329000D02*
X10179257Y5529257D01*
X10179257Y5529257D02*
X10179257Y6119257D01*
X11757389Y6270611D02*
X11989000Y6039000D01*
X11989000Y6039000D02*
X11989000Y5779000D01*
%TO.N,D0*%
X9586065Y6259590D02*
X9586065Y6676065D01*
X10627734Y6470266D02*
X11800266Y6470266D01*
X10119000Y6979000D02*
X10627734Y6470266D01*
X11800266Y6470266D02*
X12065000Y6735000D01*
X9779257Y6066398D02*
X9586065Y6259590D01*
X9889000Y6979000D02*
X10119000Y6979000D01*
X9586065Y6676065D02*
X9889000Y6979000D01*
X9779257Y5529257D02*
X9779257Y6066398D01*
X9579000Y5329000D02*
X9779257Y5529257D01*
%TO.N,D2*%
X16949000Y6535000D02*
X17149000Y6735000D01*
X16949000Y6139000D02*
X16949000Y6535000D01*
X14269000Y5529000D02*
X15049000Y6309000D01*
X11993697Y5529000D02*
X14269000Y5529000D01*
X11466892Y5551589D02*
X11971109Y5551588D01*
X11971109Y5551588D02*
X11993697Y5529000D01*
X10579000Y5529000D02*
X11444303Y5529000D01*
X10379000Y5329000D02*
X10579000Y5529000D01*
X11444303Y5529000D02*
X11466892Y5551589D01*
D18*
%TO.N,D3*%
X18149000Y7235000D02*
X18342800Y7235000D01*
X18342800Y7235000D02*
X18516600Y7061200D01*
X18516600Y7061200D02*
X18516600Y5740400D01*
D20*
X18516600Y5740400D02*
X18516600Y5596600D01*
X18516600Y5596600D02*
X18459000Y5539000D01*
X18459000Y5539000D02*
X16835607Y5539000D01*
X16515607Y5859000D02*
X16079000Y5859000D01*
X16835607Y5539000D02*
X16515607Y5859000D01*
X11719000Y5159000D02*
X11259000Y5159000D01*
X11089000Y5329000D02*
X10779000Y5329000D01*
X11259000Y5159000D02*
X11089000Y5329000D01*
%TO.N,Net-(TP6-Pad1)*%
X10379000Y4129000D02*
X10579257Y3928743D01*
X16279000Y3841343D02*
X16279000Y2959000D01*
X14689000Y4079000D02*
X16041343Y4079000D01*
X16041343Y4079000D02*
X16279000Y3841343D01*
X16279000Y2959000D02*
X16279000Y2519000D01*
X16279000Y2519000D02*
X16119000Y2359000D01*
X11779257Y3928743D02*
X12099000Y3609000D01*
X10579257Y3928743D02*
X11779257Y3928743D01*
%TD*%
M02*
