%TF.GenerationSoftware,KiCad,Pcbnew,5.1.5-1.fc31*%
%TF.CreationDate,2020-04-05T23:19:50-07:00*%
%TF.ProjectId,prom,70726f6d-2e6b-4696-9361-645f70636258,rev?*%
%TF.SameCoordinates,PX8461678PY580d428*%
%TF.FileFunction,Paste,Bot*%
%TF.FilePolarity,Positive*%
%FSLAX46Y46*%
G04 Gerber Fmt 4.6, Leading zero omitted, Abs format (unit mm)*
G04 Created by KiCad (PCBNEW 5.1.5-1.fc31) date 2020-04-05 23:19:50*
%MOMM*%
%LPD*%
G04 APERTURE LIST*
%ADD10R,0.600000X0.700000*%
%ADD11C,0.100000*%
G04 APERTURE END LIST*
D10*
%TO.C,C1*%
X2139000Y6729000D03*
X1139000Y6729000D03*
%TD*%
%TO.C,C2*%
X1039000Y3649000D03*
X2039000Y3649000D03*
%TD*%
%TO.C,C3*%
X4659000Y4439000D03*
X5659000Y4439000D03*
%TD*%
%TO.C,R1*%
X11739000Y2129000D03*
X12739000Y2129000D03*
%TD*%
%TO.C,R2*%
X16989000Y3979000D03*
X17989000Y3979000D03*
%TD*%
D11*
%TO.C,U1*%
G36*
X1439000Y5639000D02*
G01*
X1849000Y5229000D01*
X1439000Y4819000D01*
X1029000Y5229000D01*
X1439000Y5639000D01*
G37*
G36*
X1919000Y5889000D02*
G01*
X1919000Y5429000D01*
X1839000Y5429000D01*
X1609000Y5659000D01*
X1609000Y5889000D01*
X1919000Y5889000D01*
G37*
G36*
X1269000Y5889000D02*
G01*
X1269000Y5659000D01*
X1039000Y5429000D01*
X959000Y5429000D01*
X959000Y5889000D01*
X1269000Y5889000D01*
G37*
G36*
X1039000Y5029000D02*
G01*
X1269000Y4799000D01*
X1269000Y4569000D01*
X959000Y4569000D01*
X959000Y5029000D01*
X1039000Y5029000D01*
G37*
G36*
X1839000Y5029000D02*
G01*
X1919000Y5029000D01*
X1919000Y4569000D01*
X1609000Y4569000D01*
X1609000Y4799000D01*
X1839000Y5029000D01*
G37*
%TD*%
%TO.C,U2*%
G36*
X5039000Y6289000D02*
G01*
X5449000Y5879000D01*
X5039000Y5469000D01*
X4629000Y5879000D01*
X5039000Y6289000D01*
G37*
G36*
X5519000Y6539000D02*
G01*
X5519000Y6079000D01*
X5439000Y6079000D01*
X5209000Y6309000D01*
X5209000Y6539000D01*
X5519000Y6539000D01*
G37*
G36*
X4869000Y6539000D02*
G01*
X4869000Y6309000D01*
X4639000Y6079000D01*
X4559000Y6079000D01*
X4559000Y6539000D01*
X4869000Y6539000D01*
G37*
G36*
X4639000Y5679000D02*
G01*
X4869000Y5449000D01*
X4869000Y5219000D01*
X4559000Y5219000D01*
X4559000Y5679000D01*
X4639000Y5679000D01*
G37*
G36*
X5439000Y5679000D02*
G01*
X5519000Y5679000D01*
X5519000Y5219000D01*
X5209000Y5219000D01*
X5209000Y5449000D01*
X5439000Y5679000D01*
G37*
%TD*%
M02*
