M48
; DRILL file {KiCad 5.1.5-1.fc31} date Fri 03 Apr 2020 04:51:25 AM PDT
; FORMAT={-:-/ absolute / metric / decimal}
; #@! TF.CreationDate,2020-04-03T04:51:25-07:00
; #@! TF.GenerationSoftware,Kicad,Pcbnew,5.1.5-1.fc31
; #@! TF.FileFunction,Plated,1,4,PTH
FMAT,2
METRIC
T1C0.203
T2C0.635
%
G90
G05
T1
X0.639Y5.279
X0.639Y4.679
X0.969Y2.919
X1.919Y2.909
X1.989Y7.629
X2.239Y5.179
X2.439Y4.529
X3.939Y4.629
X4.129Y6.089
X4.179Y5.249
X4.269Y3.779
X4.589Y6.849
X4.639Y1.329
X4.739Y3.079
X5.449Y6.839
X5.889Y6.059
X6.039Y2.579
X6.259Y4.909
X6.629Y4.499
X7.289Y7.829
X7.289Y6.329
X8.139Y4.329
X8.429Y3.109
X9.019Y3.039
X9.589Y3.029
X9.739Y1.329
X9.939Y6.529
X10.839Y1.989
X10.939Y7.379
X10.959Y6.829
X11.34Y3.576
X11.61Y5.918
X11.719Y5.159
X12.039Y1.299
X12.099Y3.609
X12.409Y4.239
X12.479Y6.209
X12.949Y4.715
X13.059Y3.672
X13.079Y6.239
X13.119Y4.209
X13.389Y2.009
X13.699Y2.499
X14.097Y5.969
X14.399Y3.209
X14.839Y1.379
X14.855Y2.989
X15.049Y6.309
X15.329Y6.839
X15.649Y3.169
X15.656Y4.926
X15.875Y7.239
X15.879Y3.649
X16.079Y5.859
X16.119Y2.359
X16.489Y4.729
X16.819Y3.119
X16.949Y6.139
X17.653Y5.969
X18.11Y6.198
X18.789Y3.979
X18.923Y5.969
T2
X0.889Y8.509
X0.889Y0.889
X3.429Y8.509
X3.429Y0.889
X5.969Y8.509
X5.969Y0.889
X8.509Y8.509
X8.509Y0.889
X11.049Y8.509
X11.049Y0.889
X13.589Y8.509
X13.589Y0.889
X16.129Y8.509
X16.129Y0.889
X18.669Y8.509
X18.669Y0.889
T0
M30
