%TF.GenerationSoftware,KiCad,Pcbnew,5.1.5-1.fc31*%
%TF.CreationDate,2020-04-07T00:15:37-07:00*%
%TF.ProjectId,prom,70726f6d-2e6b-4696-9361-645f70636258,rev?*%
%TF.SameCoordinates,PX8461678PY580d428*%
%TF.FileFunction,Legend,Top*%
%TF.FilePolarity,Positive*%
%FSLAX46Y46*%
G04 Gerber Fmt 4.6, Leading zero omitted, Abs format (unit mm)*
G04 Created by KiCad (PCBNEW 5.1.5-1.fc31) date 2020-04-07 00:15:37*
%MOMM*%
%LPD*%
G04 APERTURE LIST*
%ADD10C,0.120000*%
G04 APERTURE END LIST*
D10*
%TO.C,U10*%
X8529000Y6029000D02*
G75*
G03X8529000Y6029000I-50000J0D01*
G01*
%TO.C,TP1*%
X2399000Y2799000D02*
X2349000Y2749000D01*
X2399000Y2999000D02*
X2349000Y3049000D01*
X1499000Y2799000D02*
X1549000Y2749000D01*
X1499000Y2999000D02*
X1549000Y3049000D01*
X1499000Y2999000D02*
X1499000Y2799000D01*
X2399000Y2999000D02*
X2399000Y2799000D01*
%TO.C,TP2*%
X5989000Y4979000D02*
X6039000Y5029000D01*
X5989000Y4779000D02*
X6039000Y4729000D01*
X6889000Y4979000D02*
X6839000Y5029000D01*
X6889000Y4779000D02*
X6839000Y4729000D01*
X6889000Y4779000D02*
X6889000Y4979000D01*
X5989000Y4779000D02*
X5989000Y4979000D01*
%TO.C,TP3*%
X18709000Y2449000D02*
X18659000Y2399000D01*
X18709000Y2649000D02*
X18659000Y2699000D01*
X17809000Y2449000D02*
X17859000Y2399000D01*
X17809000Y2649000D02*
X17859000Y2699000D01*
X17809000Y2649000D02*
X17809000Y2449000D01*
X18709000Y2649000D02*
X18709000Y2449000D01*
%TO.C,TP4*%
X17889000Y4929000D02*
X17839000Y4879000D01*
X17889000Y5129000D02*
X17839000Y5179000D01*
X16989000Y4929000D02*
X17039000Y4879000D01*
X16989000Y5129000D02*
X17039000Y5179000D01*
X16989000Y5129000D02*
X16989000Y4929000D01*
X17889000Y5129000D02*
X17889000Y4929000D01*
%TO.C,TP5*%
X12759000Y1159000D02*
X12709000Y1109000D01*
X12759000Y1359000D02*
X12709000Y1409000D01*
X11859000Y1159000D02*
X11909000Y1109000D01*
X11859000Y1359000D02*
X11909000Y1409000D01*
X11859000Y1359000D02*
X11859000Y1159000D01*
X12759000Y1359000D02*
X12759000Y1159000D01*
%TO.C,TP6*%
X17579000Y1989000D02*
X17529000Y1939000D01*
X17579000Y2189000D02*
X17529000Y2239000D01*
X16679000Y1989000D02*
X16729000Y1939000D01*
X16679000Y2189000D02*
X16729000Y2239000D01*
X16679000Y2189000D02*
X16679000Y1989000D01*
X17579000Y2189000D02*
X17579000Y1989000D01*
%TO.C,TP7*%
X19009000Y4789000D02*
X18959000Y4739000D01*
X19009000Y4989000D02*
X18959000Y5039000D01*
X18109000Y4789000D02*
X18159000Y4739000D01*
X18109000Y4989000D02*
X18159000Y5039000D01*
X18109000Y4989000D02*
X18109000Y4789000D01*
X19009000Y4989000D02*
X19009000Y4789000D01*
%TO.C,U3*%
X14151000Y1782000D02*
G75*
G03X14151000Y1782000I-50000J0D01*
G01*
%TO.C,U4*%
X9071000Y1782000D02*
G75*
G03X9071000Y1782000I-50000J0D01*
G01*
%TO.C,U5*%
X3991000Y1782000D02*
G75*
G03X3991000Y1782000I-50000J0D01*
G01*
%TO.C,U6*%
X2721000Y5330000D02*
G75*
G03X2721000Y5330000I-50000J0D01*
G01*
%TO.C,U7*%
X8047000Y7489000D02*
G75*
G03X8047000Y7489000I-50000J0D01*
G01*
%TO.C,U8*%
X11365000Y6485000D02*
G75*
G03X11365000Y6485000I-50000J0D01*
G01*
%TO.C,U9*%
X16449000Y6485000D02*
G75*
G03X16449000Y6485000I-50000J0D01*
G01*
%TO.C,U11*%
X13389000Y3529000D02*
G75*
G03X13389000Y3529000I-50000J0D01*
G01*
%TD*%
M02*
