%TF.GenerationSoftware,KiCad,Pcbnew,5.1.5-1.fc31*%
%TF.CreationDate,2020-04-07T00:15:37-07:00*%
%TF.ProjectId,prom,70726f6d-2e6b-4696-9361-645f70636258,rev?*%
%TF.SameCoordinates,PX8461678PY580d428*%
%TF.FileFunction,Paste,Bot*%
%TF.FilePolarity,Positive*%
%FSLAX46Y46*%
G04 Gerber Fmt 4.6, Leading zero omitted, Abs format (unit mm)*
G04 Created by KiCad (PCBNEW 5.1.5-1.fc31) date 2020-04-07 00:15:37*
%MOMM*%
%LPD*%
G04 APERTURE LIST*
%ADD10R,0.600000X0.700000*%
%ADD11C,0.100000*%
G04 APERTURE END LIST*
D10*
%TO.C,C1*%
X2139000Y6729000D03*
X1139000Y6729000D03*
%TD*%
%TO.C,C2*%
X1039000Y3649000D03*
X2039000Y3649000D03*
%TD*%
%TO.C,C3*%
X4659000Y4439000D03*
X5659000Y4439000D03*
%TD*%
%TO.C,R1*%
X11739000Y2129000D03*
X12739000Y2129000D03*
%TD*%
%TO.C,R2*%
X16989000Y3979000D03*
X17989000Y3979000D03*
%TD*%
D11*
%TO.C,U1*%
G36*
X1869000Y5839000D02*
G01*
X1869000Y5479000D01*
X1839000Y5479000D01*
X1659000Y5659000D01*
X1659000Y5839000D01*
X1869000Y5839000D01*
G37*
G36*
X1219000Y5839000D02*
G01*
X1219000Y5659000D01*
X1039000Y5479000D01*
X1009000Y5479000D01*
X1009000Y5839000D01*
X1219000Y5839000D01*
G37*
G36*
X1039000Y4979000D02*
G01*
X1219000Y4799000D01*
X1219000Y4619000D01*
X1009000Y4619000D01*
X1009000Y4979000D01*
X1039000Y4979000D01*
G37*
G36*
X1439000Y5569000D02*
G01*
X1779000Y5229000D01*
X1439000Y4889000D01*
X1099000Y5229000D01*
X1439000Y5569000D01*
G37*
G36*
X1839000Y4979000D02*
G01*
X1869000Y4979000D01*
X1869000Y4619000D01*
X1659000Y4619000D01*
X1659000Y4799000D01*
X1839000Y4979000D01*
G37*
%TD*%
%TO.C,U2*%
G36*
X5469000Y6489000D02*
G01*
X5469000Y6129000D01*
X5439000Y6129000D01*
X5259000Y6309000D01*
X5259000Y6489000D01*
X5469000Y6489000D01*
G37*
G36*
X4819000Y6489000D02*
G01*
X4819000Y6309000D01*
X4639000Y6129000D01*
X4609000Y6129000D01*
X4609000Y6489000D01*
X4819000Y6489000D01*
G37*
G36*
X4639000Y5629000D02*
G01*
X4819000Y5449000D01*
X4819000Y5269000D01*
X4609000Y5269000D01*
X4609000Y5629000D01*
X4639000Y5629000D01*
G37*
G36*
X5039000Y6219000D02*
G01*
X5379000Y5879000D01*
X5039000Y5539000D01*
X4699000Y5879000D01*
X5039000Y6219000D01*
G37*
G36*
X5439000Y5629000D02*
G01*
X5469000Y5629000D01*
X5469000Y5269000D01*
X5259000Y5269000D01*
X5259000Y5449000D01*
X5439000Y5629000D01*
G37*
%TD*%
M02*
