%TF.GenerationSoftware,KiCad,Pcbnew,5.1.5-1.fc31*%
%TF.CreationDate,2020-04-07T00:15:37-07:00*%
%TF.ProjectId,prom,70726f6d-2e6b-4696-9361-645f70636258,rev?*%
%TF.SameCoordinates,PX8461678PY580d428*%
%TF.FileFunction,Copper,L3,Inr*%
%TF.FilePolarity,Positive*%
%FSLAX46Y46*%
G04 Gerber Fmt 4.6, Leading zero omitted, Abs format (unit mm)*
G04 Created by KiCad (PCBNEW 5.1.5-1.fc31) date 2020-04-07 00:15:37*
%MOMM*%
%LPD*%
G04 APERTURE LIST*
%TA.AperFunction,ViaPad*%
%ADD10C,1.016000*%
%TD*%
%TA.AperFunction,ViaPad*%
%ADD11C,0.508000*%
%TD*%
%TA.AperFunction,Conductor*%
%ADD12C,0.203200*%
%TD*%
G04 APERTURE END LIST*
D10*
%TO.N,+5V*%
%TO.C,J1*%
X889000Y8509000D03*
%TO.N,/Sheet5E85C2D6/DIP_A7*%
X3429000Y8509000D03*
%TO.N,/Sheet5E85C2D6/DIP_CE2_N*%
X5969000Y8509000D03*
%TO.N,/Sheet5E85C2D6/DIP_CE1_N*%
X8509000Y8509000D03*
%TO.N,/Sheet5E85C2D6/DIP_D0*%
X11049000Y8509000D03*
%TO.N,/Sheet5E85C2D6/DIP_D1*%
X13589000Y8509000D03*
%TO.N,/Sheet5E85C2D6/DIP_D2*%
X16129000Y8509000D03*
%TO.N,/Sheet5E85C2D6/DIP_D3*%
X18669000Y8509000D03*
%TO.N,GND*%
X18669000Y889000D03*
%TO.N,/Sheet5E85C2D6/DIP_A2*%
X16129000Y889000D03*
%TO.N,/Sheet5E85C2D6/DIP_A1*%
X13589000Y889000D03*
%TO.N,/Sheet5E85C2D6/DIP_A0*%
X11049000Y889000D03*
%TO.N,/Sheet5E85C2D6/DIP_A3*%
X8509000Y889000D03*
%TO.N,/Sheet5E85C2D6/DIP_A4*%
X5969000Y889000D03*
%TO.N,/Sheet5E85C2D6/DIP_A5*%
X3429000Y889000D03*
%TO.N,/Sheet5E85C2D6/DIP_A6*%
X889000Y889000D03*
%TD*%
D11*
%TO.N,+3V3*%
%TO.C,TP1*%
X1949000Y2899000D03*
%TD*%
%TO.N,+1V2*%
%TO.C,TP2*%
X6439000Y4879000D03*
%TD*%
%TO.N,Net-(TP3-Pad1)*%
%TO.C,TP3*%
X18259000Y2549000D03*
%TD*%
%TO.N,Net-(TP4-Pad1)*%
%TO.C,TP4*%
X17439000Y5029000D03*
%TD*%
%TO.N,Net-(R1-Pad2)*%
%TO.C,TP5*%
X12309000Y1259000D03*
%TD*%
%TO.N,Net-(TP6-Pad1)*%
%TO.C,TP6*%
X17129000Y2089000D03*
%TD*%
%TO.N,Net-(R2-Pad2)*%
%TO.C,TP7*%
X18559000Y4889000D03*
%TD*%
%TO.N,GND*%
X7289000Y7829000D03*
X14839000Y1379000D03*
X9739000Y1329000D03*
X4639000Y1329000D03*
X2439000Y4529000D03*
X1989000Y7629000D03*
X969000Y2919000D03*
X4129000Y6089000D03*
X599000Y5329000D03*
X589000Y4639000D03*
X2299000Y5229000D03*
X5889000Y6062832D03*
X8139000Y4325257D03*
X13083511Y6272505D03*
X18218998Y6149000D03*
X4129000Y5195168D03*
X13039000Y4399000D03*
X4339000Y3679000D03*
%TO.N,+3V3*%
X18789000Y3979000D03*
X4999000Y3089000D03*
X7298999Y6289000D03*
X9949000Y6529000D03*
X13436713Y1800552D03*
X14799000Y3059000D03*
X11534073Y5866867D03*
X10759000Y7509000D03*
X15929000Y7289000D03*
X5449000Y6954000D03*
X4589000Y6954000D03*
X11289000Y3354000D03*
X3964000Y4554000D03*
X13089000Y3704000D03*
X9564000Y3004000D03*
X8239000Y3079000D03*
%TO.N,/Sheet5E85C2D6/DIP_D3*%
X17569225Y5879527D03*
X18939000Y5554000D03*
%TO.N,/Sheet5E85C2D6/DIP_D1*%
X14097000Y6279000D03*
X12439000Y6249000D03*
%TO.N,Net-(R1-Pad2)*%
X11009000Y1989000D03*
%TO.N,Net-(R2-Pad2)*%
X16409004Y4639000D03*
X12139000Y4279000D03*
%TO.N,Net-(TP3-Pad1)*%
X16819000Y3119000D03*
X14129000Y3209000D03*
%TO.N,Net-(TP4-Pad1)*%
X15623488Y4843532D03*
X15739000Y3619000D03*
%TO.N,A2*%
X15449000Y3069000D03*
X12365906Y3659000D03*
%TO.N,A1*%
X13629000Y2459000D03*
X8889000Y3054000D03*
%TO.N,A4*%
X6039000Y2579000D03*
X6849000Y4239000D03*
%TO.N,OE_N*%
X10959000Y6874009D03*
X15199000Y6949000D03*
%TO.N,D2*%
X16879000Y6059000D03*
X14919000Y6299000D03*
%TO.N,D3*%
X11990413Y5146478D03*
X16079000Y5855257D03*
%TO.N,Net-(TP6-Pad1)*%
X11914000Y3204000D03*
%TD*%
D12*
%TO.N,+3V3*%
G36*
X2753724Y8869942D02*
G01*
X2696283Y8731267D01*
X2667000Y8584050D01*
X2667000Y8433950D01*
X2696283Y8286733D01*
X2753724Y8148058D01*
X2837116Y8023253D01*
X2943253Y7917116D01*
X3068058Y7833724D01*
X3206733Y7776283D01*
X3353950Y7747000D01*
X3504050Y7747000D01*
X3651267Y7776283D01*
X3789942Y7833724D01*
X3914747Y7917116D01*
X4020884Y8023253D01*
X4104276Y8148058D01*
X4161717Y8286733D01*
X4191000Y8433950D01*
X4191000Y8584050D01*
X4161717Y8731267D01*
X4104276Y8869942D01*
X4022987Y8991600D01*
X5375013Y8991600D01*
X5293724Y8869942D01*
X5236283Y8731267D01*
X5207000Y8584050D01*
X5207000Y8433950D01*
X5236283Y8286733D01*
X5293724Y8148058D01*
X5377116Y8023253D01*
X5483253Y7917116D01*
X5608058Y7833724D01*
X5746733Y7776283D01*
X5893950Y7747000D01*
X6044050Y7747000D01*
X6191267Y7776283D01*
X6329942Y7833724D01*
X6397753Y7879034D01*
X6781000Y7879034D01*
X6781000Y7778966D01*
X6800522Y7680822D01*
X6838816Y7588372D01*
X6894411Y7505169D01*
X6965169Y7434411D01*
X7048372Y7378816D01*
X7140822Y7340522D01*
X7238966Y7321000D01*
X7339034Y7321000D01*
X7437178Y7340522D01*
X7529628Y7378816D01*
X7612831Y7434411D01*
X7683589Y7505169D01*
X7739184Y7588372D01*
X7777478Y7680822D01*
X7797000Y7778966D01*
X7797000Y7879034D01*
X7777478Y7977178D01*
X7739184Y8069628D01*
X7683589Y8152831D01*
X7612831Y8223589D01*
X7529628Y8279184D01*
X7437178Y8317478D01*
X7339034Y8337000D01*
X7238966Y8337000D01*
X7140822Y8317478D01*
X7048372Y8279184D01*
X6965169Y8223589D01*
X6894411Y8152831D01*
X6838816Y8069628D01*
X6800522Y7977178D01*
X6781000Y7879034D01*
X6397753Y7879034D01*
X6454747Y7917116D01*
X6560884Y8023253D01*
X6644276Y8148058D01*
X6701717Y8286733D01*
X6731000Y8433950D01*
X6731000Y8584050D01*
X6701717Y8731267D01*
X6644276Y8869942D01*
X6562987Y8991600D01*
X7915013Y8991600D01*
X7833724Y8869942D01*
X7776283Y8731267D01*
X7747000Y8584050D01*
X7747000Y8433950D01*
X7776283Y8286733D01*
X7833724Y8148058D01*
X7917116Y8023253D01*
X8023253Y7917116D01*
X8148058Y7833724D01*
X8286733Y7776283D01*
X8433950Y7747000D01*
X8584050Y7747000D01*
X8731267Y7776283D01*
X8869942Y7833724D01*
X8994747Y7917116D01*
X9100884Y8023253D01*
X9184276Y8148058D01*
X9241717Y8286733D01*
X9271000Y8433950D01*
X9271000Y8584050D01*
X9241717Y8731267D01*
X9184276Y8869942D01*
X9102987Y8991600D01*
X10455013Y8991600D01*
X10373724Y8869942D01*
X10316283Y8731267D01*
X10287000Y8584050D01*
X10287000Y8433950D01*
X10316283Y8286733D01*
X10373724Y8148058D01*
X10457116Y8023253D01*
X10563253Y7917116D01*
X10688058Y7833724D01*
X10826733Y7776283D01*
X10973950Y7747000D01*
X11124050Y7747000D01*
X11271267Y7776283D01*
X11409942Y7833724D01*
X11534747Y7917116D01*
X11640884Y8023253D01*
X11724276Y8148058D01*
X11781717Y8286733D01*
X11811000Y8433950D01*
X11811000Y8584050D01*
X11781717Y8731267D01*
X11724276Y8869942D01*
X11642987Y8991600D01*
X12995013Y8991600D01*
X12913724Y8869942D01*
X12856283Y8731267D01*
X12827000Y8584050D01*
X12827000Y8433950D01*
X12856283Y8286733D01*
X12913724Y8148058D01*
X12997116Y8023253D01*
X13103253Y7917116D01*
X13228058Y7833724D01*
X13366733Y7776283D01*
X13513950Y7747000D01*
X13664050Y7747000D01*
X13811267Y7776283D01*
X13949942Y7833724D01*
X14074747Y7917116D01*
X14180884Y8023253D01*
X14264276Y8148058D01*
X14321717Y8286733D01*
X14351000Y8433950D01*
X14351000Y8584050D01*
X14321717Y8731267D01*
X14264276Y8869942D01*
X14182987Y8991600D01*
X15535013Y8991600D01*
X15453724Y8869942D01*
X15396283Y8731267D01*
X15367000Y8584050D01*
X15367000Y8433950D01*
X15396283Y8286733D01*
X15453724Y8148058D01*
X15537116Y8023253D01*
X15643253Y7917116D01*
X15768058Y7833724D01*
X15906733Y7776283D01*
X16053950Y7747000D01*
X16204050Y7747000D01*
X16351267Y7776283D01*
X16489942Y7833724D01*
X16614747Y7917116D01*
X16720884Y8023253D01*
X16804276Y8148058D01*
X16861717Y8286733D01*
X16891000Y8433950D01*
X16891000Y8584050D01*
X16861717Y8731267D01*
X16804276Y8869942D01*
X16722987Y8991600D01*
X18075013Y8991600D01*
X17993724Y8869942D01*
X17936283Y8731267D01*
X17907000Y8584050D01*
X17907000Y8433950D01*
X17936283Y8286733D01*
X17993724Y8148058D01*
X18077116Y8023253D01*
X18183253Y7917116D01*
X18308058Y7833724D01*
X18446733Y7776283D01*
X18593950Y7747000D01*
X18744050Y7747000D01*
X18891267Y7776283D01*
X19029942Y7833724D01*
X19151600Y7915013D01*
X19151600Y6015794D01*
X19087178Y6042478D01*
X18989034Y6062000D01*
X18888966Y6062000D01*
X18790822Y6042478D01*
X18709022Y6008595D01*
X18726998Y6098966D01*
X18726998Y6199034D01*
X18707476Y6297178D01*
X18669182Y6389628D01*
X18613587Y6472831D01*
X18542829Y6543589D01*
X18459626Y6599184D01*
X18367176Y6637478D01*
X18269032Y6657000D01*
X18168964Y6657000D01*
X18070820Y6637478D01*
X17978370Y6599184D01*
X17895167Y6543589D01*
X17824409Y6472831D01*
X17768814Y6389628D01*
X17753640Y6352995D01*
X17717403Y6368005D01*
X17619259Y6387527D01*
X17519191Y6387527D01*
X17421047Y6368005D01*
X17328597Y6329711D01*
X17315106Y6320697D01*
X17273589Y6382831D01*
X17202831Y6453589D01*
X17119628Y6509184D01*
X17027178Y6547478D01*
X16929034Y6567000D01*
X16828966Y6567000D01*
X16730822Y6547478D01*
X16638372Y6509184D01*
X16555169Y6453589D01*
X16484411Y6382831D01*
X16428816Y6299628D01*
X16406624Y6246053D01*
X16402831Y6249846D01*
X16319628Y6305441D01*
X16227178Y6343735D01*
X16129034Y6363257D01*
X16028966Y6363257D01*
X15930822Y6343735D01*
X15838372Y6305441D01*
X15755169Y6249846D01*
X15684411Y6179088D01*
X15628816Y6095885D01*
X15590522Y6003435D01*
X15571000Y5905291D01*
X15571000Y5805223D01*
X15590522Y5707079D01*
X15628816Y5614629D01*
X15684411Y5531426D01*
X15755169Y5460668D01*
X15838372Y5405073D01*
X15930822Y5366779D01*
X16028966Y5347257D01*
X16129034Y5347257D01*
X16227178Y5366779D01*
X16319628Y5405073D01*
X16402831Y5460668D01*
X16473589Y5531426D01*
X16529184Y5614629D01*
X16551376Y5668204D01*
X16555169Y5664411D01*
X16638372Y5608816D01*
X16730822Y5570522D01*
X16828966Y5551000D01*
X16929034Y5551000D01*
X17027178Y5570522D01*
X17119628Y5608816D01*
X17133119Y5617830D01*
X17174636Y5555696D01*
X17235690Y5494642D01*
X17198372Y5479184D01*
X17115169Y5423589D01*
X17044411Y5352831D01*
X16988816Y5269628D01*
X16950522Y5177178D01*
X16931000Y5079034D01*
X16931000Y4978966D01*
X16950522Y4880822D01*
X16988816Y4788372D01*
X17044411Y4705169D01*
X17115169Y4634411D01*
X17198372Y4578816D01*
X17290822Y4540522D01*
X17388966Y4521000D01*
X17489034Y4521000D01*
X17587178Y4540522D01*
X17679628Y4578816D01*
X17762831Y4634411D01*
X17833589Y4705169D01*
X17889184Y4788372D01*
X17927478Y4880822D01*
X17947000Y4978966D01*
X17947000Y5079034D01*
X17927478Y5177178D01*
X17889184Y5269628D01*
X17833589Y5352831D01*
X17772535Y5413885D01*
X17809853Y5429343D01*
X17893056Y5484938D01*
X17963814Y5555696D01*
X18019409Y5638899D01*
X18034583Y5675532D01*
X18070820Y5660522D01*
X18168964Y5641000D01*
X18269032Y5641000D01*
X18367176Y5660522D01*
X18448976Y5694405D01*
X18431000Y5604034D01*
X18431000Y5503966D01*
X18450522Y5405822D01*
X18458347Y5386931D01*
X18410822Y5377478D01*
X18318372Y5339184D01*
X18235169Y5283589D01*
X18164411Y5212831D01*
X18108816Y5129628D01*
X18070522Y5037178D01*
X18051000Y4939034D01*
X18051000Y4838966D01*
X18070522Y4740822D01*
X18108816Y4648372D01*
X18164411Y4565169D01*
X18235169Y4494411D01*
X18318372Y4438816D01*
X18410822Y4400522D01*
X18508966Y4381000D01*
X18609034Y4381000D01*
X18707178Y4400522D01*
X18799628Y4438816D01*
X18882831Y4494411D01*
X18953589Y4565169D01*
X19009184Y4648372D01*
X19047478Y4740822D01*
X19067000Y4838966D01*
X19067000Y4939034D01*
X19047478Y5037178D01*
X19039653Y5056069D01*
X19087178Y5065522D01*
X19151600Y5092206D01*
X19151600Y1482987D01*
X19029942Y1564276D01*
X18891267Y1621717D01*
X18744050Y1651000D01*
X18593950Y1651000D01*
X18446733Y1621717D01*
X18308058Y1564276D01*
X18183253Y1480884D01*
X18077116Y1374747D01*
X17993724Y1249942D01*
X17936283Y1111267D01*
X17907000Y964050D01*
X17907000Y813950D01*
X17936283Y666733D01*
X17993724Y528058D01*
X18075013Y406400D01*
X16722987Y406400D01*
X16804276Y528058D01*
X16861717Y666733D01*
X16891000Y813950D01*
X16891000Y964050D01*
X16861717Y1111267D01*
X16804276Y1249942D01*
X16720884Y1374747D01*
X16614747Y1480884D01*
X16489942Y1564276D01*
X16351267Y1621717D01*
X16204050Y1651000D01*
X16053950Y1651000D01*
X15906733Y1621717D01*
X15768058Y1564276D01*
X15643253Y1480884D01*
X15537116Y1374747D01*
X15453724Y1249942D01*
X15396283Y1111267D01*
X15367000Y964050D01*
X15367000Y813950D01*
X15396283Y666733D01*
X15453724Y528058D01*
X15535013Y406400D01*
X14182987Y406400D01*
X14264276Y528058D01*
X14321717Y666733D01*
X14351000Y813950D01*
X14351000Y964050D01*
X14321717Y1111267D01*
X14264276Y1249942D01*
X14180884Y1374747D01*
X14126597Y1429034D01*
X14331000Y1429034D01*
X14331000Y1328966D01*
X14350522Y1230822D01*
X14388816Y1138372D01*
X14444411Y1055169D01*
X14515169Y984411D01*
X14598372Y928816D01*
X14690822Y890522D01*
X14788966Y871000D01*
X14889034Y871000D01*
X14987178Y890522D01*
X15079628Y928816D01*
X15162831Y984411D01*
X15233589Y1055169D01*
X15289184Y1138372D01*
X15327478Y1230822D01*
X15347000Y1328966D01*
X15347000Y1429034D01*
X15327478Y1527178D01*
X15289184Y1619628D01*
X15233589Y1702831D01*
X15162831Y1773589D01*
X15079628Y1829184D01*
X14987178Y1867478D01*
X14889034Y1887000D01*
X14788966Y1887000D01*
X14690822Y1867478D01*
X14598372Y1829184D01*
X14515169Y1773589D01*
X14444411Y1702831D01*
X14388816Y1619628D01*
X14350522Y1527178D01*
X14331000Y1429034D01*
X14126597Y1429034D01*
X14074747Y1480884D01*
X13949942Y1564276D01*
X13811267Y1621717D01*
X13664050Y1651000D01*
X13513950Y1651000D01*
X13366733Y1621717D01*
X13228058Y1564276D01*
X13103253Y1480884D01*
X12997116Y1374747D01*
X12913724Y1249942D01*
X12856283Y1111267D01*
X12827000Y964050D01*
X12827000Y813950D01*
X12856283Y666733D01*
X12913724Y528058D01*
X12995013Y406400D01*
X11642987Y406400D01*
X11724276Y528058D01*
X11781717Y666733D01*
X11811000Y813950D01*
X11811000Y964050D01*
X11781717Y1111267D01*
X11724276Y1249942D01*
X11684793Y1309034D01*
X11801000Y1309034D01*
X11801000Y1208966D01*
X11820522Y1110822D01*
X11858816Y1018372D01*
X11914411Y935169D01*
X11985169Y864411D01*
X12068372Y808816D01*
X12160822Y770522D01*
X12258966Y751000D01*
X12359034Y751000D01*
X12457178Y770522D01*
X12549628Y808816D01*
X12632831Y864411D01*
X12703589Y935169D01*
X12759184Y1018372D01*
X12797478Y1110822D01*
X12817000Y1208966D01*
X12817000Y1309034D01*
X12797478Y1407178D01*
X12759184Y1499628D01*
X12703589Y1582831D01*
X12632831Y1653589D01*
X12549628Y1709184D01*
X12457178Y1747478D01*
X12359034Y1767000D01*
X12258966Y1767000D01*
X12160822Y1747478D01*
X12068372Y1709184D01*
X11985169Y1653589D01*
X11914411Y1582831D01*
X11858816Y1499628D01*
X11820522Y1407178D01*
X11801000Y1309034D01*
X11684793Y1309034D01*
X11640884Y1374747D01*
X11534747Y1480884D01*
X11409942Y1564276D01*
X11334108Y1595688D01*
X11403589Y1665169D01*
X11459184Y1748372D01*
X11497478Y1840822D01*
X11517000Y1938966D01*
X11517000Y2039034D01*
X11497478Y2137178D01*
X11459184Y2229628D01*
X11403589Y2312831D01*
X11332831Y2383589D01*
X11249628Y2439184D01*
X11157178Y2477478D01*
X11059034Y2497000D01*
X10958966Y2497000D01*
X10860822Y2477478D01*
X10768372Y2439184D01*
X10685169Y2383589D01*
X10614411Y2312831D01*
X10558816Y2229628D01*
X10520522Y2137178D01*
X10501000Y2039034D01*
X10501000Y1938966D01*
X10520522Y1840822D01*
X10558816Y1748372D01*
X10614411Y1665169D01*
X10685169Y1594411D01*
X10714116Y1575069D01*
X10688058Y1564276D01*
X10563253Y1480884D01*
X10457116Y1374747D01*
X10373724Y1249942D01*
X10316283Y1111267D01*
X10287000Y964050D01*
X10287000Y813950D01*
X10316283Y666733D01*
X10373724Y528058D01*
X10455013Y406400D01*
X9102987Y406400D01*
X9184276Y528058D01*
X9241717Y666733D01*
X9271000Y813950D01*
X9271000Y964050D01*
X9241717Y1111267D01*
X9184276Y1249942D01*
X9100884Y1374747D01*
X9096597Y1379034D01*
X9231000Y1379034D01*
X9231000Y1278966D01*
X9250522Y1180822D01*
X9288816Y1088372D01*
X9344411Y1005169D01*
X9415169Y934411D01*
X9498372Y878816D01*
X9590822Y840522D01*
X9688966Y821000D01*
X9789034Y821000D01*
X9887178Y840522D01*
X9979628Y878816D01*
X10062831Y934411D01*
X10133589Y1005169D01*
X10189184Y1088372D01*
X10227478Y1180822D01*
X10247000Y1278966D01*
X10247000Y1379034D01*
X10227478Y1477178D01*
X10189184Y1569628D01*
X10133589Y1652831D01*
X10062831Y1723589D01*
X9979628Y1779184D01*
X9887178Y1817478D01*
X9789034Y1837000D01*
X9688966Y1837000D01*
X9590822Y1817478D01*
X9498372Y1779184D01*
X9415169Y1723589D01*
X9344411Y1652831D01*
X9288816Y1569628D01*
X9250522Y1477178D01*
X9231000Y1379034D01*
X9096597Y1379034D01*
X8994747Y1480884D01*
X8869942Y1564276D01*
X8731267Y1621717D01*
X8584050Y1651000D01*
X8433950Y1651000D01*
X8286733Y1621717D01*
X8148058Y1564276D01*
X8023253Y1480884D01*
X7917116Y1374747D01*
X7833724Y1249942D01*
X7776283Y1111267D01*
X7747000Y964050D01*
X7747000Y813950D01*
X7776283Y666733D01*
X7833724Y528058D01*
X7915013Y406400D01*
X6562987Y406400D01*
X6644276Y528058D01*
X6701717Y666733D01*
X6731000Y813950D01*
X6731000Y964050D01*
X6701717Y1111267D01*
X6644276Y1249942D01*
X6560884Y1374747D01*
X6454747Y1480884D01*
X6329942Y1564276D01*
X6191267Y1621717D01*
X6044050Y1651000D01*
X5893950Y1651000D01*
X5746733Y1621717D01*
X5608058Y1564276D01*
X5483253Y1480884D01*
X5377116Y1374747D01*
X5293724Y1249942D01*
X5236283Y1111267D01*
X5207000Y964050D01*
X5207000Y813950D01*
X5236283Y666733D01*
X5293724Y528058D01*
X5375013Y406400D01*
X4022987Y406400D01*
X4104276Y528058D01*
X4161717Y666733D01*
X4191000Y813950D01*
X4191000Y964050D01*
X4161717Y1111267D01*
X4104276Y1249942D01*
X4020884Y1374747D01*
X4016597Y1379034D01*
X4131000Y1379034D01*
X4131000Y1278966D01*
X4150522Y1180822D01*
X4188816Y1088372D01*
X4244411Y1005169D01*
X4315169Y934411D01*
X4398372Y878816D01*
X4490822Y840522D01*
X4588966Y821000D01*
X4689034Y821000D01*
X4787178Y840522D01*
X4879628Y878816D01*
X4962831Y934411D01*
X5033589Y1005169D01*
X5089184Y1088372D01*
X5127478Y1180822D01*
X5147000Y1278966D01*
X5147000Y1379034D01*
X5127478Y1477178D01*
X5089184Y1569628D01*
X5033589Y1652831D01*
X4962831Y1723589D01*
X4879628Y1779184D01*
X4787178Y1817478D01*
X4689034Y1837000D01*
X4588966Y1837000D01*
X4490822Y1817478D01*
X4398372Y1779184D01*
X4315169Y1723589D01*
X4244411Y1652831D01*
X4188816Y1569628D01*
X4150522Y1477178D01*
X4131000Y1379034D01*
X4016597Y1379034D01*
X3914747Y1480884D01*
X3789942Y1564276D01*
X3651267Y1621717D01*
X3504050Y1651000D01*
X3353950Y1651000D01*
X3206733Y1621717D01*
X3068058Y1564276D01*
X2943253Y1480884D01*
X2837116Y1374747D01*
X2753724Y1249942D01*
X2696283Y1111267D01*
X2667000Y964050D01*
X2667000Y813950D01*
X2696283Y666733D01*
X2753724Y528058D01*
X2835013Y406400D01*
X1482987Y406400D01*
X1564276Y528058D01*
X1621717Y666733D01*
X1651000Y813950D01*
X1651000Y964050D01*
X1621717Y1111267D01*
X1564276Y1249942D01*
X1480884Y1374747D01*
X1374747Y1480884D01*
X1249942Y1564276D01*
X1111267Y1621717D01*
X964050Y1651000D01*
X813950Y1651000D01*
X666733Y1621717D01*
X528058Y1564276D01*
X406400Y1482987D01*
X406400Y2969034D01*
X461000Y2969034D01*
X461000Y2868966D01*
X480522Y2770822D01*
X518816Y2678372D01*
X574411Y2595169D01*
X645169Y2524411D01*
X728372Y2468816D01*
X820822Y2430522D01*
X918966Y2411000D01*
X1019034Y2411000D01*
X1117178Y2430522D01*
X1209628Y2468816D01*
X1292831Y2524411D01*
X1363589Y2595169D01*
X1386217Y2629034D01*
X5531000Y2629034D01*
X5531000Y2528966D01*
X5550522Y2430822D01*
X5588816Y2338372D01*
X5644411Y2255169D01*
X5715169Y2184411D01*
X5798372Y2128816D01*
X5890822Y2090522D01*
X5988966Y2071000D01*
X6089034Y2071000D01*
X6187178Y2090522D01*
X6279628Y2128816D01*
X6362831Y2184411D01*
X6433589Y2255169D01*
X6489184Y2338372D01*
X6527478Y2430822D01*
X6543035Y2509034D01*
X13121000Y2509034D01*
X13121000Y2408966D01*
X13140522Y2310822D01*
X13178816Y2218372D01*
X13234411Y2135169D01*
X13305169Y2064411D01*
X13388372Y2008816D01*
X13480822Y1970522D01*
X13578966Y1951000D01*
X13679034Y1951000D01*
X13777178Y1970522D01*
X13869628Y2008816D01*
X13952831Y2064411D01*
X14023589Y2135169D01*
X14026171Y2139034D01*
X16621000Y2139034D01*
X16621000Y2038966D01*
X16640522Y1940822D01*
X16678816Y1848372D01*
X16734411Y1765169D01*
X16805169Y1694411D01*
X16888372Y1638816D01*
X16980822Y1600522D01*
X17078966Y1581000D01*
X17179034Y1581000D01*
X17277178Y1600522D01*
X17369628Y1638816D01*
X17452831Y1694411D01*
X17523589Y1765169D01*
X17579184Y1848372D01*
X17617478Y1940822D01*
X17637000Y2038966D01*
X17637000Y2139034D01*
X17617478Y2237178D01*
X17579184Y2329628D01*
X17523589Y2412831D01*
X17452831Y2483589D01*
X17369628Y2539184D01*
X17277178Y2577478D01*
X17179034Y2597000D01*
X17078966Y2597000D01*
X16980822Y2577478D01*
X16888372Y2539184D01*
X16805169Y2483589D01*
X16734411Y2412831D01*
X16678816Y2329628D01*
X16640522Y2237178D01*
X16621000Y2139034D01*
X14026171Y2139034D01*
X14079184Y2218372D01*
X14117478Y2310822D01*
X14137000Y2408966D01*
X14137000Y2509034D01*
X14117478Y2607178D01*
X14079184Y2699628D01*
X14078160Y2701160D01*
X14078966Y2701000D01*
X14179034Y2701000D01*
X14277178Y2720522D01*
X14369628Y2758816D01*
X14452831Y2814411D01*
X14523589Y2885169D01*
X14579184Y2968372D01*
X14617478Y3060822D01*
X14629057Y3119034D01*
X14941000Y3119034D01*
X14941000Y3018966D01*
X14960522Y2920822D01*
X14998816Y2828372D01*
X15054411Y2745169D01*
X15125169Y2674411D01*
X15208372Y2618816D01*
X15300822Y2580522D01*
X15398966Y2561000D01*
X15499034Y2561000D01*
X15597178Y2580522D01*
X15641869Y2599034D01*
X17751000Y2599034D01*
X17751000Y2498966D01*
X17770522Y2400822D01*
X17808816Y2308372D01*
X17864411Y2225169D01*
X17935169Y2154411D01*
X18018372Y2098816D01*
X18110822Y2060522D01*
X18208966Y2041000D01*
X18309034Y2041000D01*
X18407178Y2060522D01*
X18499628Y2098816D01*
X18582831Y2154411D01*
X18653589Y2225169D01*
X18709184Y2308372D01*
X18747478Y2400822D01*
X18767000Y2498966D01*
X18767000Y2599034D01*
X18747478Y2697178D01*
X18709184Y2789628D01*
X18653589Y2872831D01*
X18582831Y2943589D01*
X18499628Y2999184D01*
X18407178Y3037478D01*
X18309034Y3057000D01*
X18208966Y3057000D01*
X18110822Y3037478D01*
X18018372Y2999184D01*
X17935169Y2943589D01*
X17864411Y2872831D01*
X17808816Y2789628D01*
X17770522Y2697178D01*
X17751000Y2599034D01*
X15641869Y2599034D01*
X15689628Y2618816D01*
X15772831Y2674411D01*
X15843589Y2745169D01*
X15899184Y2828372D01*
X15937478Y2920822D01*
X15957000Y3018966D01*
X15957000Y3119034D01*
X15949574Y3156367D01*
X15979628Y3168816D01*
X15979954Y3169034D01*
X16311000Y3169034D01*
X16311000Y3068966D01*
X16330522Y2970822D01*
X16368816Y2878372D01*
X16424411Y2795169D01*
X16495169Y2724411D01*
X16578372Y2668816D01*
X16670822Y2630522D01*
X16768966Y2611000D01*
X16869034Y2611000D01*
X16967178Y2630522D01*
X17059628Y2668816D01*
X17142831Y2724411D01*
X17213589Y2795169D01*
X17269184Y2878372D01*
X17307478Y2970822D01*
X17327000Y3068966D01*
X17327000Y3169034D01*
X17307478Y3267178D01*
X17269184Y3359628D01*
X17213589Y3442831D01*
X17142831Y3513589D01*
X17059628Y3569184D01*
X16967178Y3607478D01*
X16869034Y3627000D01*
X16768966Y3627000D01*
X16670822Y3607478D01*
X16578372Y3569184D01*
X16495169Y3513589D01*
X16424411Y3442831D01*
X16368816Y3359628D01*
X16330522Y3267178D01*
X16311000Y3169034D01*
X15979954Y3169034D01*
X16062831Y3224411D01*
X16133589Y3295169D01*
X16189184Y3378372D01*
X16227478Y3470822D01*
X16247000Y3568966D01*
X16247000Y3669034D01*
X16227478Y3767178D01*
X16189184Y3859628D01*
X16133589Y3942831D01*
X16062831Y4013589D01*
X15979628Y4069184D01*
X15887178Y4107478D01*
X15789034Y4127000D01*
X15688966Y4127000D01*
X15590822Y4107478D01*
X15498372Y4069184D01*
X15415169Y4013589D01*
X15344411Y3942831D01*
X15288816Y3859628D01*
X15250522Y3767178D01*
X15231000Y3669034D01*
X15231000Y3568966D01*
X15238426Y3531633D01*
X15208372Y3519184D01*
X15125169Y3463589D01*
X15054411Y3392831D01*
X14998816Y3309628D01*
X14960522Y3217178D01*
X14941000Y3119034D01*
X14629057Y3119034D01*
X14637000Y3158966D01*
X14637000Y3259034D01*
X14617478Y3357178D01*
X14579184Y3449628D01*
X14523589Y3532831D01*
X14452831Y3603589D01*
X14369628Y3659184D01*
X14277178Y3697478D01*
X14179034Y3717000D01*
X14078966Y3717000D01*
X13980822Y3697478D01*
X13888372Y3659184D01*
X13805169Y3603589D01*
X13734411Y3532831D01*
X13678816Y3449628D01*
X13640522Y3357178D01*
X13621000Y3259034D01*
X13621000Y3158966D01*
X13640522Y3060822D01*
X13678816Y2968372D01*
X13679840Y2966840D01*
X13679034Y2967000D01*
X13578966Y2967000D01*
X13480822Y2947478D01*
X13388372Y2909184D01*
X13305169Y2853589D01*
X13234411Y2782831D01*
X13178816Y2699628D01*
X13140522Y2607178D01*
X13121000Y2509034D01*
X6543035Y2509034D01*
X6547000Y2528966D01*
X6547000Y2629034D01*
X6527478Y2727178D01*
X6489184Y2819628D01*
X6433589Y2902831D01*
X6362831Y2973589D01*
X6279628Y3029184D01*
X6187178Y3067478D01*
X6089034Y3087000D01*
X5988966Y3087000D01*
X5890822Y3067478D01*
X5798372Y3029184D01*
X5715169Y2973589D01*
X5644411Y2902831D01*
X5588816Y2819628D01*
X5550522Y2727178D01*
X5531000Y2629034D01*
X1386217Y2629034D01*
X1419184Y2678372D01*
X1457478Y2770822D01*
X1477000Y2868966D01*
X1477000Y2969034D01*
X1457478Y3067178D01*
X1442212Y3104034D01*
X8381000Y3104034D01*
X8381000Y3003966D01*
X8400522Y2905822D01*
X8438816Y2813372D01*
X8494411Y2730169D01*
X8565169Y2659411D01*
X8648372Y2603816D01*
X8740822Y2565522D01*
X8838966Y2546000D01*
X8939034Y2546000D01*
X9037178Y2565522D01*
X9129628Y2603816D01*
X9212831Y2659411D01*
X9283589Y2730169D01*
X9339184Y2813372D01*
X9377478Y2905822D01*
X9397000Y3003966D01*
X9397000Y3104034D01*
X9377478Y3202178D01*
X9355999Y3254034D01*
X11406000Y3254034D01*
X11406000Y3153966D01*
X11425522Y3055822D01*
X11463816Y2963372D01*
X11519411Y2880169D01*
X11590169Y2809411D01*
X11673372Y2753816D01*
X11765822Y2715522D01*
X11863966Y2696000D01*
X11964034Y2696000D01*
X12062178Y2715522D01*
X12154628Y2753816D01*
X12237831Y2809411D01*
X12308589Y2880169D01*
X12364184Y2963372D01*
X12402478Y3055822D01*
X12421635Y3152133D01*
X12514084Y3170522D01*
X12606534Y3208816D01*
X12689737Y3264411D01*
X12760495Y3335169D01*
X12816090Y3418372D01*
X12854384Y3510822D01*
X12873906Y3608966D01*
X12873906Y3709034D01*
X12854384Y3807178D01*
X12816090Y3899628D01*
X12771005Y3967103D01*
X12798372Y3948816D01*
X12890822Y3910522D01*
X12988966Y3891000D01*
X13089034Y3891000D01*
X13187178Y3910522D01*
X13279628Y3948816D01*
X13362831Y4004411D01*
X13433589Y4075169D01*
X13489184Y4158372D01*
X13527478Y4250822D01*
X13547000Y4348966D01*
X13547000Y4449034D01*
X13527478Y4547178D01*
X13489184Y4639628D01*
X13433589Y4722831D01*
X13362831Y4793589D01*
X13279628Y4849184D01*
X13187178Y4887478D01*
X13156572Y4893566D01*
X15115488Y4893566D01*
X15115488Y4793498D01*
X15135010Y4695354D01*
X15173304Y4602904D01*
X15228899Y4519701D01*
X15299657Y4448943D01*
X15382860Y4393348D01*
X15475310Y4355054D01*
X15573454Y4335532D01*
X15673522Y4335532D01*
X15771666Y4355054D01*
X15864116Y4393348D01*
X15939921Y4443999D01*
X15958820Y4398372D01*
X16014415Y4315169D01*
X16085173Y4244411D01*
X16168376Y4188816D01*
X16260826Y4150522D01*
X16358970Y4131000D01*
X16459038Y4131000D01*
X16557182Y4150522D01*
X16649632Y4188816D01*
X16732835Y4244411D01*
X16803593Y4315169D01*
X16859188Y4398372D01*
X16897482Y4490822D01*
X16917004Y4588966D01*
X16917004Y4689034D01*
X16897482Y4787178D01*
X16859188Y4879628D01*
X16803593Y4962831D01*
X16732835Y5033589D01*
X16649632Y5089184D01*
X16557182Y5127478D01*
X16459038Y5147000D01*
X16358970Y5147000D01*
X16260826Y5127478D01*
X16168376Y5089184D01*
X16092571Y5038533D01*
X16073672Y5084160D01*
X16018077Y5167363D01*
X15947319Y5238121D01*
X15864116Y5293716D01*
X15771666Y5332010D01*
X15673522Y5351532D01*
X15573454Y5351532D01*
X15475310Y5332010D01*
X15382860Y5293716D01*
X15299657Y5238121D01*
X15228899Y5167363D01*
X15173304Y5084160D01*
X15135010Y4991710D01*
X15115488Y4893566D01*
X13156572Y4893566D01*
X13089034Y4907000D01*
X12988966Y4907000D01*
X12890822Y4887478D01*
X12798372Y4849184D01*
X12715169Y4793589D01*
X12644411Y4722831D01*
X12588816Y4639628D01*
X12558273Y4565890D01*
X12533589Y4602831D01*
X12462831Y4673589D01*
X12379628Y4729184D01*
X12317340Y4754985D01*
X12385002Y4822647D01*
X12440597Y4905850D01*
X12478891Y4998300D01*
X12498413Y5096444D01*
X12498413Y5196512D01*
X12478891Y5294656D01*
X12440597Y5387106D01*
X12385002Y5470309D01*
X12314244Y5541067D01*
X12231041Y5596662D01*
X12138591Y5634956D01*
X12040447Y5654478D01*
X11940379Y5654478D01*
X11842235Y5634956D01*
X11749785Y5596662D01*
X11666582Y5541067D01*
X11595824Y5470309D01*
X11540229Y5387106D01*
X11501935Y5294656D01*
X11482413Y5196512D01*
X11482413Y5096444D01*
X11501935Y4998300D01*
X11540229Y4905850D01*
X11595824Y4822647D01*
X11666582Y4751889D01*
X11749785Y4696294D01*
X11812073Y4670493D01*
X11744411Y4602831D01*
X11688816Y4519628D01*
X11650522Y4427178D01*
X11631000Y4329034D01*
X11631000Y4228966D01*
X11650522Y4130822D01*
X11688816Y4038372D01*
X11744411Y3955169D01*
X11815169Y3884411D01*
X11888988Y3835086D01*
X11877428Y3807178D01*
X11858271Y3710867D01*
X11765822Y3692478D01*
X11673372Y3654184D01*
X11590169Y3598589D01*
X11519411Y3527831D01*
X11463816Y3444628D01*
X11425522Y3352178D01*
X11406000Y3254034D01*
X9355999Y3254034D01*
X9339184Y3294628D01*
X9283589Y3377831D01*
X9212831Y3448589D01*
X9129628Y3504184D01*
X9037178Y3542478D01*
X8939034Y3562000D01*
X8838966Y3562000D01*
X8740822Y3542478D01*
X8648372Y3504184D01*
X8565169Y3448589D01*
X8494411Y3377831D01*
X8438816Y3294628D01*
X8400522Y3202178D01*
X8381000Y3104034D01*
X1442212Y3104034D01*
X1419184Y3159628D01*
X1363589Y3242831D01*
X1292831Y3313589D01*
X1209628Y3369184D01*
X1117178Y3407478D01*
X1019034Y3427000D01*
X918966Y3427000D01*
X820822Y3407478D01*
X728372Y3369184D01*
X645169Y3313589D01*
X574411Y3242831D01*
X518816Y3159628D01*
X480522Y3067178D01*
X461000Y2969034D01*
X406400Y2969034D01*
X406400Y3729034D01*
X3831000Y3729034D01*
X3831000Y3628966D01*
X3850522Y3530822D01*
X3888816Y3438372D01*
X3944411Y3355169D01*
X4015169Y3284411D01*
X4098372Y3228816D01*
X4190822Y3190522D01*
X4288966Y3171000D01*
X4389034Y3171000D01*
X4487178Y3190522D01*
X4579628Y3228816D01*
X4662831Y3284411D01*
X4733589Y3355169D01*
X4789184Y3438372D01*
X4827478Y3530822D01*
X4847000Y3628966D01*
X4847000Y3729034D01*
X4827478Y3827178D01*
X4789184Y3919628D01*
X4733589Y4002831D01*
X4662831Y4073589D01*
X4579628Y4129184D01*
X4487178Y4167478D01*
X4389034Y4187000D01*
X4288966Y4187000D01*
X4190822Y4167478D01*
X4098372Y4129184D01*
X4015169Y4073589D01*
X3944411Y4002831D01*
X3888816Y3919628D01*
X3850522Y3827178D01*
X3831000Y3729034D01*
X406400Y3729034D01*
X406400Y4164780D01*
X440822Y4150522D01*
X538966Y4131000D01*
X639034Y4131000D01*
X737178Y4150522D01*
X829628Y4188816D01*
X912831Y4244411D01*
X983589Y4315169D01*
X1039184Y4398372D01*
X1077478Y4490822D01*
X1097000Y4588966D01*
X1097000Y4689034D01*
X1077478Y4787178D01*
X1039184Y4879628D01*
X983589Y4962831D01*
X967420Y4979000D01*
X993589Y5005169D01*
X1049184Y5088372D01*
X1087478Y5180822D01*
X1107000Y5278966D01*
X1107000Y5279034D01*
X1791000Y5279034D01*
X1791000Y5178966D01*
X1810522Y5080822D01*
X1848816Y4988372D01*
X1904411Y4905169D01*
X1975169Y4834411D01*
X2014530Y4808111D01*
X1988816Y4769628D01*
X1950522Y4677178D01*
X1931000Y4579034D01*
X1931000Y4478966D01*
X1950522Y4380822D01*
X1988816Y4288372D01*
X2044411Y4205169D01*
X2115169Y4134411D01*
X2198372Y4078816D01*
X2290822Y4040522D01*
X2388966Y4021000D01*
X2489034Y4021000D01*
X2587178Y4040522D01*
X2679628Y4078816D01*
X2762831Y4134411D01*
X2833589Y4205169D01*
X2889184Y4288372D01*
X2927478Y4380822D01*
X2947000Y4478966D01*
X2947000Y4579034D01*
X2927478Y4677178D01*
X2889184Y4769628D01*
X2833589Y4852831D01*
X2762831Y4923589D01*
X2723470Y4949889D01*
X2749184Y4988372D01*
X2787478Y5080822D01*
X2807000Y5178966D01*
X2807000Y5279034D01*
X2787478Y5377178D01*
X2749184Y5469628D01*
X2693589Y5552831D01*
X2622831Y5623589D01*
X2539628Y5679184D01*
X2447178Y5717478D01*
X2349034Y5737000D01*
X2248966Y5737000D01*
X2150822Y5717478D01*
X2058372Y5679184D01*
X1975169Y5623589D01*
X1904411Y5552831D01*
X1848816Y5469628D01*
X1810522Y5377178D01*
X1791000Y5279034D01*
X1107000Y5279034D01*
X1107000Y5379034D01*
X1087478Y5477178D01*
X1049184Y5569628D01*
X993589Y5652831D01*
X922831Y5723589D01*
X839628Y5779184D01*
X747178Y5817478D01*
X649034Y5837000D01*
X548966Y5837000D01*
X450822Y5817478D01*
X406400Y5799078D01*
X406400Y6139034D01*
X3621000Y6139034D01*
X3621000Y6038966D01*
X3640522Y5940822D01*
X3678816Y5848372D01*
X3734411Y5765169D01*
X3805169Y5694411D01*
X3883481Y5642084D01*
X3805169Y5589757D01*
X3734411Y5518999D01*
X3678816Y5435796D01*
X3640522Y5343346D01*
X3621000Y5245202D01*
X3621000Y5145134D01*
X3640522Y5046990D01*
X3678816Y4954540D01*
X3734411Y4871337D01*
X3805169Y4800579D01*
X3888372Y4744984D01*
X3980822Y4706690D01*
X4078966Y4687168D01*
X4179034Y4687168D01*
X4277178Y4706690D01*
X4369628Y4744984D01*
X4452831Y4800579D01*
X4523589Y4871337D01*
X4562141Y4929034D01*
X5931000Y4929034D01*
X5931000Y4828966D01*
X5950522Y4730822D01*
X5988816Y4638372D01*
X6044411Y4555169D01*
X6115169Y4484411D01*
X6198372Y4428816D01*
X6290822Y4390522D01*
X6358509Y4377058D01*
X6341000Y4289034D01*
X6341000Y4188966D01*
X6360522Y4090822D01*
X6398816Y3998372D01*
X6454411Y3915169D01*
X6525169Y3844411D01*
X6608372Y3788816D01*
X6700822Y3750522D01*
X6798966Y3731000D01*
X6899034Y3731000D01*
X6997178Y3750522D01*
X7089628Y3788816D01*
X7172831Y3844411D01*
X7243589Y3915169D01*
X7299184Y3998372D01*
X7337478Y4090822D01*
X7357000Y4188966D01*
X7357000Y4289034D01*
X7339843Y4375291D01*
X7631000Y4375291D01*
X7631000Y4275223D01*
X7650522Y4177079D01*
X7688816Y4084629D01*
X7744411Y4001426D01*
X7815169Y3930668D01*
X7898372Y3875073D01*
X7990822Y3836779D01*
X8088966Y3817257D01*
X8189034Y3817257D01*
X8287178Y3836779D01*
X8379628Y3875073D01*
X8462831Y3930668D01*
X8533589Y4001426D01*
X8589184Y4084629D01*
X8627478Y4177079D01*
X8647000Y4275223D01*
X8647000Y4375291D01*
X8627478Y4473435D01*
X8589184Y4565885D01*
X8533589Y4649088D01*
X8462831Y4719846D01*
X8379628Y4775441D01*
X8287178Y4813735D01*
X8189034Y4833257D01*
X8088966Y4833257D01*
X7990822Y4813735D01*
X7898372Y4775441D01*
X7815169Y4719846D01*
X7744411Y4649088D01*
X7688816Y4565885D01*
X7650522Y4473435D01*
X7631000Y4375291D01*
X7339843Y4375291D01*
X7337478Y4387178D01*
X7299184Y4479628D01*
X7243589Y4562831D01*
X7172831Y4633589D01*
X7089628Y4689184D01*
X6997178Y4727478D01*
X6929491Y4740942D01*
X6947000Y4828966D01*
X6947000Y4929034D01*
X6927478Y5027178D01*
X6889184Y5119628D01*
X6833589Y5202831D01*
X6762831Y5273589D01*
X6679628Y5329184D01*
X6587178Y5367478D01*
X6489034Y5387000D01*
X6388966Y5387000D01*
X6290822Y5367478D01*
X6198372Y5329184D01*
X6115169Y5273589D01*
X6044411Y5202831D01*
X5988816Y5119628D01*
X5950522Y5027178D01*
X5931000Y4929034D01*
X4562141Y4929034D01*
X4579184Y4954540D01*
X4617478Y5046990D01*
X4637000Y5145134D01*
X4637000Y5245202D01*
X4617478Y5343346D01*
X4579184Y5435796D01*
X4523589Y5518999D01*
X4452831Y5589757D01*
X4374519Y5642084D01*
X4452831Y5694411D01*
X4523589Y5765169D01*
X4579184Y5848372D01*
X4617478Y5940822D01*
X4637000Y6038966D01*
X4637000Y6112866D01*
X5381000Y6112866D01*
X5381000Y6012798D01*
X5400522Y5914654D01*
X5438816Y5822204D01*
X5494411Y5739001D01*
X5565169Y5668243D01*
X5648372Y5612648D01*
X5740822Y5574354D01*
X5838966Y5554832D01*
X5939034Y5554832D01*
X6037178Y5574354D01*
X6129628Y5612648D01*
X6212831Y5668243D01*
X6283589Y5739001D01*
X6339184Y5822204D01*
X6377478Y5914654D01*
X6397000Y6012798D01*
X6397000Y6112866D01*
X6377478Y6211010D01*
X6341018Y6299034D01*
X11931000Y6299034D01*
X11931000Y6198966D01*
X11950522Y6100822D01*
X11988816Y6008372D01*
X12044411Y5925169D01*
X12115169Y5854411D01*
X12198372Y5798816D01*
X12290822Y5760522D01*
X12388966Y5741000D01*
X12489034Y5741000D01*
X12587178Y5760522D01*
X12679628Y5798816D01*
X12762831Y5854411D01*
X12775659Y5867239D01*
X12842883Y5822321D01*
X12935333Y5784027D01*
X13033477Y5764505D01*
X13133545Y5764505D01*
X13231689Y5784027D01*
X13324139Y5822321D01*
X13407342Y5877916D01*
X13478100Y5948674D01*
X13533695Y6031877D01*
X13571989Y6124327D01*
X13590901Y6219407D01*
X13608522Y6130822D01*
X13646816Y6038372D01*
X13702411Y5955169D01*
X13773169Y5884411D01*
X13856372Y5828816D01*
X13948822Y5790522D01*
X14046966Y5771000D01*
X14147034Y5771000D01*
X14245178Y5790522D01*
X14337628Y5828816D01*
X14420831Y5884411D01*
X14491589Y5955169D01*
X14514682Y5989730D01*
X14524411Y5975169D01*
X14595169Y5904411D01*
X14678372Y5848816D01*
X14770822Y5810522D01*
X14868966Y5791000D01*
X14969034Y5791000D01*
X15067178Y5810522D01*
X15159628Y5848816D01*
X15242831Y5904411D01*
X15313589Y5975169D01*
X15369184Y6058372D01*
X15407478Y6150822D01*
X15427000Y6248966D01*
X15427000Y6349034D01*
X15407478Y6447178D01*
X15393929Y6479887D01*
X15439628Y6498816D01*
X15522831Y6554411D01*
X15593589Y6625169D01*
X15649184Y6708372D01*
X15687478Y6800822D01*
X15707000Y6898966D01*
X15707000Y6999034D01*
X15687478Y7097178D01*
X15649184Y7189628D01*
X15593589Y7272831D01*
X15522831Y7343589D01*
X15439628Y7399184D01*
X15347178Y7437478D01*
X15249034Y7457000D01*
X15148966Y7457000D01*
X15050822Y7437478D01*
X14958372Y7399184D01*
X14875169Y7343589D01*
X14804411Y7272831D01*
X14748816Y7189628D01*
X14710522Y7097178D01*
X14691000Y6999034D01*
X14691000Y6898966D01*
X14710522Y6800822D01*
X14724071Y6768113D01*
X14678372Y6749184D01*
X14595169Y6693589D01*
X14524411Y6622831D01*
X14501318Y6588270D01*
X14491589Y6602831D01*
X14420831Y6673589D01*
X14337628Y6729184D01*
X14245178Y6767478D01*
X14147034Y6787000D01*
X14046966Y6787000D01*
X13948822Y6767478D01*
X13856372Y6729184D01*
X13773169Y6673589D01*
X13702411Y6602831D01*
X13646816Y6519628D01*
X13608522Y6427178D01*
X13589610Y6332098D01*
X13571989Y6420683D01*
X13533695Y6513133D01*
X13478100Y6596336D01*
X13407342Y6667094D01*
X13324139Y6722689D01*
X13231689Y6760983D01*
X13133545Y6780505D01*
X13033477Y6780505D01*
X12935333Y6760983D01*
X12842883Y6722689D01*
X12759680Y6667094D01*
X12746852Y6654266D01*
X12679628Y6699184D01*
X12587178Y6737478D01*
X12489034Y6757000D01*
X12388966Y6757000D01*
X12290822Y6737478D01*
X12198372Y6699184D01*
X12115169Y6643589D01*
X12044411Y6572831D01*
X11988816Y6489628D01*
X11950522Y6397178D01*
X11931000Y6299034D01*
X6341018Y6299034D01*
X6339184Y6303460D01*
X6283589Y6386663D01*
X6212831Y6457421D01*
X6129628Y6513016D01*
X6037178Y6551310D01*
X5939034Y6570832D01*
X5838966Y6570832D01*
X5740822Y6551310D01*
X5648372Y6513016D01*
X5565169Y6457421D01*
X5494411Y6386663D01*
X5438816Y6303460D01*
X5400522Y6211010D01*
X5381000Y6112866D01*
X4637000Y6112866D01*
X4637000Y6139034D01*
X4617478Y6237178D01*
X4579184Y6329628D01*
X4523589Y6412831D01*
X4452831Y6483589D01*
X4369628Y6539184D01*
X4277178Y6577478D01*
X4179034Y6597000D01*
X4078966Y6597000D01*
X3980822Y6577478D01*
X3888372Y6539184D01*
X3805169Y6483589D01*
X3734411Y6412831D01*
X3678816Y6329628D01*
X3640522Y6237178D01*
X3621000Y6139034D01*
X406400Y6139034D01*
X406400Y6924043D01*
X10451000Y6924043D01*
X10451000Y6823975D01*
X10470522Y6725831D01*
X10508816Y6633381D01*
X10564411Y6550178D01*
X10635169Y6479420D01*
X10718372Y6423825D01*
X10810822Y6385531D01*
X10908966Y6366009D01*
X11009034Y6366009D01*
X11107178Y6385531D01*
X11199628Y6423825D01*
X11282831Y6479420D01*
X11353589Y6550178D01*
X11409184Y6633381D01*
X11447478Y6725831D01*
X11467000Y6823975D01*
X11467000Y6924043D01*
X11447478Y7022187D01*
X11409184Y7114637D01*
X11353589Y7197840D01*
X11282831Y7268598D01*
X11199628Y7324193D01*
X11107178Y7362487D01*
X11009034Y7382009D01*
X10908966Y7382009D01*
X10810822Y7362487D01*
X10718372Y7324193D01*
X10635169Y7268598D01*
X10564411Y7197840D01*
X10508816Y7114637D01*
X10470522Y7022187D01*
X10451000Y6924043D01*
X406400Y6924043D01*
X406400Y7679034D01*
X1481000Y7679034D01*
X1481000Y7578966D01*
X1500522Y7480822D01*
X1538816Y7388372D01*
X1594411Y7305169D01*
X1665169Y7234411D01*
X1748372Y7178816D01*
X1840822Y7140522D01*
X1938966Y7121000D01*
X2039034Y7121000D01*
X2137178Y7140522D01*
X2229628Y7178816D01*
X2312831Y7234411D01*
X2383589Y7305169D01*
X2439184Y7388372D01*
X2477478Y7480822D01*
X2497000Y7578966D01*
X2497000Y7679034D01*
X2477478Y7777178D01*
X2439184Y7869628D01*
X2383589Y7952831D01*
X2312831Y8023589D01*
X2229628Y8079184D01*
X2137178Y8117478D01*
X2039034Y8137000D01*
X1938966Y8137000D01*
X1840822Y8117478D01*
X1748372Y8079184D01*
X1665169Y8023589D01*
X1594411Y7952831D01*
X1538816Y7869628D01*
X1500522Y7777178D01*
X1481000Y7679034D01*
X406400Y7679034D01*
X406400Y7915013D01*
X528058Y7833724D01*
X666733Y7776283D01*
X813950Y7747000D01*
X964050Y7747000D01*
X1111267Y7776283D01*
X1249942Y7833724D01*
X1374747Y7917116D01*
X1480884Y8023253D01*
X1564276Y8148058D01*
X1621717Y8286733D01*
X1651000Y8433950D01*
X1651000Y8584050D01*
X1621717Y8731267D01*
X1564276Y8869942D01*
X1482987Y8991600D01*
X2835013Y8991600D01*
X2753724Y8869942D01*
G37*
X2753724Y8869942D02*
X2696283Y8731267D01*
X2667000Y8584050D01*
X2667000Y8433950D01*
X2696283Y8286733D01*
X2753724Y8148058D01*
X2837116Y8023253D01*
X2943253Y7917116D01*
X3068058Y7833724D01*
X3206733Y7776283D01*
X3353950Y7747000D01*
X3504050Y7747000D01*
X3651267Y7776283D01*
X3789942Y7833724D01*
X3914747Y7917116D01*
X4020884Y8023253D01*
X4104276Y8148058D01*
X4161717Y8286733D01*
X4191000Y8433950D01*
X4191000Y8584050D01*
X4161717Y8731267D01*
X4104276Y8869942D01*
X4022987Y8991600D01*
X5375013Y8991600D01*
X5293724Y8869942D01*
X5236283Y8731267D01*
X5207000Y8584050D01*
X5207000Y8433950D01*
X5236283Y8286733D01*
X5293724Y8148058D01*
X5377116Y8023253D01*
X5483253Y7917116D01*
X5608058Y7833724D01*
X5746733Y7776283D01*
X5893950Y7747000D01*
X6044050Y7747000D01*
X6191267Y7776283D01*
X6329942Y7833724D01*
X6397753Y7879034D01*
X6781000Y7879034D01*
X6781000Y7778966D01*
X6800522Y7680822D01*
X6838816Y7588372D01*
X6894411Y7505169D01*
X6965169Y7434411D01*
X7048372Y7378816D01*
X7140822Y7340522D01*
X7238966Y7321000D01*
X7339034Y7321000D01*
X7437178Y7340522D01*
X7529628Y7378816D01*
X7612831Y7434411D01*
X7683589Y7505169D01*
X7739184Y7588372D01*
X7777478Y7680822D01*
X7797000Y7778966D01*
X7797000Y7879034D01*
X7777478Y7977178D01*
X7739184Y8069628D01*
X7683589Y8152831D01*
X7612831Y8223589D01*
X7529628Y8279184D01*
X7437178Y8317478D01*
X7339034Y8337000D01*
X7238966Y8337000D01*
X7140822Y8317478D01*
X7048372Y8279184D01*
X6965169Y8223589D01*
X6894411Y8152831D01*
X6838816Y8069628D01*
X6800522Y7977178D01*
X6781000Y7879034D01*
X6397753Y7879034D01*
X6454747Y7917116D01*
X6560884Y8023253D01*
X6644276Y8148058D01*
X6701717Y8286733D01*
X6731000Y8433950D01*
X6731000Y8584050D01*
X6701717Y8731267D01*
X6644276Y8869942D01*
X6562987Y8991600D01*
X7915013Y8991600D01*
X7833724Y8869942D01*
X7776283Y8731267D01*
X7747000Y8584050D01*
X7747000Y8433950D01*
X7776283Y8286733D01*
X7833724Y8148058D01*
X7917116Y8023253D01*
X8023253Y7917116D01*
X8148058Y7833724D01*
X8286733Y7776283D01*
X8433950Y7747000D01*
X8584050Y7747000D01*
X8731267Y7776283D01*
X8869942Y7833724D01*
X8994747Y7917116D01*
X9100884Y8023253D01*
X9184276Y8148058D01*
X9241717Y8286733D01*
X9271000Y8433950D01*
X9271000Y8584050D01*
X9241717Y8731267D01*
X9184276Y8869942D01*
X9102987Y8991600D01*
X10455013Y8991600D01*
X10373724Y8869942D01*
X10316283Y8731267D01*
X10287000Y8584050D01*
X10287000Y8433950D01*
X10316283Y8286733D01*
X10373724Y8148058D01*
X10457116Y8023253D01*
X10563253Y7917116D01*
X10688058Y7833724D01*
X10826733Y7776283D01*
X10973950Y7747000D01*
X11124050Y7747000D01*
X11271267Y7776283D01*
X11409942Y7833724D01*
X11534747Y7917116D01*
X11640884Y8023253D01*
X11724276Y8148058D01*
X11781717Y8286733D01*
X11811000Y8433950D01*
X11811000Y8584050D01*
X11781717Y8731267D01*
X11724276Y8869942D01*
X11642987Y8991600D01*
X12995013Y8991600D01*
X12913724Y8869942D01*
X12856283Y8731267D01*
X12827000Y8584050D01*
X12827000Y8433950D01*
X12856283Y8286733D01*
X12913724Y8148058D01*
X12997116Y8023253D01*
X13103253Y7917116D01*
X13228058Y7833724D01*
X13366733Y7776283D01*
X13513950Y7747000D01*
X13664050Y7747000D01*
X13811267Y7776283D01*
X13949942Y7833724D01*
X14074747Y7917116D01*
X14180884Y8023253D01*
X14264276Y8148058D01*
X14321717Y8286733D01*
X14351000Y8433950D01*
X14351000Y8584050D01*
X14321717Y8731267D01*
X14264276Y8869942D01*
X14182987Y8991600D01*
X15535013Y8991600D01*
X15453724Y8869942D01*
X15396283Y8731267D01*
X15367000Y8584050D01*
X15367000Y8433950D01*
X15396283Y8286733D01*
X15453724Y8148058D01*
X15537116Y8023253D01*
X15643253Y7917116D01*
X15768058Y7833724D01*
X15906733Y7776283D01*
X16053950Y7747000D01*
X16204050Y7747000D01*
X16351267Y7776283D01*
X16489942Y7833724D01*
X16614747Y7917116D01*
X16720884Y8023253D01*
X16804276Y8148058D01*
X16861717Y8286733D01*
X16891000Y8433950D01*
X16891000Y8584050D01*
X16861717Y8731267D01*
X16804276Y8869942D01*
X16722987Y8991600D01*
X18075013Y8991600D01*
X17993724Y8869942D01*
X17936283Y8731267D01*
X17907000Y8584050D01*
X17907000Y8433950D01*
X17936283Y8286733D01*
X17993724Y8148058D01*
X18077116Y8023253D01*
X18183253Y7917116D01*
X18308058Y7833724D01*
X18446733Y7776283D01*
X18593950Y7747000D01*
X18744050Y7747000D01*
X18891267Y7776283D01*
X19029942Y7833724D01*
X19151600Y7915013D01*
X19151600Y6015794D01*
X19087178Y6042478D01*
X18989034Y6062000D01*
X18888966Y6062000D01*
X18790822Y6042478D01*
X18709022Y6008595D01*
X18726998Y6098966D01*
X18726998Y6199034D01*
X18707476Y6297178D01*
X18669182Y6389628D01*
X18613587Y6472831D01*
X18542829Y6543589D01*
X18459626Y6599184D01*
X18367176Y6637478D01*
X18269032Y6657000D01*
X18168964Y6657000D01*
X18070820Y6637478D01*
X17978370Y6599184D01*
X17895167Y6543589D01*
X17824409Y6472831D01*
X17768814Y6389628D01*
X17753640Y6352995D01*
X17717403Y6368005D01*
X17619259Y6387527D01*
X17519191Y6387527D01*
X17421047Y6368005D01*
X17328597Y6329711D01*
X17315106Y6320697D01*
X17273589Y6382831D01*
X17202831Y6453589D01*
X17119628Y6509184D01*
X17027178Y6547478D01*
X16929034Y6567000D01*
X16828966Y6567000D01*
X16730822Y6547478D01*
X16638372Y6509184D01*
X16555169Y6453589D01*
X16484411Y6382831D01*
X16428816Y6299628D01*
X16406624Y6246053D01*
X16402831Y6249846D01*
X16319628Y6305441D01*
X16227178Y6343735D01*
X16129034Y6363257D01*
X16028966Y6363257D01*
X15930822Y6343735D01*
X15838372Y6305441D01*
X15755169Y6249846D01*
X15684411Y6179088D01*
X15628816Y6095885D01*
X15590522Y6003435D01*
X15571000Y5905291D01*
X15571000Y5805223D01*
X15590522Y5707079D01*
X15628816Y5614629D01*
X15684411Y5531426D01*
X15755169Y5460668D01*
X15838372Y5405073D01*
X15930822Y5366779D01*
X16028966Y5347257D01*
X16129034Y5347257D01*
X16227178Y5366779D01*
X16319628Y5405073D01*
X16402831Y5460668D01*
X16473589Y5531426D01*
X16529184Y5614629D01*
X16551376Y5668204D01*
X16555169Y5664411D01*
X16638372Y5608816D01*
X16730822Y5570522D01*
X16828966Y5551000D01*
X16929034Y5551000D01*
X17027178Y5570522D01*
X17119628Y5608816D01*
X17133119Y5617830D01*
X17174636Y5555696D01*
X17235690Y5494642D01*
X17198372Y5479184D01*
X17115169Y5423589D01*
X17044411Y5352831D01*
X16988816Y5269628D01*
X16950522Y5177178D01*
X16931000Y5079034D01*
X16931000Y4978966D01*
X16950522Y4880822D01*
X16988816Y4788372D01*
X17044411Y4705169D01*
X17115169Y4634411D01*
X17198372Y4578816D01*
X17290822Y4540522D01*
X17388966Y4521000D01*
X17489034Y4521000D01*
X17587178Y4540522D01*
X17679628Y4578816D01*
X17762831Y4634411D01*
X17833589Y4705169D01*
X17889184Y4788372D01*
X17927478Y4880822D01*
X17947000Y4978966D01*
X17947000Y5079034D01*
X17927478Y5177178D01*
X17889184Y5269628D01*
X17833589Y5352831D01*
X17772535Y5413885D01*
X17809853Y5429343D01*
X17893056Y5484938D01*
X17963814Y5555696D01*
X18019409Y5638899D01*
X18034583Y5675532D01*
X18070820Y5660522D01*
X18168964Y5641000D01*
X18269032Y5641000D01*
X18367176Y5660522D01*
X18448976Y5694405D01*
X18431000Y5604034D01*
X18431000Y5503966D01*
X18450522Y5405822D01*
X18458347Y5386931D01*
X18410822Y5377478D01*
X18318372Y5339184D01*
X18235169Y5283589D01*
X18164411Y5212831D01*
X18108816Y5129628D01*
X18070522Y5037178D01*
X18051000Y4939034D01*
X18051000Y4838966D01*
X18070522Y4740822D01*
X18108816Y4648372D01*
X18164411Y4565169D01*
X18235169Y4494411D01*
X18318372Y4438816D01*
X18410822Y4400522D01*
X18508966Y4381000D01*
X18609034Y4381000D01*
X18707178Y4400522D01*
X18799628Y4438816D01*
X18882831Y4494411D01*
X18953589Y4565169D01*
X19009184Y4648372D01*
X19047478Y4740822D01*
X19067000Y4838966D01*
X19067000Y4939034D01*
X19047478Y5037178D01*
X19039653Y5056069D01*
X19087178Y5065522D01*
X19151600Y5092206D01*
X19151600Y1482987D01*
X19029942Y1564276D01*
X18891267Y1621717D01*
X18744050Y1651000D01*
X18593950Y1651000D01*
X18446733Y1621717D01*
X18308058Y1564276D01*
X18183253Y1480884D01*
X18077116Y1374747D01*
X17993724Y1249942D01*
X17936283Y1111267D01*
X17907000Y964050D01*
X17907000Y813950D01*
X17936283Y666733D01*
X17993724Y528058D01*
X18075013Y406400D01*
X16722987Y406400D01*
X16804276Y528058D01*
X16861717Y666733D01*
X16891000Y813950D01*
X16891000Y964050D01*
X16861717Y1111267D01*
X16804276Y1249942D01*
X16720884Y1374747D01*
X16614747Y1480884D01*
X16489942Y1564276D01*
X16351267Y1621717D01*
X16204050Y1651000D01*
X16053950Y1651000D01*
X15906733Y1621717D01*
X15768058Y1564276D01*
X15643253Y1480884D01*
X15537116Y1374747D01*
X15453724Y1249942D01*
X15396283Y1111267D01*
X15367000Y964050D01*
X15367000Y813950D01*
X15396283Y666733D01*
X15453724Y528058D01*
X15535013Y406400D01*
X14182987Y406400D01*
X14264276Y528058D01*
X14321717Y666733D01*
X14351000Y813950D01*
X14351000Y964050D01*
X14321717Y1111267D01*
X14264276Y1249942D01*
X14180884Y1374747D01*
X14126597Y1429034D01*
X14331000Y1429034D01*
X14331000Y1328966D01*
X14350522Y1230822D01*
X14388816Y1138372D01*
X14444411Y1055169D01*
X14515169Y984411D01*
X14598372Y928816D01*
X14690822Y890522D01*
X14788966Y871000D01*
X14889034Y871000D01*
X14987178Y890522D01*
X15079628Y928816D01*
X15162831Y984411D01*
X15233589Y1055169D01*
X15289184Y1138372D01*
X15327478Y1230822D01*
X15347000Y1328966D01*
X15347000Y1429034D01*
X15327478Y1527178D01*
X15289184Y1619628D01*
X15233589Y1702831D01*
X15162831Y1773589D01*
X15079628Y1829184D01*
X14987178Y1867478D01*
X14889034Y1887000D01*
X14788966Y1887000D01*
X14690822Y1867478D01*
X14598372Y1829184D01*
X14515169Y1773589D01*
X14444411Y1702831D01*
X14388816Y1619628D01*
X14350522Y1527178D01*
X14331000Y1429034D01*
X14126597Y1429034D01*
X14074747Y1480884D01*
X13949942Y1564276D01*
X13811267Y1621717D01*
X13664050Y1651000D01*
X13513950Y1651000D01*
X13366733Y1621717D01*
X13228058Y1564276D01*
X13103253Y1480884D01*
X12997116Y1374747D01*
X12913724Y1249942D01*
X12856283Y1111267D01*
X12827000Y964050D01*
X12827000Y813950D01*
X12856283Y666733D01*
X12913724Y528058D01*
X12995013Y406400D01*
X11642987Y406400D01*
X11724276Y528058D01*
X11781717Y666733D01*
X11811000Y813950D01*
X11811000Y964050D01*
X11781717Y1111267D01*
X11724276Y1249942D01*
X11684793Y1309034D01*
X11801000Y1309034D01*
X11801000Y1208966D01*
X11820522Y1110822D01*
X11858816Y1018372D01*
X11914411Y935169D01*
X11985169Y864411D01*
X12068372Y808816D01*
X12160822Y770522D01*
X12258966Y751000D01*
X12359034Y751000D01*
X12457178Y770522D01*
X12549628Y808816D01*
X12632831Y864411D01*
X12703589Y935169D01*
X12759184Y1018372D01*
X12797478Y1110822D01*
X12817000Y1208966D01*
X12817000Y1309034D01*
X12797478Y1407178D01*
X12759184Y1499628D01*
X12703589Y1582831D01*
X12632831Y1653589D01*
X12549628Y1709184D01*
X12457178Y1747478D01*
X12359034Y1767000D01*
X12258966Y1767000D01*
X12160822Y1747478D01*
X12068372Y1709184D01*
X11985169Y1653589D01*
X11914411Y1582831D01*
X11858816Y1499628D01*
X11820522Y1407178D01*
X11801000Y1309034D01*
X11684793Y1309034D01*
X11640884Y1374747D01*
X11534747Y1480884D01*
X11409942Y1564276D01*
X11334108Y1595688D01*
X11403589Y1665169D01*
X11459184Y1748372D01*
X11497478Y1840822D01*
X11517000Y1938966D01*
X11517000Y2039034D01*
X11497478Y2137178D01*
X11459184Y2229628D01*
X11403589Y2312831D01*
X11332831Y2383589D01*
X11249628Y2439184D01*
X11157178Y2477478D01*
X11059034Y2497000D01*
X10958966Y2497000D01*
X10860822Y2477478D01*
X10768372Y2439184D01*
X10685169Y2383589D01*
X10614411Y2312831D01*
X10558816Y2229628D01*
X10520522Y2137178D01*
X10501000Y2039034D01*
X10501000Y1938966D01*
X10520522Y1840822D01*
X10558816Y1748372D01*
X10614411Y1665169D01*
X10685169Y1594411D01*
X10714116Y1575069D01*
X10688058Y1564276D01*
X10563253Y1480884D01*
X10457116Y1374747D01*
X10373724Y1249942D01*
X10316283Y1111267D01*
X10287000Y964050D01*
X10287000Y813950D01*
X10316283Y666733D01*
X10373724Y528058D01*
X10455013Y406400D01*
X9102987Y406400D01*
X9184276Y528058D01*
X9241717Y666733D01*
X9271000Y813950D01*
X9271000Y964050D01*
X9241717Y1111267D01*
X9184276Y1249942D01*
X9100884Y1374747D01*
X9096597Y1379034D01*
X9231000Y1379034D01*
X9231000Y1278966D01*
X9250522Y1180822D01*
X9288816Y1088372D01*
X9344411Y1005169D01*
X9415169Y934411D01*
X9498372Y878816D01*
X9590822Y840522D01*
X9688966Y821000D01*
X9789034Y821000D01*
X9887178Y840522D01*
X9979628Y878816D01*
X10062831Y934411D01*
X10133589Y1005169D01*
X10189184Y1088372D01*
X10227478Y1180822D01*
X10247000Y1278966D01*
X10247000Y1379034D01*
X10227478Y1477178D01*
X10189184Y1569628D01*
X10133589Y1652831D01*
X10062831Y1723589D01*
X9979628Y1779184D01*
X9887178Y1817478D01*
X9789034Y1837000D01*
X9688966Y1837000D01*
X9590822Y1817478D01*
X9498372Y1779184D01*
X9415169Y1723589D01*
X9344411Y1652831D01*
X9288816Y1569628D01*
X9250522Y1477178D01*
X9231000Y1379034D01*
X9096597Y1379034D01*
X8994747Y1480884D01*
X8869942Y1564276D01*
X8731267Y1621717D01*
X8584050Y1651000D01*
X8433950Y1651000D01*
X8286733Y1621717D01*
X8148058Y1564276D01*
X8023253Y1480884D01*
X7917116Y1374747D01*
X7833724Y1249942D01*
X7776283Y1111267D01*
X7747000Y964050D01*
X7747000Y813950D01*
X7776283Y666733D01*
X7833724Y528058D01*
X7915013Y406400D01*
X6562987Y406400D01*
X6644276Y528058D01*
X6701717Y666733D01*
X6731000Y813950D01*
X6731000Y964050D01*
X6701717Y1111267D01*
X6644276Y1249942D01*
X6560884Y1374747D01*
X6454747Y1480884D01*
X6329942Y1564276D01*
X6191267Y1621717D01*
X6044050Y1651000D01*
X5893950Y1651000D01*
X5746733Y1621717D01*
X5608058Y1564276D01*
X5483253Y1480884D01*
X5377116Y1374747D01*
X5293724Y1249942D01*
X5236283Y1111267D01*
X5207000Y964050D01*
X5207000Y813950D01*
X5236283Y666733D01*
X5293724Y528058D01*
X5375013Y406400D01*
X4022987Y406400D01*
X4104276Y528058D01*
X4161717Y666733D01*
X4191000Y813950D01*
X4191000Y964050D01*
X4161717Y1111267D01*
X4104276Y1249942D01*
X4020884Y1374747D01*
X4016597Y1379034D01*
X4131000Y1379034D01*
X4131000Y1278966D01*
X4150522Y1180822D01*
X4188816Y1088372D01*
X4244411Y1005169D01*
X4315169Y934411D01*
X4398372Y878816D01*
X4490822Y840522D01*
X4588966Y821000D01*
X4689034Y821000D01*
X4787178Y840522D01*
X4879628Y878816D01*
X4962831Y934411D01*
X5033589Y1005169D01*
X5089184Y1088372D01*
X5127478Y1180822D01*
X5147000Y1278966D01*
X5147000Y1379034D01*
X5127478Y1477178D01*
X5089184Y1569628D01*
X5033589Y1652831D01*
X4962831Y1723589D01*
X4879628Y1779184D01*
X4787178Y1817478D01*
X4689034Y1837000D01*
X4588966Y1837000D01*
X4490822Y1817478D01*
X4398372Y1779184D01*
X4315169Y1723589D01*
X4244411Y1652831D01*
X4188816Y1569628D01*
X4150522Y1477178D01*
X4131000Y1379034D01*
X4016597Y1379034D01*
X3914747Y1480884D01*
X3789942Y1564276D01*
X3651267Y1621717D01*
X3504050Y1651000D01*
X3353950Y1651000D01*
X3206733Y1621717D01*
X3068058Y1564276D01*
X2943253Y1480884D01*
X2837116Y1374747D01*
X2753724Y1249942D01*
X2696283Y1111267D01*
X2667000Y964050D01*
X2667000Y813950D01*
X2696283Y666733D01*
X2753724Y528058D01*
X2835013Y406400D01*
X1482987Y406400D01*
X1564276Y528058D01*
X1621717Y666733D01*
X1651000Y813950D01*
X1651000Y964050D01*
X1621717Y1111267D01*
X1564276Y1249942D01*
X1480884Y1374747D01*
X1374747Y1480884D01*
X1249942Y1564276D01*
X1111267Y1621717D01*
X964050Y1651000D01*
X813950Y1651000D01*
X666733Y1621717D01*
X528058Y1564276D01*
X406400Y1482987D01*
X406400Y2969034D01*
X461000Y2969034D01*
X461000Y2868966D01*
X480522Y2770822D01*
X518816Y2678372D01*
X574411Y2595169D01*
X645169Y2524411D01*
X728372Y2468816D01*
X820822Y2430522D01*
X918966Y2411000D01*
X1019034Y2411000D01*
X1117178Y2430522D01*
X1209628Y2468816D01*
X1292831Y2524411D01*
X1363589Y2595169D01*
X1386217Y2629034D01*
X5531000Y2629034D01*
X5531000Y2528966D01*
X5550522Y2430822D01*
X5588816Y2338372D01*
X5644411Y2255169D01*
X5715169Y2184411D01*
X5798372Y2128816D01*
X5890822Y2090522D01*
X5988966Y2071000D01*
X6089034Y2071000D01*
X6187178Y2090522D01*
X6279628Y2128816D01*
X6362831Y2184411D01*
X6433589Y2255169D01*
X6489184Y2338372D01*
X6527478Y2430822D01*
X6543035Y2509034D01*
X13121000Y2509034D01*
X13121000Y2408966D01*
X13140522Y2310822D01*
X13178816Y2218372D01*
X13234411Y2135169D01*
X13305169Y2064411D01*
X13388372Y2008816D01*
X13480822Y1970522D01*
X13578966Y1951000D01*
X13679034Y1951000D01*
X13777178Y1970522D01*
X13869628Y2008816D01*
X13952831Y2064411D01*
X14023589Y2135169D01*
X14026171Y2139034D01*
X16621000Y2139034D01*
X16621000Y2038966D01*
X16640522Y1940822D01*
X16678816Y1848372D01*
X16734411Y1765169D01*
X16805169Y1694411D01*
X16888372Y1638816D01*
X16980822Y1600522D01*
X17078966Y1581000D01*
X17179034Y1581000D01*
X17277178Y1600522D01*
X17369628Y1638816D01*
X17452831Y1694411D01*
X17523589Y1765169D01*
X17579184Y1848372D01*
X17617478Y1940822D01*
X17637000Y2038966D01*
X17637000Y2139034D01*
X17617478Y2237178D01*
X17579184Y2329628D01*
X17523589Y2412831D01*
X17452831Y2483589D01*
X17369628Y2539184D01*
X17277178Y2577478D01*
X17179034Y2597000D01*
X17078966Y2597000D01*
X16980822Y2577478D01*
X16888372Y2539184D01*
X16805169Y2483589D01*
X16734411Y2412831D01*
X16678816Y2329628D01*
X16640522Y2237178D01*
X16621000Y2139034D01*
X14026171Y2139034D01*
X14079184Y2218372D01*
X14117478Y2310822D01*
X14137000Y2408966D01*
X14137000Y2509034D01*
X14117478Y2607178D01*
X14079184Y2699628D01*
X14078160Y2701160D01*
X14078966Y2701000D01*
X14179034Y2701000D01*
X14277178Y2720522D01*
X14369628Y2758816D01*
X14452831Y2814411D01*
X14523589Y2885169D01*
X14579184Y2968372D01*
X14617478Y3060822D01*
X14629057Y3119034D01*
X14941000Y3119034D01*
X14941000Y3018966D01*
X14960522Y2920822D01*
X14998816Y2828372D01*
X15054411Y2745169D01*
X15125169Y2674411D01*
X15208372Y2618816D01*
X15300822Y2580522D01*
X15398966Y2561000D01*
X15499034Y2561000D01*
X15597178Y2580522D01*
X15641869Y2599034D01*
X17751000Y2599034D01*
X17751000Y2498966D01*
X17770522Y2400822D01*
X17808816Y2308372D01*
X17864411Y2225169D01*
X17935169Y2154411D01*
X18018372Y2098816D01*
X18110822Y2060522D01*
X18208966Y2041000D01*
X18309034Y2041000D01*
X18407178Y2060522D01*
X18499628Y2098816D01*
X18582831Y2154411D01*
X18653589Y2225169D01*
X18709184Y2308372D01*
X18747478Y2400822D01*
X18767000Y2498966D01*
X18767000Y2599034D01*
X18747478Y2697178D01*
X18709184Y2789628D01*
X18653589Y2872831D01*
X18582831Y2943589D01*
X18499628Y2999184D01*
X18407178Y3037478D01*
X18309034Y3057000D01*
X18208966Y3057000D01*
X18110822Y3037478D01*
X18018372Y2999184D01*
X17935169Y2943589D01*
X17864411Y2872831D01*
X17808816Y2789628D01*
X17770522Y2697178D01*
X17751000Y2599034D01*
X15641869Y2599034D01*
X15689628Y2618816D01*
X15772831Y2674411D01*
X15843589Y2745169D01*
X15899184Y2828372D01*
X15937478Y2920822D01*
X15957000Y3018966D01*
X15957000Y3119034D01*
X15949574Y3156367D01*
X15979628Y3168816D01*
X15979954Y3169034D01*
X16311000Y3169034D01*
X16311000Y3068966D01*
X16330522Y2970822D01*
X16368816Y2878372D01*
X16424411Y2795169D01*
X16495169Y2724411D01*
X16578372Y2668816D01*
X16670822Y2630522D01*
X16768966Y2611000D01*
X16869034Y2611000D01*
X16967178Y2630522D01*
X17059628Y2668816D01*
X17142831Y2724411D01*
X17213589Y2795169D01*
X17269184Y2878372D01*
X17307478Y2970822D01*
X17327000Y3068966D01*
X17327000Y3169034D01*
X17307478Y3267178D01*
X17269184Y3359628D01*
X17213589Y3442831D01*
X17142831Y3513589D01*
X17059628Y3569184D01*
X16967178Y3607478D01*
X16869034Y3627000D01*
X16768966Y3627000D01*
X16670822Y3607478D01*
X16578372Y3569184D01*
X16495169Y3513589D01*
X16424411Y3442831D01*
X16368816Y3359628D01*
X16330522Y3267178D01*
X16311000Y3169034D01*
X15979954Y3169034D01*
X16062831Y3224411D01*
X16133589Y3295169D01*
X16189184Y3378372D01*
X16227478Y3470822D01*
X16247000Y3568966D01*
X16247000Y3669034D01*
X16227478Y3767178D01*
X16189184Y3859628D01*
X16133589Y3942831D01*
X16062831Y4013589D01*
X15979628Y4069184D01*
X15887178Y4107478D01*
X15789034Y4127000D01*
X15688966Y4127000D01*
X15590822Y4107478D01*
X15498372Y4069184D01*
X15415169Y4013589D01*
X15344411Y3942831D01*
X15288816Y3859628D01*
X15250522Y3767178D01*
X15231000Y3669034D01*
X15231000Y3568966D01*
X15238426Y3531633D01*
X15208372Y3519184D01*
X15125169Y3463589D01*
X15054411Y3392831D01*
X14998816Y3309628D01*
X14960522Y3217178D01*
X14941000Y3119034D01*
X14629057Y3119034D01*
X14637000Y3158966D01*
X14637000Y3259034D01*
X14617478Y3357178D01*
X14579184Y3449628D01*
X14523589Y3532831D01*
X14452831Y3603589D01*
X14369628Y3659184D01*
X14277178Y3697478D01*
X14179034Y3717000D01*
X14078966Y3717000D01*
X13980822Y3697478D01*
X13888372Y3659184D01*
X13805169Y3603589D01*
X13734411Y3532831D01*
X13678816Y3449628D01*
X13640522Y3357178D01*
X13621000Y3259034D01*
X13621000Y3158966D01*
X13640522Y3060822D01*
X13678816Y2968372D01*
X13679840Y2966840D01*
X13679034Y2967000D01*
X13578966Y2967000D01*
X13480822Y2947478D01*
X13388372Y2909184D01*
X13305169Y2853589D01*
X13234411Y2782831D01*
X13178816Y2699628D01*
X13140522Y2607178D01*
X13121000Y2509034D01*
X6543035Y2509034D01*
X6547000Y2528966D01*
X6547000Y2629034D01*
X6527478Y2727178D01*
X6489184Y2819628D01*
X6433589Y2902831D01*
X6362831Y2973589D01*
X6279628Y3029184D01*
X6187178Y3067478D01*
X6089034Y3087000D01*
X5988966Y3087000D01*
X5890822Y3067478D01*
X5798372Y3029184D01*
X5715169Y2973589D01*
X5644411Y2902831D01*
X5588816Y2819628D01*
X5550522Y2727178D01*
X5531000Y2629034D01*
X1386217Y2629034D01*
X1419184Y2678372D01*
X1457478Y2770822D01*
X1477000Y2868966D01*
X1477000Y2969034D01*
X1457478Y3067178D01*
X1442212Y3104034D01*
X8381000Y3104034D01*
X8381000Y3003966D01*
X8400522Y2905822D01*
X8438816Y2813372D01*
X8494411Y2730169D01*
X8565169Y2659411D01*
X8648372Y2603816D01*
X8740822Y2565522D01*
X8838966Y2546000D01*
X8939034Y2546000D01*
X9037178Y2565522D01*
X9129628Y2603816D01*
X9212831Y2659411D01*
X9283589Y2730169D01*
X9339184Y2813372D01*
X9377478Y2905822D01*
X9397000Y3003966D01*
X9397000Y3104034D01*
X9377478Y3202178D01*
X9355999Y3254034D01*
X11406000Y3254034D01*
X11406000Y3153966D01*
X11425522Y3055822D01*
X11463816Y2963372D01*
X11519411Y2880169D01*
X11590169Y2809411D01*
X11673372Y2753816D01*
X11765822Y2715522D01*
X11863966Y2696000D01*
X11964034Y2696000D01*
X12062178Y2715522D01*
X12154628Y2753816D01*
X12237831Y2809411D01*
X12308589Y2880169D01*
X12364184Y2963372D01*
X12402478Y3055822D01*
X12421635Y3152133D01*
X12514084Y3170522D01*
X12606534Y3208816D01*
X12689737Y3264411D01*
X12760495Y3335169D01*
X12816090Y3418372D01*
X12854384Y3510822D01*
X12873906Y3608966D01*
X12873906Y3709034D01*
X12854384Y3807178D01*
X12816090Y3899628D01*
X12771005Y3967103D01*
X12798372Y3948816D01*
X12890822Y3910522D01*
X12988966Y3891000D01*
X13089034Y3891000D01*
X13187178Y3910522D01*
X13279628Y3948816D01*
X13362831Y4004411D01*
X13433589Y4075169D01*
X13489184Y4158372D01*
X13527478Y4250822D01*
X13547000Y4348966D01*
X13547000Y4449034D01*
X13527478Y4547178D01*
X13489184Y4639628D01*
X13433589Y4722831D01*
X13362831Y4793589D01*
X13279628Y4849184D01*
X13187178Y4887478D01*
X13156572Y4893566D01*
X15115488Y4893566D01*
X15115488Y4793498D01*
X15135010Y4695354D01*
X15173304Y4602904D01*
X15228899Y4519701D01*
X15299657Y4448943D01*
X15382860Y4393348D01*
X15475310Y4355054D01*
X15573454Y4335532D01*
X15673522Y4335532D01*
X15771666Y4355054D01*
X15864116Y4393348D01*
X15939921Y4443999D01*
X15958820Y4398372D01*
X16014415Y4315169D01*
X16085173Y4244411D01*
X16168376Y4188816D01*
X16260826Y4150522D01*
X16358970Y4131000D01*
X16459038Y4131000D01*
X16557182Y4150522D01*
X16649632Y4188816D01*
X16732835Y4244411D01*
X16803593Y4315169D01*
X16859188Y4398372D01*
X16897482Y4490822D01*
X16917004Y4588966D01*
X16917004Y4689034D01*
X16897482Y4787178D01*
X16859188Y4879628D01*
X16803593Y4962831D01*
X16732835Y5033589D01*
X16649632Y5089184D01*
X16557182Y5127478D01*
X16459038Y5147000D01*
X16358970Y5147000D01*
X16260826Y5127478D01*
X16168376Y5089184D01*
X16092571Y5038533D01*
X16073672Y5084160D01*
X16018077Y5167363D01*
X15947319Y5238121D01*
X15864116Y5293716D01*
X15771666Y5332010D01*
X15673522Y5351532D01*
X15573454Y5351532D01*
X15475310Y5332010D01*
X15382860Y5293716D01*
X15299657Y5238121D01*
X15228899Y5167363D01*
X15173304Y5084160D01*
X15135010Y4991710D01*
X15115488Y4893566D01*
X13156572Y4893566D01*
X13089034Y4907000D01*
X12988966Y4907000D01*
X12890822Y4887478D01*
X12798372Y4849184D01*
X12715169Y4793589D01*
X12644411Y4722831D01*
X12588816Y4639628D01*
X12558273Y4565890D01*
X12533589Y4602831D01*
X12462831Y4673589D01*
X12379628Y4729184D01*
X12317340Y4754985D01*
X12385002Y4822647D01*
X12440597Y4905850D01*
X12478891Y4998300D01*
X12498413Y5096444D01*
X12498413Y5196512D01*
X12478891Y5294656D01*
X12440597Y5387106D01*
X12385002Y5470309D01*
X12314244Y5541067D01*
X12231041Y5596662D01*
X12138591Y5634956D01*
X12040447Y5654478D01*
X11940379Y5654478D01*
X11842235Y5634956D01*
X11749785Y5596662D01*
X11666582Y5541067D01*
X11595824Y5470309D01*
X11540229Y5387106D01*
X11501935Y5294656D01*
X11482413Y5196512D01*
X11482413Y5096444D01*
X11501935Y4998300D01*
X11540229Y4905850D01*
X11595824Y4822647D01*
X11666582Y4751889D01*
X11749785Y4696294D01*
X11812073Y4670493D01*
X11744411Y4602831D01*
X11688816Y4519628D01*
X11650522Y4427178D01*
X11631000Y4329034D01*
X11631000Y4228966D01*
X11650522Y4130822D01*
X11688816Y4038372D01*
X11744411Y3955169D01*
X11815169Y3884411D01*
X11888988Y3835086D01*
X11877428Y3807178D01*
X11858271Y3710867D01*
X11765822Y3692478D01*
X11673372Y3654184D01*
X11590169Y3598589D01*
X11519411Y3527831D01*
X11463816Y3444628D01*
X11425522Y3352178D01*
X11406000Y3254034D01*
X9355999Y3254034D01*
X9339184Y3294628D01*
X9283589Y3377831D01*
X9212831Y3448589D01*
X9129628Y3504184D01*
X9037178Y3542478D01*
X8939034Y3562000D01*
X8838966Y3562000D01*
X8740822Y3542478D01*
X8648372Y3504184D01*
X8565169Y3448589D01*
X8494411Y3377831D01*
X8438816Y3294628D01*
X8400522Y3202178D01*
X8381000Y3104034D01*
X1442212Y3104034D01*
X1419184Y3159628D01*
X1363589Y3242831D01*
X1292831Y3313589D01*
X1209628Y3369184D01*
X1117178Y3407478D01*
X1019034Y3427000D01*
X918966Y3427000D01*
X820822Y3407478D01*
X728372Y3369184D01*
X645169Y3313589D01*
X574411Y3242831D01*
X518816Y3159628D01*
X480522Y3067178D01*
X461000Y2969034D01*
X406400Y2969034D01*
X406400Y3729034D01*
X3831000Y3729034D01*
X3831000Y3628966D01*
X3850522Y3530822D01*
X3888816Y3438372D01*
X3944411Y3355169D01*
X4015169Y3284411D01*
X4098372Y3228816D01*
X4190822Y3190522D01*
X4288966Y3171000D01*
X4389034Y3171000D01*
X4487178Y3190522D01*
X4579628Y3228816D01*
X4662831Y3284411D01*
X4733589Y3355169D01*
X4789184Y3438372D01*
X4827478Y3530822D01*
X4847000Y3628966D01*
X4847000Y3729034D01*
X4827478Y3827178D01*
X4789184Y3919628D01*
X4733589Y4002831D01*
X4662831Y4073589D01*
X4579628Y4129184D01*
X4487178Y4167478D01*
X4389034Y4187000D01*
X4288966Y4187000D01*
X4190822Y4167478D01*
X4098372Y4129184D01*
X4015169Y4073589D01*
X3944411Y4002831D01*
X3888816Y3919628D01*
X3850522Y3827178D01*
X3831000Y3729034D01*
X406400Y3729034D01*
X406400Y4164780D01*
X440822Y4150522D01*
X538966Y4131000D01*
X639034Y4131000D01*
X737178Y4150522D01*
X829628Y4188816D01*
X912831Y4244411D01*
X983589Y4315169D01*
X1039184Y4398372D01*
X1077478Y4490822D01*
X1097000Y4588966D01*
X1097000Y4689034D01*
X1077478Y4787178D01*
X1039184Y4879628D01*
X983589Y4962831D01*
X967420Y4979000D01*
X993589Y5005169D01*
X1049184Y5088372D01*
X1087478Y5180822D01*
X1107000Y5278966D01*
X1107000Y5279034D01*
X1791000Y5279034D01*
X1791000Y5178966D01*
X1810522Y5080822D01*
X1848816Y4988372D01*
X1904411Y4905169D01*
X1975169Y4834411D01*
X2014530Y4808111D01*
X1988816Y4769628D01*
X1950522Y4677178D01*
X1931000Y4579034D01*
X1931000Y4478966D01*
X1950522Y4380822D01*
X1988816Y4288372D01*
X2044411Y4205169D01*
X2115169Y4134411D01*
X2198372Y4078816D01*
X2290822Y4040522D01*
X2388966Y4021000D01*
X2489034Y4021000D01*
X2587178Y4040522D01*
X2679628Y4078816D01*
X2762831Y4134411D01*
X2833589Y4205169D01*
X2889184Y4288372D01*
X2927478Y4380822D01*
X2947000Y4478966D01*
X2947000Y4579034D01*
X2927478Y4677178D01*
X2889184Y4769628D01*
X2833589Y4852831D01*
X2762831Y4923589D01*
X2723470Y4949889D01*
X2749184Y4988372D01*
X2787478Y5080822D01*
X2807000Y5178966D01*
X2807000Y5279034D01*
X2787478Y5377178D01*
X2749184Y5469628D01*
X2693589Y5552831D01*
X2622831Y5623589D01*
X2539628Y5679184D01*
X2447178Y5717478D01*
X2349034Y5737000D01*
X2248966Y5737000D01*
X2150822Y5717478D01*
X2058372Y5679184D01*
X1975169Y5623589D01*
X1904411Y5552831D01*
X1848816Y5469628D01*
X1810522Y5377178D01*
X1791000Y5279034D01*
X1107000Y5279034D01*
X1107000Y5379034D01*
X1087478Y5477178D01*
X1049184Y5569628D01*
X993589Y5652831D01*
X922831Y5723589D01*
X839628Y5779184D01*
X747178Y5817478D01*
X649034Y5837000D01*
X548966Y5837000D01*
X450822Y5817478D01*
X406400Y5799078D01*
X406400Y6139034D01*
X3621000Y6139034D01*
X3621000Y6038966D01*
X3640522Y5940822D01*
X3678816Y5848372D01*
X3734411Y5765169D01*
X3805169Y5694411D01*
X3883481Y5642084D01*
X3805169Y5589757D01*
X3734411Y5518999D01*
X3678816Y5435796D01*
X3640522Y5343346D01*
X3621000Y5245202D01*
X3621000Y5145134D01*
X3640522Y5046990D01*
X3678816Y4954540D01*
X3734411Y4871337D01*
X3805169Y4800579D01*
X3888372Y4744984D01*
X3980822Y4706690D01*
X4078966Y4687168D01*
X4179034Y4687168D01*
X4277178Y4706690D01*
X4369628Y4744984D01*
X4452831Y4800579D01*
X4523589Y4871337D01*
X4562141Y4929034D01*
X5931000Y4929034D01*
X5931000Y4828966D01*
X5950522Y4730822D01*
X5988816Y4638372D01*
X6044411Y4555169D01*
X6115169Y4484411D01*
X6198372Y4428816D01*
X6290822Y4390522D01*
X6358509Y4377058D01*
X6341000Y4289034D01*
X6341000Y4188966D01*
X6360522Y4090822D01*
X6398816Y3998372D01*
X6454411Y3915169D01*
X6525169Y3844411D01*
X6608372Y3788816D01*
X6700822Y3750522D01*
X6798966Y3731000D01*
X6899034Y3731000D01*
X6997178Y3750522D01*
X7089628Y3788816D01*
X7172831Y3844411D01*
X7243589Y3915169D01*
X7299184Y3998372D01*
X7337478Y4090822D01*
X7357000Y4188966D01*
X7357000Y4289034D01*
X7339843Y4375291D01*
X7631000Y4375291D01*
X7631000Y4275223D01*
X7650522Y4177079D01*
X7688816Y4084629D01*
X7744411Y4001426D01*
X7815169Y3930668D01*
X7898372Y3875073D01*
X7990822Y3836779D01*
X8088966Y3817257D01*
X8189034Y3817257D01*
X8287178Y3836779D01*
X8379628Y3875073D01*
X8462831Y3930668D01*
X8533589Y4001426D01*
X8589184Y4084629D01*
X8627478Y4177079D01*
X8647000Y4275223D01*
X8647000Y4375291D01*
X8627478Y4473435D01*
X8589184Y4565885D01*
X8533589Y4649088D01*
X8462831Y4719846D01*
X8379628Y4775441D01*
X8287178Y4813735D01*
X8189034Y4833257D01*
X8088966Y4833257D01*
X7990822Y4813735D01*
X7898372Y4775441D01*
X7815169Y4719846D01*
X7744411Y4649088D01*
X7688816Y4565885D01*
X7650522Y4473435D01*
X7631000Y4375291D01*
X7339843Y4375291D01*
X7337478Y4387178D01*
X7299184Y4479628D01*
X7243589Y4562831D01*
X7172831Y4633589D01*
X7089628Y4689184D01*
X6997178Y4727478D01*
X6929491Y4740942D01*
X6947000Y4828966D01*
X6947000Y4929034D01*
X6927478Y5027178D01*
X6889184Y5119628D01*
X6833589Y5202831D01*
X6762831Y5273589D01*
X6679628Y5329184D01*
X6587178Y5367478D01*
X6489034Y5387000D01*
X6388966Y5387000D01*
X6290822Y5367478D01*
X6198372Y5329184D01*
X6115169Y5273589D01*
X6044411Y5202831D01*
X5988816Y5119628D01*
X5950522Y5027178D01*
X5931000Y4929034D01*
X4562141Y4929034D01*
X4579184Y4954540D01*
X4617478Y5046990D01*
X4637000Y5145134D01*
X4637000Y5245202D01*
X4617478Y5343346D01*
X4579184Y5435796D01*
X4523589Y5518999D01*
X4452831Y5589757D01*
X4374519Y5642084D01*
X4452831Y5694411D01*
X4523589Y5765169D01*
X4579184Y5848372D01*
X4617478Y5940822D01*
X4637000Y6038966D01*
X4637000Y6112866D01*
X5381000Y6112866D01*
X5381000Y6012798D01*
X5400522Y5914654D01*
X5438816Y5822204D01*
X5494411Y5739001D01*
X5565169Y5668243D01*
X5648372Y5612648D01*
X5740822Y5574354D01*
X5838966Y5554832D01*
X5939034Y5554832D01*
X6037178Y5574354D01*
X6129628Y5612648D01*
X6212831Y5668243D01*
X6283589Y5739001D01*
X6339184Y5822204D01*
X6377478Y5914654D01*
X6397000Y6012798D01*
X6397000Y6112866D01*
X6377478Y6211010D01*
X6341018Y6299034D01*
X11931000Y6299034D01*
X11931000Y6198966D01*
X11950522Y6100822D01*
X11988816Y6008372D01*
X12044411Y5925169D01*
X12115169Y5854411D01*
X12198372Y5798816D01*
X12290822Y5760522D01*
X12388966Y5741000D01*
X12489034Y5741000D01*
X12587178Y5760522D01*
X12679628Y5798816D01*
X12762831Y5854411D01*
X12775659Y5867239D01*
X12842883Y5822321D01*
X12935333Y5784027D01*
X13033477Y5764505D01*
X13133545Y5764505D01*
X13231689Y5784027D01*
X13324139Y5822321D01*
X13407342Y5877916D01*
X13478100Y5948674D01*
X13533695Y6031877D01*
X13571989Y6124327D01*
X13590901Y6219407D01*
X13608522Y6130822D01*
X13646816Y6038372D01*
X13702411Y5955169D01*
X13773169Y5884411D01*
X13856372Y5828816D01*
X13948822Y5790522D01*
X14046966Y5771000D01*
X14147034Y5771000D01*
X14245178Y5790522D01*
X14337628Y5828816D01*
X14420831Y5884411D01*
X14491589Y5955169D01*
X14514682Y5989730D01*
X14524411Y5975169D01*
X14595169Y5904411D01*
X14678372Y5848816D01*
X14770822Y5810522D01*
X14868966Y5791000D01*
X14969034Y5791000D01*
X15067178Y5810522D01*
X15159628Y5848816D01*
X15242831Y5904411D01*
X15313589Y5975169D01*
X15369184Y6058372D01*
X15407478Y6150822D01*
X15427000Y6248966D01*
X15427000Y6349034D01*
X15407478Y6447178D01*
X15393929Y6479887D01*
X15439628Y6498816D01*
X15522831Y6554411D01*
X15593589Y6625169D01*
X15649184Y6708372D01*
X15687478Y6800822D01*
X15707000Y6898966D01*
X15707000Y6999034D01*
X15687478Y7097178D01*
X15649184Y7189628D01*
X15593589Y7272831D01*
X15522831Y7343589D01*
X15439628Y7399184D01*
X15347178Y7437478D01*
X15249034Y7457000D01*
X15148966Y7457000D01*
X15050822Y7437478D01*
X14958372Y7399184D01*
X14875169Y7343589D01*
X14804411Y7272831D01*
X14748816Y7189628D01*
X14710522Y7097178D01*
X14691000Y6999034D01*
X14691000Y6898966D01*
X14710522Y6800822D01*
X14724071Y6768113D01*
X14678372Y6749184D01*
X14595169Y6693589D01*
X14524411Y6622831D01*
X14501318Y6588270D01*
X14491589Y6602831D01*
X14420831Y6673589D01*
X14337628Y6729184D01*
X14245178Y6767478D01*
X14147034Y6787000D01*
X14046966Y6787000D01*
X13948822Y6767478D01*
X13856372Y6729184D01*
X13773169Y6673589D01*
X13702411Y6602831D01*
X13646816Y6519628D01*
X13608522Y6427178D01*
X13589610Y6332098D01*
X13571989Y6420683D01*
X13533695Y6513133D01*
X13478100Y6596336D01*
X13407342Y6667094D01*
X13324139Y6722689D01*
X13231689Y6760983D01*
X13133545Y6780505D01*
X13033477Y6780505D01*
X12935333Y6760983D01*
X12842883Y6722689D01*
X12759680Y6667094D01*
X12746852Y6654266D01*
X12679628Y6699184D01*
X12587178Y6737478D01*
X12489034Y6757000D01*
X12388966Y6757000D01*
X12290822Y6737478D01*
X12198372Y6699184D01*
X12115169Y6643589D01*
X12044411Y6572831D01*
X11988816Y6489628D01*
X11950522Y6397178D01*
X11931000Y6299034D01*
X6341018Y6299034D01*
X6339184Y6303460D01*
X6283589Y6386663D01*
X6212831Y6457421D01*
X6129628Y6513016D01*
X6037178Y6551310D01*
X5939034Y6570832D01*
X5838966Y6570832D01*
X5740822Y6551310D01*
X5648372Y6513016D01*
X5565169Y6457421D01*
X5494411Y6386663D01*
X5438816Y6303460D01*
X5400522Y6211010D01*
X5381000Y6112866D01*
X4637000Y6112866D01*
X4637000Y6139034D01*
X4617478Y6237178D01*
X4579184Y6329628D01*
X4523589Y6412831D01*
X4452831Y6483589D01*
X4369628Y6539184D01*
X4277178Y6577478D01*
X4179034Y6597000D01*
X4078966Y6597000D01*
X3980822Y6577478D01*
X3888372Y6539184D01*
X3805169Y6483589D01*
X3734411Y6412831D01*
X3678816Y6329628D01*
X3640522Y6237178D01*
X3621000Y6139034D01*
X406400Y6139034D01*
X406400Y6924043D01*
X10451000Y6924043D01*
X10451000Y6823975D01*
X10470522Y6725831D01*
X10508816Y6633381D01*
X10564411Y6550178D01*
X10635169Y6479420D01*
X10718372Y6423825D01*
X10810822Y6385531D01*
X10908966Y6366009D01*
X11009034Y6366009D01*
X11107178Y6385531D01*
X11199628Y6423825D01*
X11282831Y6479420D01*
X11353589Y6550178D01*
X11409184Y6633381D01*
X11447478Y6725831D01*
X11467000Y6823975D01*
X11467000Y6924043D01*
X11447478Y7022187D01*
X11409184Y7114637D01*
X11353589Y7197840D01*
X11282831Y7268598D01*
X11199628Y7324193D01*
X11107178Y7362487D01*
X11009034Y7382009D01*
X10908966Y7382009D01*
X10810822Y7362487D01*
X10718372Y7324193D01*
X10635169Y7268598D01*
X10564411Y7197840D01*
X10508816Y7114637D01*
X10470522Y7022187D01*
X10451000Y6924043D01*
X406400Y6924043D01*
X406400Y7679034D01*
X1481000Y7679034D01*
X1481000Y7578966D01*
X1500522Y7480822D01*
X1538816Y7388372D01*
X1594411Y7305169D01*
X1665169Y7234411D01*
X1748372Y7178816D01*
X1840822Y7140522D01*
X1938966Y7121000D01*
X2039034Y7121000D01*
X2137178Y7140522D01*
X2229628Y7178816D01*
X2312831Y7234411D01*
X2383589Y7305169D01*
X2439184Y7388372D01*
X2477478Y7480822D01*
X2497000Y7578966D01*
X2497000Y7679034D01*
X2477478Y7777178D01*
X2439184Y7869628D01*
X2383589Y7952831D01*
X2312831Y8023589D01*
X2229628Y8079184D01*
X2137178Y8117478D01*
X2039034Y8137000D01*
X1938966Y8137000D01*
X1840822Y8117478D01*
X1748372Y8079184D01*
X1665169Y8023589D01*
X1594411Y7952831D01*
X1538816Y7869628D01*
X1500522Y7777178D01*
X1481000Y7679034D01*
X406400Y7679034D01*
X406400Y7915013D01*
X528058Y7833724D01*
X666733Y7776283D01*
X813950Y7747000D01*
X964050Y7747000D01*
X1111267Y7776283D01*
X1249942Y7833724D01*
X1374747Y7917116D01*
X1480884Y8023253D01*
X1564276Y8148058D01*
X1621717Y8286733D01*
X1651000Y8433950D01*
X1651000Y8584050D01*
X1621717Y8731267D01*
X1564276Y8869942D01*
X1482987Y8991600D01*
X2835013Y8991600D01*
X2753724Y8869942D01*
%TD*%
M02*
