%TF.GenerationSoftware,KiCad,Pcbnew,5.1.5-1.fc31*%
%TF.CreationDate,2020-04-06T00:23:24-07:00*%
%TF.ProjectId,prom,70726f6d-2e6b-4696-9361-645f70636258,rev?*%
%TF.SameCoordinates,PX8461678PY580d428*%
%TF.FileFunction,Copper,L4,Bot*%
%TF.FilePolarity,Positive*%
%FSLAX46Y46*%
G04 Gerber Fmt 4.6, Leading zero omitted, Abs format (unit mm)*
G04 Created by KiCad (PCBNEW 5.1.5-1.fc31) date 2020-04-06 00:23:24*
%MOMM*%
%LPD*%
G04 APERTURE LIST*
%TA.AperFunction,ComponentPad*%
%ADD10C,1.016000*%
%TD*%
%TA.AperFunction,SMDPad,CuDef*%
%ADD11R,0.600000X0.700000*%
%TD*%
%TA.AperFunction,ComponentPad*%
%ADD12C,0.508000*%
%TD*%
%TA.AperFunction,SMDPad,CuDef*%
%ADD13C,0.100000*%
%TD*%
%TA.AperFunction,ViaPad*%
%ADD14C,0.508000*%
%TD*%
%TA.AperFunction,Conductor*%
%ADD15C,0.152400*%
%TD*%
%TA.AperFunction,Conductor*%
%ADD16C,0.099822*%
%TD*%
G04 APERTURE END LIST*
D10*
%TO.P,J1,16*%
%TO.N,+5V*%
X889000Y8509000D03*
%TO.P,J1,15*%
%TO.N,/Sheet5E85C2D6/DIP_A7*%
X3429000Y8509000D03*
%TO.P,J1,14*%
%TO.N,/Sheet5E85C2D6/DIP_CE2_N*%
X5969000Y8509000D03*
%TO.P,J1,13*%
%TO.N,/Sheet5E85C2D6/DIP_CE1_N*%
X8509000Y8509000D03*
%TO.P,J1,12*%
%TO.N,/Sheet5E85C2D6/DIP_D0*%
X11049000Y8509000D03*
%TO.P,J1,11*%
%TO.N,/Sheet5E85C2D6/DIP_D1*%
X13589000Y8509000D03*
%TO.P,J1,10*%
%TO.N,/Sheet5E85C2D6/DIP_D2*%
X16129000Y8509000D03*
%TO.P,J1,9*%
%TO.N,/Sheet5E85C2D6/DIP_D3*%
X18669000Y8509000D03*
%TO.P,J1,8*%
%TO.N,GND*%
X18669000Y889000D03*
%TO.P,J1,7*%
%TO.N,/Sheet5E85C2D6/DIP_A2*%
X16129000Y889000D03*
%TO.P,J1,6*%
%TO.N,/Sheet5E85C2D6/DIP_A1*%
X13589000Y889000D03*
%TO.P,J1,5*%
%TO.N,/Sheet5E85C2D6/DIP_A0*%
X11049000Y889000D03*
%TO.P,J1,4*%
%TO.N,/Sheet5E85C2D6/DIP_A3*%
X8509000Y889000D03*
%TO.P,J1,3*%
%TO.N,/Sheet5E85C2D6/DIP_A4*%
X5969000Y889000D03*
%TO.P,J1,2*%
%TO.N,/Sheet5E85C2D6/DIP_A5*%
X3429000Y889000D03*
%TO.P,J1,1*%
%TO.N,/Sheet5E85C2D6/DIP_A6*%
X889000Y889000D03*
%TD*%
D11*
%TO.P,C1,2*%
%TO.N,GND*%
X2139000Y6729000D03*
%TO.P,C1,1*%
%TO.N,+5V*%
X1139000Y6729000D03*
%TD*%
%TO.P,C2,2*%
%TO.N,GND*%
X1039000Y3649000D03*
%TO.P,C2,1*%
%TO.N,+3V3*%
X2039000Y3649000D03*
%TD*%
%TO.P,C3,2*%
%TO.N,GND*%
X4659000Y4439000D03*
%TO.P,C3,1*%
%TO.N,+1V2*%
X5659000Y4439000D03*
%TD*%
%TO.P,R1,2*%
%TO.N,Net-(R1-Pad2)*%
X11739000Y2129000D03*
%TO.P,R1,1*%
%TO.N,+3V3*%
X12739000Y2129000D03*
%TD*%
%TO.P,R2,2*%
%TO.N,Net-(R2-Pad2)*%
X16989000Y3979000D03*
%TO.P,R2,1*%
%TO.N,+3V3*%
X17989000Y3979000D03*
%TD*%
D12*
%TO.P,TP1,1*%
%TO.N,+3V3*%
X1949000Y2899000D03*
%TD*%
%TO.P,TP2,1*%
%TO.N,+1V2*%
X6439000Y4879000D03*
%TD*%
%TO.P,TP3,1*%
%TO.N,Net-(TP3-Pad1)*%
X18259000Y2549000D03*
%TD*%
%TO.P,TP4,1*%
%TO.N,Net-(TP4-Pad1)*%
X17439000Y5029000D03*
%TD*%
%TO.P,TP5,1*%
%TO.N,Net-(R1-Pad2)*%
X12309000Y1259000D03*
%TD*%
%TO.P,TP6,1*%
%TO.N,Net-(TP6-Pad1)*%
X17129000Y2089000D03*
%TD*%
%TO.P,TP7,1*%
%TO.N,Net-(R2-Pad2)*%
X18559000Y4889000D03*
%TD*%
%TA.AperFunction,SMDPad,CuDef*%
D13*
%TO.P,U1,TP*%
%TO.N,GND*%
G36*
X1439000Y5639000D02*
G01*
X1849000Y5229000D01*
X1439000Y4819000D01*
X1029000Y5229000D01*
X1439000Y5639000D01*
G37*
%TD.AperFunction*%
%TA.AperFunction,SMDPad,CuDef*%
%TO.P,U1,4*%
%TO.N,+5V*%
G36*
X1919000Y5889000D02*
G01*
X1919000Y5429000D01*
X1839000Y5429000D01*
X1609000Y5659000D01*
X1609000Y5889000D01*
X1919000Y5889000D01*
G37*
%TD.AperFunction*%
%TA.AperFunction,SMDPad,CuDef*%
%TO.P,U1,3*%
G36*
X1269000Y5889000D02*
G01*
X1269000Y5659000D01*
X1039000Y5429000D01*
X959000Y5429000D01*
X959000Y5889000D01*
X1269000Y5889000D01*
G37*
%TD.AperFunction*%
%TA.AperFunction,SMDPad,CuDef*%
%TO.P,U1,2*%
%TO.N,GND*%
G36*
X1039000Y5029000D02*
G01*
X1269000Y4799000D01*
X1269000Y4569000D01*
X959000Y4569000D01*
X959000Y5029000D01*
X1039000Y5029000D01*
G37*
%TD.AperFunction*%
%TA.AperFunction,SMDPad,CuDef*%
%TO.P,U1,1*%
%TO.N,+3V3*%
G36*
X1839000Y5029000D02*
G01*
X1919000Y5029000D01*
X1919000Y4569000D01*
X1609000Y4569000D01*
X1609000Y4799000D01*
X1839000Y5029000D01*
G37*
%TD.AperFunction*%
%TD*%
%TA.AperFunction,SMDPad,CuDef*%
%TO.P,U2,TP*%
%TO.N,GND*%
G36*
X5039000Y6289000D02*
G01*
X5449000Y5879000D01*
X5039000Y5469000D01*
X4629000Y5879000D01*
X5039000Y6289000D01*
G37*
%TD.AperFunction*%
%TA.AperFunction,SMDPad,CuDef*%
%TO.P,U2,4*%
%TO.N,+3V3*%
G36*
X5519000Y6539000D02*
G01*
X5519000Y6079000D01*
X5439000Y6079000D01*
X5209000Y6309000D01*
X5209000Y6539000D01*
X5519000Y6539000D01*
G37*
%TD.AperFunction*%
%TA.AperFunction,SMDPad,CuDef*%
%TO.P,U2,3*%
G36*
X4869000Y6539000D02*
G01*
X4869000Y6309000D01*
X4639000Y6079000D01*
X4559000Y6079000D01*
X4559000Y6539000D01*
X4869000Y6539000D01*
G37*
%TD.AperFunction*%
%TA.AperFunction,SMDPad,CuDef*%
%TO.P,U2,2*%
%TO.N,GND*%
G36*
X4639000Y5679000D02*
G01*
X4869000Y5449000D01*
X4869000Y5219000D01*
X4559000Y5219000D01*
X4559000Y5679000D01*
X4639000Y5679000D01*
G37*
%TD.AperFunction*%
%TA.AperFunction,SMDPad,CuDef*%
%TO.P,U2,1*%
%TO.N,+1V2*%
G36*
X5439000Y5679000D02*
G01*
X5519000Y5679000D01*
X5519000Y5219000D01*
X5209000Y5219000D01*
X5209000Y5449000D01*
X5439000Y5679000D01*
G37*
%TD.AperFunction*%
%TD*%
D14*
%TO.N,GND*%
X7289000Y7829000D03*
X14839000Y1379000D03*
X9739000Y1329000D03*
X4639000Y1329000D03*
X2439000Y4529000D03*
X1989000Y7629000D03*
X969000Y2919000D03*
X4129000Y6089000D03*
X599000Y5329000D03*
X589000Y4639000D03*
X2299000Y5229000D03*
X5889000Y6062832D03*
X4250241Y3804581D03*
X8139000Y4325257D03*
X13083511Y6272505D03*
X18218998Y6149000D03*
X4129000Y5195168D03*
X13039000Y4399000D03*
%TO.N,+3V3*%
X18789000Y3979000D03*
X4589000Y6849000D03*
X5449000Y6839000D03*
X4999000Y3089000D03*
X7298999Y6289000D03*
X8291924Y3079353D03*
X9558998Y3009000D03*
X9949000Y6529000D03*
X13436713Y1800552D03*
X14799000Y3059000D03*
X11534073Y5866867D03*
X3935623Y4618916D03*
X11240649Y3404515D03*
X13049000Y3759000D03*
X10759000Y7509000D03*
X15929000Y7289000D03*
%TO.N,/Sheet5E85C2D6/DIP_D3*%
X19144489Y5900080D03*
X17569225Y5879527D03*
%TO.N,/Sheet5E85C2D6/DIP_D1*%
X14097000Y6279000D03*
X12439000Y6249000D03*
%TO.N,Net-(R1-Pad2)*%
X11009000Y1989000D03*
%TO.N,Net-(R2-Pad2)*%
X16409004Y4639000D03*
X12139000Y4279000D03*
%TO.N,Net-(TP3-Pad1)*%
X16819000Y3119000D03*
X14129000Y3209000D03*
%TO.N,Net-(TP4-Pad1)*%
X15623488Y4843532D03*
X15739000Y3619000D03*
%TO.N,A2*%
X15449000Y3069000D03*
X12365906Y3659000D03*
%TO.N,A1*%
X8918998Y3049000D03*
X13629000Y2459000D03*
%TO.N,A4*%
X6039000Y2579000D03*
X6849000Y4239000D03*
%TO.N,OE_N*%
X10959000Y6874009D03*
X15199000Y6949000D03*
%TO.N,D2*%
X16879000Y6059000D03*
X14919000Y6299000D03*
%TO.N,D3*%
X11990413Y5146478D03*
X16079000Y5855257D03*
%TO.N,Net-(TP6-Pad1)*%
X11859000Y3229000D03*
%TD*%
D15*
%TO.N,+5V*%
X1139000Y8259000D02*
X1139000Y6729000D01*
X889000Y8509000D02*
X1139000Y8259000D01*
X1114000Y6704000D02*
X1139000Y6729000D01*
X1114000Y5659000D02*
X1114000Y6704000D01*
X1114000Y5659000D02*
X1114000Y6054000D01*
X1114000Y6054000D02*
X1239000Y6179000D01*
X1239000Y6179000D02*
X1639000Y6179000D01*
X1764000Y6054000D02*
X1764000Y5659000D01*
X1639000Y6179000D02*
X1764000Y6054000D01*
%TO.N,GND*%
X2139000Y6729000D02*
X2139000Y7479000D01*
X2139000Y7479000D02*
X1989000Y7629000D01*
X1039000Y3649000D02*
X1039000Y2989000D01*
X1039000Y2989000D02*
X969000Y2919000D01*
X5039000Y5879000D02*
X4339000Y5879000D01*
X4339000Y5879000D02*
X4129000Y6089000D01*
X689000Y5229000D02*
X1439000Y5229000D01*
X599000Y5329000D02*
X689000Y5229000D01*
X759000Y4799000D02*
X1114000Y4799000D01*
X589000Y4639000D02*
X759000Y4799000D01*
X2189000Y5229000D02*
X1439000Y5229000D01*
X2299000Y5229000D02*
X2189000Y5229000D01*
X5039000Y5879000D02*
X5705168Y5879000D01*
X5705168Y5879000D02*
X5889000Y6062832D01*
X4659000Y4439000D02*
X4659000Y4213340D01*
X4659000Y4213340D02*
X4250241Y3804581D01*
X4382832Y5449000D02*
X4129000Y5195168D01*
X4714000Y5449000D02*
X4382832Y5449000D01*
%TO.N,+3V3*%
X17989000Y3979000D02*
X18789000Y3979000D01*
X1764000Y4799000D02*
X1764000Y4464000D01*
X2039000Y4189000D02*
X2039000Y3649000D01*
X1764000Y4464000D02*
X2039000Y4189000D01*
X2039000Y3649000D02*
X2039000Y3029000D01*
X2039000Y3029000D02*
X1919000Y2909000D01*
X4714000Y6309000D02*
X4714000Y6724000D01*
X4714000Y6724000D02*
X4589000Y6849000D01*
X5364000Y6309000D02*
X5364000Y6754000D01*
X5364000Y6754000D02*
X5449000Y6839000D01*
X13108265Y2129000D02*
X13436713Y1800552D01*
X12739000Y2129000D02*
X13108265Y2129000D01*
%TO.N,+1V2*%
X5659000Y5154000D02*
X5659000Y4439000D01*
X5364000Y5449000D02*
X5659000Y5154000D01*
X5839000Y4439000D02*
X6279000Y4879000D01*
X5659000Y4439000D02*
X5839000Y4439000D01*
%TO.N,/Sheet5E85C2D6/DIP_D3*%
X18903409Y5659000D02*
X19144489Y5900080D01*
X17569225Y5879527D02*
X17789752Y5659000D01*
X17789752Y5659000D02*
X18903409Y5659000D01*
%TO.N,/Sheet5E85C2D6/DIP_D1*%
X13660000Y5842000D02*
X12846000Y5842000D01*
X12846000Y5842000D02*
X12439000Y6249000D01*
X14097000Y6279000D02*
X13660000Y5842000D01*
%TO.N,Net-(R1-Pad2)*%
X11739000Y2129000D02*
X11739000Y1599000D01*
X11739000Y1599000D02*
X12039000Y1299000D01*
X11599000Y1989000D02*
X11009000Y1989000D01*
D16*
X11739000Y2129000D02*
X11599000Y1989000D01*
D15*
X12039000Y1299000D02*
X12279000Y1299000D01*
%TO.N,Net-(R2-Pad2)*%
X16989000Y4059004D02*
X16409004Y4639000D01*
X16989000Y3979000D02*
X16989000Y4059004D01*
D16*
X13169000Y5309000D02*
X12139000Y4279000D01*
X15839000Y5309000D02*
X13169000Y5309000D01*
X16409004Y4639000D02*
X16409004Y4738996D01*
X16409004Y4738996D02*
X15839000Y5309000D01*
%TO.N,Net-(TP3-Pad1)*%
X14645207Y2555266D02*
X14129000Y3071473D01*
X14129000Y3071473D02*
X14129000Y3209000D01*
X16472793Y2555266D02*
X14645207Y2555266D01*
X16819000Y3119000D02*
X16819000Y2901473D01*
X16819000Y2901473D02*
X16472793Y2555266D01*
%TO.N,Net-(TP4-Pad1)*%
X15623488Y4843532D02*
X15739000Y4728020D01*
X15739000Y4728020D02*
X15739000Y3619000D01*
%TO.N,A2*%
X15449000Y3069000D02*
X14879000Y3639000D01*
X13647792Y3639000D02*
X13245214Y3236422D01*
X12788484Y3236422D02*
X12365906Y3659000D01*
X13245214Y3236422D02*
X12788484Y3236422D01*
X14879000Y3639000D02*
X13647792Y3639000D01*
%TO.N,A1*%
X13379000Y2709000D02*
X13629000Y2459000D01*
X8918998Y3108998D02*
X9319000Y3509000D01*
X8918998Y3049000D02*
X8918998Y3108998D01*
X9319000Y3509000D02*
X10079000Y3509000D01*
X10079000Y3509000D02*
X10879000Y2709000D01*
X10879000Y2709000D02*
X13379000Y2709000D01*
D15*
%TO.N,A4*%
X6039000Y2579000D02*
X6849000Y3389000D01*
X6849000Y3389000D02*
X6849000Y4239000D01*
%TO.N,OE_N*%
X10994009Y6839000D02*
X15089000Y6839000D01*
X15089000Y6839000D02*
X15199000Y6949000D01*
X10959000Y6874009D02*
X10994009Y6839000D01*
D16*
%TO.N,D2*%
X16639000Y6299000D02*
X14919000Y6299000D01*
X16879000Y6059000D02*
X16639000Y6299000D01*
%TO.N,D3*%
X12392935Y5549000D02*
X15772743Y5549000D01*
X11990413Y5146478D02*
X12392935Y5549000D01*
X15772743Y5549000D02*
X16079000Y5855257D01*
%TO.N,Net-(TP6-Pad1)*%
X14629000Y2089000D02*
X13769000Y2949000D01*
X13769000Y2949000D02*
X12139000Y2949000D01*
X12139000Y2949000D02*
X11859000Y3229000D01*
X17129000Y2089000D02*
X14629000Y2089000D01*
%TD*%
M02*
