%TF.GenerationSoftware,KiCad,Pcbnew,5.1.5-1.fc31*%
%TF.CreationDate,2020-04-03T04:51:34-07:00*%
%TF.ProjectId,prom,70726f6d-2e6b-4696-9361-645f70636258,rev?*%
%TF.SameCoordinates,PX8461678PY580d428*%
%TF.FileFunction,Soldermask,Bot*%
%TF.FilePolarity,Negative*%
%FSLAX46Y46*%
G04 Gerber Fmt 4.6, Leading zero omitted, Abs format (unit mm)*
G04 Created by KiCad (PCBNEW 5.1.5-1.fc31) date 2020-04-03 04:51:34*
%MOMM*%
%LPD*%
G04 APERTURE LIST*
%ADD10C,0.100000*%
G04 APERTURE END LIST*
D10*
G36*
X18831255Y1423884D02*
G01*
X18831257Y1423883D01*
X18831258Y1423883D01*
X18879822Y1403767D01*
X18932488Y1381952D01*
X19023595Y1321076D01*
X19101076Y1243595D01*
X19161952Y1152488D01*
X19161953Y1152485D01*
X19193569Y1076159D01*
X19203884Y1051255D01*
X19225260Y943787D01*
X19225260Y834213D01*
X19203884Y726745D01*
X19161952Y625512D01*
X19101076Y534405D01*
X19023595Y456924D01*
X18932488Y396048D01*
X18881872Y375082D01*
X18831258Y354117D01*
X18831257Y354117D01*
X18831255Y354116D01*
X18723787Y332740D01*
X18614213Y332740D01*
X18506745Y354116D01*
X18506743Y354117D01*
X18506742Y354117D01*
X18456128Y375082D01*
X18405512Y396048D01*
X18314405Y456924D01*
X18236924Y534405D01*
X18176048Y625512D01*
X18134116Y726745D01*
X18112740Y834213D01*
X18112740Y943787D01*
X18134116Y1051255D01*
X18144432Y1076159D01*
X18176047Y1152485D01*
X18176048Y1152488D01*
X18236924Y1243595D01*
X18314405Y1321076D01*
X18405512Y1381952D01*
X18458178Y1403767D01*
X18506742Y1423883D01*
X18506743Y1423883D01*
X18506745Y1423884D01*
X18614213Y1445260D01*
X18723787Y1445260D01*
X18831255Y1423884D01*
G37*
G36*
X13751255Y1423884D02*
G01*
X13751257Y1423883D01*
X13751258Y1423883D01*
X13799822Y1403767D01*
X13852488Y1381952D01*
X13943595Y1321076D01*
X14021076Y1243595D01*
X14081952Y1152488D01*
X14081953Y1152485D01*
X14113569Y1076159D01*
X14123884Y1051255D01*
X14145260Y943787D01*
X14145260Y834213D01*
X14123884Y726745D01*
X14081952Y625512D01*
X14021076Y534405D01*
X13943595Y456924D01*
X13852488Y396048D01*
X13801872Y375082D01*
X13751258Y354117D01*
X13751257Y354117D01*
X13751255Y354116D01*
X13643787Y332740D01*
X13534213Y332740D01*
X13426745Y354116D01*
X13426743Y354117D01*
X13426742Y354117D01*
X13376128Y375082D01*
X13325512Y396048D01*
X13234405Y456924D01*
X13156924Y534405D01*
X13096048Y625512D01*
X13054116Y726745D01*
X13032740Y834213D01*
X13032740Y943787D01*
X13054116Y1051255D01*
X13064432Y1076159D01*
X13096047Y1152485D01*
X13096048Y1152488D01*
X13156924Y1243595D01*
X13234405Y1321076D01*
X13325512Y1381952D01*
X13378178Y1403767D01*
X13426742Y1423883D01*
X13426743Y1423883D01*
X13426745Y1423884D01*
X13534213Y1445260D01*
X13643787Y1445260D01*
X13751255Y1423884D01*
G37*
G36*
X11211255Y1423884D02*
G01*
X11211257Y1423883D01*
X11211258Y1423883D01*
X11259822Y1403767D01*
X11312488Y1381952D01*
X11403595Y1321076D01*
X11481076Y1243595D01*
X11541952Y1152488D01*
X11541953Y1152485D01*
X11573569Y1076159D01*
X11583884Y1051255D01*
X11605260Y943787D01*
X11605260Y834213D01*
X11583884Y726745D01*
X11541952Y625512D01*
X11481076Y534405D01*
X11403595Y456924D01*
X11312488Y396048D01*
X11261872Y375082D01*
X11211258Y354117D01*
X11211257Y354117D01*
X11211255Y354116D01*
X11103787Y332740D01*
X10994213Y332740D01*
X10886745Y354116D01*
X10886743Y354117D01*
X10886742Y354117D01*
X10836128Y375082D01*
X10785512Y396048D01*
X10694405Y456924D01*
X10616924Y534405D01*
X10556048Y625512D01*
X10514116Y726745D01*
X10492740Y834213D01*
X10492740Y943787D01*
X10514116Y1051255D01*
X10524432Y1076159D01*
X10556047Y1152485D01*
X10556048Y1152488D01*
X10616924Y1243595D01*
X10694405Y1321076D01*
X10785512Y1381952D01*
X10838178Y1403767D01*
X10886742Y1423883D01*
X10886743Y1423883D01*
X10886745Y1423884D01*
X10994213Y1445260D01*
X11103787Y1445260D01*
X11211255Y1423884D01*
G37*
G36*
X8671255Y1423884D02*
G01*
X8671257Y1423883D01*
X8671258Y1423883D01*
X8719822Y1403767D01*
X8772488Y1381952D01*
X8863595Y1321076D01*
X8941076Y1243595D01*
X9001952Y1152488D01*
X9001953Y1152485D01*
X9033569Y1076159D01*
X9043884Y1051255D01*
X9065260Y943787D01*
X9065260Y834213D01*
X9043884Y726745D01*
X9001952Y625512D01*
X8941076Y534405D01*
X8863595Y456924D01*
X8772488Y396048D01*
X8721872Y375082D01*
X8671258Y354117D01*
X8671257Y354117D01*
X8671255Y354116D01*
X8563787Y332740D01*
X8454213Y332740D01*
X8346745Y354116D01*
X8346743Y354117D01*
X8346742Y354117D01*
X8296128Y375082D01*
X8245512Y396048D01*
X8154405Y456924D01*
X8076924Y534405D01*
X8016048Y625512D01*
X7974116Y726745D01*
X7952740Y834213D01*
X7952740Y943787D01*
X7974116Y1051255D01*
X7984432Y1076159D01*
X8016047Y1152485D01*
X8016048Y1152488D01*
X8076924Y1243595D01*
X8154405Y1321076D01*
X8245512Y1381952D01*
X8298178Y1403767D01*
X8346742Y1423883D01*
X8346743Y1423883D01*
X8346745Y1423884D01*
X8454213Y1445260D01*
X8563787Y1445260D01*
X8671255Y1423884D01*
G37*
G36*
X6131255Y1423884D02*
G01*
X6131257Y1423883D01*
X6131258Y1423883D01*
X6179822Y1403767D01*
X6232488Y1381952D01*
X6323595Y1321076D01*
X6401076Y1243595D01*
X6461952Y1152488D01*
X6461953Y1152485D01*
X6493569Y1076159D01*
X6503884Y1051255D01*
X6525260Y943787D01*
X6525260Y834213D01*
X6503884Y726745D01*
X6461952Y625512D01*
X6401076Y534405D01*
X6323595Y456924D01*
X6232488Y396048D01*
X6181872Y375082D01*
X6131258Y354117D01*
X6131257Y354117D01*
X6131255Y354116D01*
X6023787Y332740D01*
X5914213Y332740D01*
X5806745Y354116D01*
X5806743Y354117D01*
X5806742Y354117D01*
X5756128Y375082D01*
X5705512Y396048D01*
X5614405Y456924D01*
X5536924Y534405D01*
X5476048Y625512D01*
X5434116Y726745D01*
X5412740Y834213D01*
X5412740Y943787D01*
X5434116Y1051255D01*
X5444432Y1076159D01*
X5476047Y1152485D01*
X5476048Y1152488D01*
X5536924Y1243595D01*
X5614405Y1321076D01*
X5705512Y1381952D01*
X5758178Y1403767D01*
X5806742Y1423883D01*
X5806743Y1423883D01*
X5806745Y1423884D01*
X5914213Y1445260D01*
X6023787Y1445260D01*
X6131255Y1423884D01*
G37*
G36*
X3591255Y1423884D02*
G01*
X3591257Y1423883D01*
X3591258Y1423883D01*
X3639822Y1403767D01*
X3692488Y1381952D01*
X3783595Y1321076D01*
X3861076Y1243595D01*
X3921952Y1152488D01*
X3921953Y1152485D01*
X3953569Y1076159D01*
X3963884Y1051255D01*
X3985260Y943787D01*
X3985260Y834213D01*
X3963884Y726745D01*
X3921952Y625512D01*
X3861076Y534405D01*
X3783595Y456924D01*
X3692488Y396048D01*
X3641872Y375082D01*
X3591258Y354117D01*
X3591257Y354117D01*
X3591255Y354116D01*
X3483787Y332740D01*
X3374213Y332740D01*
X3266745Y354116D01*
X3266743Y354117D01*
X3266742Y354117D01*
X3216128Y375082D01*
X3165512Y396048D01*
X3074405Y456924D01*
X2996924Y534405D01*
X2936048Y625512D01*
X2894116Y726745D01*
X2872740Y834213D01*
X2872740Y943787D01*
X2894116Y1051255D01*
X2904432Y1076159D01*
X2936047Y1152485D01*
X2936048Y1152488D01*
X2996924Y1243595D01*
X3074405Y1321076D01*
X3165512Y1381952D01*
X3218178Y1403767D01*
X3266742Y1423883D01*
X3266743Y1423883D01*
X3266745Y1423884D01*
X3374213Y1445260D01*
X3483787Y1445260D01*
X3591255Y1423884D01*
G37*
G36*
X1051255Y1423884D02*
G01*
X1051257Y1423883D01*
X1051258Y1423883D01*
X1099822Y1403767D01*
X1152488Y1381952D01*
X1243595Y1321076D01*
X1321076Y1243595D01*
X1381952Y1152488D01*
X1381953Y1152485D01*
X1413569Y1076159D01*
X1423884Y1051255D01*
X1445260Y943787D01*
X1445260Y834213D01*
X1423884Y726745D01*
X1381952Y625512D01*
X1321076Y534405D01*
X1243595Y456924D01*
X1152488Y396048D01*
X1101872Y375082D01*
X1051258Y354117D01*
X1051257Y354117D01*
X1051255Y354116D01*
X943787Y332740D01*
X834213Y332740D01*
X726745Y354116D01*
X726743Y354117D01*
X726742Y354117D01*
X676128Y375082D01*
X625512Y396048D01*
X534405Y456924D01*
X456924Y534405D01*
X396048Y625512D01*
X354116Y726745D01*
X332740Y834213D01*
X332740Y943787D01*
X354116Y1051255D01*
X364432Y1076159D01*
X396047Y1152485D01*
X396048Y1152488D01*
X456924Y1243595D01*
X534405Y1321076D01*
X625512Y1381952D01*
X678178Y1403767D01*
X726742Y1423883D01*
X726743Y1423883D01*
X726745Y1423884D01*
X834213Y1445260D01*
X943787Y1445260D01*
X1051255Y1423884D01*
G37*
G36*
X16291255Y1423884D02*
G01*
X16291257Y1423883D01*
X16291258Y1423883D01*
X16339822Y1403767D01*
X16392488Y1381952D01*
X16483595Y1321076D01*
X16561076Y1243595D01*
X16621952Y1152488D01*
X16621953Y1152485D01*
X16653569Y1076159D01*
X16663884Y1051255D01*
X16685260Y943787D01*
X16685260Y834213D01*
X16663884Y726745D01*
X16621952Y625512D01*
X16561076Y534405D01*
X16483595Y456924D01*
X16392488Y396048D01*
X16341872Y375082D01*
X16291258Y354117D01*
X16291257Y354117D01*
X16291255Y354116D01*
X16183787Y332740D01*
X16074213Y332740D01*
X15966745Y354116D01*
X15966743Y354117D01*
X15966742Y354117D01*
X15916128Y375082D01*
X15865512Y396048D01*
X15774405Y456924D01*
X15696924Y534405D01*
X15636048Y625512D01*
X15594116Y726745D01*
X15572740Y834213D01*
X15572740Y943787D01*
X15594116Y1051255D01*
X15604432Y1076159D01*
X15636047Y1152485D01*
X15636048Y1152488D01*
X15696924Y1243595D01*
X15774405Y1321076D01*
X15865512Y1381952D01*
X15918178Y1403767D01*
X15966742Y1423883D01*
X15966743Y1423883D01*
X15966745Y1423884D01*
X16074213Y1445260D01*
X16183787Y1445260D01*
X16291255Y1423884D01*
G37*
G36*
X12112348Y1540797D02*
G01*
X12112350Y1540796D01*
X12112351Y1540796D01*
X12158111Y1521841D01*
X12199297Y1494322D01*
X12234322Y1459297D01*
X12234323Y1459295D01*
X12261841Y1418111D01*
X12276819Y1381953D01*
X12280797Y1372348D01*
X12290460Y1323767D01*
X12290460Y1274233D01*
X12286764Y1255649D01*
X12280796Y1225649D01*
X12263410Y1183677D01*
X12261841Y1179889D01*
X12234322Y1138703D01*
X12199297Y1103678D01*
X12174641Y1087204D01*
X12158111Y1076159D01*
X12112351Y1057204D01*
X12112350Y1057204D01*
X12112348Y1057203D01*
X12063767Y1047540D01*
X12014233Y1047540D01*
X11965652Y1057203D01*
X11965650Y1057204D01*
X11965649Y1057204D01*
X11919889Y1076159D01*
X11903359Y1087204D01*
X11878703Y1103678D01*
X11843678Y1138703D01*
X11816159Y1179889D01*
X11814590Y1183677D01*
X11797204Y1225649D01*
X11791237Y1255649D01*
X11787540Y1274233D01*
X11787540Y1323767D01*
X11797203Y1372348D01*
X11801182Y1381953D01*
X11816159Y1418111D01*
X11843677Y1459295D01*
X11843678Y1459297D01*
X11878703Y1494322D01*
X11919889Y1521841D01*
X11965649Y1540796D01*
X11965650Y1540796D01*
X11965652Y1540797D01*
X12014233Y1550460D01*
X12063767Y1550460D01*
X12112348Y1540797D01*
G37*
G36*
X9812348Y1570797D02*
G01*
X9812350Y1570796D01*
X9812351Y1570796D01*
X9858111Y1551841D01*
X9899297Y1524322D01*
X9934322Y1489297D01*
X9961841Y1448111D01*
X9980797Y1402348D01*
X9990460Y1353767D01*
X9990460Y1304233D01*
X9980797Y1255652D01*
X9961841Y1209889D01*
X9934322Y1168703D01*
X9899297Y1133678D01*
X9858111Y1106159D01*
X9812351Y1087204D01*
X9812350Y1087204D01*
X9812348Y1087203D01*
X9763767Y1077540D01*
X9714233Y1077540D01*
X9665652Y1087203D01*
X9665650Y1087204D01*
X9665649Y1087204D01*
X9619889Y1106159D01*
X9578703Y1133678D01*
X9543678Y1168703D01*
X9516159Y1209889D01*
X9497203Y1255652D01*
X9487540Y1304233D01*
X9487540Y1353767D01*
X9497203Y1402348D01*
X9516159Y1448111D01*
X9543678Y1489297D01*
X9578703Y1524322D01*
X9619889Y1551841D01*
X9665649Y1570796D01*
X9665650Y1570796D01*
X9665652Y1570797D01*
X9714233Y1580460D01*
X9763767Y1580460D01*
X9812348Y1570797D01*
G37*
G36*
X4712348Y1570797D02*
G01*
X4712350Y1570796D01*
X4712351Y1570796D01*
X4758111Y1551841D01*
X4799297Y1524322D01*
X4834322Y1489297D01*
X4861841Y1448111D01*
X4880797Y1402348D01*
X4890460Y1353767D01*
X4890460Y1304233D01*
X4880797Y1255652D01*
X4861841Y1209889D01*
X4834322Y1168703D01*
X4799297Y1133678D01*
X4758111Y1106159D01*
X4712351Y1087204D01*
X4712350Y1087204D01*
X4712348Y1087203D01*
X4663767Y1077540D01*
X4614233Y1077540D01*
X4565652Y1087203D01*
X4565650Y1087204D01*
X4565649Y1087204D01*
X4519889Y1106159D01*
X4478703Y1133678D01*
X4443678Y1168703D01*
X4416159Y1209889D01*
X4397203Y1255652D01*
X4387540Y1304233D01*
X4387540Y1353767D01*
X4397203Y1402348D01*
X4416159Y1448111D01*
X4443678Y1489297D01*
X4478703Y1524322D01*
X4519889Y1551841D01*
X4565649Y1570796D01*
X4565650Y1570796D01*
X4565652Y1570797D01*
X4614233Y1580460D01*
X4663767Y1580460D01*
X4712348Y1570797D01*
G37*
G36*
X14912348Y1620797D02*
G01*
X14912350Y1620796D01*
X14912351Y1620796D01*
X14958111Y1601841D01*
X14999297Y1574322D01*
X15034322Y1539297D01*
X15034323Y1539295D01*
X15061841Y1498111D01*
X15077920Y1459295D01*
X15080797Y1452348D01*
X15090460Y1403767D01*
X15090460Y1354233D01*
X15080797Y1305652D01*
X15061841Y1259889D01*
X15034322Y1218703D01*
X14999297Y1183678D01*
X14993626Y1179889D01*
X14958111Y1156159D01*
X14912351Y1137204D01*
X14912350Y1137204D01*
X14912348Y1137203D01*
X14863767Y1127540D01*
X14814233Y1127540D01*
X14765652Y1137203D01*
X14765650Y1137204D01*
X14765649Y1137204D01*
X14719889Y1156159D01*
X14684374Y1179889D01*
X14678703Y1183678D01*
X14643678Y1218703D01*
X14616159Y1259889D01*
X14597203Y1305652D01*
X14587540Y1354233D01*
X14587540Y1403767D01*
X14597203Y1452348D01*
X14600081Y1459295D01*
X14616159Y1498111D01*
X14643677Y1539295D01*
X14643678Y1539297D01*
X14678703Y1574322D01*
X14719889Y1601841D01*
X14765649Y1620796D01*
X14765650Y1620796D01*
X14765652Y1620797D01*
X14814233Y1630460D01*
X14863767Y1630460D01*
X14912348Y1620797D01*
G37*
G36*
X13087260Y1730740D02*
G01*
X12390740Y1730740D01*
X12390740Y2527260D01*
X13087260Y2527260D01*
X13087260Y1730740D01*
G37*
G36*
X12087260Y1730740D02*
G01*
X11390740Y1730740D01*
X11390740Y2527260D01*
X12087260Y2527260D01*
X12087260Y1730740D01*
G37*
G36*
X10912348Y2230797D02*
G01*
X10912350Y2230796D01*
X10912351Y2230796D01*
X10958111Y2211841D01*
X10999297Y2184322D01*
X11034322Y2149297D01*
X11061841Y2108111D01*
X11080797Y2062348D01*
X11090460Y2013767D01*
X11090460Y1964233D01*
X11084775Y1935649D01*
X11080796Y1915649D01*
X11061841Y1869889D01*
X11034322Y1828703D01*
X10999297Y1793678D01*
X10959675Y1767204D01*
X10958111Y1766159D01*
X10912351Y1747204D01*
X10912350Y1747204D01*
X10912348Y1747203D01*
X10863767Y1737540D01*
X10814233Y1737540D01*
X10765652Y1747203D01*
X10765650Y1747204D01*
X10765649Y1747204D01*
X10719889Y1766159D01*
X10718325Y1767204D01*
X10678703Y1793678D01*
X10643678Y1828703D01*
X10616159Y1869889D01*
X10597204Y1915649D01*
X10593226Y1935649D01*
X10587540Y1964233D01*
X10587540Y2013767D01*
X10597203Y2062348D01*
X10616159Y2108111D01*
X10643678Y2149297D01*
X10678703Y2184322D01*
X10719889Y2211841D01*
X10765649Y2230796D01*
X10765650Y2230796D01*
X10765652Y2230797D01*
X10814233Y2240460D01*
X10863767Y2240460D01*
X10912348Y2230797D01*
G37*
G36*
X13462348Y2250797D02*
G01*
X13462350Y2250796D01*
X13462351Y2250796D01*
X13488682Y2239889D01*
X13508111Y2231841D01*
X13549297Y2204322D01*
X13584322Y2169297D01*
X13606464Y2136159D01*
X13611841Y2128111D01*
X13620126Y2108111D01*
X13630797Y2082348D01*
X13640460Y2033767D01*
X13640460Y1984233D01*
X13630797Y1935652D01*
X13611841Y1889889D01*
X13584322Y1848703D01*
X13549297Y1813678D01*
X13519364Y1793678D01*
X13508111Y1786159D01*
X13462351Y1767204D01*
X13462350Y1767204D01*
X13462348Y1767203D01*
X13413767Y1757540D01*
X13364233Y1757540D01*
X13315652Y1767203D01*
X13315650Y1767204D01*
X13315649Y1767204D01*
X13269889Y1786159D01*
X13258636Y1793678D01*
X13228703Y1813678D01*
X13193678Y1848703D01*
X13166159Y1889889D01*
X13147203Y1935652D01*
X13137540Y1984233D01*
X13137540Y2033767D01*
X13147203Y2082348D01*
X13157875Y2108111D01*
X13166159Y2128111D01*
X13171536Y2136159D01*
X13193678Y2169297D01*
X13228703Y2204322D01*
X13269889Y2231841D01*
X13289318Y2239889D01*
X13315649Y2250796D01*
X13315650Y2250796D01*
X13315652Y2250797D01*
X13364233Y2260460D01*
X13413767Y2260460D01*
X13462348Y2250797D01*
G37*
G36*
X16192348Y2600797D02*
G01*
X16192350Y2600796D01*
X16192351Y2600796D01*
X16238111Y2581841D01*
X16279297Y2554322D01*
X16314322Y2519297D01*
X16341841Y2478111D01*
X16360797Y2432348D01*
X16370460Y2383767D01*
X16370460Y2334233D01*
X16360797Y2285652D01*
X16341841Y2239889D01*
X16314322Y2198703D01*
X16279297Y2163678D01*
X16257774Y2149297D01*
X16238111Y2136159D01*
X16192351Y2117204D01*
X16192350Y2117204D01*
X16192348Y2117203D01*
X16143767Y2107540D01*
X16094233Y2107540D01*
X16045652Y2117203D01*
X16045650Y2117204D01*
X16045649Y2117204D01*
X15999889Y2136159D01*
X15980226Y2149297D01*
X15958703Y2163678D01*
X15923678Y2198703D01*
X15896159Y2239889D01*
X15877203Y2285652D01*
X15867540Y2334233D01*
X15867540Y2383767D01*
X15877203Y2432348D01*
X15896159Y2478111D01*
X15923678Y2519297D01*
X15958703Y2554322D01*
X15999889Y2581841D01*
X16045649Y2600796D01*
X16045650Y2600796D01*
X16045652Y2600797D01*
X16094233Y2610460D01*
X16143767Y2610460D01*
X16192348Y2600797D01*
G37*
G36*
X13772348Y2740797D02*
G01*
X13772350Y2740796D01*
X13772351Y2740796D01*
X13780001Y2737627D01*
X13818111Y2721841D01*
X13859297Y2694322D01*
X13894322Y2659297D01*
X13921841Y2618111D01*
X13940797Y2572348D01*
X13950460Y2523767D01*
X13950460Y2474233D01*
X13942129Y2432348D01*
X13940796Y2425649D01*
X13923410Y2383677D01*
X13921841Y2379889D01*
X13894322Y2338703D01*
X13859297Y2303678D01*
X13832314Y2285649D01*
X13818111Y2276159D01*
X13772351Y2257204D01*
X13772350Y2257204D01*
X13772348Y2257203D01*
X13723767Y2247540D01*
X13674233Y2247540D01*
X13625652Y2257203D01*
X13625650Y2257204D01*
X13625649Y2257204D01*
X13579889Y2276159D01*
X13565686Y2285649D01*
X13538703Y2303678D01*
X13503678Y2338703D01*
X13476159Y2379889D01*
X13474590Y2383677D01*
X13457204Y2425649D01*
X13455872Y2432348D01*
X13447540Y2474233D01*
X13447540Y2523767D01*
X13457203Y2572348D01*
X13476159Y2618111D01*
X13503678Y2659297D01*
X13538703Y2694322D01*
X13579889Y2721841D01*
X13617999Y2737627D01*
X13625649Y2740796D01*
X13625650Y2740796D01*
X13625652Y2740797D01*
X13674233Y2750460D01*
X13723767Y2750460D01*
X13772348Y2740797D01*
G37*
G36*
X6112348Y2820797D02*
G01*
X6112350Y2820796D01*
X6112351Y2820796D01*
X6148727Y2805728D01*
X6158111Y2801841D01*
X6199297Y2774322D01*
X6234322Y2739297D01*
X6234323Y2739295D01*
X6261841Y2698111D01*
X6278647Y2657540D01*
X6280797Y2652348D01*
X6290460Y2603767D01*
X6290460Y2554233D01*
X6280797Y2505652D01*
X6261841Y2459889D01*
X6234322Y2418703D01*
X6199297Y2383678D01*
X6193626Y2379889D01*
X6158111Y2356159D01*
X6112351Y2337204D01*
X6112350Y2337204D01*
X6112348Y2337203D01*
X6063767Y2327540D01*
X6014233Y2327540D01*
X5965652Y2337203D01*
X5965650Y2337204D01*
X5965649Y2337204D01*
X5919889Y2356159D01*
X5884374Y2379889D01*
X5878703Y2383678D01*
X5843678Y2418703D01*
X5816159Y2459889D01*
X5797203Y2505652D01*
X5787540Y2554233D01*
X5787540Y2603767D01*
X5797203Y2652348D01*
X5799354Y2657540D01*
X5816159Y2698111D01*
X5843677Y2739295D01*
X5843678Y2739297D01*
X5878703Y2774322D01*
X5919889Y2801841D01*
X5929273Y2805728D01*
X5965649Y2820796D01*
X5965650Y2820796D01*
X5965652Y2820797D01*
X6014233Y2830460D01*
X6063767Y2830460D01*
X6112348Y2820797D01*
G37*
G36*
X1992348Y3150797D02*
G01*
X1992350Y3150796D01*
X1992351Y3150796D01*
X2028911Y3135652D01*
X2038111Y3131841D01*
X2079297Y3104322D01*
X2114322Y3069297D01*
X2124988Y3053334D01*
X2141841Y3028111D01*
X2159219Y2986159D01*
X2160797Y2982348D01*
X2170460Y2933767D01*
X2170460Y2884233D01*
X2161106Y2837203D01*
X2160796Y2835649D01*
X2157955Y2828790D01*
X2141841Y2789889D01*
X2114322Y2748703D01*
X2079297Y2713678D01*
X2050328Y2694322D01*
X2038111Y2686159D01*
X1992351Y2667204D01*
X1992350Y2667204D01*
X1992348Y2667203D01*
X1943767Y2657540D01*
X1894233Y2657540D01*
X1845652Y2667203D01*
X1845650Y2667204D01*
X1845649Y2667204D01*
X1799889Y2686159D01*
X1787672Y2694322D01*
X1758703Y2713678D01*
X1723678Y2748703D01*
X1696159Y2789889D01*
X1680045Y2828790D01*
X1677204Y2835649D01*
X1676895Y2837203D01*
X1667540Y2884233D01*
X1667540Y2933767D01*
X1677203Y2982348D01*
X1678782Y2986159D01*
X1696159Y3028111D01*
X1713012Y3053334D01*
X1723678Y3069297D01*
X1758703Y3104322D01*
X1799889Y3131841D01*
X1809089Y3135652D01*
X1845649Y3150796D01*
X1845650Y3150796D01*
X1845652Y3150797D01*
X1894233Y3160460D01*
X1943767Y3160460D01*
X1992348Y3150797D01*
G37*
G36*
X1042348Y3160797D02*
G01*
X1042350Y3160796D01*
X1042351Y3160796D01*
X1082336Y3144233D01*
X1088111Y3141841D01*
X1129297Y3114322D01*
X1164322Y3079297D01*
X1183971Y3049889D01*
X1191841Y3038111D01*
X1207674Y2999889D01*
X1210797Y2992348D01*
X1220460Y2943767D01*
X1220460Y2894233D01*
X1212887Y2856159D01*
X1210796Y2845649D01*
X1203295Y2827540D01*
X1191841Y2799889D01*
X1164322Y2758703D01*
X1129297Y2723678D01*
X1114329Y2713677D01*
X1088111Y2696159D01*
X1042351Y2677204D01*
X1042350Y2677204D01*
X1042348Y2677203D01*
X993767Y2667540D01*
X944233Y2667540D01*
X895652Y2677203D01*
X895650Y2677204D01*
X895649Y2677204D01*
X849889Y2696159D01*
X823671Y2713677D01*
X808703Y2723678D01*
X773678Y2758703D01*
X746159Y2799889D01*
X734705Y2827540D01*
X727204Y2845649D01*
X725114Y2856159D01*
X717540Y2894233D01*
X717540Y2943767D01*
X727203Y2992348D01*
X730327Y2999889D01*
X746159Y3038111D01*
X754029Y3049889D01*
X773678Y3079297D01*
X808703Y3114322D01*
X849889Y3141841D01*
X855664Y3144233D01*
X895649Y3160796D01*
X895650Y3160796D01*
X895652Y3160797D01*
X944233Y3170460D01*
X993767Y3170460D01*
X1042348Y3160797D01*
G37*
G36*
X14472348Y3450797D02*
G01*
X14472350Y3450796D01*
X14472351Y3450796D01*
X14495309Y3441286D01*
X14518111Y3431841D01*
X14559297Y3404322D01*
X14594322Y3369297D01*
X14617904Y3334003D01*
X14621841Y3328111D01*
X14631695Y3304323D01*
X14640797Y3282348D01*
X14650460Y3233767D01*
X14650460Y3189247D01*
X14650850Y3185283D01*
X14652007Y3181471D01*
X14653884Y3177958D01*
X14656411Y3174879D01*
X14659490Y3172352D01*
X14663003Y3170475D01*
X14666815Y3169318D01*
X14670779Y3168928D01*
X14674743Y3169318D01*
X14678555Y3170475D01*
X14682068Y3172352D01*
X14685141Y3174874D01*
X14694676Y3184409D01*
X14735862Y3211928D01*
X14781622Y3230883D01*
X14781623Y3230883D01*
X14781625Y3230884D01*
X14830206Y3240547D01*
X14879740Y3240547D01*
X14928321Y3230884D01*
X14928323Y3230883D01*
X14928324Y3230883D01*
X14974084Y3211928D01*
X15015270Y3184409D01*
X15050295Y3149384D01*
X15073721Y3114323D01*
X15077814Y3108198D01*
X15096218Y3063769D01*
X15096770Y3062435D01*
X15106433Y3013854D01*
X15106433Y2964320D01*
X15097360Y2918703D01*
X15096769Y2915736D01*
X15095916Y2913677D01*
X15077814Y2869976D01*
X15050295Y2828790D01*
X15015270Y2793765D01*
X15004804Y2786772D01*
X14974084Y2766246D01*
X14928324Y2747291D01*
X14928323Y2747291D01*
X14928321Y2747290D01*
X14879740Y2737627D01*
X14830206Y2737627D01*
X14781625Y2747290D01*
X14781623Y2747291D01*
X14781622Y2747291D01*
X14735862Y2766246D01*
X14705142Y2786772D01*
X14694676Y2793765D01*
X14659651Y2828790D01*
X14632132Y2869976D01*
X14614030Y2913677D01*
X14613177Y2915736D01*
X14612587Y2918703D01*
X14603513Y2964320D01*
X14603513Y3008840D01*
X14603123Y3012804D01*
X14601966Y3016616D01*
X14600089Y3020129D01*
X14597562Y3023208D01*
X14594483Y3025735D01*
X14590970Y3027612D01*
X14587158Y3028769D01*
X14583194Y3029159D01*
X14579230Y3028769D01*
X14575418Y3027612D01*
X14571905Y3025735D01*
X14568832Y3023213D01*
X14559297Y3013678D01*
X14552056Y3008840D01*
X14518111Y2986159D01*
X14472351Y2967204D01*
X14472350Y2967204D01*
X14472348Y2967203D01*
X14423767Y2957540D01*
X14374233Y2957540D01*
X14325652Y2967203D01*
X14325650Y2967204D01*
X14325649Y2967204D01*
X14279889Y2986159D01*
X14245944Y3008840D01*
X14238703Y3013678D01*
X14203678Y3048703D01*
X14176159Y3089889D01*
X14171177Y3101917D01*
X14157204Y3135649D01*
X14155590Y3143765D01*
X14147540Y3184233D01*
X14147540Y3233767D01*
X14157203Y3282348D01*
X14166306Y3304323D01*
X14176159Y3328111D01*
X14180096Y3334003D01*
X14203678Y3369297D01*
X14238703Y3404322D01*
X14279889Y3431841D01*
X14302691Y3441286D01*
X14325649Y3450796D01*
X14325650Y3450796D01*
X14325652Y3450797D01*
X14374233Y3460460D01*
X14423767Y3460460D01*
X14472348Y3450797D01*
G37*
G36*
X9661917Y3270366D02*
G01*
X9661919Y3270365D01*
X9661920Y3270365D01*
X9664498Y3269297D01*
X9707680Y3251410D01*
X9748866Y3223891D01*
X9783891Y3188866D01*
X9794925Y3172352D01*
X9811410Y3147680D01*
X9829370Y3104323D01*
X9830366Y3101917D01*
X9840029Y3053336D01*
X9840029Y3003802D01*
X9831059Y2958703D01*
X9830365Y2955218D01*
X9813158Y2913678D01*
X9811410Y2909458D01*
X9783891Y2868272D01*
X9748866Y2833247D01*
X9730233Y2820797D01*
X9707680Y2805728D01*
X9661920Y2786773D01*
X9661919Y2786773D01*
X9661917Y2786772D01*
X9613336Y2777109D01*
X9563802Y2777109D01*
X9515221Y2786772D01*
X9515219Y2786773D01*
X9515218Y2786773D01*
X9469458Y2805728D01*
X9446905Y2820797D01*
X9428272Y2833247D01*
X9393247Y2868272D01*
X9365728Y2909458D01*
X9363980Y2913678D01*
X9346773Y2955218D01*
X9346080Y2958703D01*
X9337109Y3003802D01*
X9337109Y3053336D01*
X9346772Y3101917D01*
X9347769Y3104323D01*
X9365728Y3147680D01*
X9382213Y3172352D01*
X9393247Y3188866D01*
X9428272Y3223891D01*
X9469458Y3251410D01*
X9512640Y3269297D01*
X9515218Y3270365D01*
X9515219Y3270365D01*
X9515221Y3270366D01*
X9563802Y3280029D01*
X9613336Y3280029D01*
X9661917Y3270366D01*
G37*
G36*
X9092348Y3280801D02*
G01*
X9092350Y3280800D01*
X9092351Y3280800D01*
X9138111Y3261845D01*
X9179297Y3234326D01*
X9214322Y3199301D01*
X9234616Y3168928D01*
X9241841Y3158115D01*
X9251927Y3133767D01*
X9260797Y3112352D01*
X9270460Y3063771D01*
X9270460Y3014237D01*
X9261105Y2967203D01*
X9260796Y2965653D01*
X9253776Y2948705D01*
X9241841Y2919893D01*
X9214322Y2878707D01*
X9179297Y2843682D01*
X9163678Y2833246D01*
X9138111Y2816163D01*
X9092351Y2797208D01*
X9092350Y2797208D01*
X9092348Y2797207D01*
X9043767Y2787544D01*
X8994233Y2787544D01*
X8945652Y2797207D01*
X8945650Y2797208D01*
X8945649Y2797208D01*
X8899889Y2816163D01*
X8874322Y2833246D01*
X8858703Y2843682D01*
X8823678Y2878707D01*
X8796159Y2919893D01*
X8784224Y2948705D01*
X8777204Y2965653D01*
X8776896Y2967203D01*
X8767540Y3014237D01*
X8767540Y3063771D01*
X8777203Y3112352D01*
X8786074Y3133767D01*
X8796159Y3158115D01*
X8803384Y3168928D01*
X8823678Y3199301D01*
X8858703Y3234326D01*
X8899889Y3261845D01*
X8945649Y3280800D01*
X8945650Y3280800D01*
X8945652Y3280801D01*
X8994233Y3290464D01*
X9043767Y3290464D01*
X9092348Y3280801D01*
G37*
G36*
X4812348Y3320797D02*
G01*
X4812350Y3320796D01*
X4812351Y3320796D01*
X4858111Y3301841D01*
X4899297Y3274322D01*
X4934322Y3239297D01*
X4937643Y3234326D01*
X4961841Y3198111D01*
X4973289Y3170475D01*
X4980797Y3152348D01*
X4990460Y3103767D01*
X4990460Y3054233D01*
X4981404Y3008703D01*
X4980796Y3005649D01*
X4975286Y2992348D01*
X4961841Y2959889D01*
X4934322Y2918703D01*
X4899297Y2883678D01*
X4889606Y2877203D01*
X4858111Y2856159D01*
X4812351Y2837204D01*
X4812350Y2837204D01*
X4812348Y2837203D01*
X4763767Y2827540D01*
X4714233Y2827540D01*
X4665652Y2837203D01*
X4665650Y2837204D01*
X4665649Y2837204D01*
X4619889Y2856159D01*
X4588394Y2877203D01*
X4578703Y2883678D01*
X4543678Y2918703D01*
X4516159Y2959889D01*
X4502714Y2992348D01*
X4497204Y3005649D01*
X4496597Y3008703D01*
X4487540Y3054233D01*
X4487540Y3103767D01*
X4497203Y3152348D01*
X4504712Y3170475D01*
X4516159Y3198111D01*
X4540357Y3234326D01*
X4543678Y3239297D01*
X4578703Y3274322D01*
X4619889Y3301841D01*
X4665649Y3320796D01*
X4665650Y3320796D01*
X4665652Y3320797D01*
X4714233Y3330460D01*
X4763767Y3330460D01*
X4812348Y3320797D01*
G37*
G36*
X8502348Y3350797D02*
G01*
X8502350Y3350796D01*
X8502351Y3350796D01*
X8542889Y3334004D01*
X8548111Y3331841D01*
X8589297Y3304322D01*
X8624322Y3269297D01*
X8624323Y3269295D01*
X8651841Y3228111D01*
X8670016Y3184235D01*
X8670797Y3182348D01*
X8680460Y3133767D01*
X8680460Y3084233D01*
X8673629Y3049889D01*
X8670796Y3035649D01*
X8661333Y3012804D01*
X8651841Y2989889D01*
X8624322Y2948703D01*
X8589297Y2913678D01*
X8582981Y2909458D01*
X8548111Y2886159D01*
X8502351Y2867204D01*
X8502350Y2867204D01*
X8502348Y2867203D01*
X8453767Y2857540D01*
X8404233Y2857540D01*
X8355652Y2867203D01*
X8355650Y2867204D01*
X8355649Y2867204D01*
X8309889Y2886159D01*
X8275019Y2909458D01*
X8268703Y2913678D01*
X8233678Y2948703D01*
X8206159Y2989889D01*
X8196667Y3012804D01*
X8187204Y3035649D01*
X8184372Y3049889D01*
X8177540Y3084233D01*
X8177540Y3133767D01*
X8187203Y3182348D01*
X8187985Y3184235D01*
X8206159Y3228111D01*
X8233677Y3269295D01*
X8233678Y3269297D01*
X8268703Y3304322D01*
X8309889Y3331841D01*
X8315111Y3334004D01*
X8355649Y3350796D01*
X8355650Y3350796D01*
X8355652Y3350797D01*
X8404233Y3360460D01*
X8453767Y3360460D01*
X8502348Y3350797D01*
G37*
G36*
X16892348Y3360797D02*
G01*
X16892350Y3360796D01*
X16892351Y3360796D01*
X16916490Y3350797D01*
X16938111Y3341841D01*
X16979297Y3314322D01*
X17014322Y3279297D01*
X17041841Y3238111D01*
X17060797Y3192348D01*
X17070460Y3143767D01*
X17070460Y3094233D01*
X17061404Y3048703D01*
X17060796Y3045649D01*
X17052547Y3025735D01*
X17041841Y2999889D01*
X17014322Y2958703D01*
X16979297Y2923678D01*
X16964329Y2913677D01*
X16938111Y2896159D01*
X16892351Y2877204D01*
X16892350Y2877204D01*
X16892348Y2877203D01*
X16843767Y2867540D01*
X16794233Y2867540D01*
X16745652Y2877203D01*
X16745650Y2877204D01*
X16745649Y2877204D01*
X16699889Y2896159D01*
X16673671Y2913677D01*
X16658703Y2923678D01*
X16623678Y2958703D01*
X16596159Y2999889D01*
X16585453Y3025735D01*
X16577204Y3045649D01*
X16576597Y3048703D01*
X16567540Y3094233D01*
X16567540Y3143767D01*
X16577203Y3192348D01*
X16596159Y3238111D01*
X16623678Y3279297D01*
X16658703Y3314322D01*
X16699889Y3341841D01*
X16721510Y3350797D01*
X16745649Y3360796D01*
X16745650Y3360796D01*
X16745652Y3360797D01*
X16794233Y3370460D01*
X16843767Y3370460D01*
X16892348Y3360797D01*
G37*
G36*
X15952348Y3890797D02*
G01*
X15952350Y3890796D01*
X15952351Y3890796D01*
X15998111Y3871841D01*
X16039297Y3844322D01*
X16074322Y3809297D01*
X16074323Y3809295D01*
X16101841Y3768111D01*
X16118647Y3727540D01*
X16120797Y3722348D01*
X16130460Y3673767D01*
X16130460Y3624233D01*
X16122504Y3584233D01*
X16120796Y3575649D01*
X16110600Y3551035D01*
X16101841Y3529889D01*
X16074322Y3488703D01*
X16039297Y3453678D01*
X16015045Y3437474D01*
X15998111Y3426159D01*
X15952351Y3407204D01*
X15952350Y3407204D01*
X15952348Y3407203D01*
X15903767Y3397540D01*
X15854233Y3397540D01*
X15819647Y3404419D01*
X15815686Y3404809D01*
X15811722Y3404419D01*
X15807910Y3403262D01*
X15804397Y3401384D01*
X15801318Y3398858D01*
X15798791Y3395778D01*
X15796914Y3392266D01*
X15795757Y3388454D01*
X15795367Y3384490D01*
X15795757Y3380526D01*
X15796914Y3376714D01*
X15798792Y3373201D01*
X15801318Y3370122D01*
X15804396Y3367597D01*
X15809297Y3364322D01*
X15844322Y3329297D01*
X15844323Y3329295D01*
X15871841Y3288111D01*
X15887044Y3251410D01*
X15890797Y3242348D01*
X15900460Y3193767D01*
X15900460Y3144233D01*
X15892044Y3101920D01*
X15890796Y3095649D01*
X15884022Y3079295D01*
X15871841Y3049889D01*
X15844322Y3008703D01*
X15809297Y2973678D01*
X15781669Y2955218D01*
X15768111Y2946159D01*
X15722351Y2927204D01*
X15722350Y2927204D01*
X15722348Y2927203D01*
X15673767Y2917540D01*
X15624233Y2917540D01*
X15575652Y2927203D01*
X15575650Y2927204D01*
X15575649Y2927204D01*
X15529889Y2946159D01*
X15516331Y2955218D01*
X15488703Y2973678D01*
X15453678Y3008703D01*
X15426159Y3049889D01*
X15413978Y3079295D01*
X15407204Y3095649D01*
X15405957Y3101920D01*
X15397540Y3144233D01*
X15397540Y3193767D01*
X15407203Y3242348D01*
X15410957Y3251410D01*
X15426159Y3288111D01*
X15453677Y3329295D01*
X15453678Y3329297D01*
X15488703Y3364322D01*
X15529889Y3391841D01*
X15530915Y3392266D01*
X15575649Y3410796D01*
X15575650Y3410796D01*
X15575652Y3410797D01*
X15624233Y3420460D01*
X15673767Y3420460D01*
X15708353Y3413581D01*
X15712314Y3413191D01*
X15716278Y3413581D01*
X15720090Y3414738D01*
X15723603Y3416616D01*
X15726682Y3419142D01*
X15729209Y3422222D01*
X15731086Y3425734D01*
X15732243Y3429546D01*
X15732633Y3433510D01*
X15732243Y3437474D01*
X15731086Y3441286D01*
X15729208Y3444799D01*
X15726682Y3447878D01*
X15723604Y3450403D01*
X15718703Y3453678D01*
X15683678Y3488703D01*
X15656159Y3529889D01*
X15647400Y3551035D01*
X15637204Y3575649D01*
X15635497Y3584233D01*
X15627540Y3624233D01*
X15627540Y3673767D01*
X15637203Y3722348D01*
X15639354Y3727540D01*
X15656159Y3768111D01*
X15683677Y3809295D01*
X15683678Y3809297D01*
X15718703Y3844322D01*
X15759889Y3871841D01*
X15805649Y3890796D01*
X15805650Y3890796D01*
X15805652Y3890797D01*
X15854233Y3900460D01*
X15903767Y3900460D01*
X15952348Y3890797D01*
G37*
G36*
X1387260Y3250740D02*
G01*
X690740Y3250740D01*
X690740Y4047260D01*
X1387260Y4047260D01*
X1387260Y3250740D01*
G37*
G36*
X2387260Y3250740D02*
G01*
X1690740Y3250740D01*
X1690740Y4047260D01*
X2387260Y4047260D01*
X2387260Y3250740D01*
G37*
G36*
X11413157Y3817597D02*
G01*
X11413159Y3817596D01*
X11413160Y3817596D01*
X11445203Y3804323D01*
X11458920Y3798641D01*
X11500106Y3771122D01*
X11535131Y3736097D01*
X11562650Y3694911D01*
X11581606Y3649148D01*
X11591269Y3600567D01*
X11591269Y3551033D01*
X11581606Y3502452D01*
X11562650Y3456689D01*
X11535131Y3415503D01*
X11500106Y3380478D01*
X11480238Y3367203D01*
X11458920Y3352959D01*
X11413160Y3334004D01*
X11413159Y3334004D01*
X11413157Y3334003D01*
X11364576Y3324340D01*
X11315042Y3324340D01*
X11266461Y3334003D01*
X11266459Y3334004D01*
X11266458Y3334004D01*
X11220698Y3352959D01*
X11199380Y3367203D01*
X11179512Y3380478D01*
X11144487Y3415503D01*
X11116968Y3456689D01*
X11098012Y3502452D01*
X11088349Y3551033D01*
X11088349Y3600567D01*
X11098012Y3649148D01*
X11116968Y3694911D01*
X11144487Y3736097D01*
X11179512Y3771122D01*
X11220698Y3798641D01*
X11234415Y3804323D01*
X11266458Y3817596D01*
X11266459Y3817596D01*
X11266461Y3817597D01*
X11315042Y3827260D01*
X11364576Y3827260D01*
X11413157Y3817597D01*
G37*
G36*
X12172348Y3850797D02*
G01*
X12172350Y3850796D01*
X12172351Y3850796D01*
X12187980Y3844322D01*
X12218111Y3831841D01*
X12259297Y3804322D01*
X12294322Y3769297D01*
X12321841Y3728111D01*
X12340797Y3682348D01*
X12350460Y3633767D01*
X12350460Y3584233D01*
X12340797Y3535652D01*
X12321841Y3489889D01*
X12294322Y3448703D01*
X12259297Y3413678D01*
X12245296Y3404323D01*
X12218111Y3386159D01*
X12172351Y3367204D01*
X12172350Y3367204D01*
X12172348Y3367203D01*
X12123767Y3357540D01*
X12074233Y3357540D01*
X12025652Y3367203D01*
X12025650Y3367204D01*
X12025649Y3367204D01*
X11979889Y3386159D01*
X11952704Y3404323D01*
X11938703Y3413678D01*
X11903678Y3448703D01*
X11876159Y3489889D01*
X11857203Y3535652D01*
X11847540Y3584233D01*
X11847540Y3633767D01*
X11857203Y3682348D01*
X11876159Y3728111D01*
X11903678Y3769297D01*
X11938703Y3804322D01*
X11979889Y3831841D01*
X12010020Y3844322D01*
X12025649Y3850796D01*
X12025650Y3850796D01*
X12025652Y3850797D01*
X12074233Y3860460D01*
X12123767Y3860460D01*
X12172348Y3850797D01*
G37*
G36*
X13022349Y4956757D02*
G01*
X13022351Y4956756D01*
X13022352Y4956756D01*
X13023793Y4956159D01*
X13068112Y4937801D01*
X13109298Y4910282D01*
X13144323Y4875257D01*
X13168678Y4838807D01*
X13171842Y4834071D01*
X13190389Y4789297D01*
X13190798Y4788308D01*
X13200461Y4739727D01*
X13200461Y4690193D01*
X13192091Y4648111D01*
X13190797Y4641609D01*
X13177658Y4609889D01*
X13171842Y4595849D01*
X13144323Y4554663D01*
X13109298Y4519638D01*
X13094707Y4509889D01*
X13074510Y4496394D01*
X13071430Y4493867D01*
X13068903Y4490788D01*
X13067026Y4487275D01*
X13065869Y4483463D01*
X13065479Y4479499D01*
X13065869Y4475535D01*
X13067026Y4471723D01*
X13068903Y4468211D01*
X13071430Y4465131D01*
X13074509Y4462604D01*
X13078022Y4460727D01*
X13081834Y4459570D01*
X13085798Y4459180D01*
X13089763Y4459571D01*
X13094232Y4460460D01*
X13143767Y4460460D01*
X13192348Y4450797D01*
X13192350Y4450796D01*
X13192351Y4450796D01*
X13233676Y4433678D01*
X13238111Y4431841D01*
X13279297Y4404322D01*
X13314322Y4369297D01*
X13341841Y4328111D01*
X13360797Y4282348D01*
X13370460Y4233767D01*
X13370460Y4184233D01*
X13361522Y4139295D01*
X13360796Y4135649D01*
X13359979Y4133677D01*
X13341841Y4089889D01*
X13314322Y4048703D01*
X13279297Y4013678D01*
X13264103Y4003526D01*
X13238111Y3986159D01*
X13192351Y3967204D01*
X13192350Y3967204D01*
X13192348Y3967203D01*
X13143767Y3957540D01*
X13118268Y3957540D01*
X13114304Y3957150D01*
X13110492Y3955993D01*
X13106979Y3954116D01*
X13103900Y3951589D01*
X13101373Y3948510D01*
X13099496Y3944997D01*
X13098339Y3941185D01*
X13097949Y3937221D01*
X13098339Y3933257D01*
X13099496Y3929445D01*
X13101373Y3925932D01*
X13103900Y3922853D01*
X13106979Y3920326D01*
X13110492Y3918449D01*
X13114300Y3917293D01*
X13132164Y3913740D01*
X13132166Y3913739D01*
X13132167Y3913739D01*
X13151690Y3905652D01*
X13177927Y3894784D01*
X13219113Y3867265D01*
X13254138Y3832240D01*
X13269468Y3809297D01*
X13281657Y3791054D01*
X13291161Y3768111D01*
X13300613Y3745291D01*
X13310276Y3696710D01*
X13310276Y3647176D01*
X13300613Y3598595D01*
X13281657Y3552832D01*
X13254138Y3511646D01*
X13219113Y3476621D01*
X13194926Y3460460D01*
X13177927Y3449102D01*
X13132167Y3430147D01*
X13132166Y3430147D01*
X13132164Y3430146D01*
X13083583Y3420483D01*
X13034049Y3420483D01*
X12985468Y3430146D01*
X12985466Y3430147D01*
X12985465Y3430147D01*
X12939705Y3449102D01*
X12922706Y3460460D01*
X12898519Y3476621D01*
X12863494Y3511646D01*
X12835975Y3552832D01*
X12817019Y3598595D01*
X12807356Y3647176D01*
X12807356Y3696710D01*
X12817019Y3745291D01*
X12826472Y3768111D01*
X12835975Y3791054D01*
X12848164Y3809297D01*
X12863494Y3832240D01*
X12898519Y3867265D01*
X12939705Y3894784D01*
X12965942Y3905652D01*
X12985465Y3913739D01*
X12985466Y3913739D01*
X12985468Y3913740D01*
X13034049Y3923403D01*
X13059548Y3923403D01*
X13063512Y3923793D01*
X13067324Y3924950D01*
X13070837Y3926827D01*
X13073916Y3929354D01*
X13076443Y3932433D01*
X13078320Y3935946D01*
X13079477Y3939758D01*
X13079867Y3943722D01*
X13079477Y3947686D01*
X13078320Y3951498D01*
X13076443Y3955011D01*
X13073916Y3958090D01*
X13070837Y3960617D01*
X13067324Y3962494D01*
X13063516Y3963650D01*
X13045652Y3967203D01*
X13045650Y3967204D01*
X13045649Y3967204D01*
X12999889Y3986159D01*
X12973897Y4003526D01*
X12958703Y4013678D01*
X12923678Y4048703D01*
X12896159Y4089889D01*
X12878021Y4133677D01*
X12877204Y4135649D01*
X12876479Y4139295D01*
X12867540Y4184233D01*
X12867540Y4233767D01*
X12877203Y4282348D01*
X12896159Y4328111D01*
X12923678Y4369297D01*
X12958703Y4404322D01*
X12993492Y4427566D01*
X12996571Y4430093D01*
X12999098Y4433172D01*
X13000975Y4436685D01*
X13002132Y4440497D01*
X13002522Y4444461D01*
X13002132Y4448425D01*
X13000975Y4452237D01*
X12999098Y4455749D01*
X12996571Y4458829D01*
X12993492Y4461356D01*
X12989979Y4463233D01*
X12986167Y4464390D01*
X12982203Y4464780D01*
X12978238Y4464389D01*
X12973769Y4463500D01*
X12924234Y4463500D01*
X12875653Y4473163D01*
X12875651Y4473164D01*
X12875650Y4473164D01*
X12829890Y4492119D01*
X12803295Y4509889D01*
X12788704Y4519638D01*
X12753679Y4554663D01*
X12726160Y4595849D01*
X12720344Y4609889D01*
X12707205Y4641609D01*
X12705912Y4648111D01*
X12697541Y4690193D01*
X12697541Y4739727D01*
X12707204Y4788308D01*
X12707614Y4789297D01*
X12726160Y4834071D01*
X12729324Y4838807D01*
X12753679Y4875257D01*
X12788704Y4910282D01*
X12829890Y4937801D01*
X12874209Y4956159D01*
X12875650Y4956756D01*
X12875651Y4956756D01*
X12875653Y4956757D01*
X12924234Y4966420D01*
X12973768Y4966420D01*
X13022349Y4956757D01*
G37*
G36*
X5007260Y4040740D02*
G01*
X4396350Y4040740D01*
X4392386Y4040350D01*
X4388574Y4039193D01*
X4385061Y4037316D01*
X4381982Y4034789D01*
X4379455Y4031710D01*
X4377578Y4028197D01*
X4376421Y4024385D01*
X4376031Y4020421D01*
X4376421Y4016457D01*
X4377578Y4012645D01*
X4379455Y4009132D01*
X4381982Y4006053D01*
X4385061Y4003526D01*
X4387699Y4002116D01*
X4388110Y4001841D01*
X4388111Y4001841D01*
X4429297Y3974322D01*
X4464322Y3939297D01*
X4472654Y3926827D01*
X4491841Y3898111D01*
X4507674Y3859889D01*
X4510797Y3852348D01*
X4520460Y3803767D01*
X4520460Y3754233D01*
X4510797Y3705652D01*
X4491841Y3659889D01*
X4464322Y3618703D01*
X4429297Y3583678D01*
X4417285Y3575652D01*
X4388111Y3556159D01*
X4342351Y3537204D01*
X4342350Y3537204D01*
X4342348Y3537203D01*
X4293767Y3527540D01*
X4244233Y3527540D01*
X4195652Y3537203D01*
X4195650Y3537204D01*
X4195649Y3537204D01*
X4149889Y3556159D01*
X4120715Y3575652D01*
X4108703Y3583678D01*
X4073678Y3618703D01*
X4046159Y3659889D01*
X4027203Y3705652D01*
X4017540Y3754233D01*
X4017540Y3803767D01*
X4027203Y3852348D01*
X4030327Y3859889D01*
X4046159Y3898111D01*
X4065346Y3926827D01*
X4073678Y3939297D01*
X4108703Y3974322D01*
X4149889Y4001841D01*
X4160057Y4006053D01*
X4195649Y4020796D01*
X4195650Y4020796D01*
X4195652Y4020797D01*
X4244233Y4030460D01*
X4290421Y4030460D01*
X4294385Y4030850D01*
X4298197Y4032007D01*
X4301710Y4033884D01*
X4304789Y4036411D01*
X4307316Y4039490D01*
X4309193Y4043003D01*
X4310350Y4046815D01*
X4310740Y4050779D01*
X4310740Y4837260D01*
X5007260Y4837260D01*
X5007260Y4040740D01*
G37*
G36*
X18337260Y3580740D02*
G01*
X17640740Y3580740D01*
X17640740Y4377260D01*
X18337260Y4377260D01*
X18337260Y3580740D01*
G37*
G36*
X17337260Y3580740D02*
G01*
X16640740Y3580740D01*
X16640740Y4377260D01*
X17337260Y4377260D01*
X17337260Y3580740D01*
G37*
G36*
X18862348Y4220797D02*
G01*
X18862350Y4220796D01*
X18862351Y4220796D01*
X18878190Y4214235D01*
X18908111Y4201841D01*
X18949297Y4174322D01*
X18984322Y4139297D01*
X19011841Y4098111D01*
X19030797Y4052348D01*
X19040460Y4003767D01*
X19040460Y3954233D01*
X19032406Y3913739D01*
X19030796Y3905649D01*
X19026295Y3894784D01*
X19011841Y3859889D01*
X18984322Y3818703D01*
X18949297Y3783678D01*
X18930505Y3771122D01*
X18908111Y3756159D01*
X18862351Y3737204D01*
X18862350Y3737204D01*
X18862348Y3737203D01*
X18813767Y3727540D01*
X18764233Y3727540D01*
X18715652Y3737203D01*
X18715650Y3737204D01*
X18715649Y3737204D01*
X18669889Y3756159D01*
X18647495Y3771122D01*
X18628703Y3783678D01*
X18593678Y3818703D01*
X18566159Y3859889D01*
X18551705Y3894784D01*
X18547204Y3905649D01*
X18545595Y3913739D01*
X18537540Y3954233D01*
X18537540Y4003767D01*
X18547203Y4052348D01*
X18566159Y4098111D01*
X18593678Y4139297D01*
X18628703Y4174322D01*
X18669889Y4201841D01*
X18699810Y4214235D01*
X18715649Y4220796D01*
X18715650Y4220796D01*
X18715652Y4220797D01*
X18764233Y4230460D01*
X18813767Y4230460D01*
X18862348Y4220797D01*
G37*
G36*
X12482348Y4480797D02*
G01*
X12482350Y4480796D01*
X12482351Y4480796D01*
X12526269Y4462604D01*
X12528111Y4461841D01*
X12569297Y4434322D01*
X12604322Y4399297D01*
X12631841Y4358111D01*
X12650797Y4312348D01*
X12660460Y4263767D01*
X12660460Y4214233D01*
X12650797Y4165652D01*
X12631841Y4119889D01*
X12604322Y4078703D01*
X12569297Y4043678D01*
X12540422Y4024385D01*
X12528111Y4016159D01*
X12482351Y3997204D01*
X12482350Y3997204D01*
X12482348Y3997203D01*
X12433767Y3987540D01*
X12384233Y3987540D01*
X12335652Y3997203D01*
X12335650Y3997204D01*
X12335649Y3997204D01*
X12289889Y4016159D01*
X12277578Y4024385D01*
X12248703Y4043678D01*
X12213678Y4078703D01*
X12186159Y4119889D01*
X12167203Y4165652D01*
X12157540Y4214233D01*
X12157540Y4263767D01*
X12167203Y4312348D01*
X12186159Y4358111D01*
X12213678Y4399297D01*
X12248703Y4434322D01*
X12289889Y4461841D01*
X12291731Y4462604D01*
X12335649Y4480796D01*
X12335650Y4480796D01*
X12335652Y4480797D01*
X12384233Y4490460D01*
X12433767Y4490460D01*
X12482348Y4480797D01*
G37*
G36*
X6332348Y5150797D02*
G01*
X6332350Y5150796D01*
X6332351Y5150796D01*
X6372336Y5134233D01*
X6378111Y5131841D01*
X6419297Y5104322D01*
X6454322Y5069297D01*
X6473971Y5039889D01*
X6481841Y5028111D01*
X6494023Y4998703D01*
X6500797Y4982348D01*
X6510460Y4933767D01*
X6510460Y4884233D01*
X6500797Y4835652D01*
X6481841Y4789889D01*
X6454322Y4748703D01*
X6419297Y4713678D01*
X6390328Y4694322D01*
X6378111Y4686159D01*
X6332351Y4667204D01*
X6332350Y4667204D01*
X6332348Y4667203D01*
X6283767Y4657540D01*
X6234233Y4657540D01*
X6185652Y4667203D01*
X6185650Y4667204D01*
X6185649Y4667204D01*
X6139889Y4686159D01*
X6127672Y4694322D01*
X6098703Y4713678D01*
X6063678Y4748703D01*
X6044472Y4777447D01*
X6041947Y4780524D01*
X6038868Y4783051D01*
X6035355Y4784929D01*
X6031543Y4786086D01*
X6027579Y4786476D01*
X6023615Y4786086D01*
X6019804Y4784929D01*
X6016291Y4783052D01*
X6013212Y4780525D01*
X6010685Y4777446D01*
X6008807Y4773933D01*
X6007650Y4770121D01*
X6007260Y4766157D01*
X6007260Y4040740D01*
X5310740Y4040740D01*
X5310740Y4837260D01*
X5992125Y4837260D01*
X5996089Y4837650D01*
X5999901Y4838807D01*
X6003414Y4840684D01*
X6006493Y4843211D01*
X6009020Y4846290D01*
X6010897Y4849803D01*
X6012054Y4853615D01*
X6012444Y4857579D01*
X6012055Y4861535D01*
X6007540Y4884233D01*
X6007540Y4933767D01*
X6017203Y4982348D01*
X6023978Y4998703D01*
X6036159Y5028111D01*
X6044029Y5039889D01*
X6063678Y5069297D01*
X6098703Y5104322D01*
X6139889Y5131841D01*
X6145664Y5134233D01*
X6185649Y5150796D01*
X6185650Y5150796D01*
X6185652Y5150797D01*
X6234233Y5160460D01*
X6283767Y5160460D01*
X6332348Y5150797D01*
G37*
G36*
X8212348Y4570797D02*
G01*
X8212350Y4570796D01*
X8212351Y4570796D01*
X8238682Y4559889D01*
X8258111Y4551841D01*
X8299297Y4524322D01*
X8334322Y4489297D01*
X8354445Y4459180D01*
X8361841Y4448111D01*
X8379980Y4404322D01*
X8380797Y4402348D01*
X8390460Y4353767D01*
X8390460Y4304233D01*
X8380797Y4255652D01*
X8361841Y4209889D01*
X8334322Y4168703D01*
X8299297Y4133678D01*
X8278660Y4119889D01*
X8258111Y4106159D01*
X8212351Y4087204D01*
X8212350Y4087204D01*
X8212348Y4087203D01*
X8163767Y4077540D01*
X8114233Y4077540D01*
X8065652Y4087203D01*
X8065650Y4087204D01*
X8065649Y4087204D01*
X8019889Y4106159D01*
X7999340Y4119889D01*
X7978703Y4133678D01*
X7943678Y4168703D01*
X7916159Y4209889D01*
X7897203Y4255652D01*
X7887540Y4304233D01*
X7887540Y4353767D01*
X7897203Y4402348D01*
X7898021Y4404322D01*
X7916159Y4448111D01*
X7923555Y4459180D01*
X7943678Y4489297D01*
X7978703Y4524322D01*
X8019889Y4551841D01*
X8039318Y4559889D01*
X8065649Y4570796D01*
X8065650Y4570796D01*
X8065652Y4570797D01*
X8114233Y4580460D01*
X8163767Y4580460D01*
X8212348Y4570797D01*
G37*
G36*
X6702348Y4740797D02*
G01*
X6702350Y4740796D01*
X6702351Y4740796D01*
X6748111Y4721841D01*
X6789297Y4694322D01*
X6824322Y4659297D01*
X6828017Y4653767D01*
X6851841Y4618111D01*
X6861063Y4595849D01*
X6870797Y4572348D01*
X6880460Y4523767D01*
X6880460Y4474233D01*
X6870797Y4425652D01*
X6851841Y4379889D01*
X6824322Y4338703D01*
X6789297Y4303678D01*
X6764641Y4287204D01*
X6748111Y4276159D01*
X6702351Y4257204D01*
X6702350Y4257204D01*
X6702348Y4257203D01*
X6653767Y4247540D01*
X6604233Y4247540D01*
X6555652Y4257203D01*
X6555650Y4257204D01*
X6555649Y4257204D01*
X6509889Y4276159D01*
X6493359Y4287204D01*
X6468703Y4303678D01*
X6433678Y4338703D01*
X6406159Y4379889D01*
X6387203Y4425652D01*
X6377540Y4474233D01*
X6377540Y4523767D01*
X6387203Y4572348D01*
X6396938Y4595849D01*
X6406159Y4618111D01*
X6429983Y4653767D01*
X6433678Y4659297D01*
X6468703Y4694322D01*
X6509889Y4721841D01*
X6555649Y4740796D01*
X6555650Y4740796D01*
X6555652Y4740797D01*
X6604233Y4750460D01*
X6653767Y4750460D01*
X6702348Y4740797D01*
G37*
G36*
X2512348Y4770797D02*
G01*
X2512350Y4770796D01*
X2512351Y4770796D01*
X2525218Y4765466D01*
X2558111Y4751841D01*
X2599297Y4724322D01*
X2634322Y4689297D01*
X2658062Y4653767D01*
X2661841Y4648111D01*
X2680016Y4604235D01*
X2680797Y4602348D01*
X2690460Y4553767D01*
X2690460Y4504233D01*
X2680898Y4456159D01*
X2680796Y4455649D01*
X2668370Y4425652D01*
X2661841Y4409889D01*
X2634322Y4368703D01*
X2599297Y4333678D01*
X2590965Y4328111D01*
X2558111Y4306159D01*
X2512351Y4287204D01*
X2512350Y4287204D01*
X2512348Y4287203D01*
X2463767Y4277540D01*
X2414233Y4277540D01*
X2365652Y4287203D01*
X2365650Y4287204D01*
X2365649Y4287204D01*
X2319889Y4306159D01*
X2287035Y4328111D01*
X2278703Y4333678D01*
X2243678Y4368703D01*
X2216159Y4409889D01*
X2209630Y4425652D01*
X2197204Y4455649D01*
X2197103Y4456159D01*
X2187540Y4504233D01*
X2187540Y4553767D01*
X2197203Y4602348D01*
X2197985Y4604235D01*
X2216159Y4648111D01*
X2219938Y4653767D01*
X2243678Y4689297D01*
X2278703Y4724322D01*
X2319889Y4751841D01*
X2352782Y4765466D01*
X2365649Y4770796D01*
X2365650Y4770796D01*
X2365652Y4770797D01*
X2414233Y4780460D01*
X2463767Y4780460D01*
X2512348Y4770797D01*
G37*
G36*
X4012348Y4870797D02*
G01*
X4012350Y4870796D01*
X4012351Y4870796D01*
X4051629Y4854526D01*
X4058111Y4851841D01*
X4099297Y4824322D01*
X4134322Y4789297D01*
X4146683Y4770797D01*
X4161841Y4748111D01*
X4180016Y4704235D01*
X4180797Y4702348D01*
X4190460Y4653767D01*
X4190460Y4604233D01*
X4181640Y4559889D01*
X4180796Y4555649D01*
X4167590Y4523767D01*
X4161841Y4509889D01*
X4134322Y4468703D01*
X4099297Y4433678D01*
X4087285Y4425652D01*
X4058111Y4406159D01*
X4012351Y4387204D01*
X4012350Y4387204D01*
X4012348Y4387203D01*
X3963767Y4377540D01*
X3914233Y4377540D01*
X3865652Y4387203D01*
X3865650Y4387204D01*
X3865649Y4387204D01*
X3819889Y4406159D01*
X3790715Y4425652D01*
X3778703Y4433678D01*
X3743678Y4468703D01*
X3716159Y4509889D01*
X3710410Y4523767D01*
X3697204Y4555649D01*
X3696361Y4559889D01*
X3687540Y4604233D01*
X3687540Y4653767D01*
X3697203Y4702348D01*
X3697985Y4704235D01*
X3716159Y4748111D01*
X3731317Y4770797D01*
X3743678Y4789297D01*
X3778703Y4824322D01*
X3819889Y4851841D01*
X3826371Y4854526D01*
X3865649Y4870796D01*
X3865650Y4870796D01*
X3865652Y4870797D01*
X3914233Y4880460D01*
X3963767Y4880460D01*
X4012348Y4870797D01*
G37*
G36*
X712348Y4920797D02*
G01*
X712350Y4920796D01*
X712351Y4920796D01*
X721025Y4917203D01*
X758111Y4901841D01*
X799297Y4874322D01*
X834322Y4839297D01*
X834323Y4839295D01*
X861841Y4798111D01*
X875363Y4765468D01*
X880797Y4752348D01*
X890460Y4703767D01*
X890460Y4654233D01*
X881640Y4609889D01*
X880796Y4605649D01*
X876021Y4594121D01*
X861841Y4559889D01*
X834322Y4518703D01*
X799297Y4483678D01*
X763216Y4459570D01*
X758111Y4456159D01*
X712351Y4437204D01*
X712350Y4437204D01*
X712348Y4437203D01*
X663767Y4427540D01*
X614233Y4427540D01*
X565652Y4437203D01*
X565650Y4437204D01*
X565649Y4437204D01*
X519889Y4456159D01*
X514784Y4459570D01*
X478703Y4483678D01*
X443678Y4518703D01*
X416159Y4559889D01*
X401979Y4594121D01*
X397204Y4605649D01*
X396361Y4609889D01*
X387540Y4654233D01*
X387540Y4703767D01*
X397203Y4752348D01*
X402638Y4765468D01*
X416159Y4798111D01*
X443677Y4839295D01*
X443678Y4839297D01*
X478703Y4874322D01*
X519889Y4901841D01*
X556975Y4917203D01*
X565649Y4920796D01*
X565650Y4920796D01*
X565652Y4920797D01*
X614233Y4930460D01*
X663767Y4930460D01*
X712348Y4920797D01*
G37*
G36*
X16562348Y4970797D02*
G01*
X16562350Y4970796D01*
X16562351Y4970796D01*
X16597687Y4956159D01*
X16608111Y4951841D01*
X16649297Y4924322D01*
X16684322Y4889297D01*
X16693703Y4875257D01*
X16711841Y4848111D01*
X16721695Y4824323D01*
X16730797Y4802348D01*
X16740460Y4753767D01*
X16740460Y4704233D01*
X16731173Y4657540D01*
X16730796Y4655649D01*
X16724980Y4641609D01*
X16711841Y4609889D01*
X16684322Y4568703D01*
X16649297Y4533678D01*
X16626888Y4518705D01*
X16608111Y4506159D01*
X16562351Y4487204D01*
X16562350Y4487204D01*
X16562348Y4487203D01*
X16513767Y4477540D01*
X16464233Y4477540D01*
X16415652Y4487203D01*
X16415650Y4487204D01*
X16415649Y4487204D01*
X16369889Y4506159D01*
X16351112Y4518705D01*
X16328703Y4533678D01*
X16293678Y4568703D01*
X16266159Y4609889D01*
X16253020Y4641609D01*
X16247204Y4655649D01*
X16246828Y4657540D01*
X16237540Y4704233D01*
X16237540Y4753767D01*
X16247203Y4802348D01*
X16256306Y4824323D01*
X16266159Y4848111D01*
X16284297Y4875257D01*
X16293678Y4889297D01*
X16328703Y4924322D01*
X16369889Y4951841D01*
X16380313Y4956159D01*
X16415649Y4970796D01*
X16415650Y4970796D01*
X16415652Y4970797D01*
X16464233Y4980460D01*
X16513767Y4980460D01*
X16562348Y4970797D01*
G37*
G36*
X1893977Y4594023D02*
G01*
X1634023Y4594023D01*
X1634023Y4788635D01*
X1849365Y5003977D01*
X1893977Y5003977D01*
X1893977Y4594023D01*
G37*
G36*
X1243977Y4788635D02*
G01*
X1243977Y4594023D01*
X984023Y4594023D01*
X984023Y5003977D01*
X1028635Y5003977D01*
X1243977Y4788635D01*
G37*
G36*
X15729521Y5167560D02*
G01*
X15729523Y5167559D01*
X15729524Y5167559D01*
X15746662Y5160460D01*
X15775284Y5148604D01*
X15816470Y5121085D01*
X15851495Y5086060D01*
X15871474Y5056159D01*
X15879014Y5044874D01*
X15895955Y5003977D01*
X15897970Y4999111D01*
X15907633Y4950530D01*
X15907633Y4900996D01*
X15898209Y4853615D01*
X15897969Y4852412D01*
X15891025Y4835649D01*
X15879014Y4806652D01*
X15851495Y4765466D01*
X15816470Y4730441D01*
X15807312Y4724322D01*
X15775284Y4702922D01*
X15729524Y4683967D01*
X15729523Y4683967D01*
X15729521Y4683966D01*
X15680940Y4674303D01*
X15631406Y4674303D01*
X15582825Y4683966D01*
X15582823Y4683967D01*
X15582822Y4683967D01*
X15537062Y4702922D01*
X15505034Y4724322D01*
X15495876Y4730441D01*
X15460851Y4765466D01*
X15433332Y4806652D01*
X15421321Y4835649D01*
X15414377Y4852412D01*
X15414138Y4853615D01*
X15404713Y4900996D01*
X15404713Y4950530D01*
X15414376Y4999111D01*
X15416392Y5003977D01*
X15433332Y5044874D01*
X15440872Y5056159D01*
X15460851Y5086060D01*
X15495876Y5121085D01*
X15537062Y5148604D01*
X15565684Y5160460D01*
X15582822Y5167559D01*
X15582823Y5167559D01*
X15582825Y5167560D01*
X15631406Y5177223D01*
X15680940Y5177223D01*
X15729521Y5167560D01*
G37*
G36*
X1813612Y5229000D02*
G01*
X1439000Y4854388D01*
X1064388Y5229000D01*
X1439000Y5603612D01*
X1813612Y5229000D01*
G37*
G36*
X11792348Y5400797D02*
G01*
X11792350Y5400796D01*
X11792351Y5400796D01*
X11838111Y5381841D01*
X11879297Y5354322D01*
X11914322Y5319297D01*
X11924700Y5303765D01*
X11941841Y5278111D01*
X11955921Y5244121D01*
X11960797Y5232348D01*
X11970460Y5183767D01*
X11970460Y5134233D01*
X11960878Y5086058D01*
X11960796Y5085649D01*
X11948580Y5056159D01*
X11941841Y5039889D01*
X11914322Y4998703D01*
X11879297Y4963678D01*
X11861581Y4951841D01*
X11838111Y4936159D01*
X11792351Y4917204D01*
X11792350Y4917204D01*
X11792348Y4917203D01*
X11743767Y4907540D01*
X11694233Y4907540D01*
X11645652Y4917203D01*
X11645650Y4917204D01*
X11645649Y4917204D01*
X11599889Y4936159D01*
X11576419Y4951841D01*
X11558703Y4963678D01*
X11523678Y4998703D01*
X11496159Y5039889D01*
X11489420Y5056159D01*
X11477204Y5085649D01*
X11477123Y5086058D01*
X11467540Y5134233D01*
X11467540Y5183767D01*
X11477203Y5232348D01*
X11482080Y5244121D01*
X11496159Y5278111D01*
X11513300Y5303765D01*
X11523678Y5319297D01*
X11558703Y5354322D01*
X11599889Y5381841D01*
X11645649Y5400796D01*
X11645650Y5400796D01*
X11645652Y5400797D01*
X11694233Y5410460D01*
X11743767Y5410460D01*
X11792348Y5400797D01*
G37*
G36*
X2312348Y5420797D02*
G01*
X2312350Y5420796D01*
X2312351Y5420796D01*
X2340111Y5409297D01*
X2358111Y5401841D01*
X2399297Y5374322D01*
X2434322Y5339297D01*
X2458062Y5303767D01*
X2461841Y5298111D01*
X2480016Y5254235D01*
X2480797Y5252348D01*
X2490460Y5203767D01*
X2490460Y5154233D01*
X2483867Y5121085D01*
X2480796Y5105649D01*
X2465738Y5069297D01*
X2461841Y5059889D01*
X2434322Y5018703D01*
X2399297Y4983678D01*
X2380019Y4970797D01*
X2358111Y4956159D01*
X2312351Y4937204D01*
X2312350Y4937204D01*
X2312348Y4937203D01*
X2263767Y4927540D01*
X2214233Y4927540D01*
X2165652Y4937203D01*
X2165650Y4937204D01*
X2165649Y4937204D01*
X2119889Y4956159D01*
X2097981Y4970797D01*
X2078703Y4983678D01*
X2043678Y5018703D01*
X2016159Y5059889D01*
X2012262Y5069297D01*
X1997204Y5105649D01*
X1994134Y5121085D01*
X1987540Y5154233D01*
X1987540Y5203767D01*
X1997203Y5252348D01*
X1997985Y5254235D01*
X2016159Y5298111D01*
X2019938Y5303767D01*
X2043678Y5339297D01*
X2078703Y5374322D01*
X2119889Y5401841D01*
X2137889Y5409297D01*
X2165649Y5420796D01*
X2165650Y5420796D01*
X2165652Y5420797D01*
X2214233Y5430460D01*
X2263767Y5430460D01*
X2312348Y5420797D01*
G37*
G36*
X4252348Y5490797D02*
G01*
X4252350Y5490796D01*
X4252351Y5490796D01*
X4298111Y5471841D01*
X4339297Y5444322D01*
X4374322Y5409297D01*
X4374323Y5409295D01*
X4401841Y5368111D01*
X4413777Y5339297D01*
X4420797Y5322348D01*
X4430460Y5273767D01*
X4430460Y5224233D01*
X4420797Y5175652D01*
X4401841Y5129889D01*
X4374322Y5088703D01*
X4339297Y5053678D01*
X4318660Y5039889D01*
X4298111Y5026159D01*
X4252351Y5007204D01*
X4252350Y5007204D01*
X4252348Y5007203D01*
X4203767Y4997540D01*
X4154233Y4997540D01*
X4105652Y5007203D01*
X4105650Y5007204D01*
X4105649Y5007204D01*
X4059889Y5026159D01*
X4039340Y5039889D01*
X4018703Y5053678D01*
X3983678Y5088703D01*
X3956159Y5129889D01*
X3937203Y5175652D01*
X3927540Y5224233D01*
X3927540Y5273767D01*
X3937203Y5322348D01*
X3944224Y5339297D01*
X3956159Y5368111D01*
X3983677Y5409295D01*
X3983678Y5409297D01*
X4018703Y5444322D01*
X4059889Y5471841D01*
X4105649Y5490796D01*
X4105650Y5490796D01*
X4105652Y5490797D01*
X4154233Y5500460D01*
X4203767Y5500460D01*
X4252348Y5490797D01*
G37*
G36*
X712348Y5520797D02*
G01*
X712350Y5520796D01*
X712351Y5520796D01*
X751629Y5504526D01*
X758111Y5501841D01*
X799297Y5474322D01*
X834322Y5439297D01*
X846683Y5420797D01*
X861841Y5398111D01*
X879980Y5354322D01*
X880797Y5352348D01*
X890460Y5303767D01*
X890460Y5254233D01*
X884493Y5224233D01*
X880796Y5205649D01*
X865018Y5167559D01*
X861841Y5159889D01*
X834322Y5118703D01*
X799297Y5083678D01*
X777774Y5069297D01*
X758111Y5056159D01*
X712351Y5037204D01*
X712350Y5037204D01*
X712348Y5037203D01*
X663767Y5027540D01*
X614233Y5027540D01*
X565652Y5037203D01*
X565650Y5037204D01*
X565649Y5037204D01*
X519889Y5056159D01*
X500226Y5069297D01*
X478703Y5083678D01*
X443678Y5118703D01*
X416159Y5159889D01*
X412982Y5167559D01*
X397204Y5205649D01*
X393508Y5224233D01*
X387540Y5254233D01*
X387540Y5303767D01*
X397203Y5352348D01*
X398021Y5354322D01*
X416159Y5398111D01*
X431317Y5420797D01*
X443678Y5439297D01*
X478703Y5474322D01*
X519889Y5501841D01*
X526371Y5504526D01*
X565649Y5520796D01*
X565650Y5520796D01*
X565652Y5520797D01*
X614233Y5530460D01*
X663767Y5530460D01*
X712348Y5520797D01*
G37*
G36*
X4843977Y5438635D02*
G01*
X4843977Y5244023D01*
X4584023Y5244023D01*
X4584023Y5653977D01*
X4628635Y5653977D01*
X4843977Y5438635D01*
G37*
G36*
X5493977Y5244023D02*
G01*
X5234023Y5244023D01*
X5234023Y5438635D01*
X5449365Y5653977D01*
X5493977Y5653977D01*
X5493977Y5244023D01*
G37*
G36*
X1893977Y5454023D02*
G01*
X1849365Y5454023D01*
X1634023Y5669365D01*
X1634023Y5863977D01*
X1893977Y5863977D01*
X1893977Y5454023D01*
G37*
G36*
X1243977Y5669365D02*
G01*
X1028635Y5454023D01*
X984023Y5454023D01*
X984023Y5863977D01*
X1243977Y5863977D01*
X1243977Y5669365D01*
G37*
G36*
X5413612Y5879000D02*
G01*
X5039000Y5504388D01*
X4664388Y5879000D01*
X5039000Y6253612D01*
X5413612Y5879000D01*
G37*
G36*
X16152348Y6100797D02*
G01*
X16152350Y6100796D01*
X16152351Y6100796D01*
X16178682Y6089889D01*
X16198111Y6081841D01*
X16239297Y6054322D01*
X16274322Y6019297D01*
X16293219Y5991015D01*
X16301841Y5978111D01*
X16317674Y5939889D01*
X16320797Y5932348D01*
X16330460Y5883767D01*
X16330460Y5834233D01*
X16320797Y5785652D01*
X16301841Y5739889D01*
X16274322Y5698703D01*
X16239297Y5663678D01*
X16224778Y5653977D01*
X16198111Y5636159D01*
X16152351Y5617204D01*
X16152350Y5617204D01*
X16152348Y5617203D01*
X16103767Y5607540D01*
X16054233Y5607540D01*
X16005652Y5617203D01*
X16005650Y5617204D01*
X16005649Y5617204D01*
X15959889Y5636159D01*
X15933222Y5653977D01*
X15918703Y5663678D01*
X15883678Y5698703D01*
X15856159Y5739889D01*
X15837203Y5785652D01*
X15827540Y5834233D01*
X15827540Y5883767D01*
X15837203Y5932348D01*
X15840327Y5939889D01*
X15856159Y5978111D01*
X15864781Y5991015D01*
X15883678Y6019297D01*
X15918703Y6054322D01*
X15959889Y6081841D01*
X15979318Y6089889D01*
X16005649Y6100796D01*
X16005650Y6100796D01*
X16005652Y6100797D01*
X16054233Y6110460D01*
X16103767Y6110460D01*
X16152348Y6100797D01*
G37*
G36*
X11683468Y6159461D02*
G01*
X11683470Y6159460D01*
X11683471Y6159460D01*
X11713807Y6146894D01*
X11729231Y6140505D01*
X11770417Y6112986D01*
X11805442Y6077961D01*
X11821236Y6054323D01*
X11832961Y6036775D01*
X11850776Y5993768D01*
X11851917Y5991012D01*
X11861580Y5942431D01*
X11861580Y5892897D01*
X11855828Y5863977D01*
X11851916Y5844313D01*
X11840687Y5817204D01*
X11832961Y5798553D01*
X11805442Y5757367D01*
X11770417Y5722342D01*
X11763230Y5717540D01*
X11729231Y5694823D01*
X11683471Y5675868D01*
X11683470Y5675868D01*
X11683468Y5675867D01*
X11634887Y5666204D01*
X11585353Y5666204D01*
X11536772Y5675867D01*
X11536770Y5675868D01*
X11536769Y5675868D01*
X11491009Y5694823D01*
X11457010Y5717540D01*
X11449823Y5722342D01*
X11414798Y5757367D01*
X11387279Y5798553D01*
X11379553Y5817204D01*
X11368324Y5844313D01*
X11364413Y5863977D01*
X11358660Y5892897D01*
X11358660Y5942431D01*
X11368323Y5991012D01*
X11369465Y5993768D01*
X11387279Y6036775D01*
X11399004Y6054323D01*
X11414798Y6077961D01*
X11449823Y6112986D01*
X11491009Y6140505D01*
X11506433Y6146894D01*
X11536769Y6159460D01*
X11536770Y6159460D01*
X11536772Y6159461D01*
X11585353Y6169124D01*
X11634887Y6169124D01*
X11683468Y6159461D01*
G37*
G36*
X14170348Y6210797D02*
G01*
X14170350Y6210796D01*
X14170351Y6210796D01*
X14216111Y6191841D01*
X14257297Y6164322D01*
X14292322Y6129297D01*
X14319841Y6088111D01*
X14338797Y6042348D01*
X14348460Y5993767D01*
X14348460Y5944233D01*
X14339106Y5897203D01*
X14338796Y5895649D01*
X14326580Y5866159D01*
X14319841Y5849889D01*
X14292322Y5808703D01*
X14257297Y5773678D01*
X14232888Y5757369D01*
X14216111Y5746159D01*
X14170351Y5727204D01*
X14170350Y5727204D01*
X14170348Y5727203D01*
X14121767Y5717540D01*
X14072233Y5717540D01*
X14023652Y5727203D01*
X14023650Y5727204D01*
X14023649Y5727204D01*
X13977889Y5746159D01*
X13961112Y5757369D01*
X13936703Y5773678D01*
X13901678Y5808703D01*
X13874159Y5849889D01*
X13867420Y5866159D01*
X13855204Y5895649D01*
X13854895Y5897203D01*
X13845540Y5944233D01*
X13845540Y5993767D01*
X13855203Y6042348D01*
X13874159Y6088111D01*
X13901678Y6129297D01*
X13936703Y6164322D01*
X13977889Y6191841D01*
X14023649Y6210796D01*
X14023650Y6210796D01*
X14023652Y6210797D01*
X14072233Y6220460D01*
X14121767Y6220460D01*
X14170348Y6210797D01*
G37*
G36*
X18996348Y6210797D02*
G01*
X18996350Y6210796D01*
X18996351Y6210796D01*
X19042111Y6191841D01*
X19083297Y6164322D01*
X19118322Y6129297D01*
X19145841Y6088111D01*
X19164797Y6042348D01*
X19174460Y5993767D01*
X19174460Y5944233D01*
X19165106Y5897203D01*
X19164796Y5895649D01*
X19152580Y5866159D01*
X19145841Y5849889D01*
X19118322Y5808703D01*
X19083297Y5773678D01*
X19058888Y5757369D01*
X19042111Y5746159D01*
X18996351Y5727204D01*
X18996350Y5727204D01*
X18996348Y5727203D01*
X18947767Y5717540D01*
X18898233Y5717540D01*
X18849652Y5727203D01*
X18849650Y5727204D01*
X18849649Y5727204D01*
X18803889Y5746159D01*
X18787112Y5757369D01*
X18762703Y5773678D01*
X18727678Y5808703D01*
X18700159Y5849889D01*
X18693420Y5866159D01*
X18681204Y5895649D01*
X18680895Y5897203D01*
X18671540Y5944233D01*
X18671540Y5993767D01*
X18681203Y6042348D01*
X18700159Y6088111D01*
X18727678Y6129297D01*
X18762703Y6164322D01*
X18803889Y6191841D01*
X18849649Y6210796D01*
X18849650Y6210796D01*
X18849652Y6210797D01*
X18898233Y6220460D01*
X18947767Y6220460D01*
X18996348Y6210797D01*
G37*
G36*
X18183548Y6439397D02*
G01*
X18183550Y6439396D01*
X18183551Y6439396D01*
X18229311Y6420441D01*
X18270497Y6392922D01*
X18305522Y6357897D01*
X18308283Y6353765D01*
X18333041Y6316711D01*
X18349267Y6277540D01*
X18351997Y6270948D01*
X18361660Y6222367D01*
X18361660Y6172833D01*
X18353872Y6133677D01*
X18351996Y6124249D01*
X18342281Y6100796D01*
X18333041Y6078489D01*
X18305522Y6037303D01*
X18270497Y6002278D01*
X18245614Y5985652D01*
X18229311Y5974759D01*
X18183551Y5955804D01*
X18183550Y5955804D01*
X18183548Y5955803D01*
X18134967Y5946140D01*
X18085433Y5946140D01*
X18036852Y5955803D01*
X18036850Y5955804D01*
X18036849Y5955804D01*
X17991089Y5974759D01*
X17974786Y5985652D01*
X17949903Y6002278D01*
X17938421Y6013760D01*
X17935348Y6016282D01*
X17931835Y6018159D01*
X17928023Y6019316D01*
X17924059Y6019706D01*
X17920095Y6019316D01*
X17916283Y6018159D01*
X17912770Y6016282D01*
X17909691Y6013755D01*
X17907164Y6010676D01*
X17905287Y6007163D01*
X17904130Y6003351D01*
X17903740Y5999387D01*
X17904131Y5995422D01*
X17904460Y5993767D01*
X17904460Y5944233D01*
X17895106Y5897203D01*
X17894796Y5895649D01*
X17882580Y5866159D01*
X17875841Y5849889D01*
X17848322Y5808703D01*
X17813297Y5773678D01*
X17788888Y5757369D01*
X17772111Y5746159D01*
X17726351Y5727204D01*
X17726350Y5727204D01*
X17726348Y5727203D01*
X17677767Y5717540D01*
X17628233Y5717540D01*
X17579652Y5727203D01*
X17579650Y5727204D01*
X17579649Y5727204D01*
X17533889Y5746159D01*
X17517112Y5757369D01*
X17492703Y5773678D01*
X17457678Y5808703D01*
X17430159Y5849889D01*
X17423420Y5866159D01*
X17411204Y5895649D01*
X17410895Y5897203D01*
X17401540Y5944233D01*
X17401540Y5993767D01*
X17411203Y6042348D01*
X17430159Y6088111D01*
X17457678Y6129297D01*
X17492703Y6164322D01*
X17533889Y6191841D01*
X17579649Y6210796D01*
X17579650Y6210796D01*
X17579652Y6210797D01*
X17628233Y6220460D01*
X17677767Y6220460D01*
X17726348Y6210797D01*
X17726350Y6210796D01*
X17726351Y6210796D01*
X17772111Y6191841D01*
X17813297Y6164322D01*
X17824779Y6152840D01*
X17827852Y6150318D01*
X17831365Y6148441D01*
X17835177Y6147284D01*
X17839141Y6146894D01*
X17843105Y6147284D01*
X17846917Y6148441D01*
X17850430Y6150318D01*
X17853509Y6152845D01*
X17856036Y6155924D01*
X17857913Y6159437D01*
X17859070Y6163249D01*
X17859460Y6167213D01*
X17859069Y6171178D01*
X17858740Y6172832D01*
X17858740Y6222367D01*
X17868403Y6270948D01*
X17871134Y6277540D01*
X17887359Y6316711D01*
X17912117Y6353765D01*
X17914878Y6357897D01*
X17949903Y6392922D01*
X17991089Y6420441D01*
X18036849Y6439396D01*
X18036850Y6439396D01*
X18036852Y6439397D01*
X18085433Y6449060D01*
X18134967Y6449060D01*
X18183548Y6439397D01*
G37*
G36*
X5962348Y6300797D02*
G01*
X5962350Y6300796D01*
X5962351Y6300796D01*
X6002336Y6284233D01*
X6008111Y6281841D01*
X6049297Y6254322D01*
X6084322Y6219297D01*
X6111841Y6178111D01*
X6129429Y6135652D01*
X6130797Y6132348D01*
X6140460Y6083767D01*
X6140460Y6034233D01*
X6130898Y5986159D01*
X6130796Y5985649D01*
X6113410Y5943677D01*
X6111841Y5939889D01*
X6084322Y5898703D01*
X6049297Y5863678D01*
X6010178Y5837540D01*
X6008111Y5836159D01*
X5962351Y5817204D01*
X5962350Y5817204D01*
X5962348Y5817203D01*
X5913767Y5807540D01*
X5864233Y5807540D01*
X5815652Y5817203D01*
X5815650Y5817204D01*
X5815649Y5817204D01*
X5769889Y5836159D01*
X5767822Y5837540D01*
X5728703Y5863678D01*
X5693678Y5898703D01*
X5666159Y5939889D01*
X5664590Y5943677D01*
X5647204Y5985649D01*
X5647103Y5986159D01*
X5637540Y6034233D01*
X5637540Y6083767D01*
X5647203Y6132348D01*
X5648572Y6135652D01*
X5666159Y6178111D01*
X5693678Y6219297D01*
X5728703Y6254322D01*
X5769889Y6281841D01*
X5775664Y6284233D01*
X5815649Y6300796D01*
X5815650Y6300796D01*
X5815652Y6300797D01*
X5864233Y6310460D01*
X5913767Y6310460D01*
X5962348Y6300797D01*
G37*
G36*
X4202348Y6330797D02*
G01*
X4202350Y6330796D01*
X4202351Y6330796D01*
X4229850Y6319405D01*
X4248111Y6311841D01*
X4289297Y6284322D01*
X4324322Y6249297D01*
X4349008Y6212351D01*
X4351841Y6208111D01*
X4369980Y6164322D01*
X4370797Y6162348D01*
X4380460Y6113767D01*
X4380460Y6064233D01*
X4370898Y6016159D01*
X4370796Y6015649D01*
X4358580Y5986159D01*
X4351841Y5969889D01*
X4324322Y5928703D01*
X4289297Y5893678D01*
X4267329Y5879000D01*
X4248111Y5866159D01*
X4202351Y5847204D01*
X4202350Y5847204D01*
X4202348Y5847203D01*
X4153767Y5837540D01*
X4104233Y5837540D01*
X4055652Y5847203D01*
X4055650Y5847204D01*
X4055649Y5847204D01*
X4009889Y5866159D01*
X3990671Y5879000D01*
X3968703Y5893678D01*
X3933678Y5928703D01*
X3906159Y5969889D01*
X3899420Y5986159D01*
X3887204Y6015649D01*
X3887103Y6016159D01*
X3877540Y6064233D01*
X3877540Y6113767D01*
X3887203Y6162348D01*
X3888021Y6164322D01*
X3906159Y6208111D01*
X3908992Y6212351D01*
X3933678Y6249297D01*
X3968703Y6284322D01*
X4009889Y6311841D01*
X4028150Y6319405D01*
X4055649Y6330796D01*
X4055650Y6330796D01*
X4055652Y6330797D01*
X4104233Y6340460D01*
X4153767Y6340460D01*
X4202348Y6330797D01*
G37*
G36*
X17022348Y6380797D02*
G01*
X17022350Y6380796D01*
X17022351Y6380796D01*
X17050111Y6369297D01*
X17068111Y6361841D01*
X17109297Y6334322D01*
X17144322Y6299297D01*
X17144323Y6299295D01*
X17171841Y6258111D01*
X17190016Y6214235D01*
X17190797Y6212348D01*
X17200460Y6163767D01*
X17200460Y6114233D01*
X17191106Y6067203D01*
X17190796Y6065649D01*
X17181145Y6042351D01*
X17171841Y6019889D01*
X17144322Y5978703D01*
X17109297Y5943678D01*
X17092340Y5932348D01*
X17068111Y5916159D01*
X17022351Y5897204D01*
X17022350Y5897204D01*
X17022348Y5897203D01*
X16973767Y5887540D01*
X16924233Y5887540D01*
X16875652Y5897203D01*
X16875650Y5897204D01*
X16875649Y5897204D01*
X16829889Y5916159D01*
X16805660Y5932348D01*
X16788703Y5943678D01*
X16753678Y5978703D01*
X16726159Y6019889D01*
X16716855Y6042351D01*
X16707204Y6065649D01*
X16706895Y6067203D01*
X16697540Y6114233D01*
X16697540Y6163767D01*
X16707203Y6212348D01*
X16707985Y6214235D01*
X16726159Y6258111D01*
X16753677Y6299295D01*
X16753678Y6299297D01*
X16788703Y6334322D01*
X16829889Y6361841D01*
X16847889Y6369297D01*
X16875649Y6380796D01*
X16875650Y6380796D01*
X16875652Y6380797D01*
X16924233Y6390460D01*
X16973767Y6390460D01*
X17022348Y6380797D01*
G37*
G36*
X12552348Y6450797D02*
G01*
X12552350Y6450796D01*
X12552351Y6450796D01*
X12598111Y6431841D01*
X12639297Y6404322D01*
X12674322Y6369297D01*
X12684700Y6353765D01*
X12701841Y6328111D01*
X12720016Y6284235D01*
X12720797Y6282348D01*
X12730460Y6233767D01*
X12730460Y6184233D01*
X12723111Y6147284D01*
X12720796Y6135649D01*
X12711409Y6112987D01*
X12701841Y6089889D01*
X12674322Y6048703D01*
X12639297Y6013678D01*
X12614641Y5997204D01*
X12598111Y5986159D01*
X12552351Y5967204D01*
X12552350Y5967204D01*
X12552348Y5967203D01*
X12503767Y5957540D01*
X12454233Y5957540D01*
X12405652Y5967203D01*
X12405650Y5967204D01*
X12405649Y5967204D01*
X12359889Y5986159D01*
X12343359Y5997204D01*
X12318703Y6013678D01*
X12283678Y6048703D01*
X12256159Y6089889D01*
X12246591Y6112987D01*
X12237204Y6135649D01*
X12234890Y6147284D01*
X12227540Y6184233D01*
X12227540Y6233767D01*
X12237203Y6282348D01*
X12237985Y6284235D01*
X12256159Y6328111D01*
X12273300Y6353765D01*
X12283678Y6369297D01*
X12318703Y6404322D01*
X12359889Y6431841D01*
X12405649Y6450796D01*
X12405650Y6450796D01*
X12405652Y6450797D01*
X12454233Y6460460D01*
X12503767Y6460460D01*
X12552348Y6450797D01*
G37*
G36*
X13152348Y6480797D02*
G01*
X13152350Y6480796D01*
X13152351Y6480796D01*
X13180111Y6469297D01*
X13198111Y6461841D01*
X13239297Y6434322D01*
X13274322Y6399297D01*
X13285645Y6382351D01*
X13301841Y6358111D01*
X13317891Y6319365D01*
X13320797Y6312348D01*
X13330460Y6263767D01*
X13330460Y6214233D01*
X13321404Y6168703D01*
X13320796Y6165649D01*
X13313668Y6148441D01*
X13301841Y6119889D01*
X13274322Y6078703D01*
X13239297Y6043678D01*
X13225164Y6034235D01*
X13198111Y6016159D01*
X13152351Y5997204D01*
X13152350Y5997204D01*
X13152348Y5997203D01*
X13103767Y5987540D01*
X13054233Y5987540D01*
X13005652Y5997203D01*
X13005650Y5997204D01*
X13005649Y5997204D01*
X12959889Y6016159D01*
X12932836Y6034235D01*
X12918703Y6043678D01*
X12883678Y6078703D01*
X12856159Y6119889D01*
X12844332Y6148441D01*
X12837204Y6165649D01*
X12836597Y6168703D01*
X12827540Y6214233D01*
X12827540Y6263767D01*
X12837203Y6312348D01*
X12840110Y6319365D01*
X12856159Y6358111D01*
X12872355Y6382351D01*
X12883678Y6399297D01*
X12918703Y6434322D01*
X12959889Y6461841D01*
X12977889Y6469297D01*
X13005649Y6480796D01*
X13005650Y6480796D01*
X13005652Y6480797D01*
X13054233Y6490460D01*
X13103767Y6490460D01*
X13152348Y6480797D01*
G37*
G36*
X15122348Y6550797D02*
G01*
X15122350Y6550796D01*
X15122351Y6550796D01*
X15168111Y6531841D01*
X15209297Y6504322D01*
X15244322Y6469297D01*
X15258478Y6448111D01*
X15271841Y6428111D01*
X15283777Y6399297D01*
X15290797Y6382348D01*
X15300460Y6333767D01*
X15300460Y6284233D01*
X15293511Y6249295D01*
X15290796Y6235649D01*
X15279389Y6208111D01*
X15271841Y6189889D01*
X15244322Y6148703D01*
X15209297Y6113678D01*
X15194847Y6104023D01*
X15168111Y6086159D01*
X15122351Y6067204D01*
X15122350Y6067204D01*
X15122348Y6067203D01*
X15073767Y6057540D01*
X15024233Y6057540D01*
X14975652Y6067203D01*
X14975650Y6067204D01*
X14975649Y6067204D01*
X14929889Y6086159D01*
X14903153Y6104023D01*
X14888703Y6113678D01*
X14853678Y6148703D01*
X14826159Y6189889D01*
X14818611Y6208111D01*
X14807204Y6235649D01*
X14804490Y6249295D01*
X14797540Y6284233D01*
X14797540Y6333767D01*
X14807203Y6382348D01*
X14814224Y6399297D01*
X14826159Y6428111D01*
X14839522Y6448111D01*
X14853678Y6469297D01*
X14888703Y6504322D01*
X14929889Y6531841D01*
X14975649Y6550796D01*
X14975650Y6550796D01*
X14975652Y6550797D01*
X15024233Y6560460D01*
X15073767Y6560460D01*
X15122348Y6550797D01*
G37*
G36*
X7362348Y6570797D02*
G01*
X7362350Y6570796D01*
X7362351Y6570796D01*
X7403461Y6553767D01*
X7408111Y6551841D01*
X7449297Y6524322D01*
X7484322Y6489297D01*
X7502667Y6461841D01*
X7511841Y6448111D01*
X7529980Y6404322D01*
X7530797Y6402348D01*
X7540460Y6353767D01*
X7540460Y6304233D01*
X7530797Y6255652D01*
X7511841Y6209889D01*
X7484322Y6168703D01*
X7449297Y6133678D01*
X7414548Y6110460D01*
X7408111Y6106159D01*
X7362351Y6087204D01*
X7362350Y6087204D01*
X7362348Y6087203D01*
X7313767Y6077540D01*
X7264233Y6077540D01*
X7215652Y6087203D01*
X7215650Y6087204D01*
X7215649Y6087204D01*
X7169889Y6106159D01*
X7163452Y6110460D01*
X7128703Y6133678D01*
X7093678Y6168703D01*
X7066159Y6209889D01*
X7047203Y6255652D01*
X7037540Y6304233D01*
X7037540Y6353767D01*
X7047203Y6402348D01*
X7048021Y6404322D01*
X7066159Y6448111D01*
X7075333Y6461841D01*
X7093678Y6489297D01*
X7128703Y6524322D01*
X7169889Y6551841D01*
X7174539Y6553767D01*
X7215649Y6570796D01*
X7215650Y6570796D01*
X7215652Y6570797D01*
X7264233Y6580460D01*
X7313767Y6580460D01*
X7362348Y6570797D01*
G37*
G36*
X4843977Y6319365D02*
G01*
X4628635Y6104023D01*
X4584023Y6104023D01*
X4584023Y6513977D01*
X4843977Y6513977D01*
X4843977Y6319365D01*
G37*
G36*
X5493977Y6104023D02*
G01*
X5449365Y6104023D01*
X5234023Y6319365D01*
X5234023Y6513977D01*
X5493977Y6513977D01*
X5493977Y6104023D01*
G37*
G36*
X10012348Y6770797D02*
G01*
X10012350Y6770796D01*
X10012351Y6770796D01*
X10048911Y6755652D01*
X10058111Y6751841D01*
X10099297Y6724322D01*
X10134322Y6689297D01*
X10148081Y6668705D01*
X10161841Y6648111D01*
X10179219Y6606159D01*
X10180797Y6602348D01*
X10190460Y6553767D01*
X10190460Y6504233D01*
X10183511Y6469295D01*
X10180796Y6455649D01*
X10171962Y6434323D01*
X10161841Y6409889D01*
X10134322Y6368703D01*
X10099297Y6333678D01*
X10067378Y6312351D01*
X10058111Y6306159D01*
X10012351Y6287204D01*
X10012350Y6287204D01*
X10012348Y6287203D01*
X9963767Y6277540D01*
X9914233Y6277540D01*
X9865652Y6287203D01*
X9865650Y6287204D01*
X9865649Y6287204D01*
X9819889Y6306159D01*
X9810622Y6312351D01*
X9778703Y6333678D01*
X9743678Y6368703D01*
X9716159Y6409889D01*
X9706038Y6434323D01*
X9697204Y6455649D01*
X9694490Y6469295D01*
X9687540Y6504233D01*
X9687540Y6553767D01*
X9697203Y6602348D01*
X9698782Y6606159D01*
X9716159Y6648111D01*
X9729919Y6668705D01*
X9743678Y6689297D01*
X9778703Y6724322D01*
X9819889Y6751841D01*
X9829089Y6755652D01*
X9865649Y6770796D01*
X9865650Y6770796D01*
X9865652Y6770797D01*
X9914233Y6780460D01*
X9963767Y6780460D01*
X10012348Y6770797D01*
G37*
G36*
X2487260Y6330740D02*
G01*
X1790740Y6330740D01*
X1790740Y7127260D01*
X2487260Y7127260D01*
X2487260Y6330740D01*
G37*
G36*
X1487260Y6330740D02*
G01*
X790740Y6330740D01*
X790740Y7127260D01*
X1487260Y7127260D01*
X1487260Y6330740D01*
G37*
G36*
X11032348Y7070797D02*
G01*
X11032350Y7070796D01*
X11032351Y7070796D01*
X11078111Y7051841D01*
X11119297Y7024322D01*
X11154322Y6989297D01*
X11181841Y6948111D01*
X11200797Y6902348D01*
X11210460Y6853767D01*
X11210460Y6804233D01*
X11204775Y6775649D01*
X11200796Y6755649D01*
X11185983Y6719889D01*
X11181841Y6709889D01*
X11154322Y6668703D01*
X11119297Y6633678D01*
X11093077Y6616159D01*
X11078111Y6606159D01*
X11032351Y6587204D01*
X11032350Y6587204D01*
X11032348Y6587203D01*
X10983767Y6577540D01*
X10934233Y6577540D01*
X10885652Y6587203D01*
X10885650Y6587204D01*
X10885649Y6587204D01*
X10839889Y6606159D01*
X10824923Y6616159D01*
X10798703Y6633678D01*
X10763678Y6668703D01*
X10736159Y6709889D01*
X10732017Y6719889D01*
X10717204Y6755649D01*
X10713226Y6775649D01*
X10707540Y6804233D01*
X10707540Y6853767D01*
X10717203Y6902348D01*
X10736159Y6948111D01*
X10763678Y6989297D01*
X10798703Y7024322D01*
X10839889Y7051841D01*
X10885649Y7070796D01*
X10885650Y7070796D01*
X10885652Y7070797D01*
X10934233Y7080460D01*
X10983767Y7080460D01*
X11032348Y7070797D01*
G37*
G36*
X15402348Y7080797D02*
G01*
X15402350Y7080796D01*
X15402351Y7080796D01*
X15426490Y7070797D01*
X15448111Y7061841D01*
X15489297Y7034322D01*
X15524322Y6999297D01*
X15551841Y6958111D01*
X15570797Y6912348D01*
X15580460Y6863767D01*
X15580460Y6814233D01*
X15570797Y6765652D01*
X15551841Y6719889D01*
X15524322Y6678703D01*
X15489297Y6643678D01*
X15474329Y6633677D01*
X15448111Y6616159D01*
X15402351Y6597204D01*
X15402350Y6597204D01*
X15402348Y6597203D01*
X15353767Y6587540D01*
X15304233Y6587540D01*
X15255652Y6597203D01*
X15255650Y6597204D01*
X15255649Y6597204D01*
X15209889Y6616159D01*
X15183671Y6633677D01*
X15168703Y6643678D01*
X15133678Y6678703D01*
X15106159Y6719889D01*
X15087203Y6765652D01*
X15077540Y6814233D01*
X15077540Y6863767D01*
X15087203Y6912348D01*
X15106159Y6958111D01*
X15133678Y6999297D01*
X15168703Y7034322D01*
X15209889Y7061841D01*
X15231510Y7070797D01*
X15255649Y7080796D01*
X15255650Y7080796D01*
X15255652Y7080797D01*
X15304233Y7090460D01*
X15353767Y7090460D01*
X15402348Y7080797D01*
G37*
G36*
X5522348Y7080797D02*
G01*
X5522350Y7080796D01*
X5522351Y7080796D01*
X5546490Y7070797D01*
X5568111Y7061841D01*
X5609297Y7034322D01*
X5644322Y6999297D01*
X5671841Y6958111D01*
X5690797Y6912348D01*
X5700460Y6863767D01*
X5700460Y6814233D01*
X5690797Y6765652D01*
X5671841Y6719889D01*
X5644322Y6678703D01*
X5609297Y6643678D01*
X5594329Y6633677D01*
X5568111Y6616159D01*
X5522351Y6597204D01*
X5522350Y6597204D01*
X5522348Y6597203D01*
X5473767Y6587540D01*
X5424233Y6587540D01*
X5375652Y6597203D01*
X5375650Y6597204D01*
X5375649Y6597204D01*
X5329889Y6616159D01*
X5303671Y6633677D01*
X5288703Y6643678D01*
X5253678Y6678703D01*
X5226159Y6719889D01*
X5207203Y6765652D01*
X5197540Y6814233D01*
X5197540Y6863767D01*
X5207203Y6912348D01*
X5226159Y6958111D01*
X5253678Y6999297D01*
X5288703Y7034322D01*
X5329889Y7061841D01*
X5351510Y7070797D01*
X5375649Y7080796D01*
X5375650Y7080796D01*
X5375652Y7080797D01*
X5424233Y7090460D01*
X5473767Y7090460D01*
X5522348Y7080797D01*
G37*
G36*
X4662348Y7090797D02*
G01*
X4662350Y7090796D01*
X4662351Y7090796D01*
X4691540Y7078705D01*
X4708111Y7071841D01*
X4749297Y7044322D01*
X4784322Y7009297D01*
X4798859Y6987540D01*
X4811841Y6968111D01*
X4820126Y6948111D01*
X4830797Y6922348D01*
X4840460Y6873767D01*
X4840460Y6824233D01*
X4830797Y6775652D01*
X4811841Y6729889D01*
X4784322Y6688703D01*
X4749297Y6653678D01*
X4734329Y6643677D01*
X4708111Y6626159D01*
X4662351Y6607204D01*
X4662350Y6607204D01*
X4662348Y6607203D01*
X4613767Y6597540D01*
X4564233Y6597540D01*
X4515652Y6607203D01*
X4515650Y6607204D01*
X4515649Y6607204D01*
X4469889Y6626159D01*
X4443671Y6643677D01*
X4428703Y6653678D01*
X4393678Y6688703D01*
X4366159Y6729889D01*
X4347203Y6775652D01*
X4337540Y6824233D01*
X4337540Y6873767D01*
X4347203Y6922348D01*
X4357875Y6948111D01*
X4366159Y6968111D01*
X4379141Y6987540D01*
X4393678Y7009297D01*
X4428703Y7044322D01*
X4469889Y7071841D01*
X4486460Y7078705D01*
X4515649Y7090796D01*
X4515650Y7090796D01*
X4515652Y7090797D01*
X4564233Y7100460D01*
X4613767Y7100460D01*
X4662348Y7090797D01*
G37*
G36*
X15948348Y7480797D02*
G01*
X15948350Y7480796D01*
X15948351Y7480796D01*
X15977540Y7468705D01*
X15994111Y7461841D01*
X16035297Y7434322D01*
X16070322Y7399297D01*
X16097841Y7358111D01*
X16116797Y7312348D01*
X16126460Y7263767D01*
X16126460Y7214233D01*
X16116797Y7165652D01*
X16097841Y7119889D01*
X16070322Y7078703D01*
X16035297Y7043678D01*
X16006328Y7024322D01*
X15994111Y7016159D01*
X15948351Y6997204D01*
X15948350Y6997204D01*
X15948348Y6997203D01*
X15899767Y6987540D01*
X15850233Y6987540D01*
X15801652Y6997203D01*
X15801650Y6997204D01*
X15801649Y6997204D01*
X15755889Y7016159D01*
X15743672Y7024322D01*
X15714703Y7043678D01*
X15679678Y7078703D01*
X15652159Y7119889D01*
X15633203Y7165652D01*
X15623540Y7214233D01*
X15623540Y7263767D01*
X15633203Y7312348D01*
X15652159Y7358111D01*
X15679678Y7399297D01*
X15714703Y7434322D01*
X15755889Y7461841D01*
X15772460Y7468705D01*
X15801649Y7480796D01*
X15801650Y7480796D01*
X15801652Y7480797D01*
X15850233Y7490460D01*
X15899767Y7490460D01*
X15948348Y7480797D01*
G37*
G36*
X11012348Y7620797D02*
G01*
X11012350Y7620796D01*
X11012351Y7620796D01*
X11052336Y7604233D01*
X11058111Y7601841D01*
X11099297Y7574322D01*
X11134322Y7539297D01*
X11134323Y7539295D01*
X11161841Y7498111D01*
X11174023Y7468703D01*
X11180797Y7452348D01*
X11190460Y7403767D01*
X11190460Y7354233D01*
X11180797Y7305652D01*
X11161841Y7259889D01*
X11134322Y7218703D01*
X11099297Y7183678D01*
X11072314Y7165649D01*
X11058111Y7156159D01*
X11012351Y7137204D01*
X11012350Y7137204D01*
X11012348Y7137203D01*
X10963767Y7127540D01*
X10914233Y7127540D01*
X10865652Y7137203D01*
X10865650Y7137204D01*
X10865649Y7137204D01*
X10819889Y7156159D01*
X10805686Y7165649D01*
X10778703Y7183678D01*
X10743678Y7218703D01*
X10716159Y7259889D01*
X10697203Y7305652D01*
X10687540Y7354233D01*
X10687540Y7403767D01*
X10697203Y7452348D01*
X10703978Y7468703D01*
X10716159Y7498111D01*
X10743677Y7539295D01*
X10743678Y7539297D01*
X10778703Y7574322D01*
X10819889Y7601841D01*
X10825664Y7604233D01*
X10865649Y7620796D01*
X10865650Y7620796D01*
X10865652Y7620797D01*
X10914233Y7630460D01*
X10963767Y7630460D01*
X11012348Y7620797D01*
G37*
G36*
X2062348Y7870797D02*
G01*
X2062350Y7870796D01*
X2062351Y7870796D01*
X2103461Y7853767D01*
X2108111Y7851841D01*
X2149297Y7824322D01*
X2184322Y7789297D01*
X2184323Y7789295D01*
X2211841Y7748111D01*
X2227674Y7709889D01*
X2230797Y7702348D01*
X2240460Y7653767D01*
X2240460Y7604233D01*
X2234511Y7574322D01*
X2230796Y7555649D01*
X2224022Y7539295D01*
X2211841Y7509889D01*
X2184322Y7468703D01*
X2149297Y7433678D01*
X2108111Y7406159D01*
X2062351Y7387204D01*
X2062350Y7387204D01*
X2062348Y7387203D01*
X2013767Y7377540D01*
X1964233Y7377540D01*
X1915652Y7387203D01*
X1915650Y7387204D01*
X1915649Y7387204D01*
X1869889Y7406159D01*
X1828703Y7433678D01*
X1793678Y7468703D01*
X1766159Y7509889D01*
X1753978Y7539295D01*
X1747204Y7555649D01*
X1743490Y7574322D01*
X1737540Y7604233D01*
X1737540Y7653767D01*
X1747203Y7702348D01*
X1750327Y7709889D01*
X1766159Y7748111D01*
X1793677Y7789295D01*
X1793678Y7789297D01*
X1828703Y7824322D01*
X1869889Y7851841D01*
X1874539Y7853767D01*
X1915649Y7870796D01*
X1915650Y7870796D01*
X1915652Y7870797D01*
X1964233Y7880460D01*
X2013767Y7880460D01*
X2062348Y7870797D01*
G37*
G36*
X7362348Y8070797D02*
G01*
X7362350Y8070796D01*
X7362351Y8070796D01*
X7408111Y8051841D01*
X7449297Y8024322D01*
X7484322Y7989297D01*
X7511841Y7948111D01*
X7530797Y7902348D01*
X7540460Y7853767D01*
X7540460Y7804233D01*
X7537489Y7789295D01*
X7530796Y7755649D01*
X7511841Y7709889D01*
X7484322Y7668703D01*
X7449297Y7633678D01*
X7430019Y7620797D01*
X7408111Y7606159D01*
X7362351Y7587204D01*
X7362350Y7587204D01*
X7362348Y7587203D01*
X7313767Y7577540D01*
X7264233Y7577540D01*
X7215652Y7587203D01*
X7215650Y7587204D01*
X7215649Y7587204D01*
X7169889Y7606159D01*
X7147981Y7620797D01*
X7128703Y7633678D01*
X7093678Y7668703D01*
X7066159Y7709889D01*
X7047204Y7755649D01*
X7040512Y7789295D01*
X7037540Y7804233D01*
X7037540Y7853767D01*
X7047203Y7902348D01*
X7066159Y7948111D01*
X7093678Y7989297D01*
X7128703Y8024322D01*
X7169889Y8051841D01*
X7215649Y8070796D01*
X7215650Y8070796D01*
X7215652Y8070797D01*
X7264233Y8080460D01*
X7313767Y8080460D01*
X7362348Y8070797D01*
G37*
G36*
X1051255Y9043884D02*
G01*
X1051257Y9043883D01*
X1051258Y9043883D01*
X1101871Y9022918D01*
X1152488Y9001952D01*
X1243595Y8941076D01*
X1321076Y8863595D01*
X1381952Y8772488D01*
X1423884Y8671255D01*
X1445260Y8563787D01*
X1445260Y8454213D01*
X1423884Y8346745D01*
X1381952Y8245512D01*
X1321076Y8154405D01*
X1243595Y8076924D01*
X1152488Y8016048D01*
X1101871Y7995082D01*
X1051258Y7974117D01*
X1051257Y7974117D01*
X1051255Y7974116D01*
X943787Y7952740D01*
X834213Y7952740D01*
X726745Y7974116D01*
X726743Y7974117D01*
X726742Y7974117D01*
X676129Y7995082D01*
X625512Y8016048D01*
X534405Y8076924D01*
X456924Y8154405D01*
X396048Y8245512D01*
X354116Y8346745D01*
X332740Y8454213D01*
X332740Y8563787D01*
X354116Y8671255D01*
X396048Y8772488D01*
X456924Y8863595D01*
X534405Y8941076D01*
X625512Y9001952D01*
X676129Y9022918D01*
X726742Y9043883D01*
X726743Y9043883D01*
X726745Y9043884D01*
X834213Y9065260D01*
X943787Y9065260D01*
X1051255Y9043884D01*
G37*
G36*
X18831255Y9043884D02*
G01*
X18831257Y9043883D01*
X18831258Y9043883D01*
X18881871Y9022918D01*
X18932488Y9001952D01*
X19023595Y8941076D01*
X19101076Y8863595D01*
X19161952Y8772488D01*
X19203884Y8671255D01*
X19225260Y8563787D01*
X19225260Y8454213D01*
X19203884Y8346745D01*
X19161952Y8245512D01*
X19101076Y8154405D01*
X19023595Y8076924D01*
X18932488Y8016048D01*
X18881871Y7995082D01*
X18831258Y7974117D01*
X18831257Y7974117D01*
X18831255Y7974116D01*
X18723787Y7952740D01*
X18614213Y7952740D01*
X18506745Y7974116D01*
X18506743Y7974117D01*
X18506742Y7974117D01*
X18456129Y7995082D01*
X18405512Y8016048D01*
X18314405Y8076924D01*
X18236924Y8154405D01*
X18176048Y8245512D01*
X18134116Y8346745D01*
X18112740Y8454213D01*
X18112740Y8563787D01*
X18134116Y8671255D01*
X18176048Y8772488D01*
X18236924Y8863595D01*
X18314405Y8941076D01*
X18405512Y9001952D01*
X18456129Y9022918D01*
X18506742Y9043883D01*
X18506743Y9043883D01*
X18506745Y9043884D01*
X18614213Y9065260D01*
X18723787Y9065260D01*
X18831255Y9043884D01*
G37*
G36*
X16291255Y9043884D02*
G01*
X16291257Y9043883D01*
X16291258Y9043883D01*
X16341871Y9022918D01*
X16392488Y9001952D01*
X16483595Y8941076D01*
X16561076Y8863595D01*
X16621952Y8772488D01*
X16663884Y8671255D01*
X16685260Y8563787D01*
X16685260Y8454213D01*
X16663884Y8346745D01*
X16621952Y8245512D01*
X16561076Y8154405D01*
X16483595Y8076924D01*
X16392488Y8016048D01*
X16341871Y7995082D01*
X16291258Y7974117D01*
X16291257Y7974117D01*
X16291255Y7974116D01*
X16183787Y7952740D01*
X16074213Y7952740D01*
X15966745Y7974116D01*
X15966743Y7974117D01*
X15966742Y7974117D01*
X15916129Y7995082D01*
X15865512Y8016048D01*
X15774405Y8076924D01*
X15696924Y8154405D01*
X15636048Y8245512D01*
X15594116Y8346745D01*
X15572740Y8454213D01*
X15572740Y8563787D01*
X15594116Y8671255D01*
X15636048Y8772488D01*
X15696924Y8863595D01*
X15774405Y8941076D01*
X15865512Y9001952D01*
X15916129Y9022918D01*
X15966742Y9043883D01*
X15966743Y9043883D01*
X15966745Y9043884D01*
X16074213Y9065260D01*
X16183787Y9065260D01*
X16291255Y9043884D01*
G37*
G36*
X13751255Y9043884D02*
G01*
X13751257Y9043883D01*
X13751258Y9043883D01*
X13801871Y9022918D01*
X13852488Y9001952D01*
X13943595Y8941076D01*
X14021076Y8863595D01*
X14081952Y8772488D01*
X14123884Y8671255D01*
X14145260Y8563787D01*
X14145260Y8454213D01*
X14123884Y8346745D01*
X14081952Y8245512D01*
X14021076Y8154405D01*
X13943595Y8076924D01*
X13852488Y8016048D01*
X13801871Y7995082D01*
X13751258Y7974117D01*
X13751257Y7974117D01*
X13751255Y7974116D01*
X13643787Y7952740D01*
X13534213Y7952740D01*
X13426745Y7974116D01*
X13426743Y7974117D01*
X13426742Y7974117D01*
X13376129Y7995082D01*
X13325512Y8016048D01*
X13234405Y8076924D01*
X13156924Y8154405D01*
X13096048Y8245512D01*
X13054116Y8346745D01*
X13032740Y8454213D01*
X13032740Y8563787D01*
X13054116Y8671255D01*
X13096048Y8772488D01*
X13156924Y8863595D01*
X13234405Y8941076D01*
X13325512Y9001952D01*
X13376129Y9022918D01*
X13426742Y9043883D01*
X13426743Y9043883D01*
X13426745Y9043884D01*
X13534213Y9065260D01*
X13643787Y9065260D01*
X13751255Y9043884D01*
G37*
G36*
X11211255Y9043884D02*
G01*
X11211257Y9043883D01*
X11211258Y9043883D01*
X11261871Y9022918D01*
X11312488Y9001952D01*
X11403595Y8941076D01*
X11481076Y8863595D01*
X11541952Y8772488D01*
X11583884Y8671255D01*
X11605260Y8563787D01*
X11605260Y8454213D01*
X11583884Y8346745D01*
X11541952Y8245512D01*
X11481076Y8154405D01*
X11403595Y8076924D01*
X11312488Y8016048D01*
X11261871Y7995082D01*
X11211258Y7974117D01*
X11211257Y7974117D01*
X11211255Y7974116D01*
X11103787Y7952740D01*
X10994213Y7952740D01*
X10886745Y7974116D01*
X10886743Y7974117D01*
X10886742Y7974117D01*
X10836129Y7995082D01*
X10785512Y8016048D01*
X10694405Y8076924D01*
X10616924Y8154405D01*
X10556048Y8245512D01*
X10514116Y8346745D01*
X10492740Y8454213D01*
X10492740Y8563787D01*
X10514116Y8671255D01*
X10556048Y8772488D01*
X10616924Y8863595D01*
X10694405Y8941076D01*
X10785512Y9001952D01*
X10836129Y9022918D01*
X10886742Y9043883D01*
X10886743Y9043883D01*
X10886745Y9043884D01*
X10994213Y9065260D01*
X11103787Y9065260D01*
X11211255Y9043884D01*
G37*
G36*
X8671255Y9043884D02*
G01*
X8671257Y9043883D01*
X8671258Y9043883D01*
X8721871Y9022918D01*
X8772488Y9001952D01*
X8863595Y8941076D01*
X8941076Y8863595D01*
X9001952Y8772488D01*
X9043884Y8671255D01*
X9065260Y8563787D01*
X9065260Y8454213D01*
X9043884Y8346745D01*
X9001952Y8245512D01*
X8941076Y8154405D01*
X8863595Y8076924D01*
X8772488Y8016048D01*
X8721871Y7995082D01*
X8671258Y7974117D01*
X8671257Y7974117D01*
X8671255Y7974116D01*
X8563787Y7952740D01*
X8454213Y7952740D01*
X8346745Y7974116D01*
X8346743Y7974117D01*
X8346742Y7974117D01*
X8296129Y7995082D01*
X8245512Y8016048D01*
X8154405Y8076924D01*
X8076924Y8154405D01*
X8016048Y8245512D01*
X7974116Y8346745D01*
X7952740Y8454213D01*
X7952740Y8563787D01*
X7974116Y8671255D01*
X8016048Y8772488D01*
X8076924Y8863595D01*
X8154405Y8941076D01*
X8245512Y9001952D01*
X8296129Y9022918D01*
X8346742Y9043883D01*
X8346743Y9043883D01*
X8346745Y9043884D01*
X8454213Y9065260D01*
X8563787Y9065260D01*
X8671255Y9043884D01*
G37*
G36*
X6131255Y9043884D02*
G01*
X6131257Y9043883D01*
X6131258Y9043883D01*
X6181871Y9022918D01*
X6232488Y9001952D01*
X6323595Y8941076D01*
X6401076Y8863595D01*
X6461952Y8772488D01*
X6503884Y8671255D01*
X6525260Y8563787D01*
X6525260Y8454213D01*
X6503884Y8346745D01*
X6461952Y8245512D01*
X6401076Y8154405D01*
X6323595Y8076924D01*
X6232488Y8016048D01*
X6181871Y7995082D01*
X6131258Y7974117D01*
X6131257Y7974117D01*
X6131255Y7974116D01*
X6023787Y7952740D01*
X5914213Y7952740D01*
X5806745Y7974116D01*
X5806743Y7974117D01*
X5806742Y7974117D01*
X5756129Y7995082D01*
X5705512Y8016048D01*
X5614405Y8076924D01*
X5536924Y8154405D01*
X5476048Y8245512D01*
X5434116Y8346745D01*
X5412740Y8454213D01*
X5412740Y8563787D01*
X5434116Y8671255D01*
X5476048Y8772488D01*
X5536924Y8863595D01*
X5614405Y8941076D01*
X5705512Y9001952D01*
X5756129Y9022918D01*
X5806742Y9043883D01*
X5806743Y9043883D01*
X5806745Y9043884D01*
X5914213Y9065260D01*
X6023787Y9065260D01*
X6131255Y9043884D01*
G37*
G36*
X3591255Y9043884D02*
G01*
X3591257Y9043883D01*
X3591258Y9043883D01*
X3641871Y9022918D01*
X3692488Y9001952D01*
X3783595Y8941076D01*
X3861076Y8863595D01*
X3921952Y8772488D01*
X3963884Y8671255D01*
X3985260Y8563787D01*
X3985260Y8454213D01*
X3963884Y8346745D01*
X3921952Y8245512D01*
X3861076Y8154405D01*
X3783595Y8076924D01*
X3692488Y8016048D01*
X3641871Y7995082D01*
X3591258Y7974117D01*
X3591257Y7974117D01*
X3591255Y7974116D01*
X3483787Y7952740D01*
X3374213Y7952740D01*
X3266745Y7974116D01*
X3266743Y7974117D01*
X3266742Y7974117D01*
X3216129Y7995082D01*
X3165512Y8016048D01*
X3074405Y8076924D01*
X2996924Y8154405D01*
X2936048Y8245512D01*
X2894116Y8346745D01*
X2872740Y8454213D01*
X2872740Y8563787D01*
X2894116Y8671255D01*
X2936048Y8772488D01*
X2996924Y8863595D01*
X3074405Y8941076D01*
X3165512Y9001952D01*
X3216129Y9022918D01*
X3266742Y9043883D01*
X3266743Y9043883D01*
X3266745Y9043884D01*
X3374213Y9065260D01*
X3483787Y9065260D01*
X3591255Y9043884D01*
G37*
M02*
