%TF.GenerationSoftware,KiCad,Pcbnew,5.1.5-1.fc31*%
%TF.CreationDate,2020-04-07T00:15:37-07:00*%
%TF.ProjectId,prom,70726f6d-2e6b-4696-9361-645f70636258,rev?*%
%TF.SameCoordinates,PX8461678PY580d428*%
%TF.FileFunction,Soldermask,Bot*%
%TF.FilePolarity,Negative*%
%FSLAX46Y46*%
G04 Gerber Fmt 4.6, Leading zero omitted, Abs format (unit mm)*
G04 Created by KiCad (PCBNEW 5.1.5-1.fc31) date 2020-04-07 00:15:37*
%MOMM*%
%LPD*%
G04 APERTURE LIST*
%ADD10C,1.112520*%
%ADD11R,0.696520X0.796520*%
%ADD12C,0.408000*%
%ADD13C,0.100000*%
%ADD14C,0.408000*%
G04 APERTURE END LIST*
D10*
%TO.C,J1*%
X889000Y8509000D03*
X3429000Y8509000D03*
X5969000Y8509000D03*
X8509000Y8509000D03*
X11049000Y8509000D03*
X13589000Y8509000D03*
X16129000Y8509000D03*
X18669000Y8509000D03*
X18669000Y889000D03*
X16129000Y889000D03*
X13589000Y889000D03*
X11049000Y889000D03*
X8509000Y889000D03*
X5969000Y889000D03*
X3429000Y889000D03*
X889000Y889000D03*
%TD*%
D11*
%TO.C,C1*%
X2139000Y6729000D03*
X1139000Y6729000D03*
%TD*%
%TO.C,C2*%
X1039000Y3649000D03*
X2039000Y3649000D03*
%TD*%
%TO.C,C3*%
X4659000Y4439000D03*
X5659000Y4439000D03*
%TD*%
%TO.C,R1*%
X11739000Y2129000D03*
X12739000Y2129000D03*
%TD*%
%TO.C,R2*%
X16989000Y3979000D03*
X17989000Y3979000D03*
%TD*%
D12*
%TO.C,TP1*%
X1949000Y2899000D03*
%TD*%
%TO.C,TP2*%
X6439000Y4879000D03*
%TD*%
%TO.C,TP3*%
X18259000Y2549000D03*
%TD*%
%TO.C,TP4*%
X17439000Y5029000D03*
%TD*%
%TO.C,TP5*%
X12309000Y1259000D03*
%TD*%
%TO.C,TP6*%
X17129000Y2089000D03*
%TD*%
%TO.C,TP7*%
X18559000Y4889000D03*
%TD*%
D13*
%TO.C,U1*%
G36*
X1839000Y4979000D02*
G01*
X1869000Y4979000D01*
X1869000Y4619000D01*
X1659000Y4619000D01*
X1659000Y4799000D01*
X1839000Y4979000D01*
G37*
G36*
X1439000Y5569000D02*
G01*
X1779000Y5229000D01*
X1439000Y4889000D01*
X1099000Y5229000D01*
X1439000Y5569000D01*
G37*
G36*
X1039000Y4979000D02*
G01*
X1219000Y4799000D01*
X1219000Y4619000D01*
X1009000Y4619000D01*
X1009000Y4979000D01*
X1039000Y4979000D01*
G37*
G36*
X1219000Y5839000D02*
G01*
X1219000Y5659000D01*
X1039000Y5479000D01*
X1009000Y5479000D01*
X1009000Y5839000D01*
X1219000Y5839000D01*
G37*
G36*
X1869000Y5839000D02*
G01*
X1869000Y5479000D01*
X1839000Y5479000D01*
X1659000Y5659000D01*
X1659000Y5839000D01*
X1869000Y5839000D01*
G37*
%TD*%
%TO.C,U2*%
G36*
X5439000Y5629000D02*
G01*
X5469000Y5629000D01*
X5469000Y5269000D01*
X5259000Y5269000D01*
X5259000Y5449000D01*
X5439000Y5629000D01*
G37*
G36*
X5039000Y6219000D02*
G01*
X5379000Y5879000D01*
X5039000Y5539000D01*
X4699000Y5879000D01*
X5039000Y6219000D01*
G37*
G36*
X4639000Y5629000D02*
G01*
X4819000Y5449000D01*
X4819000Y5269000D01*
X4609000Y5269000D01*
X4609000Y5629000D01*
X4639000Y5629000D01*
G37*
G36*
X4819000Y6489000D02*
G01*
X4819000Y6309000D01*
X4639000Y6129000D01*
X4609000Y6129000D01*
X4609000Y6489000D01*
X4819000Y6489000D01*
G37*
G36*
X5469000Y6489000D02*
G01*
X5469000Y6129000D01*
X5439000Y6129000D01*
X5259000Y6309000D01*
X5259000Y6489000D01*
X5469000Y6489000D01*
G37*
%TD*%
D14*
X7289000Y7829000D03*
X14839000Y1379000D03*
X9739000Y1329000D03*
X4639000Y1329000D03*
X2439000Y4529000D03*
X1989000Y7629000D03*
X969000Y2919000D03*
X4129000Y6089000D03*
X599000Y5329000D03*
X589000Y4639000D03*
X2299000Y5229000D03*
X5889000Y6062832D03*
X8139000Y4325257D03*
X13083511Y6272505D03*
X18218998Y6149000D03*
X4129000Y5195168D03*
X13039000Y4399000D03*
X4339000Y3679000D03*
X18789000Y3979000D03*
X4999000Y3089000D03*
X7298999Y6289000D03*
X9949000Y6529000D03*
X13436713Y1800552D03*
X14799000Y3059000D03*
X11534073Y5866867D03*
X10759000Y7509000D03*
X15929000Y7289000D03*
X5449000Y6954000D03*
X4589000Y6954000D03*
X11289000Y3354000D03*
X3964000Y4554000D03*
X13089000Y3704000D03*
X9564000Y3004000D03*
X8239000Y3079000D03*
X17569225Y5879527D03*
X18939000Y5554000D03*
X14097000Y6279000D03*
X12439000Y6249000D03*
X11009000Y1989000D03*
X16409004Y4639000D03*
X12139000Y4279000D03*
X16819000Y3119000D03*
X14129000Y3209000D03*
X15623488Y4843532D03*
X15739000Y3619000D03*
X15449000Y3069000D03*
X12365906Y3659000D03*
X13629000Y2459000D03*
X8889000Y3054000D03*
X6039000Y2579000D03*
X6849000Y4239000D03*
X10959000Y6874009D03*
X15199000Y6949000D03*
X16879000Y6059000D03*
X14919000Y6299000D03*
X11990413Y5146478D03*
X16079000Y5855257D03*
X11914000Y3204000D03*
M02*
